<svg xmlns="http://www.w3.org/2000/svg" xmlns:xlink="http://www.w3.org/1999/xlink" width="325" height="97" viewBox="0 0 325 97">
  <defs>
    <clipPath id="clip-path">
      <rect id="Rectangle_291" data-name="Rectangle 291" width="325" height="97" transform="translate(7271 9732)" fill="#fff"/>
    </clipPath>
  </defs>
  <g id="logo_f" transform="translate(-7271 -9732)" clip-path="url(#clip-path)">
    <g id="logofooter" transform="translate(7276 9735)">
      <path id="Path_1" data-name="Path 1" d="M231.838,344.915H211.613V335.2h31c.019.36.038.7.038,1.023,0,14.032.019,28.084-.019,42.116-.019,4.6-.814,9.052-3.409,12.991a17.909,17.909,0,0,1-13.294,8.105,25.94,25.94,0,0,1-21.8-6.874c-.246-.227-.53-.436-.833-.7,2.1-2.916,4.128-5.719,6.192-8.6.758.644,1.458,1.269,2.178,1.837a17.293,17.293,0,0,0,9.014,4.053,9.792,9.792,0,0,0,10.927-8.541,19.991,19.991,0,0,0,.189-2.822c.019-10.529,0-21.077,0-31.606C231.838,345.8,231.838,345.426,231.838,344.915Z" transform="translate(-203.3 -323.538)" fill="#fff"/>
      <path id="Path_2" data-name="Path 2" d="M646.1,447.4c1.78-2.14,3.447-4.147,5.189-6.23.322.265.644.492.947.739,4.071,3.3,8.6,5.492,13.938,5.605a10.164,10.164,0,0,0,6.8-1.856,5.359,5.359,0,0,0-.473-8.882c-2.481-1.534-5.321-2.045-8.067-2.841A59.263,59.263,0,0,1,655.569,431a13.119,13.119,0,0,1-5.927-18.426,12.666,12.666,0,0,1,7.632-6.154c8.844-2.841,17.025-1.193,24.542,4.147a4.4,4.4,0,0,0,.436.265c-1.515,2.14-2.954,4.166-4.393,6.211a21.362,21.362,0,0,0-12.5-4.393,11,11,0,0,0-5.946,1.193c-3.465,1.894-3.806,7.007-.4,9a31.848,31.848,0,0,0,7.1,2.727c3.522,1.06,7.139,1.78,10.453,3.522a13.335,13.335,0,0,1,4.28,20.149,15.936,15.936,0,0,1-10.984,5.681,29.185,29.185,0,0,1-23.141-7.139C646.517,447.641,646.308,447.547,646.1,447.4Z" transform="translate(-562.247 -380.152)" fill="#fff"/>
      <path id="Path_3" data-name="Path 3" d="M461.159,418h7.991c.019.265.057.549.057.814,0,9,.057,17.99-.057,26.966-.057,4.886-1.25,9.506-4.526,13.351-3.806,4.431-8.749,6.439-14.506,6.628a21.206,21.206,0,0,1-11.324-2.443c-5.53-3.106-8.465-7.935-9.336-14.108a45.548,45.548,0,0,1-.36-5.568c-.038-8.143-.019-16.286-.019-24.429v-1.174h8.086v1.06c0,8.56-.019,17.1,0,25.66a14.736,14.736,0,0,0,3.56,10.093c4.318,4.9,15.869,5.34,19.354-4.128a18.391,18.391,0,0,0,1.06-6.4V419.231C461.159,418.852,461.159,418.473,461.159,418Z" transform="translate(-386.32 -390.658)" fill="#fff"/>
      <path id="Path_4" data-name="Path 4" d="M1395.453,453.222h20.3v6.23h-20.3v11h23.331v6.533H1388.2V435.8h29.9v6.533h-22.668C1395.453,445.988,1395.453,449.548,1395.453,453.222Z" transform="translate(-1163.814 -405.087)" fill="#fff"/>
      <path id="Path_5" data-name="Path 5" d="M1220.418,478.609V462.021h-20.244v16.589H1193.3v-40.79h6.855v17.555H1220.4V437.8h6.893v40.791C1225.038,478.609,1222.785,478.609,1220.418,478.609Z" transform="translate(-1005.823 -406.708)" fill="#fff"/>
      <path id="Path_7" data-name="Path 7" d="M1571.121,298.931c.53.114.985.208,1.439.322,1.307.341,1.666.758,1.723,2.121.038,1,.038,2.026.038,3.03.019,6.874,0,13.767.038,20.641.019,5.927.114,11.855.151,17.8.019,2.083-.682,2.841-2.746,2.841-1.951,0-3.9-.095-5.852-.189-1.136-.057-1.553-.549-1.61-1.685-.019-.341-.019-.7-.019-1.042-.019-7.348-.038-14.714-.076-22.062q-.057-9.459-.114-18.937c-.019-1.969.208-2.291,2.178-2.575.985-.152,1.344-.511,1.306-1.572-.189-6.931-.3-13.881-.435-20.812a6.665,6.665,0,0,1,0-1.231c.133-.644.227-1.7.587-1.818a7.135,7.135,0,0,1,2.765-.019c.17.019.4.549.417.871.095,1.231.151,2.462.151,3.674.038,6.59.057,13.2.076,19.789C1571.121,298.344,1571.121,298.609,1571.121,298.931Z" transform="translate(-1306.4 -273.615)" fill="#fff"/>
      <path id="Path_8" data-name="Path 8" d="M885.735,465.459H877.8V420.9h7.935Z" transform="translate(-749.972 -393.558)" fill="#fff"/>
      <path id="Path_9" data-name="Path 9" d="M988.946,334.692v8.825c10.813-9.45,21.494-18.786,32.288-28.216.076.36.151.53.114.568q-20.367,22.185-40.847,44.483V334.673C983.341,334.692,986.086,334.692,988.946,334.692Z" transform="translate(-833.321 -307.406)" fill="#fff"/>
      <path id="Path_11" data-name="Path 11" d="M1028.2,530.568c1.78-1.932,3.465-3.768,5.094-5.568,1,.947,2.007,1.818,2.935,2.784q9.913,10.283,19.771,20.622a3.546,3.546,0,0,1,.492,1,4.994,4.994,0,0,1-1,.284c-2.234.038-4.469.019-6.7.076a5.673,5.673,0,0,1-4.45-1.951c-3.39-3.6-6.76-7.234-10.131-10.851C1032.233,534.866,1030.245,532.764,1028.2,530.568Z" transform="translate(-871.988 -477.395)" fill="#fff"/>
      <path id="Path_14" data-name="Path 14" d="M881.216,559.565V577.1h-8.37c-.095-1.174-.17-2.348-.265-3.731-8.162,7.442-16.229,14.79-24.3,22.137l-.284-.171a3.167,3.167,0,0,1,.436-.738c3.087-3.333,6.173-6.647,9.279-9.98q11.419-12.243,22.819-24.5a3.762,3.762,0,0,0,.454-.814A1,1,0,0,0,881.216,559.565Z" transform="translate(-725.913 -505.2)" fill="#fff"/>
      <g id="Group_472" data-name="Group 472" transform="translate(270.56 21.197)">
        <path id="Path_6" data-name="Path 6" d="M1736,385.595a18.922,18.922,0,0,1,15.755,6.4,27.53,27.53,0,0,1,7.121,15.945,30.706,30.706,0,0,1-3.011,17.914c-.568,1.117-1.288,2.159-1.95,3.238a4.36,4.36,0,0,1-.417.492c-.947-1.288-1.875-2.5-2.746-3.731a12.633,12.633,0,0,1-1.7-2.613c-.378-1.042-1.363-1.648-1.553-2.859-.152-.928-.985-1.742-1.458-2.632a3.776,3.776,0,0,1-.246-1.06c-.038-.17,0-.417-.095-.53a9.277,9.277,0,0,1-1.61-2.746c-.4-1.06-1.382-1.913-1.7-2.992-.454-1.534-1.288-2.916-1.742-4.412-.284-.985-1-1.8-1.118-2.708-.151-1.231-1.06-2.31-1-3.352a6.809,6.809,0,0,0-.776-2.765c-.114-.417.038-.89-.057-1.326-.246-1.269-.833-2.538-.739-3.787.095-1.307-.8-2.5-.265-3.806.075-.189-.057-.492-.133-.72C1736.4,386.882,1736.208,386.3,1736,385.595Z" transform="translate(-1716.311 -385.547)" fill="#fff"/>
        <path id="Path_10" data-name="Path 10" d="M1653.194,481.938a18,18,0,0,1-9.3-2.765,24.344,24.344,0,0,1-10.415-14.26,30.811,30.811,0,0,1,2.5-24.5l.341-.568a4.2,4.2,0,0,1,.284-.341c.227.8.89,1.363.322,2.2a.233.233,0,0,0-.038.189c.72,1.136.208,2.443.568,3.655a9.316,9.316,0,0,1,.739,3.693,4.555,4.555,0,0,0,.663,2.784c.057.151.189.36.151.436-.663.909.208,1.5.4,2.235a12.581,12.581,0,0,1,.227,1.477,2.1,2.1,0,0,0,.038.36c.511,1.155,1.042,2.31,1.534,3.466.208.473.284.985.473,1.477a7.115,7.115,0,0,0,.568,1.06c.265.417.7.757.379,1.326a.4.4,0,0,0,.019.36c.7,1.1,1.439,2.2,2.14,3.3a6.965,6.965,0,0,1,.3.947,7.155,7.155,0,0,0,.663,1.25c.284.379.833.625.417,1.231a.4.4,0,0,0,.019.36c.549.928,1.136,1.837,1.685,2.765l1.7,2.9a4.514,4.514,0,0,0,.227.417C1650.9,478.87,1652,480.328,1653.194,481.938Z" transform="translate(-1632.028 -429.283)" fill="#fff"/>
        <path id="Path_12" data-name="Path 12" d="M1715.871,436.05c-.985.776-1.969,1.534-2.9,2.31-.587.492-1,.454-1.421-.227-2.462-3.844-5-7.651-7.385-11.533-5.643-9.184-8.6-19.354-10.775-29.788-.284-1.363-.587-2.708-.852-4.072a1.048,1.048,0,0,1,.132-.738,13.979,13.979,0,0,1,4.753-2.1,15.358,15.358,0,0,0,.132,1.629c.114.587.625,1.136.076,1.761a.421.421,0,0,0,0,.265,6.455,6.455,0,0,1,.379,2.576,12.667,12.667,0,0,0,.739,3.674c.133.53.435,1,.038,1.591-.114.17.132.625.246.947.265.757,1,1.382.549,2.348-.094.208.227.625.36.947.284.738,1,1.344.568,2.254a.246.246,0,0,0,.038.189c.417,1.023.833,2.045,1.231,3.068.246.625.417,1.269.682,1.894.152.36.455.682.606,1.042a7.971,7.971,0,0,1,.3,1.155c.019.114-.038.284.019.36.7,1.1,1.42,2.2,2.083,3.314a5.705,5.705,0,0,1,.341,1,2.535,2.535,0,0,0,.246.758,11.322,11.322,0,0,0,1.023,1.117c-.076.038-.171.095-.246.133.208.492.4.985.606,1.477.189.436.4.852.606,1.288.038.076.038.189.076.265.644.947,1.326,1.894,1.951,2.859.587.947,1.06,1.969,1.666,2.916.511.814,1.1,1.591,1.686,2.348C1714.186,434.042,1714.981,434.97,1715.871,436.05Z" transform="translate(-1681.07 -389.076)" fill="#fff"/>
        <path id="Path_13" data-name="Path 13" d="M1696.44,452.056c-1.742.663-3.2,1.212-4.62,1.761-1.288-1.685-2.519-3.238-3.693-4.848a25.289,25.289,0,0,1-1.269-2.235,2.655,2.655,0,0,0-.417-.606c-.341-.379-.852-.663-.625-1.326a.178.178,0,0,0-.076-.17c-1.117-.739-.966-2.2-1.78-3.106-.133-.133-.322-.341-.284-.473.246-.985-.606-1.42-.985-2.121a31.465,31.465,0,0,1-1.269-2.954c-.019-.038-.019-.057-.038-.095a32.558,32.558,0,0,1-1.534-3.03c-.435-1.174-1.382-2.14-1.344-3.522,0-.36-.341-.72-.53-1.079-.284-.549-.72-.985-.436-1.8.151-.417-.417-1.06-.587-1.629-.114-.36-.057-.757-.171-1.117-.189-.625-.454-1.212-.625-1.837a8.2,8.2,0,0,1-.227-1.363c-.038-.208-.057-.435-.076-.644-.114-.72-.208-1.439-.341-2.159-.246-1.363-.511-2.727-.776-4.09-.038-.17-.152-.436-.076-.53.53-.625.114-1.193-.076-1.761-.17-.53-.473-1.023-.076-1.666.17-.284-.227-.871-.284-1.326-.038-.3-.095-.757.076-.928.644-.682,1.382-1.269,2.31-2.1A89.831,89.831,0,0,0,1696.44,452.056Z" transform="translate(-1666.203 -401.56)" fill="#fff"/>
        <path id="Path_15" data-name="Path 15" d="M1742.828,430.524c-.3.36-.682.814-1.174,1.4-.909-1.212-1.8-2.348-2.651-3.522-.682-.947-1.382-1.875-1.97-2.878-.53-.89-.928-1.856-1.382-2.784a2.664,2.664,0,0,0-.341-.549,2.3,2.3,0,0,1-.909-1.648c0-.4-.606-.814-1-1.307.644-.757.151-1.288-.435-1.837-.379-.341-.871-.7-.474-1.345a.267.267,0,0,0-.038-.265c-1.1-.739-1-2.2-1.856-3.087-.265-.284-.3-.739-.492-1.1-.265-.53-.625-1-.852-1.534-.455-1.1-.8-2.216-1.25-3.314-.265-.625-.644-1.212-.909-1.837a7.069,7.069,0,0,1-.227-1.1,17.3,17.3,0,0,0-.587-1.666c-.189-.473-.511-.852-.246-1.477.133-.322-.246-.852-.417-1.288-.246-.644-.871-1.193-.417-1.988.038-.057-.019-.189-.038-.265-.284-1.288-.947-2.632-.776-3.863.17-1.288-.814-2.386-.246-3.655.132-.284-.114-.8-.3-1.155a2.273,2.273,0,0,1-.019-2.121c.133-.246.53-.36,1-.644.133,1.117,1.023,1.875.379,2.935-.094.152.095.473.171.72.189.606.644,1.193.132,1.837-.038.038-.019.133,0,.189.227,1.136.454,2.291.72,3.428a2.99,2.99,0,0,1,.189,1.969c-.17.454.436,1.174.625,1.8a6.256,6.256,0,0,1,.132,1.193c0,.095-.076.189-.038.265a15,15,0,0,1,1.269,3.806,19.294,19.294,0,0,0,1.326,4.071,5.541,5.541,0,0,0,.341.663c.3.549,1.022.928.644,1.723a.208.208,0,0,0,.057.17,9.45,9.45,0,0,1,1.572,2.67c.3.663,1.174,1.061,1,2.007a4.291,4.291,0,0,1,1.515,3.087c.246,1.363,1.572,1.969,1.723,3.333a4.4,4.4,0,0,0,1.022,1.818c.663.966,1.363,1.894,2.045,2.841C1740.67,427.608,1741.711,429.009,1742.828,430.524Z" transform="translate(-1706.229 -385.671)" fill="#fff"/>
        <path id="Path_16" data-name="Path 16" d="M1680.875,467.811c-.682.095-1.326.17-1.95.265-.833-1.042-1.685-2.045-2.443-3.106a23.548,23.548,0,0,1-1.25-2.254c-.038-.057-.019-.133-.057-.189-.625-.928-1.25-1.875-1.875-2.8-.114-.151-.284-.265-.341-.436-.265-.644-.511-1.307-.833-2.2.4-.511-.038-1.079-.644-1.61-.379-.341-.909-.663-.473-1.326.057-.095-.019-.322-.095-.436a5.064,5.064,0,0,1-1.325-2.254c-.133-.7-.89-1.288-1.137-2.216a20.617,20.617,0,0,0-1.78-3.617,9.758,9.758,0,0,1-1.325-3.219c-.076-1.117-.909-2.045-.833-2.935.133-1.307-.625-2.159-.89-3.219a21.423,21.423,0,0,1-.322-3.333,5.669,5.669,0,0,0-.189-.814c-.151-.568-.606-1.117-.095-1.761.095-.114-.057-.417-.114-.625-.189-.682-.72-1.326-.208-2.121.095-.152-.019-.511-.151-.7-.644-.966-.3-2.026-.246-3.03.019-.53.663-1,1.288-1.477v1.269c0,.114-.114.246-.095.36.189,1.25.417,2.5.587,3.768a9.384,9.384,0,0,1,.038,1.269c0,.114-.076.246-.057.36.246,1.174.473,2.348.739,3.522.152.625.625,1.193.094,1.856a.324.324,0,0,0,0,.265c.493,1.458,1,2.935,1.477,4.393a4.793,4.793,0,0,1,.133,1.288c.019.152-.076.36-.019.454a11.383,11.383,0,0,1,1.079,2.86c.436,1.174,1.515,2.234,1.572,3.39.057,1.269,1.288,1.8,1.25,2.992,0,.265.416.53.587.833.208.4.379.814.549,1.231.057.114.019.284.095.36a7.336,7.336,0,0,1,1.458,2.632c.246.53.909.909.549,1.666-.038.076.038.265.114.341,1.269,1.079,1.591,2.746,2.575,4.015.966,1.212,1.875,2.462,2.784,3.712C1679.7,466.088,1680.25,466.921,1680.875,467.811Z" transform="translate(-1656.451 -415.421)" fill="#fff"/>
      </g>
      <g id="Group_4" data-name="Group 4" transform="translate(113.701 11.307)">
        <path id="Path_17" data-name="Path 17" d="M891.057,343.518c.019-1.25.587-1.818,1.78-1.818,1.25,0,1.894.587,1.894,1.818,0,2.708-.038,5.416-.095,8.124-.019,1.307-.587,1.837-1.761,1.837a1.717,1.717,0,0,1-1.913-1.932C890.943,350.222,891.038,344.863,891.057,343.518Z" transform="translate(-872.214 -341.527)" fill="#fff"/>
        <path id="Path_18" data-name="Path 18" d="M841.693,350.618c-.038,1.458-.758,2.045-2.2,1.875a1.492,1.492,0,0,1-1.5-1.61c0-2.575.019-5.17.057-7.745a3.958,3.958,0,0,1,.151-.928c.227-1.042.72-1.458,1.686-1.42,1.155.057,1.837.625,1.875,1.7C841.786,343.869,841.731,349.312,841.693,350.618Z" transform="translate(-829.289 -340.788)" fill="#fff"/>
        <path id="Path_19" data-name="Path 19" d="M921.572,351.5a1.578,1.578,0,0,1-1.7,1.723c-1.25.019-1.894-.492-1.913-1.7-.019-2.765-.019-5.549.057-8.313a1.566,1.566,0,0,1,1.875-1.723,1.689,1.689,0,0,1,1.761,1.894C921.667,344.7,921.629,350.118,921.572,351.5Z" transform="translate(-894.094 -341.347)" fill="#fff"/>
        <path id="Path_20" data-name="Path 20" d="M864.47,347.4c0-1.382-.019-2.784,0-4.166.038-1.288.587-1.78,1.818-1.742,1.288.019,1.78.492,1.78,1.78.019,2.519-.076,8.389-.189,8.787a1.477,1.477,0,0,1-1.78,1.288,1.654,1.654,0,0,1-1.7-1.666C864.357,350.259,864.451,347.4,864.47,347.4Z" transform="translate(-850.665 -341.356)" fill="#fff"/>
        <path id="Path_21" data-name="Path 21" d="M799.838,360.628v4.147c-2.178,0-4.28.038-6.382-.019-.776-.019-1.439-1.06-1.458-1.969-.019-.966.682-2.083,1.534-2.121C795.634,360.571,797.755,360.628,799.838,360.628Z" transform="translate(-791.998 -356.857)" fill="#fff"/>
        <path id="Path_22" data-name="Path 22" d="M941.9,365.65V361.2c2.2.095,4.318.133,6.42.322a1.805,1.805,0,0,1,1.382,1.894,1.965,1.965,0,0,1-1.344,2.045,5.069,5.069,0,0,1-1.307.189Z" transform="translate(-913.513 -357.334)" fill="#fff"/>
      </g>
    </g>
  </g>
</svg>
