<svg xmlns="http://www.w3.org/2000/svg" width="69.55" height="69.566" viewBox="0 0 69.55 69.566">
  <g id="coinredeem" transform="translate(-2542.614 -249.464)">
    <path id="Path_1839" data-name="Path 1839" d="M2577.429,250.464a33.783,33.783,0,1,0,33.736,33.719A33.8,33.8,0,0,0,2577.429,250.464Zm-.017,61.426a27.64,27.64,0,1,1,27.611-27.692A27.614,27.614,0,0,1,2577.412,311.89Z" transform="translate(0 0)" fill="#fff" stroke="#0b1f50" stroke-width="2"/>
    <path id="Path_1840" data-name="Path 1840" d="M2610.888,323.355a2.8,2.8,0,0,1-3.043-2.926c.261-2.577-.433-4.274-2.97-5.232a6.8,6.8,0,0,1-2.505-2.219c-1.283-1.545-1.234-3.308.115-4.505a3.054,3.054,0,0,1,4.385.317,15.333,15.333,0,0,0,1.575,1.449,3.461,3.461,0,0,0,4.133.3,2.909,2.909,0,0,0,1.2-3.363c-.408-1.442-1.51-2.122-3.438-2.259a9.2,9.2,0,0,1-6.57-15.066,7.318,7.318,0,0,1,2.991-2.334,1.46,1.46,0,0,0,1.029-1.724,18.262,18.262,0,0,1,0-2.452,3.088,3.088,0,0,1,3.1-2.963,2.843,2.843,0,0,1,2.947,2.9c-.32,2.668.472,4.4,3.034,5.349a4.917,4.917,0,0,1,1.638,1.358,2.937,2.937,0,0,1,.138,4.037,3.05,3.05,0,0,1-4.136.522c-.672-.461-1.282-1.022-1.989-1.416a2.988,2.988,0,0,0-3.691.341,2.813,2.813,0,0,0-.9,3.185,3.07,3.07,0,0,0,3.013,2.16c4.748.323,8.063,3.152,8.961,7.571a9.122,9.122,0,0,1-5.18,9.958,1.269,1.269,0,0,0-.825,1.393,24.354,24.354,0,0,1-.012,2.759A2.968,2.968,0,0,1,2610.888,323.355Z" transform="translate(-34.073 -17.628)" fill="#fff" stroke="#0b1f50" stroke-width="2"/>
  </g>
</svg>
