<svg xmlns="http://www.w3.org/2000/svg" width="68.914" height="69" viewBox="0 0 68.914 69">
  <path id="contestsplayed" d="M2276.281,172.083c-2.2-.376-4.407-.766-6.621-1.121-.408-.065-.571-.214-.622-.623-.1-.823-.264-1.639-.406-2.458-.243-1.4-.489-2.808-.746-4.279a3.181,3.181,0,0,0-.272.208q-4.151,4.147-8.3,8.291a.717.717,0,0,0-.223.715,15.578,15.578,0,0,0,.435,2.381,2.84,2.84,0,0,1-1.128,3.576c-.723.546-.661.628-1.356.044l-.051-.044a29.841,29.841,0,0,0-22.49-6.7,29.136,29.136,0,0,0-15.651,6.434,29.973,29.973,0,0,0-10.936,18.179,16.764,16.764,0,0,1-.512,2.862v.809c.083.074.066.175.069.27s.014.2-.069.27v2.428c.131.158.044.345.069.518-.019.143.051.3-.069.426v.675c.152.633.074,1.289.179,1.925a30.595,30.595,0,0,0,23.5,25.166,38.9,38.9,0,0,0,3.977.563h.539a.175.175,0,0,1,.27,0h.54a1.031,1.031,0,0,1,.809,0h1.079a.73.73,0,0,1,.675,0h.674a.175.175,0,0,1,.27,0h.27c.022-.108.1-.125.2-.133a29.935,29.935,0,0,0,15.141-5.6,30.427,30.427,0,0,0,9.953-37.013,29.817,29.817,0,0,0-4.512-7.146c-.3-.35-.3-.556.047-.86.5-.445.969-.938,1.435-1.426a.672.672,0,0,1,.706-.217c1.322.257,2.654.461,3.978.7a.833.833,0,0,0,.832-.263q4.062-4.093,8.144-8.166C2276.2,172.38,2276.39,172.312,2276.281,172.083Zm-12.224,30.163a26.3,26.3,0,1,1-35.392-24.642c9.258-3.347,17.885-1.785,25.687,4.246.41.317.467.5.061.894-1.662,1.612-3.293,3.257-4.915,4.909-.3.3-.473.306-.818.052a18.2,18.2,0,1,0,6.933,18.011,17.541,17.541,0,0,0-3.2-14.219c-.382-.527-.319-.765.113-1.181q2.4-2.318,4.723-4.718c.381-.392.559-.372.9.043A26.354,26.354,0,0,1,2264.057,202.246Zm-30.811-4.053a6.061,6.061,0,1,0,10.206,2.038.863.863,0,0,1,.255-1.087q2.506-2.451,4.958-4.957c.327-.333.484-.374.779.051a14.178,14.178,0,1,1-13.388-6.045,14.924,14.924,0,0,1,1.749-.111,14.238,14.238,0,0,1,7.97,2.488c.364.246.427.388.076.731-1.719,1.681-3.414,3.386-5.1,5.1a.684.684,0,0,1-.865.188A5.968,5.968,0,0,0,2233.246,198.193Zm6.527,4.077a2.022,2.022,0,1,1-1.982-2.043A2.047,2.047,0,0,1,2239.773,202.27Zm26.659-25.824a.536.536,0,0,1-.546.131c-.678-.132-1.527-.052-1.991-.438s-.3-1.3-.46-1.966a.517.517,0,0,1,.082-.559c.529-.538,1.04-1.094,1.678-1.768.142.823.268,1.445.349,2.072a.54.54,0,0,0,.549.54c.617.077,1.229.2,2.083.339C2267.5,175.436,2266.954,175.931,2266.432,176.446Z" transform="translate(-2207.399 -163.602)" fill="#fff"/>
</svg>
