<svg xmlns="http://www.w3.org/2000/svg" xmlns:xlink="http://www.w3.org/1999/xlink" width="239" height="93" viewBox="0 0 239 93">
  <defs>
    <clipPath id="clip-path">
      <rect id="Rectangle_98" data-name="Rectangle 98" width="239" height="93" transform="translate(-0.025 0.203)" fill="none"/>
    </clipPath>
  </defs>
  <g id="paytm" transform="translate(0.025 -0.203)" clip-path="url(#clip-path)">
    <g id="paytm-2" data-name="paytm" transform="translate(5.531 11.026)">
      <path id="Path_13343" data-name="Path 13343" d="M1469.3,138.386a15.17,15.17,0,0,0-14.316-10.148h-.135a15.114,15.114,0,0,0-10.933,4.654,15.127,15.127,0,0,0-10.947-4.654h-.135a15.014,15.014,0,0,0-9.878,3.667v-1.162a2.233,2.233,0,0,0-2.233-2.07h-10.145a2.246,2.246,0,0,0-2.246,2.246h0v55.109a2.24,2.24,0,0,0,2.246,2.246h10.148a2.233,2.233,0,0,0,2.206-1.935V146.775l.014-.406a3.7,3.7,0,0,1,3.5-3.383h1.867a3.735,3.735,0,0,1,3.518,3.788l.041,39.372a2.24,2.24,0,0,0,2.246,2.246h10.148a2.231,2.231,0,0,0,2.219-2.138V146.721a3.721,3.721,0,0,1,3.518-3.788h1.867a3.7,3.7,0,0,1,3.518,3.788l.041,39.319a2.249,2.249,0,0,0,2.246,2.246h10.148a2.246,2.246,0,0,0,2.246-2.246V143.758a14.081,14.081,0,0,0-.771-5.372m-68.693-9.566h-5.818v-9.431a2.043,2.043,0,0,0-2.032-2.054,1.983,1.983,0,0,0-.4.039c-6.427,1.772-5.141,10.689-16.886,11.446h-1.137a2.379,2.379,0,0,0-.488.054h-.027a2.247,2.247,0,0,0-1.759,2.192v10.148a2.258,2.258,0,0,0,2.259,2.233h6.129l-.013,43.027a2.224,2.224,0,0,0,2.219,2.233h10.026a2.229,2.229,0,0,0,2.219-2.219V143.46h5.683a2.246,2.246,0,0,0,2.246-2.246h0V131.065a2.245,2.245,0,0,0-2.218-2.246" transform="translate(-1242.386 -117.335)" fill="#0b1f51"/>
      <path id="Path_13344" data-name="Path 13344" d="M493.866,205.891H483.718a2.246,2.246,0,0,0-2.232,2.246v20.972a2.382,2.382,0,0,1-2.382,2.341h-4.248a2.381,2.381,0,0,1-2.381-2.368l-.041-20.945a2.246,2.246,0,0,0-2.246-2.246H460.04a2.246,2.246,0,0,0-2.232,2.246v23c0,8.728,6.224,14.951,14.965,14.951,0,0,6.562,0,6.765.041a2.368,2.368,0,0,1,.027,4.695l-.176.026-14.843.054a2.247,2.247,0,0,0-2.233,2.246V263.3a2.235,2.235,0,0,0,2.233,2.231h16.6c8.741,0,14.965-6.224,14.965-14.964v-42.43a2.246,2.246,0,0,0-2.246-2.247h0m-98.217,18.591v6.264a2.382,2.382,0,0,1-2.381,2.381h-6.44V220.585h6.44a2.373,2.373,0,0,1,2.381,2.368Zm.893-18.591h-22.19a2.206,2.206,0,0,0-2.192,2.192v55.15a2.178,2.178,0,0,0,2.043,2.246H384.54a2.246,2.246,0,0,0,2.246-2.246l.041-15.424h9.715c8.119,0,13.774-5.643,13.774-13.8v-14.3c0-8.158-5.656-13.815-13.774-13.815m41.213,42.419v1.583a2.342,2.342,0,0,1-.135.7,2.367,2.367,0,0,1-2.259,1.529H431.14a2.317,2.317,0,0,1-2.4-2.231v-8.688a2.324,2.324,0,0,1,2.4-2.219h4.221a2.317,2.317,0,0,1,2.4,2.233v7.091h0Zm-1.624-42.365H422.06a2.19,2.19,0,0,0-2.26,2.1v9.525a2.335,2.335,0,0,0,2.394,2.233h13.4a2.347,2.347,0,0,1,2.029,2.138v1.313a2.254,2.254,0,0,1-1.962,2.083h-6.643c-8.835,0-15.127,5.872-15.127,14.112v11.8c0,8.186,5.412,14.018,14.18,14.018h18.4a5.8,5.8,0,0,0,5.981-5.588v-38.5c0-9.336-4.8-15.235-16.316-15.235" transform="translate(-372.16 -194.406)" fill="#0b1f51"/>
    </g>
  </g>
</svg>
