<svg xmlns="http://www.w3.org/2000/svg" xmlns:xlink="http://www.w3.org/1999/xlink" width="349" height="75" viewBox="0 0 349 75">
  <defs>
    <clipPath id="clip-path">
      <rect id="Rectangle_96" data-name="Rectangle 96" width="349" height="75" transform="translate(-0.309 0.468)" fill="none"/>
    </clipPath>
  </defs>
  <g id="razorpay" transform="translate(0.309 -0.468)" clip-path="url(#clip-path)">
    <g id="Rozor_pay" transform="translate(0.748 0.659)">
      <path id="Path_13287" data-name="Path 13287" d="M449.823,219.84l-15.61,10.044c.516-3.711,1.81-6.906,2.655-10.2.28-1.095,1.883-1.424,2.89-2.081q12.523-8.166,25.085-16.272c.387-.251.791-.476,1.633-.979-.62,2.525-1.1,4.636-1.657,6.725q-5.771,21.668-11.571,43.33c-.7,2.6-1.459,5.187-2.095,7.8a1.786,1.786,0,0,1-2.138,1.561c-2.5-.088-5-.1-7.5-.006-1.443.055-1.742-.4-1.37-1.749,1.663-6.042,3.262-12.1,4.883-18.155q2.406-8.977,4.808-17.955A2.944,2.944,0,0,0,449.823,219.84Z" transform="translate(-414.856 -200.35)" fill="#0b1f51" fill-rule="evenodd"/>
      <path id="Path_13288" data-name="Path 13288" d="M1978.639,342.45l-15.416,21.9q-8.076,11.471-16.139,22.948a2.57,2.57,0,0,1-2.423,1.4c-2.752-.108-5.51-.034-8.615-.034,2.691-3.761,5.2-7.291,7.74-10.807.946-1.311,1.924-2.6,2.917-3.876a2.655,2.655,0,0,0,.418-2.278q-2.286-13.46-4.5-26.929c-.119-.719-.187-1.446-.3-2.33,3.047,0,6.011.042,8.972-.019,1.247-.026,1.238.812,1.294,1.595.433,6,1.6,11.9,2.271,18.323,1.257-1.652,2.351-3.019,3.371-4.443q5.177-7.223,10.313-14.477a1.994,1.994,0,0,1,1.823-1C1973,342.495,1975.633,342.45,1978.639,342.45Z" transform="translate(-1631.534 -315.448)" fill="#0b1f51" fill-rule="evenodd"/>
      <path id="Path_13289" data-name="Path 13289" d="M1016.266,367.721h17.278c-.6,2.22-1.175,4.328-1.732,6.441-.209.8-.81.758-1.434.757-8.709-.006-17.417-.018-26.125.013-1.106,0-1.025-.355-.942-1.312.47-5.392,4.549-8.074,8.125-11.157,4.775-4.118,9.54-8.248,14.772-12.771h-4.781c-3.24,0-6.482-.051-9.72.025-1.238.029-1.57-.39-1.231-1.509.038-.128.047-.266.076-.4,1.1-5.282,1.1-5.282,6.465-5.282h22.368c-.064,4.785-2.63,7.818-6.117,10.6C1027.562,357.688,1022.162,362.626,1016.266,367.721Z" transform="translate(-875.863 -315.532)" fill="#0b1f51" fill-rule="evenodd"/>
      <path id="Path_13290" data-name="Path 13290" d="M363.085,336.857q-2.257,8.574-4.516,17.147c-1.215,4.61-2.471,9.209-3.633,13.833-.3,1.215-.753,1.76-2.138,1.742-6.341-.081-12.683-.061-19.024-.014-1.291.01-1.795-.123-1.355-1.646,1.379-4.78,2.6-9.606,3.85-14.422a2.2,2.2,0,0,1,.951-1.458q12.306-7.878,24.594-15.784a6.909,6.909,0,0,1,.721-.357C363.309,335.88,363.267,336.328,363.085,336.857Z" transform="translate(-332.264 -310.16)" fill="#0b1f51" fill-rule="evenodd"/>
      <path id="Path_13291" data-name="Path 13291" d="M1380.92,370.848c1.352-5.008,2.643-9.808,3.945-14.6,1.481-5.454,3.029-10.892,4.414-16.371.306-1.21.794-1.476,1.911-1.435,2.09.078,4.191.112,6.277-.007,1.567-.09,1.893.372,1.286,1.785-.222.518-.674,1.05-.351,1.835,1.637-.847,2.856-2.319,4.573-3.033a14.472,14.472,0,0,1,3.616-1.231c1.53-.2,3.294-.638,4.545.3,1.561,1.168-.318,2.575-.3,3.915a2.211,2.211,0,0,1-.114.595c-.353,1.3-.394,2.829-1.144,3.83-1.006,1.342-2.3-.286-3.521-.361-5.5-.338-9.662,2.652-11,8.019-1.271,5.089-2.725,10.132-4.024,15.214-.3,1.182-.79,1.636-2.057,1.582C1386.415,370.772,1383.848,370.848,1380.92,370.848Z" transform="translate(-1181.81 -311.466)" fill="#0b1f51" fill-rule="evenodd"/>
      <path id="Path_13292" data-name="Path 13292" d="M492.25,334.544c-.138-.345-.1-.792-.549-.96.149-.3.526-.66.686-.505C492.871,333.545,492.593,334.078,492.25,334.544Z" transform="translate(-461.428 -307.847)" fill="#0b1f51" fill-rule="evenodd"/>
      <path id="Path_13293" data-name="Path 13293" d="M623.921,277.857c-2.154-2.954-5.23-3.984-8.63-4.053-7.356-.149-14.716-.09-22.073-.184-1.173-.015-1.462.548-1.7,1.5-.937,3.716-1.918,7.42-2.91,11.121-2.8,10.462-5.6,20.926-8.459,31.372-.336,1.23-.114,1.536,1.117,1.5,2.294-.071,4.595-.1,6.884.013,1.226.062,1.649-.471,1.91-1.514q1.445-5.777,2.961-11.537c1.372-5.249,1.381-5.25,6.775-5.234.809,0,1.622.009,2.428.071,2.48.186,3.407.949,3.728,3.39.578,4.41,1.1,8.828,1.521,13.255.118,1.233.534,1.6,1.732,1.558,2.428-.081,4.865-.12,7.289.011,1.483.081,1.672-.525,1.509-1.757-.566-4.278-1.051-8.568-1.623-12.845a5.893,5.893,0,0,0-3.858-5.141c.66-.256.9-.348,1.144-.444a17.729,17.729,0,0,0,11.6-14.126A8.686,8.686,0,0,0,623.921,277.857Zm-8.636,9.738c-1.256,3.733-4.149,5.243-7.706,5.487-3.621.249-7.272.055-11.109.055.987-3.736,1.965-7.364,2.892-11,.207-.811.748-.843,1.375-.833,3.576.057,7.161-.016,10.726.214,3.619.232,4.98,2.641,3.822,6.082Z" transform="translate(-532.966 -259.708)" fill="#0b1f51" fill-rule="evenodd"/>
      <path id="Path_13294" data-name="Path 13294" d="M1542.329,341.056c-3.337-3.8-8.788-4.536-13.953-2.258a64.2,64.2,0,0,0-6.088,3.6,25.711,25.711,0,0,1,.894-2.587c.516-1.118.167-1.4-.966-1.367a48.372,48.372,0,0,1-5.87-.022c-1.668-.152-2.312.448-2.722,2.028-2.507,9.638-5.115,19.251-7.69,28.871-1.354,5.06-2.711,10.119-4.116,15.363,2.6,0,5.031-.137,7.435.046,1.776.135,2.429-.547,2.834-2.178,1.314-5.289,2.773-10.542,4.289-16.232a8.394,8.394,0,0,0,7.139,4.934,16.294,16.294,0,0,0,12.422-3.757c5.421-4.413,8.037-10.364,8.848-17.141C1545.184,347.006,1544.637,343.685,1542.329,341.056Zm-7.583,11.233c-.625,4.566-2.141,8.772-6.746,10.977a7.893,7.893,0,0,1-3.31.782c-3.825.07-5.885-1.984-5.811-6.486.553-3.752,1.6-7.943,5.388-10.837a7.247,7.247,0,0,1,2.664-1.377C1532.47,343.993,1535.526,346.584,1534.745,352.289Z" transform="translate(-1279.753 -311.467)" fill="#0b1f51" fill-rule="evenodd"/>
      <path id="Path_13295" data-name="Path 13295" d="M843.441,338.5h-1.62c-4.075,0-4.075,0-5.03,4.345a12.189,12.189,0,0,0-2.555-3.245c-3.389-2.432-7.075-2.468-10.811-1.283-9.095,2.884-15.558,12.858-15.177,23.2.217,5.883,4.162,9.74,10.08,9.87a16.1,16.1,0,0,0,11.544-4.511c.537.986-.123,1.69-.289,2.413-.271,1.173-.266,1.709,1.2,1.627,2.221-.123,4.454-.059,6.681-.019a1.4,1.4,0,0,0,1.666-1.251q3.543-13.569,7.239-27.1C847.474,338.489,847.519,338.5,843.441,338.5Zm-15.816,24.616a8.117,8.117,0,0,1-4.887.946c-2.71-.257-4.612-1.972-4.645-4.671-.06-5.051,1.393-9.522,5.631-12.732a8.111,8.111,0,0,1,7.091-1.309c2.208.514,3.373,2.453,3.346,5.918-.531,4.414-1.724,9.1-6.535,11.848Z" transform="translate(-717.859 -311.506)" fill="#0b1f51" fill-rule="evenodd"/>
      <path id="Path_13296" data-name="Path 13296" d="M1777.2,338.33c-3.827,0-3.825,0-4.96,3.57-.031.1-.187.156-.286.232-2.746-4.008-6.676-5.524-11.589-4.452-11.617,2.535-17.8,15.7-16.649,24.851.5,3.962,2.584,7.067,6.776,8.179a14.7,14.7,0,0,0,11.995-1.935c.976-.609,1.879-1.336,2.939-2.1.167,1.494-.687,2.542-.692,4.041,2.647,0,5.212-.078,7.771.032,1.3.056,1.708-.45,2.019-1.631,1.5-5.726,3.138-11.416,4.672-17.134,1.2-4.478,2.32-8.978,3.524-13.654Zm-14.618,24.776c-2.513,1.181-5.159,1.424-7.439-.439-2.067-1.69-2.043-4.072-1.516-6.5.922-4.258,2.422-8.12,6.528-10.375,3.006-1.652,6.967-1.059,8.576,1.291a6.211,6.211,0,0,1,.89,3.7C1768.76,355.728,1767.8,360.653,1762.584,363.106Z" transform="translate(-1475.613 -311.334)" fill="#0b1f51" fill-rule="evenodd"/>
      <path id="Path_13297" data-name="Path 13297" d="M1215.385,338.106c-13.375-.909-23.584,7.823-24.625,21.149a11.354,11.354,0,0,0,1.721,7.541c2.75,4.019,6.919,4.772,10.4,4.984,14.148.146,22.923-10.357,23.346-22.042C1226.466,343.192,1222.016,338.556,1215.385,338.106Zm1.124,12.908a16.436,16.436,0,0,1-4.117,10.668,8.246,8.246,0,0,1-8.057,2.634c-2.053-.389-3.69-1.533-3.765-3.849-.171-5.316,1.015-10.128,5.511-13.585a7.728,7.728,0,0,1,4.935-1.446C1214.8,345.435,1216.671,347.267,1216.509,351.014Z" transform="translate(-1027.714 -311.898)" fill="#0b1f51" fill-rule="evenodd"/>
    </g>
  </g>
</svg>
