<svg xmlns="http://www.w3.org/2000/svg" width="154" height="154" viewBox="0 0 154 154">
  <g id="winbig" transform="translate(-1497.602 -2178.602)">
    <circle id="Ellipse_30" data-name="Ellipse 30" cx="77" cy="77" r="77" transform="translate(1497.602 2178.602)" fill="#fff"/>
    <g id="Group_251" data-name="Group 251" transform="translate(1533.085 2212.265)">
      <path id="Path_866" data-name="Path 866" d="M1075.85,874.5c-1.163.595-1.262,1.667-1.176,2.778-2.266.326-2.885.729-2.856,1.818.028,1.065.626,1.437,2.572,1.7a19.207,19.207,0,0,0,.957,2.408c.139.252.687.377,1.054.388,1.09.035,1.47-.606,1.7-2.539a20.349,20.349,0,0,0,2.459-1.013c.243-.136.344-.7.344-1.066,0-1.107-.671-1.491-2.845-1.653.074-1.115.066-2.258-1.192-2.82Z" transform="translate(-1060.2 -874.5)" fill="#0b1f50"/>
      <path id="Path_867" data-name="Path 867" d="M868.328,1092.474l4.8,8.3c-.459.281-.9.56-1.345.82-1.24.719-2.491,1.419-3.725,2.148a1.7,1.7,0,1,0,1.7,2.918q3.185-1.818,6.35-3.67a1.709,1.709,0,0,0,.666-2.641q-3.083-5.375-6.19-10.737a1.754,1.754,0,0,0-2.746-.754c-.269.149-.536.3-.853.48l-4.831-4.843a21.712,21.712,0,0,0-15.48-6.63,15.7,15.7,0,0,0-10.443,3.655,2.346,2.346,0,0,1-1.342.494c-3.038.043-6.081.13-9.113,0a6.393,6.393,0,0,0-6.328,8.829,2.756,2.756,0,0,1,.064.451c-1.258-.359-2.456-.624-3.6-1.043a15.913,15.913,0,0,1-5.84-3.907c-1.759-1.782-3.5-3.589-5.324-5.3a6.417,6.417,0,0,0-10.664,3.217,5.619,5.619,0,0,0,1.173,5.4c3.521,3.707,6.9,7.594,11.054,10.626a25.548,25.548,0,0,0,15.326,4.884c5.964.023,11.928.005,17.892.005h.851a15.823,15.823,0,0,0,.742,1.791c1.963,3.442,3.951,6.87,5.935,10.3.808,1.4,1.571,1.592,2.981.78q3.068-1.768,6.131-3.543a1.692,1.692,0,1,0-1.569-2.979c-1.717.957-3.41,1.958-5.219,3l-4.818-8.326Zm-4.4-1.406c-.192.129-.322.227-.463.309q-8.795,5.081-17.6,10.146a2.329,2.329,0,0,1-1.112.265c-7.735.015-15.471.047-23.205,0a22.451,22.451,0,0,1-15.813-6.317c-2.51-2.38-4.919-4.866-7.36-7.317a3.1,3.1,0,1,1,4.371-4.357q2.542,2.53,5.073,5.07A19.284,19.284,0,0,0,822,1094.723q6.118-.01,12.235,0c1.266,0,2.532.021,3.8-.007a1.678,1.678,0,0,0,1.7-2.159,1.746,1.746,0,0,0-1.9-1.209c-4.078,0-8.157,0-12.235,0a2.98,2.98,0,0,1-3.264-2.979c0-1.765,1.309-2.945,3.28-2.948,3.432-.005,6.863-.011,10.295.006a2.528,2.528,0,0,0,1.894-.745,11.716,11.716,0,0,1,4.416-2.721c3.694-1.262,7.312-.758,10.891.521C857.676,1084.112,860.594,1087.807,863.931,1091.069Z" transform="translate(-793.862 -1032.086)" fill="#0b1f50"/>
      <path id="Path_868" data-name="Path 868" d="M945.2,927.507c-.956,2.914-1.91,5.759-2.821,8.619a3.5,3.5,0,0,0,2.778,4.754,3.553,3.553,0,0,0,2.754-.795c2.222-1.627,4.46-3.234,6.665-4.885a.854.854,0,0,1,1.234,0c2.181,1.636,4.392,3.23,6.6,4.832a3.462,3.462,0,0,0,4.367.219,3.506,3.506,0,0,0,1.189-4.283c-.806-2.483-1.587-4.976-2.464-7.434a1.228,1.228,0,0,1,.583-1.7c2.2-1.515,4.349-3.1,6.5-4.679a3.429,3.429,0,0,0,1.263-4.382,3.48,3.48,0,0,0-3.479-2.05c-2.7.014-5.4-.021-8.1.02a1.013,1.013,0,0,1-1.185-.842q-1.224-3.984-2.555-7.935a3.444,3.444,0,0,0-4.424-2.3,3.507,3.507,0,0,0-2.321,2.477c-.839,2.62-1.7,5.231-2.521,7.857a.868.868,0,0,1-.994.741c-2.84-.031-5.681-.062-8.52,0a3.447,3.447,0,0,0-3.1,5.121,5.244,5.244,0,0,0,1.448,1.492C940.422,924.085,942.781,925.762,945.2,927.507Zm19.7,10.122c-.462-.315-.7-.465-.919-.628q-3.716-2.707-7.43-5.417c-1.111-.809-1.606-.813-2.728,0q-3.138,2.283-6.267,4.578c-.629.459-1.264.909-2.108,1.515.16-.528.241-.815.334-1.1q1.441-4.4,2.884-8.807a1.807,1.807,0,0,0-.832-2.522q-3.822-2.776-7.65-5.545c-.186-.135-.351-.3-.709-.6h1.146c3.066,0,6.133,0,9.2,0,1.327,0,1.745-.314,2.152-1.567q1.432-4.407,2.856-8.816c.091-.28.2-.552.373-1.006.154.438.242.672.319.909q1.429,4.407,2.856,8.815c.437,1.348.854,1.662,2.259,1.665,3.066.005,6.133,0,9.2,0,.286,0,.572.03,1.1.059-.456.34-.7.523-.94.7q-3.656,2.646-7.313,5.291c-1.211.878-1.367,1.374-.9,2.806q1.393,4.242,2.788,8.484C964.669,936.754,964.744,937.072,964.9,937.629Z" transform="translate(-922.961 -897.735)" fill="#0b1f50"/>
      <path id="Path_869" data-name="Path 869" d="M883.57,1007.8c.209,2.208.586,2.819,1.682,2.849,1.142.032,1.523-.538,1.844-2.833,1.244-.015,2.659.073,2.755-1.73.056-1.059-.578-1.426-2.545-1.725a19.148,19.148,0,0,0-.977-2.4c-.141-.252-.691-.374-1.058-.382-1.085-.026-1.494.66-1.7,2.782-1.246.1-2.863-.059-2.76,1.88C880.9,1007.941,882.332,1007.806,883.57,1007.8Z" transform="translate(-826.156 -972.974)" fill="#0b1f50"/>
      <path id="Path_870" data-name="Path 870" d="M853.035,1210.888a1.634,1.634,0,0,0,1.641,1.669,1.681,1.681,0,0,0,1.707-1.623,1.724,1.724,0,0,0-1.7-1.731A1.672,1.672,0,0,0,853.035,1210.888Z" transform="translate(-786.435 -1133.859)" fill="#0b1f50"/>
    </g>
  </g>
</svg>
