<svg xmlns="http://www.w3.org/2000/svg" width="154" height="154" viewBox="0 0 154 154">
  <g id="wintroffy" transform="translate(-6864 -3813)">
    <g id="Group_492" data-name="Group 492" transform="translate(102)">
      <g id="Group_490" data-name="Group 490" transform="translate(6601.597 1633.597)">
        <circle id="Ellipse_29" data-name="Ellipse 29" cx="77" cy="77" r="77" transform="translate(160.403 2179.403)" fill="#f5d136"/>
      </g>
    </g>
    <g id="Group_493" data-name="Group 493" transform="translate(6778.159 3468.2)">
      <path id="Path_1859" data-name="Path 1859" d="M181.279,384.8a4.34,4.34,0,0,1,3.086,2.377,12.314,12.314,0,0,1,.518,2.728,12.05,12.05,0,0,1,.011,1.548c.861,0,1.693,0,2.526,0,.651,0,1.3-.021,1.952.014a4.2,4.2,0,0,1,4.153,4.03c.107,5.116-1,9.9-4.344,13.961a13.52,13.52,0,0,1-6.437,4.344,1.55,1.55,0,0,0-1.043.868,30.919,30.919,0,0,1-10.4,12.257,5.012,5.012,0,0,0-2.333,4.583c.061,2.24,0,4.482.029,6.723a.847.847,0,0,0,.349.65c2.639,1.2,3.607,2.486,4.01,5.5.438,0,.889-.01,1.34,0a4.328,4.328,0,0,1,4.4,4.408c.035,2.8.018,5.591,0,8.387a1.483,1.483,0,0,1-1.659,1.659q-14.243.011-28.485,0a1.483,1.483,0,0,1-1.661-1.656c-.014-2.8-.03-5.591,0-8.386a4.329,4.329,0,0,1,4.4-4.411c.431-.011.862,0,1.237,0a20.285,20.285,0,0,1,.756-2.508,5.317,5.317,0,0,1,3.226-2.922.629.629,0,0,0,.506-.718c-.019-2.41-.01-4.82-.009-7.23a4.552,4.552,0,0,0-2.148-3.941,29.507,29.507,0,0,1-9.634-10.682A6.684,6.684,0,0,0,142,413.1c-3.68-1.577-6.012-4.554-7.51-8.2a23.441,23.441,0,0,1-1.651-8.963,4.327,4.327,0,0,1,4.409-4.47c1.392-.028,2.785,0,4.261,0,0-.651,0-1.245,0-1.84a4.36,4.36,0,0,1,3.434-4.7.893.893,0,0,0,.181-.11Zm-10.9,59.548a2.8,2.8,0,0,0-2.683-2.851c-1.127-.131-1.591-.618-1.594-1.737-.008-2.988-.064-5.977.032-8.962a9.933,9.933,0,0,1,.719-3.13c.6-1.578,1.994-2.472,3.286-3.453a28.6,28.6,0,0,0,11.84-22.893c.123-3.948.029-7.9.024-11.854,0-1.221-.549-1.772-1.767-1.773q-17.023-.006-34.046,0c-1.23,0-1.78.542-1.781,1.759,0,4.1-.056,8.193.027,12.288a28.017,28.017,0,0,0,3.455,12.845,28.821,28.821,0,0,0,9.128,10.176,7.3,7.3,0,0,1,3.3,6.453c-.023,2.771,0,5.542-.006,8.313,0,1.4-.358,1.8-1.723,1.975a2.851,2.851,0,0,0-2.575,2.845ZM150.194,455.9h26.023c0-2.236,0-4.424,0-6.612,0-1.561-.459-2.016-2.033-2.016H152.222c-.193,0-.386-.009-.578.007a1.423,1.423,0,0,0-1.439,1.429C150.172,451.089,150.194,453.471,150.194,455.9Zm-8.681-61.55c-1.517,0-2.936-.031-4.352.012a1.4,1.4,0,0,0-1.422,1.513,19.994,19.994,0,0,0,2.274,9.733,11.582,11.582,0,0,0,5.044,4.846C141.182,405.135,141.532,399.768,141.513,394.352Zm41.851,16.083a10.191,10.191,0,0,0,3.288-2.44c3.141-3.493,3.947-7.762,4-12.262a1.269,1.269,0,0,0-1.2-1.33c-1.5-.065-3.012-.02-4.571-.02C184.88,399.768,185.214,405.134,183.364,410.435Z" fill="#fff" stroke="#fff" stroke-width="1"/>
      <path id="Path_1860" data-name="Path 1860" d="M240.473,453.668c.311-1.841.655-3.784.948-5.735a1.149,1.149,0,0,0-.281-.854c-1.25-1.27-2.529-2.512-3.82-3.741a1.657,1.657,0,0,1-.653-1.783,1.64,1.64,0,0,1,1.575-1.052c1.742-.227,3.477-.5,5.218-.735a1.049,1.049,0,0,0,.9-.689c.75-1.587,1.552-3.15,2.316-4.73a1.527,1.527,0,0,1,2.953.012c.764,1.581,1.566,3.143,2.314,4.731a1.054,1.054,0,0,0,.91.677c1.765.236,3.525.5,5.289.745a1.588,1.588,0,0,1,1.467.989,1.551,1.551,0,0,1-.543,1.742c-1.266,1.22-2.5,2.475-3.788,3.67a1.222,1.222,0,0,0-.4,1.266c.317,1.727.586,3.463.91,5.189a1.493,1.493,0,0,1-2.3,1.677c-1.593-.846-3.2-1.664-4.785-2.529a1.033,1.033,0,0,0-1.121.011q-2.41,1.308-4.851,2.559A1.459,1.459,0,0,1,240.473,453.668Zm14.5-10.684c-1.132-.163-2.294-.361-3.463-.49a1.992,1.992,0,0,1-1.746-1.294c-.477-1.072-1.037-2.108-1.614-3.266-.534,1.071-1.083,2.007-1.474,3a2.393,2.393,0,0,1-2.307,1.619c-1.032.08-2.054.29-3.056.439.794.836,1.486,1.681,2.3,2.388a2.371,2.371,0,0,1,.79,2.578c-.24,1.04-.374,2.105-.575,3.281,1.129-.589,2.157-1.064,3.121-1.646a2.145,2.145,0,0,1,2.429.009c.959.566,1.971,1.043,3.1,1.633-.22-1.284-.382-2.4-.609-3.5a2.144,2.144,0,0,1,.68-2.208C253.39,444.747,254.141,443.864,254.969,442.984Z" transform="translate(-84.998 -39.666)" fill="#fff"/>
      <path id="Path_1861" data-name="Path 1861" d="M265.175,749.264c-.867,0-1.735.008-2.6,0-1.043-.013-1.72-.6-1.709-1.459a1.5,1.5,0,0,1,1.668-1.427q2.674-.019,5.349,0a1.484,1.484,0,0,1,1.637,1.457,1.5,1.5,0,0,1-1.668,1.427C266.958,749.274,266.066,749.264,265.175,749.264Z" transform="translate(-104.88 -296.207)" fill="#fff"/>
      <path id="Path_1862" data-name="Path 1862" d="M326.3,749.333a1.435,1.435,0,1,1,1.432-1.437A1.484,1.484,0,0,1,326.3,749.333Z" transform="translate(-157.312 -296.287)" fill="#fff"/>
    </g>
  </g>
</svg>
