<svg xmlns="http://www.w3.org/2000/svg" width="69" height="57.231" viewBox="0 0 69 57.231">
  <g id="activeuser" transform="translate(0.5 -2.451)">
    <path id="Path_1817" data-name="Path 1817" d="M48.773,40.227V34.318A11.818,11.818,0,0,0,36.955,22.5H13.318A11.818,11.818,0,0,0,1.5,34.318v5.909" transform="translate(0 17.455)" fill="none" stroke="#fff" stroke-linecap="round" stroke-linejoin="round" stroke-width="4"/>
    <path id="Path_1818" data-name="Path 1818" d="M31.136,16.318A11.818,11.818,0,1,1,19.318,4.5,11.818,11.818,0,0,1,31.136,16.318Z" transform="translate(5.818)" fill="none" stroke="#fff" stroke-linecap="round" stroke-linejoin="round" stroke-width="4"/>
    <path id="Path_1819" data-name="Path 1819" d="M38.864,40.038V34.129A11.818,11.818,0,0,0,30,22.7" transform="translate(27.636 17.644)" fill="none" stroke="#fff" stroke-linecap="round" stroke-linejoin="round" stroke-width="4"/>
    <path id="Path_1820" data-name="Path 1820" d="M24,4.695a11.818,11.818,0,0,1,0,22.9" transform="translate(21.818 0.189)" fill="none" stroke="#fff" stroke-linecap="round" stroke-linejoin="round" stroke-width="4"/>
  </g>
</svg>
