<svg xmlns="http://www.w3.org/2000/svg" width="154" height="154" viewBox="0 0 154 154">
  <g id="bestteam" transform="translate(-828.866 -2178.866)">
    <circle id="Ellipse_28" data-name="Ellipse 28" cx="77" cy="77" r="77" transform="translate(828.866 2178.866)" fill="#f3c500"/>
    <g id="Group_250" data-name="Group 250" transform="translate(864.647 2218.311)">
      <path id="Path_863" data-name="Path 863" d="M736.171,923.784a11.341,11.341,0,0,0,6.555,1.462,2.924,2.924,0,0,1,2.48,1.009c2.571,2.629,5.189,5.211,7.784,7.816a4.194,4.194,0,0,1,.717.861,1.451,1.451,0,0,1-.284,1.845,1.469,1.469,0,0,1-1.846.265,3.642,3.642,0,0,1-.806-.655c-2.472-2.462-4.927-4.942-7.421-7.382a1.82,1.82,0,0,0-1.166-.483,14.856,14.856,0,0,1-7.835-2.051.736.736,0,0,0-1.081.166q-4.842,4.894-9.72,9.752a3.092,3.092,0,0,1-1.018.757,1.567,1.567,0,0,1-1.836-2.34,4.56,4.56,0,0,1,.573-.67q6.787-6.821,13.57-13.646a3.2,3.2,0,0,1,2.2-.993,21.724,21.724,0,0,0,14.342-6.628q7.493-7.481,14.956-14.992a4.449,4.449,0,0,0,1.108-1.973,2.581,2.581,0,0,0-1.364-2.841,2.764,2.764,0,0,0-3.225.321c-.683.6-1.256,1.34-1.978,1.886a2.589,2.589,0,0,1-1.633.6c-1.328-.153-1.7-1.731-.688-2.787,1.263-1.317,2.575-2.587,3.867-3.877a2.838,2.838,0,0,0,.929-2.541,2.845,2.845,0,0,0-4.862-1.575c-1.252,1.214-2.47,2.464-3.71,3.691a4.342,4.342,0,0,1-.735.619,1.567,1.567,0,0,1-2.156-2.148,4.261,4.261,0,0,1,.615-.738c1.76-1.77,3.533-3.527,5.287-5.3a2.748,2.748,0,0,0,.685-2.969,2.686,2.686,0,0,0-2.224-1.868,2.86,2.86,0,0,0-2.612.944q-2.16,2.167-4.328,4.326c-.3.3-.606.609-.912.91-.943.929-1.884,1.034-2.6.294-.681-.7-.574-1.662.307-2.546q3.381-3.394,6.777-6.774a2.947,2.947,0,0,0,.977-2.831,2.825,2.825,0,0,0-4.617-1.554c-.53.451-1,.969-1.5,1.462q-4.357,4.354-8.717,8.706a4.586,4.586,0,0,1-.7.487,6.2,6.2,0,0,1-4.821,10.127c-.334,3.82-2.384,5.984-6.179,6.3a18.766,18.766,0,0,1-.9,2.932,5.605,5.605,0,0,1-4.817,3.268c-.566.048-.825.2-.867.846a5.989,5.989,0,0,1-8.359,5.027.856.856,0,0,0-1.151.229q-7.471,7.5-14.967,14.981c-1.076,1.075-1.938,1.228-2.712.485-.8-.766-.656-1.671.442-2.77q7.314-7.318,14.635-14.63a8.869,8.869,0,0,1,1.017-.72,47.7,47.7,0,0,1-3.782-3.547,6,6,0,0,1,2.714-9.723c.123-.043.244-.089.436-.159a6.134,6.134,0,0,1,4.421-8.511c-.489-4.439.827-6.648,4.749-7.913a6.138,6.138,0,0,1,1.65-6.245,6.059,6.059,0,0,1,6.393-1.289c-.085-.583-.194-1.089-.225-1.6-.056-.909-.107-1.823-.082-2.732a1.608,1.608,0,0,1,1.767-1.763c4.562,0,9.127-.054,13.684.1a9.394,9.394,0,0,1,6.274,2.944.852.852,0,0,0,1.09.287,5.75,5.75,0,0,1,6.244.976,5.815,5.815,0,0,1,2,5.932c-.031.157-.052.316-.088.542a6.17,6.17,0,0,1,4.712,7.882,6.218,6.218,0,0,1,4.3,3.215,6.077,6.077,0,0,1,.252,5.08,18.381,18.381,0,0,1,2.927,2.081,5.884,5.884,0,0,1-.159,8.4c-5.47,5.536-10.948,11.068-16.561,16.458A23.386,23.386,0,0,1,738,922.648,2.6,2.6,0,0,0,736.171,923.784Zm-2.653-36.943.112-.2a2.836,2.836,0,0,0,1.941-4.956q-4.718-4.721-9.444-9.433a2.841,2.841,0,1,0-4.056,3.97c3.145,3.185,6.3,6.359,9.5,9.487A9.066,9.066,0,0,0,733.518,886.841Zm12.133-18.829a7.051,7.051,0,0,0-4.705-2.335c-3.836-.078-7.673-.053-11.51-.066a.8.8,0,0,0-.223.066,4.02,4.02,0,0,0,3.938,4.5c1.421.048,2.844-.005,4.267.005,1.14.008,1.836.614,1.85,1.574a1.629,1.629,0,0,1-1.8,1.638c-1.845.026-3.69.007-5.313.007l4.047,4.05Zm-18.415,25.125a3.215,3.215,0,0,0,2.719-1.858,2.692,2.692,0,0,0-.6-3.186q-3.987-4.038-8.029-8.023a2.837,2.837,0,1,0-4.029,3.994c2.653,2.7,5.322,5.38,8.038,8.013A8.354,8.354,0,0,0,727.237,893.136Zm-12.249-6.071c-1.643.055-2.543.614-3.029,1.718a2.705,2.705,0,0,0,.624,3.179c2.128,2.156,4.263,4.305,6.428,6.424a2.839,2.839,0,1,0,4-4.031c-2.1-2.143-4.213-4.28-6.383-6.353A6.5,6.5,0,0,0,714.988,887.066Zm2.616,15.3a4.769,4.769,0,0,0-.722-1.463q-2.246-2.409-4.654-4.665a2.751,2.751,0,0,0-3.794.111,2.68,2.68,0,0,0-.267,3.714c1.568,1.72,3.229,3.362,4.94,4.941a2.469,2.469,0,0,0,2.941.255A2.95,2.95,0,0,0,717.6,902.367Z" transform="translate(-693.049 -862.38)" fill="#fff"/>
      <path id="Path_864" data-name="Path 864" d="M1066.273,1108.71c.352-.456.6-1.045,1.022-1.246a2.271,2.271,0,0,1,1.568.024,3.563,3.563,0,0,1,1.081.932c1.032,1.013,2.075,2.016,3.074,3.061a1.6,1.6,0,1,1-2.252,2.267q-1.921-1.827-3.76-3.738A6.52,6.52,0,0,1,1066.273,1108.71Z" transform="translate(-991.141 -1058.024)" fill="#fff"/>
      <path id="Path_865" data-name="Path 865" d="M1047.309,1088.365a1.6,1.6,0,0,1,1.644-1.529,1.6,1.6,0,0,1-.134,3.194A1.605,1.605,0,0,1,1047.309,1088.365Z" transform="translate(-975.993 -1041.65)" fill="#fff"/>
    </g>
  </g>
</svg>
