<svg xmlns="http://www.w3.org/2000/svg" xmlns:xlink="http://www.w3.org/1999/xlink" width="154" height="154" viewBox="0 0 154 154">
  <defs>
    <linearGradient id="linear-gradient" x1="0.5" x2="0.5" y2="1" gradientUnits="objectBoundingBox">
      <stop offset="0" stop-color="#fff"/>
      <stop offset="0.483" stop-color="#fff" stop-opacity="0.91"/>
      <stop offset="1" stop-color="#fff"/>
    </linearGradient>
  </defs>
  <g id="checkout1" transform="translate(-160.403 -2179.403)">
    <circle id="Ellipse_29" data-name="Ellipse 29" cx="77" cy="77" r="77" transform="translate(160.403 2179.403)" fill="url(#linear-gradient)"/>
    <g id="Group_249" data-name="Group 249" transform="translate(196.188 2235.723)">
      <path id="Path_858" data-name="Path 858" d="M717.75,1204.532a22.864,22.864,0,0,1,1.347-3.657,8.446,8.446,0,0,1,7.659-4.5c5.445-.05,10.891-.041,16.337-.005a9.056,9.056,0,0,1,8.954,8.76c.072,2.171.042,4.345.03,6.518-.007,1.3-.671,1.9-2.053,1.9q-11.428,0-22.856,0c-2.388,0-4.776-.032-7.162.015a2.124,2.124,0,0,1-2.256-1.3Zm3.584,5.534h27.31c0-1.666.085-3.278-.018-4.878a5.589,5.589,0,0,0-5.715-5.362q-8-.02-16,0a5.342,5.342,0,0,0-5.523,4.52A39.893,39.893,0,0,0,721.334,1210.066Z" transform="translate(-717.75 -1172.333)" fill="#042080"/>
      <path id="Path_859" data-name="Path 859" d="M976.114,1212.322a2.15,2.15,0,0,1-2.255,1.3q-14.929-.036-29.858-.015c-1.664,0-2.219-.553-2.218-2.221,0-2.012-.036-4.025.027-6.035a9.09,9.09,0,0,1,9.2-8.928q7.887-.014,15.774,0a9.045,9.045,0,0,1,9.187,7.806,1.943,1.943,0,0,0,.14.364Zm-30.822-2.188h27.36c0-1.654.067-3.258-.015-4.854a5.719,5.719,0,0,0-6-5.425c-5.171.117-10.346.026-15.519.031a5.427,5.427,0,0,0-5.782,4.889A41.309,41.309,0,0,0,945.292,1210.134Z" transform="translate(-893.682 -1172.395)" fill="#042080"/>
      <path id="Path_860" data-name="Path 860" d="M749.828,1094.76a10.3,10.3,0,1,1,10.222,10.349A10.3,10.3,0,0,1,749.828,1094.76Zm17.136.027a6.858,6.858,0,1,0-6.812,6.9A6.875,6.875,0,0,0,766.964,1094.786Z" transform="translate(-742.942 -1084.503)" fill="#042080"/>
      <path id="Path_861" data-name="Path 861" d="M994.3,1094.863a10.3,10.3,0,1,1-10.21-10.359A10.3,10.3,0,0,1,994.3,1094.863Zm-3.42-.072a6.858,6.858,0,1,0-6.831,6.892A6.9,6.9,0,0,0,990.884,1094.792Z" transform="translate(-918.76 -1084.503)" fill="#042080"/>
      <path id="Path_862" data-name="Path 862" d="M884.71,1140.6c.189-.342.335-.585.462-.838,1.021-2.035,2.031-4.075,3.061-6.1a1.722,1.722,0,1,1,3.077,1.5c-1.652,3.336-3.324,6.662-4.989,9.991a1.743,1.743,0,0,1-3.215,0c-1.664-3.329-3.336-6.655-4.989-9.99a1.722,1.722,0,1,1,3.074-1.5c1.03,2.029,2.038,4.07,3.058,6.1C884.375,1140.006,884.52,1140.251,884.71,1140.6Z" transform="translate(-843.496 -1122.191)" fill="#042080"/>
    </g>
  </g>
</svg>
