<svg xmlns="http://www.w3.org/2000/svg" width="154" height="154" viewBox="0 0 154 154">
  <g id="instantwelcome" transform="translate(-6511 -4003)">
    <g id="Group_495" data-name="Group 495" transform="translate(-251 190)">
      <g id="Group_490" data-name="Group 490" transform="translate(6601.597 1633.597)">
        <circle id="Ellipse_29" data-name="Ellipse 29" cx="77" cy="77" r="77" transform="translate(160.403 2179.403)" fill="#0b1f50"/>
      </g>
    </g>
    <g id="Group_499" data-name="Group 499" transform="translate(6330.332 3711.442)">
      <path id="Path_1863" data-name="Path 1863" d="M437.881,330.558a1.789,1.789,0,0,1,.793,1.679c-.024,3.623-.01,7.245-.013,10.868a2.96,2.96,0,0,1-.049.73,1.211,1.211,0,0,1-2.347,0,3.474,3.474,0,0,1-.052-.8c0-3.574.013-7.148-.014-10.721a1.844,1.844,0,0,1,.8-1.749Z" transform="translate(-178.816 0)" fill="#f8f9fb" stroke="#fff" stroke-width="1.5"/>
      <path id="Path_1864" data-name="Path 1864" d="M272.985,666.04l7.035-3.319c.974-.459,1.938-.941,2.925-1.372a6.23,6.23,0,0,1,7.745,2.358,1.29,1.29,0,0,1-.419,2.06c-7.235,4.688-14.429,9.442-21.739,14.01a12.52,12.52,0,0,1-8.666,1.584,75.628,75.628,0,0,1-7.686-1.877c-3.073-.821-6.131-1.7-9.189-2.57a4.612,4.612,0,0,0-3.75.446,7.972,7.972,0,0,1-.972.517c-.833.341-1.437.759-1.381,1.841.036.691-.529,1.081-1.246,1.065-3.21-.072-6.42-.141-9.629-.247-.985-.033-1.371-.546-1.341-1.628q.248-8.856.506-17.713c.03-1.078.034-2.157.075-3.234a1.245,1.245,0,0,1,1.438-1.374q4.668.1,9.335.236c1.123.034,1.527.5,1.5,1.625-.012.528,0,1.057,0,1.633.753-.3,1.463-.619,2.2-.865a15.224,15.224,0,0,1,12.129.745,15.572,15.572,0,0,0,7.324,1.786c2.229-.012,4.459.12,6.689.161a7.848,7.848,0,0,1,6.917,3.868C272.833,665.854,272.9,665.926,272.985,666.04Zm-35.875,9.553a.742.742,0,0,0,.206-.016c.284-.144.567-.29.845-.444a6.961,6.961,0,0,1,5.47-.6c2.447.7,4.9,1.392,7.351,2.058,2.9.787,5.784,1.714,8.733,2.262a10.879,10.879,0,0,0,7.937-1.418c6.619-4.2,13.175-8.5,19.754-12.757.175-.113.335-.248.51-.379a3.64,3.64,0,0,0-4.262-.568c-3.056,1.438-6.1,2.907-9.166,4.32a.889.889,0,0,0-.631,1.146c.211,1.237-.162,2.069-1.806,2.007-4.36-.165-8.723-.247-13.085-.366a10.44,10.44,0,0,1-1.173-.076,1.207,1.207,0,0,1,.1-2.4,6.131,6.131,0,0,1,.661,0l11.835.316c.281.007.563,0,.858,0a5.267,5.267,0,0,0-4.786-4.264c-1.419-.076-2.842-.1-4.263-.143-1.788-.054-3.578-.089-5.366-.158a15.984,15.984,0,0,1-6.1-1.966,13.282,13.282,0,0,0-12.81.593.959.959,0,0,0-.553.922c-.076,3.382-.177,6.763-.264,10.145C237.1,674.391,237.11,674.974,237.11,675.593ZM227.7,659.2c-.173,6.291-.345,12.572-.521,18.966H234.5c.171-6.264.344-12.563.519-18.966Z" transform="translate(0 -275.603)" fill="#f8f9fb" stroke="#fff" stroke-width="1.5"/>
      <path id="Path_1865" data-name="Path 1865" d="M346.233,472.785a17.9,17.9,0,1,1,17.926-17.9A17.916,17.916,0,0,1,346.233,472.785Zm-.1-2.456a15.438,15.438,0,1,0-15.338-15.749A15.464,15.464,0,0,0,346.13,470.33Z" transform="translate(-87.611 -89.965)" fill="#f8f9fb" stroke="#fff" stroke-width="1.5"/>
      <path id="Path_1866" data-name="Path 1866" d="M498.6,374.6c0,.858.013,1.715,0,2.573a1.24,1.24,0,0,1-1.2,1.383,1.216,1.216,0,0,1-1.241-1.338q-.028-2.683,0-5.366a1.207,1.207,0,0,1,1.2-1.309,1.22,1.22,0,0,1,1.24,1.338C498.619,372.784,498.6,373.691,498.6,374.6Z" transform="translate(-229.493 -33.798)" fill="#f8f9fb" stroke="#fff" stroke-width="1.5"/>
      <path id="Path_1867" data-name="Path 1867" d="M378.788,374.585c0,.882.016,1.765-.005,2.646a1.222,1.222,0,1,1-2.435,0q-.028-2.683,0-5.366a1.222,1.222,0,1,1,2.436,0C378.805,372.772,378.788,373.679,378.788,374.585Z" transform="translate(-128.209 -33.798)" fill="#f8f9fb" stroke="#fff" stroke-width="1.5"/>
      <path id="Path_1868" data-name="Path 1868" d="M412.568,484.85a2.759,2.759,0,0,0,2.411,2.791c.556.08,1.128.09,1.671.224a5.238,5.238,0,0,1,3.988,4.8,5.164,5.164,0,0,1-3.3,5.148c-.747.269-1,.6-.916,1.342a1.039,1.039,0,0,1-.725,1.22,1.534,1.534,0,0,1-1.208-.161,1.744,1.744,0,0,1-.48-1.213,1.179,1.179,0,0,0-.844-1.284A5.069,5.069,0,0,1,410.1,493.3a1.29,1.29,0,0,1,1.16-1.57c.727-.041,1.23.482,1.311,1.365a2.8,2.8,0,0,0,5.59.067,2.842,2.842,0,0,0-2.523-3.007,9.553,9.553,0,0,1-2.745-.667,4.877,4.877,0,0,1-2.781-4.875,5,5,0,0,1,3.249-4.591c.5-.211.688-.45.628-.959a2.446,2.446,0,0,1,.028-.659,1.211,1.211,0,0,1,1.221-1.049,1.113,1.113,0,0,1,1.156,1.1c-.089.982.361,1.327,1.206,1.69a5,5,0,0,1,3.027,4.288c.115.937-.346,1.608-1.12,1.681-.733.069-1.257-.48-1.344-1.409a2.8,2.8,0,0,0-5.593.148Z" transform="translate(-156.742 -124.094)" fill="#f8f9fb" stroke="#fff" stroke-width="1.5"/>
    </g>
  </g>
</svg>
