<svg xmlns="http://www.w3.org/2000/svg" width="154" height="154" viewBox="0 0 154 154">
  <g id="lowestcredit" transform="translate(-6682 -4003)">
    <g id="Group_497" data-name="Group 497" transform="translate(-80 190)">
      <g id="Group_490" data-name="Group 490" transform="translate(6601.597 1633.597)">
        <circle id="Ellipse_29" data-name="Ellipse 29" cx="77" cy="77" r="77" transform="translate(160.403 2179.403)" fill="#f5d136"/>
      </g>
    </g>
    <g id="Group_502" data-name="Group 502" transform="translate(6490.873 3516.82)">
      <path id="Path_1869" data-name="Path 1869" d="M223.791,562.659c.147,11.284,3.607,20.856,10.57,29.14.25.3.514.582.751.888a1.346,1.346,0,0,1-.071,1.981,1.329,1.329,0,0,1-1.965-.269,80.834,80.834,0,0,1-4.909-6.6,46.164,46.164,0,0,1-6.772-29.753,46.955,46.955,0,1,1,56.037,51.043,87.585,87.585,0,0,1-9.52.968c-1.055.09-1.688-.464-1.715-1.27-.028-.841.614-1.39,1.732-1.39a43.013,43.013,0,0,0,24.338-7.215c11.151-7.427,17.819-17.817,19.649-31.1a44.256,44.256,0,0,0-87.22-14.8,37.131,37.131,0,0,0-.588,3.729C223.936,559.715,223.87,561.427,223.791,562.659Z" transform="translate(0 0)" fill="#fff" stroke="#fff" stroke-width="2"/>
      <path id="Path_1870" data-name="Path 1870" d="M297.157,556.865a34.34,34.34,0,0,0-33.9,29.908,33.229,33.229,0,0,0,2.4,17.546c.1.237.192.479.288.719a1.277,1.277,0,0,1-.652,1.788,1.292,1.292,0,0,1-1.812-.785,51.708,51.708,0,0,1-1.965-5.559,36.811,36.811,0,0,1,24.354-44.437c20.232-6.7,42.513,5.928,47.169,26.73a36.71,36.71,0,0,1-1.988,22.769,3.372,3.372,0,0,1-.5.929,1.318,1.318,0,0,1-2.214-1.344c.5-1.362,1.076-2.7,1.5-4.086a34.162,34.162,0,0,0-26.9-43.582C301.028,557.139,299.083,557.059,297.157,556.865Z" transform="translate(-29.058 -28.219)" fill="#fff" stroke="#fff" stroke-width="2"/>
      <path id="Path_1871" data-name="Path 1871" d="M362.893,668.973a6.26,6.26,0,0,1,1.37-3.566q5.183-6.77,10.426-13.493c2.033-2.592,4.152-5.118,6.246-7.662.667-.811,1.462-.957,2.09-.433a1.6,1.6,0,0,1,.366,1.782c-.951,4.284-1.838,8.583-2.861,12.849-1.075,4.484-2.123,8.985-3.467,13.392A7.171,7.171,0,0,1,365.243,675C363.641,673.561,362.9,671.715,362.893,668.973Zm16.781-18.878c-.354.392-.532.57-.688.765-2.785,3.475-5.591,6.933-8.34,10.435-1.493,1.9-2.977,3.822-4.305,5.84a4.579,4.579,0,0,0,2.671,7.026c2.551.642,4.93-.8,5.7-3.633,1.052-3.853,2-7.737,2.94-11.618C378.348,656.068,378.965,653.208,379.674,650.094Z" transform="translate(-105.109 -94.407)" fill="#fff" stroke="#fff" stroke-width="2"/>
      <path id="Path_1872" data-name="Path 1872" d="M303.037,840.785c.042,1.179-.985,1.91-1.885,1.423a37.529,37.529,0,0,1-3.752-2.371,1.171,1.171,0,0,1-.246-1.725,1.206,1.206,0,0,1,1.7-.439c1.254.723,2.472,1.513,3.667,2.332C302.8,840.2,302.931,840.619,303.037,840.785Z" transform="translate(-56.171 -238.227)" fill="#fff" stroke="#fff" stroke-width="2"/>
      <path id="Path_1873" data-name="Path 1873" d="M349.524,864.668c-1.444-.422-2.909-.784-4.323-1.291a1.133,1.133,0,0,1-.608-1.543,1.169,1.169,0,0,1,1.416-.877c1.377.3,2.747.659,4.09,1.084a1.194,1.194,0,0,1,.768,1.487A1.467,1.467,0,0,1,349.524,864.668Z" transform="translate(-91.476 -255.604)" fill="#fff" stroke="#fff" stroke-width="2"/>
    </g>
  </g>
</svg>
