<svg xmlns="http://www.w3.org/2000/svg" width="154" height="154" viewBox="0 0 154 154">
  <g id="Quikgame" transform="translate(-6502 -3813)">
    <g id="Group_489" data-name="Group 489" transform="translate(6341.597 1633.597)">
      <circle id="Ellipse_29" data-name="Ellipse 29" cx="77" cy="77" r="77" transform="translate(160.403 2179.403)" fill="#f5d136"/>
    </g>
    <g id="Group_488" data-name="Group 488" transform="translate(6093.496 3532.5)">
      <path id="Path_1856" data-name="Path 1856" d="M487.99,320.5c1.385.189,2.781.319,4.152.577a36.674,36.674,0,0,1,24.425,16,35.5,35.5,0,0,1,6.242,21.287,36.373,36.373,0,0,1-12.745,27.289,36.988,36.988,0,0,1-43.7,3.736,36.625,36.625,0,0,1-17.062-24.1c-.333-1.5-.448-3.057-.668-4.586-.034-.237-.086-.471-.13-.706v-4.646c.162-1.242.284-2.491.494-3.725a37.287,37.287,0,0,1,30.272-30.548c1.351-.238,2.718-.383,4.078-.571Zm-2.339,3.086a34.081,34.081,0,1,0,34.095,34.065A34.174,34.174,0,0,0,485.651,323.586Z" transform="translate(0.004 0)" fill="#fff" stroke="#fff" stroke-width="2"/>
      <path id="Path_1857" data-name="Path 1857" d="M632.391,397.593q0-5.48,0-10.96a4.245,4.245,0,0,1,.093-1.005,1.515,1.515,0,0,1,2.932.02,4.368,4.368,0,0,1,.089,1.006q.007,10.6-.009,21.193a1.775,1.775,0,0,0,.585,1.386q7.768,7.731,15.506,15.493a5.561,5.561,0,0,1,.676.754,1.527,1.527,0,0,1-2.118,2.115,4.6,4.6,0,0,1-.65-.576q-8.137-8.132-16.278-16.26a2.674,2.674,0,0,1-.841-2.062C632.406,405,632.391,401.295,632.391,397.593Z" transform="translate(-148.285 -51.614)" fill="#fff" stroke="#fff" stroke-width="2"/>
    </g>
  </g>
</svg>
