<svg xmlns="http://www.w3.org/2000/svg" xmlns:xlink="http://www.w3.org/1999/xlink" width="257" height="75" viewBox="0 0 257 75">
  <defs>
    <clipPath id="clip-path">
      <rect id="Rectangle_99" data-name="Rectangle 99" width="257" height="75" transform="translate(0 -0.256)" fill="none"/>
    </clipPath>
  </defs>
  <g id="rupay" transform="translate(0 0.256)" clip-path="url(#clip-path)">
    <g id="rupay-2" data-name="rupay" transform="translate(-0.3 7.192)">
      <path id="Path_13345" data-name="Path 13345" d="M222.08,516.529c4.843,1.867,5.556,4.822,4.631,9.378-.657,3.234-1.609,6.408-2.277,9.641a6.332,6.332,0,0,0,.3,2.891c.317,1.1.025,1.853-1.139,1.865q-6.623.071-13.248-.021c-.353-.005-1.028-.693-.99-.99.3-2.287.724-4.557,1.134-6.83.383-2.118.816-4.226,1.191-6.344.378-2.134-1.634-3.384-3.447-3.524a65.168,65.168,0,0,0-7.337-.046,1.842,1.842,0,0,0-1.366,1.012c-1.065,3.585-2.005,7.206-3,10.813-.46,1.676-.9,3.361-1.458,5a1.538,1.538,0,0,1-1.079.9c-4.519.041-9.04,0-13.559-.031-.084,0-.166-.117-.451-.331.886-3.242,1.787-6.576,2.71-9.9q1.256-4.526,2.55-9.042c1.149-4.03,2.338-8.049,3.45-12.088.807-2.932,1.494-5.9,2.279-8.835.938-3.5,1.886-7.006,2.942-10.474a1.868,1.868,0,0,1,1.455-.914c8.406-.034,16.819-.184,25.216.118,3.4.122,6.941.52,9.984,2.565,1.691,1.137,2.925,2.628,2.933,4.594a42.63,42.63,0,0,1-.734,7.832,14.872,14.872,0,0,1-5.351,9.007c-1.283,1.046-2.793,1.809-4.182,2.728A11.861,11.861,0,0,0,222.08,516.529Zm-11.035-15.3v-.141a28.906,28.906,0,0,1-3.345-.024c-1.663-.2-2.205.74-2.538,2.1a48.6,48.6,0,0,1-1.737,6.4c-.538,1.361-.054,1.516.987,1.524,2.337.016,4.682.09,7.011-.059a12.963,12.963,0,0,0,3.827-.9c1.9-.745,2.428-2.549,3.051-4.314.85-2.41-.112-4.307-2.64-4.555C214.137,501.11,212.585,501.231,211.045,501.231Z" transform="translate(-179.986 -488.591)" fill="#0b1f51" fill-rule="evenodd"/>
      <path id="Path_13346" data-name="Path 13346" d="M465.324,540.314,479.7,488.632h1.853c6.227,0,12.456-.074,18.682.031a49.556,49.556,0,0,1,8.854.734c5.26,1.053,9.807,4.138,9.465,11.262-.458,9.534-4.388,17.215-13.146,21.572-2.936,1.462-6.483,1.9-9.812,2.31a65.824,65.824,0,0,1-9.251.07c-1.277-.023-1.68.507-1.961,1.719-.665,2.862-1.576,5.666-2.372,8.5-.4,1.416-.7,2.861-1.176,4.251-.163.479-.7,1.175-1.079,1.181C475.037,540.342,470.314,540.314,465.324,540.314Zm23.1-28.326c2.841,0,5.31.043,7.779-.009,4.234-.091,6.709-2.268,7.416-6.435.356-2.1-.082-3.166-2.189-3.646a41.267,41.267,0,0,0-6.718-.677,5.692,5.692,0,0,0-3.071.316c-.6.366-.657,1.639-.963,2.506-.052.148-.173.274-.214.423C489.822,506.83,489.183,509.2,488.428,511.988Z" transform="translate(-374.175 -488.602)" fill="#0b1f51" fill-rule="evenodd"/>
      <path id="Path_13347" data-name="Path 13347" d="M614.164,540.106a16.757,16.757,0,0,1,11.32-10.9c5.714-1.884,11.528-1.732,17.316-1.081,2.947.331,6.172,1.1,7.807,4.053a8.024,8.024,0,0,1,1.162,4.9c-.935,4.8-2.329,9.506-3.584,14.239-.97,3.657-2.088,7.277-2.949,10.959a21.323,21.323,0,0,0-.049,4.46,7.443,7.443,0,0,1-1.313.172c-3.514.027-7.029-.042-10.54.057-1.42.04-1.99-.337-1.682-1.795a6.439,6.439,0,0,0-.1-1.563c-1.857.991-3.524,1.872-5.185,2.768-4,2.158-8.368,2.352-12.654,1.741a6.816,6.816,0,0,1-6.175-7.21c.085-5.082,1.621-9.419,5.727-12.573,2.6-2,5.742-2.779,8.909-3.362,4.095-.753,8.206-1.417,12.3-2.194a4.52,4.52,0,0,0,3.4-2.755,2.089,2.089,0,0,0-1.3-3.033c-3.626-1.281-6.114-.536-8.5,2.425a2.578,2.578,0,0,1-1.673.945c-3.831.08-7.664.041-11.5.025A2.724,2.724,0,0,1,614.164,540.106Zm20.323,10.016a65.846,65.846,0,0,0-6.73,1.922A16.211,16.211,0,0,0,623,554.9c-1.547,1.385-.851,3.643,1.086,4.381,2.434.926,6.6-.345,8.294-2.726C633.718,554.66,634.9,552.625,634.487,550.123Z" transform="translate(-470.956 -515.197)" fill="#0b1f51" fill-rule="evenodd"/>
      <path id="Path_13348" data-name="Path 13348" d="M730.972,573.5c1.273,0,2.493.05,3.708-.009,3.749-.182,5.027-1.644,5.339-5.136a48.46,48.46,0,0,0-.171-6.694c-.174-3.453-.406-6.9-.6-10.354-.252-4.448-.469-8.9-.752-13.344-.115-1.788-.359-3.568-.556-5.349-.109-.987.225-1.491,1.307-1.484,3.832.023,7.665.028,11.5-.024,1.2-.017,1.232.67,1.227,1.543q-.055,9.261-.077,18.523c0,.8.082,1.608.126,2.413l.412.067q1.979-3.642,3.957-7.284c2.5-4.623,5.007-9.24,7.468-13.883a2.342,2.342,0,0,1,2.387-1.376c3.086.054,6.173,0,9.26.013,1.446,0,1.76.611,1.028,1.864-5.025,8.595-10.02,17.209-15.075,25.787-3.753,6.368-7.575,12.695-11.376,19.034-2.766,4.612-7.032,6.7-12.23,6.962-2.863.146-5.743-.045-8.616-.078-.951-.01-1.428-.43-1.147-1.4C729.021,580.058,729.984,576.837,730.972,573.5Z" transform="translate(-552.943 -517.521)" fill="#0b1f51" fill-rule="evenodd"/>
      <path id="Path_13349" data-name="Path 13349" d="M359.5,569.237l1.364-4.822-.276-.218c-1.443,1.059-2.859,2.156-4.333,3.169a16.94,16.94,0,0,1-10.081,3.108c-6.892-.165-10.595-5.074-8.779-12.02,1.092-4.173,2-8.395,3.1-12.564.994-3.753,2.146-7.466,3.229-11.2.015-.05.046-.1.063-.147,1.164-3.443,1.164-3.443,4.784-3.443,2.554,0,5.109-.017,7.663,0,1.8.01,2.2.694,1.685,2.413-.971,3.209-1.853,6.446-2.773,9.672-.847,2.971-1.806,5.915-2.5,8.921a12.539,12.539,0,0,0-.2,4.725,3.032,3.032,0,0,0,2.083,1.762c3.525.712,6.282-.945,7.792-4.857,1.17-3.033,1.966-6.213,2.876-9.343q1.762-6.059,3.431-12.145c.264-.955.839-1.172,1.76-1.159,3.459.045,6.918.06,10.376-.006,1.324-.026,1.788.5,1.484,1.714-.537,2.151-1.115,4.293-1.7,6.431-.611,2.213-1.256,4.417-1.887,6.624-.866,3.028-1.757,6.05-2.594,9.087s-1.611,6.1-2.44,9.149c-.412,1.514-.85,3.024-1.364,4.5a1.214,1.214,0,0,1-.922.619C367.519,569.253,363.7,569.237,359.5,569.237Z" transform="translate(-286.803 -517.509)" fill="#0b1f51" fill-rule="evenodd"/>
      <path id="Path_13350" data-name="Path 13350" d="M871.683,562.649c1-4.341,2.226-8.154,2.751-12.476l-11.543,10.587c.479-2.608.753-4.79,1.294-6.906,1.019-3.986,2.154-7.944,3.323-11.889.381-1.285.764-2.473,1.193-3.747.291-.864.626-1.817.859-2.705.94-3.6,1.921-7.187,2.879-10.782,1.116-4.19,2.216-8.385,3.345-12.571.165-.61.468-1.181.69-1.777.24-.641.46-1.29.72-2.021,1.881,3.4,3.337,7.328,5.778,10.67l.613-.062,3.346-11.752a23.736,23.736,0,0,1,1.339,2.085q5.856,11.7,11.667,23.419c1.145,2.311,1.084,2.3-.79,4.063-3.835,3.6-7.629,7.25-11.46,10.857C882.45,552.575,877.193,557.484,871.683,562.649Z" transform="translate(-644.741 -501.269)" fill="#0b1f51" fill-rule="evenodd"/>
    </g>
  </g>
</svg>
