<svg xmlns="http://www.w3.org/2000/svg" width="154" height="154" viewBox="0 0 154 154">
  <g id="support" transform="translate(-6864 -4003)">
    <g id="Group_498" data-name="Group 498" transform="translate(102 190)">
      <g id="Group_490" data-name="Group 490" transform="translate(6601.597 1633.597)">
        <circle id="Ellipse_29" data-name="Ellipse 29" cx="77" cy="77" r="77" transform="translate(160.403 2179.403)" fill="#0b1f50"/>
      </g>
    </g>
    <path id="Path_1874" data-name="Path 1874" d="M466.388,638.47c5.128.156,8.226,5.422,8.245,9.748.019,4.519.059,9.041-.063,13.557a6.582,6.582,0,0,1-5.909,6.37,2.453,2.453,0,0,0-1.991,1.256,20.568,20.568,0,0,1-16.832,9.994c-.269.013-.538.042-.864.068a9.463,9.463,0,0,1-4.893,6.769,10.193,10.193,0,0,1-7.012,1.193,10.223,10.223,0,1,1,11.97-12.041,16.564,16.564,0,0,0,13.334-6.837c-.775,0-1.349,0-1.923,0-1.617-.012-2.362-.724-2.364-2.341q-.015-12.458.011-24.916a4.955,4.955,0,0,1,.355-1.655,1.592,1.592,0,0,1,1.648-1.09c.673.012,1.347,0,2.123,0,0-1.641,0-3.185,0-4.73A25.033,25.033,0,0,0,457,618.087a24.147,24.147,0,0,0-16.523-9.682c-10.278-1.294-18.526,2.41-24.566,10.806a23.594,23.594,0,0,0-4.357,13.055c-.085,2.058-.014,4.123-.014,6.279.633,0,1.225,0,1.817,0a1.986,1.986,0,0,1,2.2,1.913,7.6,7.6,0,0,1,.061,1.14q0,12.213,0,24.425c0,1.852-.66,2.523-2.493,2.52-2.532,0-5.068.062-7.6-.056a7.973,7.973,0,0,1-7.429-7.475q-.174-7.264.029-14.536a8.2,8.2,0,0,1,8.313-7.934c.266.012.532,0,.916,0,0-.428,0-.772,0-1.116a51.72,51.72,0,0,1,.5-9.362,29.491,29.491,0,0,1,16.707-21.419,29.452,29.452,0,0,1,40.961,20.091,51.143,51.143,0,0,1,.831,7.276C466.482,635.475,466.388,636.951,466.388,638.47Zm-54.906,4.2h-4.7a4.239,4.239,0,0,0-4.581,4.5c-.041,4.411-.031,8.822,0,13.234a3.968,3.968,0,0,0,4,4c1.579.032,3.159.009,4.738,0a4.233,4.233,0,0,0,.549-.073Zm50.8,21.588c1.9,0,3.755.14,5.581-.041a2.776,2.776,0,0,0,2.634-3c.026-4.411.03-8.821-.013-13.232a6.392,6.392,0,0,0-1.506-3.974,2.985,2.985,0,0,0-2.182-1.295c-1.489-.059-2.981-.016-4.514-.016ZM445.022,677.58a6.089,6.089,0,1,0-12.173-.329,6.344,6.344,0,0,0,6.2,6.214A6.011,6.011,0,0,0,445.022,677.58Z" transform="translate(6504.973 3434.032)" fill="#fff"/>
  </g>
</svg>
