<svg xmlns="http://www.w3.org/2000/svg" width="107.5" height="107.5" viewBox="0 0 107.5 107.5">
  <path id="Path_500" data-name="Path 500" d="M550.973,601.571h-6.3a5.58,5.58,0,0,0-.812-.174,49.758,49.758,0,0,1-18.837-4.923c-16.485-8.128-26.575-21.228-30.105-39.3-.4-2.042-.569-4.132-.847-6.2v-6.3a6.927,6.927,0,0,0,.177-.906,51.143,51.143,0,0,1,7.372-23.356c8.526-13.944,20.841-22.5,36.94-25.5,2.022-.378,4.073-.564,6.112-.838h6.3a5.459,5.459,0,0,0,.806.174,49.86,49.86,0,0,1,18.746,4.881c16.544,8.113,26.655,21.231,30.2,39.342.4,2.045.57,4.135.847,6.2v6.3a7.3,7.3,0,0,0-.18.9,50.435,50.435,0,0,1-6.18,21.26c-8.4,15.113-21.1,24.38-38.132,27.6C555.063,601.117,553.009,601.3,550.973,601.571Zm-3.125-47.222c-3.391,0-6.785-.026-10.179.006A17.948,17.948,0,0,0,519.551,570.5c-.363,2.945.292,5.6,2.644,7.576a39.539,39.539,0,0,0,48.34,2.207,20.4,20.4,0,0,0,4.2-3.742c1.774-2.169,1.594-4.828,1.124-7.428a17.927,17.927,0,0,0-17.937-14.762C554.561,554.325,551.206,554.349,547.848,554.349ZM530.04,527.971a17.784,17.784,0,1,0,17.71-17.8A17.841,17.841,0,0,0,530.04,527.971Z" transform="translate(-494.071 -494.071)" fill="#2622f3" fill-rule="evenodd"/>
</svg>
