<svg xmlns="http://www.w3.org/2000/svg" xmlns:xlink="http://www.w3.org/1999/xlink" width="191" height="89" viewBox="0 0 191 89">
  <defs>
    <clipPath id="clip-path">
      <rect id="Rectangle_100" data-name="Rectangle 100" width="191" height="89" transform="translate(-0.238 -0.162)" fill="none"/>
    </clipPath>
  </defs>
  <g id="visa" transform="translate(0.238 0.162)" clip-path="url(#clip-path)">
    <g id="visa-2" data-name="visa" transform="translate(3.78 14.536)">
      <g id="Group_1142" data-name="Group 1142" transform="translate(0 0)">
        <path id="Path_13351" data-name="Path 13351" d="M277.373,967.143H262.436l9.336-57.375h14.939Zm-27.5-57.375-14.241,39.462-1.685-8.5,0,0-5.026-25.8s-.608-5.166-7.086-5.166H198.29l-.276.971a55.872,55.872,0,0,1,15.625,6.559l12.978,49.847h15.564l23.765-57.377Zm117.492,57.375h13.715l-11.958-57.376H357.112c-5.545,0-6.9,4.276-6.9,4.276l-22.278,53.1h15.571l3.114-8.522h18.989Zm-16.438-20.3,7.849-21.471,4.415,21.471Zm-21.819-23.281,2.132-12.321a43.116,43.116,0,0,0-13.435-2.5c-7.413,0-25.016,3.24-25.016,18.994,0,14.823,20.661,15.007,20.661,22.792s-18.532,6.391-24.648,1.481l-2.221,12.883a41.857,41.857,0,0,0,16.861,3.24c10.191,0,25.572-5.278,25.572-19.643,0-14.918-20.846-16.307-20.846-22.792s14.549-5.655,20.942-2.132Z" transform="translate(-198.014 -908.744)" fill="#0b1f51"/>
      </g>
      <path id="Path_13352" data-name="Path 13352" d="M233.946,951.473l-5.026-25.8s-.608-5.166-7.086-5.166H198.29l-.276.971a57.877,57.877,0,0,1,22.169,11.132A44.742,44.742,0,0,1,233.946,951.473Z" transform="translate(-198.014 -919.482)" fill="#0b1f51" opacity="0.6"/>
    </g>
  </g>
</svg>
