<svg xmlns="http://www.w3.org/2000/svg" width="154" height="154" viewBox="0 0 154 154">
  <g id="winbonus2" transform="translate(-6762 -3813)">
    <g id="Group_490" data-name="Group 490" transform="translate(6601.597 1633.597)">
      <circle id="Ellipse_29" data-name="Ellipse 29" cx="77" cy="77" r="77" transform="translate(160.403 2179.403)" fill="#0b1f50"/>
    </g>
    <path id="Path_1858" data-name="Path 1858" d="M433.72,483.325c.166.093.34.174.5.28a1.655,1.655,0,0,1,.777,1.7,1.607,1.607,0,0,1-1.232,1.4,3.516,3.516,0,0,1-.923.1q-7.24.008-14.48,0h-.818c.3.25.475.4.657.553a17.1,17.1,0,0,1,6.164,10.973c.071.472.2.644.712.639,2.724-.028,5.449-.02,8.174-.008a1.718,1.718,0,0,1,1.747,1.417,1.69,1.69,0,0,1-1.04,1.887,3.3,3.3,0,0,1-1.086.156q-3.912.019-7.824,0c-.427,0-.611.1-.671.556a17.385,17.385,0,0,1-13.386,14.764,23.48,23.48,0,0,1-4.22.474c-1.709.079-3.424.019-5.137.019h-.558l-.1.17a5.9,5.9,0,0,1,.543.409q11.094,10.489,22.172,21a3.015,3.015,0,0,1,.806,1.294,1.534,1.534,0,0,1-.764,1.746,1.662,1.662,0,0,1-1.917-.072,3.328,3.328,0,0,1-.356-.3q-12.917-12.215-25.836-24.429a1.971,1.971,0,0,1-.767-1.847,1.818,1.818,0,0,1,1.974-1.452c3.172,0,6.345-.038,9.517.009a14.274,14.274,0,0,0,8.79-2.6,13.977,13.977,0,0,0,5.84-9.731h-.794q-11.531,0-23.063,0a5.594,5.594,0,0,1-.872-.052,1.718,1.718,0,0,1,.125-3.4c.232-.021.467-.014.7-.014h23.873a11.013,11.013,0,0,0-1.073-3.865,13.819,13.819,0,0,0-13.01-8.277c-3.366-.053-6.734,0-10.1-.013a1.767,1.767,0,0,1-1.927-2.019,1.973,1.973,0,0,1,1.277-1.462Z" transform="translate(6424.175 3377.068)" fill="#fef8f8" stroke="#fff" stroke-width="1.5"/>
  </g>
</svg>
