<svg xmlns="http://www.w3.org/2000/svg" width="676.945" height="524.353" viewBox="0 0 676.945 524.353">
  <g id="Group_245" data-name="Group 245" transform="translate(-456 -221.33)">
    <g id="Group_176" data-name="Group 176" transform="translate(488.441 451.352)">
      <g id="Group_174" data-name="Group 174" transform="translate(0 26.905)">
        <g id="Group_172" data-name="Group 172" opacity="0.5">
          <path id="Path_754" data-name="Path 754" d="M1191.988,1144.179c-14.935-44-54.972-80.083-101.229-84.473-43.664-4.144-85.822,18.549-129.681,18.953-70.925.654-129.791-55.61-199.272-69.861-80.749-16.562-169.866,33.609-197.589,111.237-17.9,50.129-8.733,107.611,19.654,152.372h595.355C1199.486,1233.09,1206.177,1185.983,1191.988,1144.179Z" transform="translate(-555.032 -1005.637)" fill="#e2edff"/>
        </g>
        <g id="Group_173" data-name="Group 173" transform="translate(0.178 6.5)">
          <path id="Path_755" data-name="Path 755" d="M641.412,1164.553c57.545-8.962,108.645-50.041,130.687-103.807a174.5,174.5,0,0,0,10.068-34.892c-.434-.126-.868-.253-1.3-.376a182.5,182.5,0,0,1-5.919,23.706c-8.981,27.611-25.6,52.408-47.056,71.891a170.517,170.517,0,0,1-75.525,40.026c-29.1,6.75-59.84,4.848-88.209-4.3-.251-.081-.5-.175-.749-.257-.082.43-.166.86-.244,1.291A168.847,168.847,0,0,0,641.412,1164.553Z" transform="translate(-560.675 -1025.478)" fill="#fff"/>
          <path id="Path_756" data-name="Path 756" d="M729.8,1338.357c42.956,5.743,87.086,8.814,129.531-2.056,19.253-4.93,37.855-12.766,54.16-24.22,16.369-11.5,29.92-26.528,40.665-43.343a214.965,214.965,0,0,0,20.682-42.567c-.474.048-.947.1-1.421.145a225.49,225.49,0,0,1-13.084,29.307c-9.905,18.387-22.728,35.341-38.854,48.718-15.9,13.191-34.687,22.479-54.4,28.441-41.652,12.6-85.764,10.725-128.434,5.407-46.681-5.817-93.4-15.667-140.678-13.561A251.16,251.16,0,0,0,555.574,1330c.02.457.03.913.053,1.37a240.475,240.475,0,0,1,34.552-4.972C637.043,1322.988,683.557,1332.175,729.8,1338.357Z" transform="translate(-555.574 -1160.427)" fill="#fff"/>
          <path id="Path_757" data-name="Path 757" d="M2167.9,1333.915c-16.509-3.62-32.8-8.668-47.863-16.422-14.036-7.225-27.264-16.854-36.635-29.717a67.14,67.14,0,0,1-12.794-45.572c2.637-29.979,22.18-53.939,47.44-68.188-.645-.121-1.294-.229-1.942-.338-21.206,12.253-38.105,31.019-44.568,55.691-4.121,15.733-3.174,32.434,3.73,47.245,6.621,14.2,18.006,25.58,30.891,34.241,13.6,9.141,28.97,15.547,44.667,20.085a270.691,270.691,0,0,0,57.863,10.013c1.569.1,3.14.164,4.71.237q.146-.649.287-1.3A271.921,271.921,0,0,1,2167.9,1333.915Z" transform="translate(-1573.283 -1125.129)" fill="#fff"/>
          <path id="Path_758" data-name="Path 758" d="M1287.345,1089.962a186.468,186.468,0,0,1,9.97-18.328c-.4-.183-.8-.367-1.208-.549q-3.93,6.372-7.352,13.048a185.505,185.505,0,0,0-13.565,34.717c-3.64,13.1-6.718,27.5-3.351,40.982,2.6,10.411,9.417,20.131,19.779,23.875,11.722,4.235,24.459-.16,34.839-5.912,11.313-6.269,21.671-14.64,31.474-23.027a296.057,296.057,0,0,0,27.835-27.193q5.24-5.84,10.16-11.95c-.464-.139-.928-.277-1.391-.419A293.615,293.615,0,0,1,1340,1167.322c-10.437,7.653-22.2,15.4-35.426,16.623-13.142,1.217-24.137-6.342-29.341-18.178-5.769-13.121-3.422-28.072-.11-41.505A182.366,182.366,0,0,1,1287.345,1089.962Z" transform="translate(-1036.228 -1056.145)" fill="#fff"/>
          <path id="Path_759" data-name="Path 759" d="M2313.914,1415.62c13.583.724,27.217-2.651,39.665-8.574-.033-.4-.062-.791-.1-1.186a86.955,86.955,0,0,1-33.083,8.456c-13.024.628-26.328-2.782-36.029-11.839-8.752-8.171-13.137-20.047-9.788-31.791a26.864,26.864,0,0,1,8.664-13.527c5.5-4.456,12.6-5.587,19.477-5.8,6.2-.189,12.42.254,18.588-.536a49.112,49.112,0,0,0,13.058-3.589c-.231-.376-.456-.756-.69-1.129-1.363.577-2.748,1.1-4.157,1.552-12.71,4.067-26.312.124-38.92,4.151-9.847,3.145-16.4,11.961-18.064,21.995-1.74,10.5,2.2,20.747,9.548,28.27C2290.461,1410.657,2302.074,1414.99,2313.914,1415.62Z" transform="translate(-1709.811 -1241.075)" fill="#fff"/>
          <path id="Path_760" data-name="Path 760" d="M1746.825,1537.257q-8.836-21.044-17.673-42.087c-4.123-9.815-8.458-20.519-17.35-27.017-9.387-6.86-22.16-6.861-32.65-2.662-11.143,4.458-19.992,13.112-27.55,22.19a162.148,162.148,0,0,0-31.839,62.281,166.2,166.2,0,0,0-5.013,29.725h1.346a163.735,163.735,0,0,1,29.554-82.156c7.017-9.839,15.194-19.613,25.385-26.295,10.471-6.866,24.475-10.176,36.184-4.345,10.7,5.326,15.774,17,20.164,27.425q8.225,19.532,16.411,39.081l19.438,46.29h1.41Z" transform="translate(-1267.781 -1319.415)" fill="#fff"/>
        </g>
      </g>
      <g id="Group_175" data-name="Group 175" transform="translate(349.158)" opacity="0.5">
        <path id="Path_761" data-name="Path 761" d="M1695.211,929.409c-8.5.255-17.021-.1-26.9-3.677-21.037-7.621-47.245,4.867-47.419,29.14-.135,18.84,17.188,31.309,33.236,37.054,30.272,10.838,92.976,5.156,90.025-39.822-.944-14.392-8.6-21.09-22.361-22.679C1712.075,928.3,1703.653,929.155,1695.211,929.409Z" transform="translate(-1620.889 -923.506)" fill="#e2edff"/>
      </g>
    </g>
    <g id="Group_200" data-name="Group 200" transform="translate(494.03 221.33)">
      <g id="Group_178" data-name="Group 178" transform="translate(510.904 91.046)">
        <g id="Group_177" data-name="Group 177">
          <path id="Path_762" data-name="Path 762" d="M2151.953,520.062c-8.25-2.856-13.891-7.812-20.247-15.072l2.691-5.729c6.674,8.837,8.861,13.621,17.2,12.931Z" transform="translate(-2131.706 -499.261)" fill="#ffb900"/>
        </g>
      </g>
      <g id="Group_180" data-name="Group 180" transform="translate(614.721 208.372)">
        <g id="Group_179" data-name="Group 179">
          <path id="Path_763" data-name="Path 763" d="M2459.775,887.83c-6.139-7.983-8.879-16.178-11.153-26.942l5.233-3.471c1.8,12.409,1.474,18.2,9.414,23Z" transform="translate(-2448.622 -857.417)" fill="#007bff"/>
        </g>
      </g>
      <g id="Group_182" data-name="Group 182" transform="translate(395.505 124.679)">
        <g id="Group_181" data-name="Group 181" transform="translate(0)">
          <path id="Path_764" data-name="Path 764" d="M1804.22,610.66c-8.688,2.159-15.913.919-24.77-2l-.017-6.732c9.821,4.158,13.846,7.23,21.1,1.811Z" transform="translate(-1779.433 -601.932)" fill="#14cca1"/>
        </g>
      </g>
      <g id="Group_184" data-name="Group 184" transform="translate(179.363 104.029)">
        <g id="Group_183" data-name="Group 183">
          <path id="Path_765" data-name="Path 765" d="M1137.217,540.886c-4.107,5.839-8.72,8.962-14.926,11.994l-2.666-3.834c7.247-2.834,10.757-3.215,12.757-10.153Z" transform="translate(-1119.625 -538.894)" fill="#ff5c33"/>
        </g>
      </g>
      <g id="Group_186" data-name="Group 186" transform="translate(28.407 262.136)">
        <g id="Group_185" data-name="Group 185">
          <path id="Path_766" data-name="Path 766" d="M684.464,1035.377c-9.757.49-17.065-2.209-25.654-6.946l1.77-6.891c9.277,6.2,12.716,10.14,21.821,6.029Z" transform="translate(-658.81 -1021.54)" fill="#007bff"/>
        </g>
      </g>
      <g id="Group_188" data-name="Group 188" transform="translate(56.782 82.794)">
        <g id="Group_187" data-name="Group 187">
          <path id="Path_767" data-name="Path 767" d="M760.5,499.978c-7.445-5.411-11.344-12.046-15.073-21.16l5.069-4.746c3.435,10.757,3.811,16.128,12.755,18.1Z" transform="translate(-745.43 -474.072)" fill="#14cca1"/>
        </g>
      </g>
      <g id="Group_190" data-name="Group 190" transform="translate(87.71 162.689)">
        <g id="Group_189" data-name="Group 189">
          <path id="Path_768" data-name="Path 768" d="M868.537,723.676c-8.437,5.889-16.4,7.6-26.586,8.243l-2.108-7.05c11.586.261,16.76,1.8,22.678-6.905Z" transform="translate(-839.843 -717.964)" fill="#007bff"/>
        </g>
      </g>
      <g id="Group_192" data-name="Group 192" transform="translate(209.571)">
        <g id="Group_191" data-name="Group 191">
          <path id="Path_769" data-name="Path 769" d="M1239.481,227.3c-8.461,4.975-16.211,5.978-26.04,5.768l-1.6-6.944c11.116,1.189,15.995,3.088,22.206-4.8Z" transform="translate(-1211.84 -221.33)" fill="#ffb900"/>
        </g>
      </g>
      <g id="Group_193" data-name="Group 193" transform="translate(340.515 2.707)">
        <path id="Path_770" data-name="Path 770" d="M1628.178,250.02c-7.052-3.48-11.614-8.514-16.611-15.67l2.873-4.756c5.143,8.587,6.666,13.071,14.1,13.424Z" transform="translate(-1611.567 -229.594)" fill="#14cca1"/>
      </g>
      <g id="Group_195" data-name="Group 195" transform="translate(464.68 27.121)">
        <g id="Group_194" data-name="Group 194">
          <path id="Path_771" data-name="Path 771" d="M1992.829,327.659c7.717-4.545,12-10.48,16.271-18.748l-4.721-4.791c-4.083,9.823-4.8,14.821-13.781,16.046Z" transform="translate(-1990.598 -304.12)" fill="#ff5c33"/>
        </g>
      </g>
      <g id="Group_197" data-name="Group 197" transform="translate(195.028 270.314)" opacity="0.837">
        <g id="Group_196" data-name="Group 196">
          <path id="Path_772" data-name="Path 772" d="M1185.244,1071.068c-7.78-4.634-12.617-10.8-17.8-19.424l3.607-5.141c5.245,10.266,6.66,15.516,15.1,16.628Z" transform="translate(-1167.447 -1046.504)" fill="#ff5c33"/>
        </g>
      </g>
      <g id="Group_199" data-name="Group 199" transform="translate(450.524 225.035)">
        <g id="Group_198" data-name="Group 198">
          <path id="Path_773" data-name="Path 773" d="M1967.04,908.394c-3.1,9.645-7.877,16.034-14.753,23.12l-4.9-3.6c8.3-7.358,12.691-9.64,12.646-19.632Z" transform="translate(-1947.385 -908.282)" fill="#ff5c33"/>
        </g>
      </g>
      <circle id="Ellipse_13" data-name="Ellipse 13" cx="3.14" cy="3.14" r="3.14" transform="translate(147.341 62.045)" fill="#ff5c33"/>
      <circle id="Ellipse_14" data-name="Ellipse 14" cx="3.276" cy="3.276" r="3.276" transform="translate(407.702 62.241)" fill="#ffb900"/>
      <circle id="Ellipse_15" data-name="Ellipse 15" cx="3.276" cy="3.276" r="3.276" transform="translate(493.311 162.045)" fill="#ff5c33"/>
      <circle id="Ellipse_16" data-name="Ellipse 16" cx="3.14" cy="3.14" r="3.14" transform="translate(152.365 195.187)" fill="#14cca1"/>
      <rect id="Rectangle_185" data-name="Rectangle 185" width="9.265" height="9.265" transform="matrix(0.707, -0.707, 0.707, 0.707, 0, 169.799)" fill="#ffb900"/>
      <rect id="Rectangle_186" data-name="Rectangle 186" width="9.265" height="9.265" transform="translate(568.934 159.066) rotate(-45)" fill="#14cca1"/>
    </g>
    <g id="Group_201" data-name="Group 201" transform="translate(693.917 386.487)">
      <path id="Rectangle_187" data-name="Rectangle 187" d="M21.131,0H34.06A21.131,21.131,0,0,1,55.191,21.131v0a0,0,0,0,1,0,0H0a0,0,0,0,1,0,0v0A21.131,21.131,0,0,1,21.131,0Z" transform="translate(94.565 206.252) rotate(-0.07)" fill="#ffb900"/>
      <rect id="Rectangle_188" data-name="Rectangle 188" width="35.707" height="63.224" transform="translate(104.326 150.36)" fill="#ffb900"/>
      <path id="Path_774" data-name="Path 774" d="M1500.747,1211.816v-27.323h35.707l-.035,13.269Z" transform="translate(-1396.422 -1034.133)" fill="#e8950c"/>
      <path id="Path_775" data-name="Path 775" d="M1738.008,839.5l-2.278-7.525c41.81-12.654,59.537-38.808,54.195-79.957a1.247,1.247,0,0,0-1.044-.169l-5.756,1.557c-2.3.623-3.852,2.348-3.852,4.29v8.917c0,5.411-4.567,9.737-10.4,9.849-6.023.116-16.333.31-17.7.31v-7.862c.94,0,7.5-.116,17.554-.309,1.455-.027,2.685-.939,2.685-1.989v-8.917c0-5.542,3.882-10.316,9.66-11.88l5.756-1.557a9.024,9.024,0,0,1,7.367,1.179,7.972,7.972,0,0,1,3.528,5.568c2.807,21.629-.34,39.884-9.36,54.258C1778.6,820.819,1761.656,832.339,1738.008,839.5Z" transform="translate(-1554.428 -737.896)" fill="#ffb900"/>
      <path id="Path_776" data-name="Path 776" d="M1242.986,839.5c-23.648-7.157-40.59-18.676-50.354-34.236-9.019-14.373-12.169-32.628-9.36-54.258a7.968,7.968,0,0,1,3.529-5.568,9.024,9.024,0,0,1,7.366-1.178l5.754,1.557c5.779,1.563,9.661,6.338,9.661,11.88v8.916c0,1.05,1.229,1.961,2.684,1.989,10.051.193,16.613.309,17.554.309v7.862c-1.373,0-11.682-.195-17.7-.31-5.829-.112-10.4-4.438-10.4-9.85v-8.916c0-1.943-1.548-3.667-3.853-4.29l-5.754-1.557a1.075,1.075,0,0,0-1.065.232c-5.323,41.086,12.405,67.24,54.215,79.894Z" transform="translate(-1182.278 -737.896)" fill="#ffb900"/>
      <path id="Path_777" data-name="Path 777" d="M1472.436,740.409,1463.893,847.1a45.648,45.648,0,0,1-45.508,42h-49.1a45.639,45.639,0,0,1-45.495-42l-4.429-55.362-4.115-51.326A13.811,13.811,0,0,1,1329.02,725.5h129.645A13.819,13.819,0,0,1,1472.436,740.409Z" transform="translate(-1271.659 -725.497)" fill="#ffb900"/>
      <path id="Path_778" data-name="Path 778" d="M1455.907,1014.677a45.5,45.5,0,0,1-28.985,10.378h-49.1a45.639,45.639,0,0,1-45.495-42L1327.9,927.7C1358.994,966.994,1408.577,1000.709,1455.907,1014.677Z" transform="translate(-1280.197 -861.459)" fill="#e8950c"/>
      <rect id="Rectangle_189" data-name="Rectangle 189" width="51.159" height="1.31" transform="translate(97.628 162.941)" fill="#001f40"/>
      <rect id="Rectangle_190" data-name="Rectangle 190" width="9.51" height="1.31" transform="translate(102.807 205.587)" fill="#001f40"/>
      <rect id="Rectangle_191" data-name="Rectangle 191" width="9.509" height="1.31" transform="translate(132.29 205.587)" fill="#001f40"/>
      <path id="Rectangle_192" data-name="Rectangle 192" d="M35.8,0h9.293A35.8,35.8,0,0,1,80.9,35.8v0a0,0,0,0,1,0,0H0a0,0,0,0,1,0,0v0A35.8,35.8,0,0,1,35.8,0Z" transform="translate(81.689 222.819) rotate(-0.07)" fill="#ffb900"/>
      <rect id="Rectangle_193" data-name="Rectangle 193" width="55.116" height="1.31" transform="translate(94.627 222.266)" fill="#e8950c"/>
      <ellipse id="Ellipse_17" data-name="Ellipse 17" cx="7.207" cy="14.086" rx="7.207" ry="14.086" transform="translate(157.032 31.939)" fill="#fff" opacity="0.6"/>
    </g>
    <g id="Group_202" data-name="Group 202" transform="translate(617.148 643.386)">
      <rect id="Rectangle_194" data-name="Rectangle 194" width="396.842" height="33.733" transform="translate(0.655 68.122)" fill="#fff"/>
      <rect id="Rectangle_195" data-name="Rectangle 195" width="265.688" height="33.733" transform="translate(66.232 34.389)" fill="#fff"/>
      <rect id="Rectangle_196" data-name="Rectangle 196" width="173.784" height="33.733" transform="translate(112.184 0.656)" fill="#fff"/>
      <rect id="Rectangle_197" data-name="Rectangle 197" width="195.502" height="33.728" transform="translate(101.325 68.124)" fill="#ee5e13"/>
      <rect id="Rectangle_198" data-name="Rectangle 198" width="139.21" height="33.741" transform="translate(129.471 34.383)" fill="#ee5e13"/>
      <rect id="Rectangle_199" data-name="Rectangle 199" width="81.477" height="33.728" transform="translate(158.338 0.655)" fill="#ee5e13"/>
      <rect id="Rectangle_200" data-name="Rectangle 200" width="46.15" height="7.862" transform="translate(112.188 26.507)" fill="#003e80" opacity="0.1"/>
      <rect id="Rectangle_201" data-name="Rectangle 201" width="46.15" height="7.862" transform="translate(239.815 26.507)" fill="#003e80" opacity="0.1"/>
      <rect id="Rectangle_202" data-name="Rectangle 202" width="81.477" height="7.862" transform="translate(158.338 26.507)" fill="#4a191b" opacity="0.14"/>
      <rect id="Rectangle_203" data-name="Rectangle 203" width="63.237" height="7.862" transform="translate(66.234 60.209)" fill="#003e80" opacity="0.1"/>
      <rect id="Rectangle_204" data-name="Rectangle 204" width="63.237" height="7.862" transform="translate(268.681 60.209)" fill="#003e80" opacity="0.1"/>
      <rect id="Rectangle_205" data-name="Rectangle 205" width="139.21" height="7.862" transform="translate(129.471 60.209)" fill="#4a191b" opacity="0.14"/>
      <rect id="Rectangle_206" data-name="Rectangle 206" width="100.673" height="7.862" transform="translate(0.652 93.99)" fill="#003e80" opacity="0.1"/>
      <rect id="Rectangle_207" data-name="Rectangle 207" width="100.673" height="7.862" transform="translate(296.827 93.99)" fill="#003e80" opacity="0.1"/>
      <rect id="Rectangle_208" data-name="Rectangle 208" width="195.502" height="7.862" transform="translate(101.325 93.99)" fill="#4a191b" opacity="0.14"/>
      <path id="Path_779" data-name="Path 779" d="M949.24,1611.574h-1.31v-34.389l65.579-.051,0-33.682,45.956-.019,0-33.714h46.489v1.31h-45.179l0,33.714-45.956.019,0,33.682-65.579.051Z" transform="translate(-947.93 -1509.719)" fill="#95beff"/>
      <path id="Path_780" data-name="Path 780" d="M1837.454,1611.574h-1.31V1578.5l-65.578-.051,0-33.682-45.957-.019,0-33.714h-45.928v-1.31h47.239l0,33.714,45.957.019,0,33.682,65.578.051Z" transform="translate(-1439.303 -1509.719)" fill="#95beff"/>
    </g>
    <g id="Group_214" data-name="Group 214" transform="translate(742.629 267.629)">
      <g id="Group_204" data-name="Group 204" transform="translate(40.939 84.931)">
        <g id="Group_203" data-name="Group 203" transform="translate(19.46 63.273)">
          <path id="Path_781" data-name="Path 781" d="M1520.239,815.079l-4.886,16.185,19.072,6.013-6.368-10.654,1.868-9.355Z" transform="translate(-1515.352 -815.079)" fill="#001f40"/>
          <rect id="Rectangle_209" data-name="Rectangle 209" width="4.296" height="1.311" transform="translate(8.56 12.851) rotate(-26.189)" fill="#fff"/>
        </g>
        <path id="Path_782" data-name="Path 782" d="M1476.922,634.618l13.415,1.286a14.725,14.725,0,0,1,7.648,2.868,13.837,13.837,0,0,1,5.021,13.687c-.239,1.358-.528,2.614-.735,3.684l-10.978,38.937-16.648-8.883,7.427-29-16.9-.523-9.22-19.333,3.33-15.414Z" transform="translate(-1455.948 -621.929)" fill="#007bff"/>
      </g>
      <g id="Group_206" data-name="Group 206" transform="translate(30.24 84.931)">
        <g id="Group_205" data-name="Group 205" transform="translate(25.206 80.704)">
          <path id="Path_783" data-name="Path 783" d="M1504.382,868.29l-4.15,17.742,20.925,5.164-7.578-11.025,1.37-10.189Z" transform="translate(-1500.232 -868.29)" fill="#001f40"/>
          <rect id="Rectangle_210" data-name="Rectangle 210" width="4.63" height="1.31" transform="translate(9.005 13.618) rotate(-29.869)" fill="#fff"/>
        </g>
        <path id="Path_784" data-name="Path 784" d="M1434.755,656.937l14.368,52.419,16.135-1.829-9.437-55.553c-.913-4.842-1.117-7.816-8.531-11.508l-7.939-4.4-2.036-14.133-12.037,7.837-1.946,18.411a7.709,7.709,0,0,0,7.244,8.582l4.179.178" transform="translate(-1423.288 -621.929)" fill="#007bff"/>
      </g>
      <path id="Path_785" data-name="Path 785" d="M1453.338,573.878,1429.4,576.6a4.883,4.883,0,0,1-5.4-4.281l-4.176-35.445,19.955-4.867,21.172,3.164-3.885,34.972A4.232,4.232,0,0,1,1453.338,573.878Z" transform="translate(-1390.72 -476.532)" fill="#fff"/>
      <g id="Group_208" data-name="Group 208" transform="translate(0 5.492)">
        <path id="Path_786" data-name="Path 786" d="M1343.809,391.917s1.86-9.14.418-8.8-2.927,3.843-2.927,3.843-3.164-7.6-4.378-7.526-.849,2-.849,2-2.263-1.076-2.853,1.156c0,0-2.263-1.076-2.245,3.068.007,1.507,1.218,6.743,2.754,12.794l10.84-4.122Z" transform="translate(-1330.977 -379.429)" fill="#ffba9a"/>
        <path id="Path_787" data-name="Path 787" d="M1357.813,445.909l-7.589-20.991-10.84,4.122c1.9,7.479,4.3,16.2,5.544,20.69a13.308,13.308,0,0,0,2.91,5.317l21.767,25.914L1379,467.639Z" transform="translate(-1336.63 -410.017)" fill="#003e80"/>
        <g id="Group_207" data-name="Group 207" transform="translate(0.693 1.907)">
          <path id="Path_788" data-name="Path 788" d="M1356.558,407.695a2.333,2.333,0,0,1,.271-3.63l.22.242a2.025,2.025,0,0,0-.24,3.177Z" transform="translate(-1348.372 -397.902)" fill="#974245"/>
          <rect id="Rectangle_211" data-name="Rectangle 211" width="0.328" height="4.733" transform="translate(3.949 0.107) rotate(-19.128)" fill="#974245"/>
          <path id="Path_789" data-name="Path 789" d="M1339.986,392.654l-1.37-4.081.311-.1,1.37,4.081Z" transform="translate(-1336.806 -387.414)" fill="#974245"/>
          <path id="Path_790" data-name="Path 790" d="M1334.8,394.869l-1.711-4.7.308-.113,1.711,4.7Z" transform="translate(-1333.092 -388.479)" fill="#974245"/>
        </g>
      </g>
      <g id="Group_210" data-name="Group 210" transform="translate(59.182)">
        <path id="Path_791" data-name="Path 791" d="M1598.655,367.763c-.243-4.137-3.04-3.3-3.04-3.3-.546-1.8-2.314-.6-2.314-.6a1.087,1.087,0,0,0-1.126-1.206c-1.217,0-3.741,7.046-3.741,7.046s-1.7-3.407-3.164-3.65.974,8.761.974,8.761l-.7,2.828,11.016,3.879C1597.787,375.046,1598.747,369.334,1598.655,367.763Z" transform="translate(-1560.837 -362.664)" fill="#ffba9a"/>
        <path id="Path_792" data-name="Path 792" d="M1536.348,408.407l-6.363,21.486-18.345,24.46,10.483,10.919,18.6-27.319a13.308,13.308,0,0,0,2.569-5.49c.927-4.392,2.672-12.785,4.072-20.177Z" transform="translate(-1511.64 -393.422)" fill="#003e80"/>
        <g id="Group_209" data-name="Group 209" transform="translate(28.559 1)">
          <path id="Path_793" data-name="Path 793" d="M1599.67,389.368l-.271-.183a2.025,2.025,0,0,0-.579-3.133l.195-.265A2.335,2.335,0,0,1,1599.67,389.368Z" transform="translate(-1598.82 -379.213)" fill="#974245"/>
          <rect id="Rectangle_212" data-name="Rectangle 212" width="4.733" height="0.328" transform="translate(2.644 4.611) rotate(-76.942)" fill="#974245"/>
          <rect id="Rectangle_213" data-name="Rectangle 213" width="4.305" height="0.328" transform="matrix(0.215, -0.977, 0.977, 0.215, 5.024, 5.025)" fill="#974245"/>
          <path id="Path_794" data-name="Path 794" d="M1619.306,374.148l-.317-.078,1.2-4.859.317.078Z" transform="translate(-1612.381 -368.067)" fill="#974245"/>
        </g>
      </g>
      <g id="Group_213" data-name="Group 213" transform="translate(40.67 33.826)">
        <path id="Path_795" data-name="Path 795" d="M1471.343,526.312h0a4.15,4.15,0,0,1-4.15-4.15v-7.368h8.3v7.368A4.15,4.15,0,0,1,1471.343,526.312Z" transform="translate(-1463.24 -498.784)" fill="#ffba9a"/>
        <path id="Path_796" data-name="Path 796" d="M1475.309,518.035c-1.3,4.633-6.611,4.826-8.252,0Z" transform="translate(-1463.149 -500.963)" fill="#001f40"/>
        <ellipse id="Ellipse_18" data-name="Ellipse 18" cx="6.125" cy="7.142" rx="6.125" ry="7.142" transform="translate(1.978 4.621)" fill="#ffba9a"/>
        <path id="Path_797" data-name="Path 797" d="M1458.676,477.805c.362-4.922,3.62-6.081,3.62-6.081l4.234-.072a8.625,8.625,0,0,1,3.294,6.334l1.448-.072c.9-4.812.108-9.519-2.678-10.6l1.375-.688c-11.487-2.541-14.333,2.063-12.957,10.134Z" transform="translate(-1456.18 -465.921)" fill="#001f40"/>
        <g id="Group_211" data-name="Group 211" transform="translate(0 10.261)">
          <path id="Path_798" data-name="Path 798" d="M1458.389,498.406a1.7,1.7,0,1,1-2.354-1.017A1.822,1.822,0,0,1,1458.389,498.406Z" transform="translate(-1455.128 -497.243)" fill="#ffba9a"/>
          <path id="Path_799" data-name="Path 799" d="M1459.041,501.624a1.738,1.738,0,0,0-1.118-1.118l.1-.274a2.013,2.013,0,0,1,1.295,1.3Z" transform="translate(-1457.007 -499.253)" fill="#001f40"/>
        </g>
        <g id="Group_212" data-name="Group 212" transform="translate(12.933 10.261)">
          <path id="Path_800" data-name="Path 800" d="M1494.819,498.406a1.7,1.7,0,1,0,2.355-1.017A1.822,1.822,0,0,0,1494.819,498.406Z" transform="translate(-1494.608 -497.243)" fill="#ffba9a"/>
          <path id="Path_801" data-name="Path 801" d="M1498.44,501.624l-.274-.1a2.012,2.012,0,0,1,1.294-1.3l.1.274A1.738,1.738,0,0,0,1498.44,501.624Z" transform="translate(-1497 -499.253)" fill="#001f40"/>
        </g>
      </g>
      <path id="Path_802" data-name="Path 802" d="M1427.255,535.342c4.267,14.351,2.825,36.273-2.037,52.688l-17.278,2.677,3.894-51.591Z" transform="translate(-1382.727 -478.775)" fill="#003e80"/>
      <path id="Path_803" data-name="Path 803" d="M1492.4,533.842c1.309,16.618,4.4,40.642,10.511,52.157l10.452-5.342-3.612-44.253Z" transform="translate(-1439.522 -477.767)" fill="#003e80"/>
      <path id="Path_804" data-name="Path 804" d="M1506.946,740.957c-.091-.557-9.109-55.8-10.559-60.471-1.411-4.547-10.529-8.273-10.621-8.31l.246-.608c.387.156,9.5,3.881,11,8.724,1.465,4.718,10.21,58.282,10.582,60.56Z" transform="translate(-1435.059 -570.376)" fill="#001f40"/>
      <rect id="Rectangle_214" data-name="Rectangle 214" width="0.655" height="23.848" transform="translate(40.195 116.164) rotate(-15.945)" fill="#001f40"/>
      <path id="Path_805" data-name="Path 805" d="M1540.416,729.71l-4.814-.459.062-.653,4.814.459Z" transform="translate(-1468.57 -608.724)" fill="#001f40"/>
    </g>
    <g id="Group_232" data-name="Group 232" transform="translate(575.407 467.673)">
      <g id="Group_228" data-name="Group 228" transform="translate(0 64.833)">
        <g id="Group_220" data-name="Group 220" transform="translate(14.222 84.883)">
          <g id="Group_219" data-name="Group 219">
            <g id="Group_216" data-name="Group 216">
              <g id="Group_215" data-name="Group 215" transform="translate(0.653 112.248)">
                <path id="Path_806" data-name="Path 806" d="M868.353,1773.379l-2.437,15.477h20.839l-8.165-8.165.609-7.678Z" transform="translate(-865.916 -1773.014)" fill="#001f40"/>
                <rect id="Rectangle_215" data-name="Rectangle 215" width="4.807" height="1.31" transform="matrix(0.862, -0.507, 0.507, 0.862, 8.199, 9.551)" fill="#fff"/>
              </g>
              <path id="Path_807" data-name="Path 807" d="M910.046,1430.361c-.307,1.843-.6,3.671-.936,5.484q-.855,5.133-1.784,10.163-3.29,18.075-7.2,34.995v.029c-5.192,22.784-11.129,44.105-17.68,64.242H863.922c7.458-35.594,14.682-70.808,17.008-98.067.351-4.007.585-7.853.7-11.494Z" transform="translate(-863.922 -1430.361)" fill="#14cca1"/>
            </g>
            <g id="Group_218" data-name="Group 218" transform="translate(29.233 5.352)">
              <g id="Group_217" data-name="Group 217" transform="translate(15.24 106.53)">
                <path id="Path_808" data-name="Path 808" d="M1000.587,1771.9l-.9,15.912,22.225.3-8.824-8.165.659-7.677Z" transform="translate(-999.682 -1771.898)" fill="#001f40"/>
                <rect id="Rectangle_216" data-name="Rectangle 216" width="5.098" height="1.311" transform="translate(8.61 9.905) rotate(-28.566)" fill="#fff"/>
              </g>
              <path id="Path_809" data-name="Path 809" d="M984.879,1555.852H965.517c-1.36-22.009-3.012-43.52-5.382-63.833v-.03c-1.389-11.933-3.012-23.471-4.972-34.439q-.943-5.308-2-10.441l15.955-.278,7.941-.132c.526,3.246,1.024,6.508,1.462,9.783C983.022,1488.539,984.294,1522.027,984.879,1555.852Z" transform="translate(-953.16 -1446.7)" fill="#14cca1"/>
            </g>
          </g>
          <path id="Path_810" data-name="Path 810" d="M953.423,1445.5l-11.187.512-12.167.556-14.229.643c.351-4.007.585-7.853.7-11.494l28.414-5.352c-.307,1.843-.6,3.671-.936,5.484l7.941-.132C952.487,1438.96,952.984,1442.221,953.423,1445.5Z" transform="translate(-898.832 -1430.361)" fill="#4a191b" opacity="0.3"/>
          <path id="Path_811" data-name="Path 811" d="M969.369,1543.337l-.642-.13,6.581-32.66.642.13Z" transform="translate(-934.394 -1484.279)" fill="#001f40"/>
        </g>
        <g id="Group_225" data-name="Group 225">
          <path id="Path_812" data-name="Path 812" d="M920.878,1302.938c-9.809,1.06-17.823.242-25.623-4.459l-7.589,12.885,8.839,7.9-1.777,27.881a4.092,4.092,0,0,0,4.084,4.352h33.474a4.351,4.351,0,0,0,4.345-4.14l1.43-29.555,14.987-3.542-3.456-11.807C938.173,1303.788,927.871,1304.506,920.878,1302.938Z" transform="translate(-865.666 -1256.798)" fill="#007bff"/>
          <g id="Group_222" data-name="Group 222">
            <path id="Path_813" data-name="Path 813" d="M850.1,1212.926l-7.59,12.884-10.515-9.4c-.234-.2-.453-.424-.672-.643a15.44,15.44,0,0,1-4.095-7.487c-.088-.366-.176-.761-.249-1.156-2.311-10.251-6.683-30.213-6.464-31.967.307-2.369,2.735-1.331,2.735-1.331.19-2.267,2.077-1.038,2.077-1.038,0-1.287.424-1.594,1.711-1.536,1.272.073,2.983,7.809,2.983,7.809s1.886-4.022,3.29-3.714-1.214,8.043-1.214,8.043l9.14,22.418A45.942,45.942,0,0,0,850.1,1212.926Z" transform="translate(-820.507 -1171.241)" fill="#ffba9a"/>
            <path id="Path_814" data-name="Path 814" d="M846.038,1285.752a5.105,5.105,0,0,1-1.433,3.568,15.439,15.439,0,0,1-4.095-7.487c-.088-.366-.176-.761-.249-1.156a5.005,5.005,0,0,1,.658-.044A5.115,5.115,0,0,1,846.038,1285.752Z" transform="translate(-833.791 -1244.799)" fill="#ff5c33" opacity="0.2"/>
            <g id="Group_221" data-name="Group 221" transform="translate(1.19 1.509)">
              <path id="Path_815" data-name="Path 815" d="M842.8,1201.358a2.333,2.333,0,0,1,.064-3.639l.234.23a2.023,2.023,0,0,0-.059,3.184Z" transform="translate(-836.125 -1190.554)" fill="#974245"/>
              <path id="Path_816" data-name="Path 816" d="M835.4,1179.139l-.673-3.225.321-.067.673,3.225Z" transform="translate(-831.259 -1175.848)" fill="#974245"/>
              <path id="Path_817" data-name="Path 817" d="M829.2,1181.745l-.8-2.673.313-.095.8,2.673Z" transform="translate(-827.005 -1177.952)" fill="#974245"/>
              <rect id="Rectangle_217" data-name="Rectangle 217" width="0.327" height="2.586" transform="matrix(0.966, -0.259, 0.259, 0.966, 0, 2.021)" fill="#974245"/>
            </g>
          </g>
          <g id="Group_224" data-name="Group 224" transform="translate(83.934 15.801)">
            <path id="Path_818" data-name="Path 818" d="M1095.622,1252.861c-.146.249-.307.482-.453.731l-.979,1.463a10.019,10.019,0,0,1-5.66,4.094,2.9,2.9,0,0,1-.38.1l-7.97,1.886-3.451-11.8c3.188-.38,6.464-.79,9.783-1.229l9.871-18.646s0-7.926,1.1-8.16,1.96,4.621,1.96,4.621,4.256-6.449,5.6-6.449.98,1.828.98,1.828,1.243-1.535,1.989-.8c.38.38.322,1.77.322,1.77a1.354,1.354,0,0,1,1.458-.054C1111.661,1223,1105.7,1236.7,1095.622,1252.861Z" transform="translate(-1076.728 -1219.475)" fill="#ffba9a"/>
            <path id="Path_819" data-name="Path 819" d="M1119.215,1320.281c-.146.249-.307.483-.453.732l-.979,1.462a10.021,10.021,0,0,1-5.66,4.094,4.8,4.8,0,0,1-.307-1.711,5.115,5.115,0,0,1,5.118-5.118A5,5,0,0,1,1119.215,1320.281Z" transform="translate(-1100.322 -1286.895)" fill="#ff5c33" opacity="0.2"/>
            <g id="Group_223" data-name="Group 223" transform="translate(23.396 1.381)">
              <path id="Path_820" data-name="Path 820" d="M1148.313,1245.814l-.165-.285a2.024,2.024,0,0,0,.845-3.071l.289-.153A2.334,2.334,0,0,1,1148.313,1245.814Z" transform="translate(-1148.148 -1236.208)" fill="#974245"/>
              <path id="Path_821" data-name="Path 821" d="M1161.615,1226.75l-.289-.156,1.557-2.9.289.156Z" transform="translate(-1157.009 -1223.691)" fill="#974245"/>
              <path id="Path_822" data-name="Path 822" d="M1168.359,1229.622l-.291-.151,1.467-2.811.29.151Z" transform="translate(-1161.543 -1225.688)" fill="#974245"/>
              <path id="Path_823" data-name="Path 823" d="M1172.767,1231.785l-.279-.171,1.349-2.208.279.171Z" transform="translate(-1164.515 -1227.534)" fill="#974245"/>
            </g>
          </g>
          <rect id="Rectangle_218" data-name="Rectangle 218" width="0.655" height="17.672" transform="matrix(0.643, -0.766, 0.766, 0.643, 21.782, 54.877)" fill="#001f40"/>
          <path id="Path_824" data-name="Path 824" d="M1039.63,1354.2l-.654-.033.983-18.89.654.033Z" transform="translate(-967.409 -1281.544)" fill="#001f40"/>
          <path id="Path_825" data-name="Path 825" d="M976.878,1342.075a8.418,8.418,0,0,1-5.954-2.654l.471-.455a7.62,7.62,0,0,0,6.195,2.415,5.881,5.881,0,0,0,4.428-2.9l.56.34a6.522,6.522,0,0,1-4.914,3.213A6.987,6.987,0,0,1,976.878,1342.075Z" transform="translate(-921.65 -1283.693)" fill="#001f40"/>
        </g>
        <g id="Group_227" data-name="Group 227" transform="translate(45.694 22.693)">
          <path id="Path_826" data-name="Path 826" d="M976.152,1299.438h0a4.759,4.759,0,0,1-5.26-4.2L969.632,1284l9.46-1.06,1.259,11.236A4.76,4.76,0,0,1,976.152,1299.438Z" transform="translate(-966.475 -1269.043)" fill="#ffba9a"/>
          <path id="Path_827" data-name="Path 827" d="M979.28,1296.925a15.165,15.165,0,0,0,7.516,5.021l-.68-6.065Z" transform="translate(-972.962 -1277.744)" fill="#001f40"/>
          <path id="Path_828" data-name="Path 828" d="M983.582,1258.011s1.819,11.931-2.344,13.457c-3.89,1.426-9.007-1.3-9.007-1.3l-3.434-10.017,4.456-4.063Z" transform="translate(-965.914 -1250.985)" fill="#ffba9a"/>
          <path id="Path_829" data-name="Path 829" d="M964.676,1253.366a6.653,6.653,0,0,1,3.459-5.552c6.778,2.746,11.02.646,14.063-3.743,0,0-3.88.832-6.216-.676s-8.353-5.89-12.156.46c-5.319,2.466-4.191,6.754-2.04,9.511Z" transform="translate(-959.995 -1240.514)" fill="#001f40"/>
          <g id="Group_226" data-name="Group 226" transform="translate(0.097 10.076)">
            <ellipse id="Ellipse_19" data-name="Ellipse 19" cx="2.459" cy="2.835" rx="2.459" ry="2.835" transform="matrix(0.865, -0.501, 0.501, 0.865, 0, 2.464)" fill="#ffba9a"/>
            <path id="Path_830" data-name="Path 830" d="M969.553,1280.5a2.459,2.459,0,0,0-1.362-2.2l.3-.583a3.106,3.106,0,0,1,1.719,2.731Z" transform="translate(-965.603 -1275.61)" fill="#001f40"/>
          </g>
        </g>
      </g>
      <g id="Group_231" data-name="Group 231" transform="translate(21.774)">
        <g id="Group_229" data-name="Group 229">
          <path id="Path_831" data-name="Path 831" d="M911.688,975.33a22.7,22.7,0,0,1,10.4,42.889l2.266,11.709-8.092-9.633a22.715,22.715,0,1,1-4.575-44.964Z" transform="translate(-888.32 -974.675)" fill="#fff"/>
          <path id="Path_832" data-name="Path 832" d="M924.133,1030.938l-9.469-11.273A23.37,23.37,0,1,1,933.711,996.7a23.286,23.286,0,0,1-12.233,20.528Zm-8.964-12.709,6.717,8-1.879-9.71.436-.225a22.034,22.034,0,1,0-10.1,2.463,22.248,22.248,0,0,0,4.443-.448Z" transform="translate(-886.975 -973.33)" fill="#95beff"/>
        </g>
        <g id="Group_230" data-name="Group 230" transform="translate(9.609 20.73)">
          <circle id="Ellipse_20" data-name="Ellipse 20" cx="3.175" cy="3.175" r="3.175" fill="#95beff"/>
          <circle id="Ellipse_21" data-name="Ellipse 21" cx="3.175" cy="3.175" r="3.175" transform="translate(10.584)" fill="#95beff"/>
          <circle id="Ellipse_22" data-name="Ellipse 22" cx="3.175" cy="3.175" r="3.175" transform="translate(21.167)" fill="#95beff"/>
        </g>
      </g>
    </g>
    <g id="Group_244" data-name="Group 244" transform="translate(934.447 447.363)">
      <g id="Group_240" data-name="Group 240" transform="translate(0 73.546)">
        <g id="Group_233" data-name="Group 233" transform="translate(0 36.686)">
          <path id="Path_833" data-name="Path 833" d="M1977.657,1247.83,1964,1275.353l-9.648,6.841,5.521,7.146c2.525-1.1,4.944-2.169,6.8-2.995a18.145,18.145,0,0,0,6.046-4.374l10.138-11.151Z" transform="translate(-1941.961 -1247.83)" fill="#ff5c33"/>
          <path id="Path_834" data-name="Path 834" d="M1925.273,1355.319s-9.021-.232-8.733,2.448c.272,2.538,6.074,4.08,6.074,4.08s-3.2,3.477-2.085,3.536c.919.048,7.744-2.818,13.914-5.5l-5.521-7.146Z" transform="translate(-1916.533 -1318.368)" fill="#ffba9a"/>
        </g>
        <g id="Group_234" data-name="Group 234" transform="translate(41.959 171.271)">
          <path id="Path_835" data-name="Path 835" d="M2066.249,1659.554l-.221,18.1h-21.411l9.933-8.829,1.1-10.154Z" transform="translate(-2044.617 -1658.671)" fill="#001f40"/>
          <rect id="Rectangle_219" data-name="Rectangle 219" width="1.311" height="4.599" transform="matrix(0.691, -0.723, 0.723, 0.691, 9.48, 10.628)" fill="#fff"/>
        </g>
        <g id="Group_235" data-name="Group 235" transform="translate(71.848 93.897)">
          <path id="Path_836" data-name="Path 836" d="M2135.86,1429.27l16.778-6.794,8.278,19.746-11.983-5.747-9.791,2.908Z" transform="translate(-2135.86 -1422.476)" fill="#001f40"/>
          <rect id="Rectangle_220" data-name="Rectangle 220" width="4.6" height="1.31" transform="translate(12.461 13.765) rotate(-69.051)" fill="#fff"/>
        </g>
        <path id="Path_837" data-name="Path 837" d="M2010.739,1352.163l16.8,95.6,18.56-.651-11.4-106.8Z" transform="translate(-1979.878 -1273.328)" fill="#007bff"/>
        <path id="Path_838" data-name="Path 838" d="M2045.793,1357.27l1.656,50.012a7.811,7.811,0,0,0,4.442,6.79h0a7.809,7.809,0,0,0,7.244-.27l22.316-12.774-1.028-19.823-12.692,4.714-.061-30.823Z" transform="translate(-2003.449 -1283.27)" fill="#007bff"/>
        <g id="Group_237" data-name="Group 237" transform="translate(30.861 9.347)">
          <path id="Path_839" data-name="Path 839" d="M2067.822,1224.1l-17.885-10.478a15.838,15.838,0,0,0-6.152-2.063l-11.531-1.36-9.577,3a14.169,14.169,0,0,0-9.912,12.694l-2.026,34.592,33.362-7.011,2.659-23.933,19.247,9.032a7.98,7.98,0,0,0,10.319-2.9c4.406-7.028,11.572-18.762,16.163-27.82l-10.947-3.884Z" transform="translate(-2010.739 -1190.998)" fill="#ff5c33"/>
          <path id="Path_840" data-name="Path 840" d="M2239.9,1168.287s.544-1.45-.181-1.9-1.541.363-1.541.363.816-1.994-.363-2.357-5.711,6.255-5.711,6.255-.544-4.17-1.723-4.079-1.9,8.431-1.9,8.431l-1.6,2.349,10.947,3.884c2.687-5.3,4.494-9.689,4.343-11.673C2242,1167.369,2239.9,1168.287,2239.9,1168.287Z" transform="translate(-2156.073 -1164.374)" fill="#ffba9a"/>
          <g id="Group_236" data-name="Group 236" transform="translate(76.344 1.703)">
            <path id="Path_841" data-name="Path 841" d="M2243.989,1189.07l-.2-.261a2.025,2.025,0,0,0,.448-3.154l.266-.189A2.335,2.335,0,0,1,2243.989,1189.07Z" transform="translate(-2243.789 -1180.259)" fill="#974245"/>
            <path id="Path_842" data-name="Path 842" d="M2256.523,1172.46l-.269-.189,1.891-2.7.268.189Z" transform="translate(-2252.17 -1169.574)" fill="#974245"/>
            <rect id="Rectangle_221" data-name="Rectangle 221" width="2.791" height="0.327" transform="translate(5.69 3.904) rotate(-50.08)" fill="#974245"/>
            <rect id="Rectangle_222" data-name="Rectangle 222" width="2.586" height="0.326" transform="matrix(0.62, -0.785, 0.785, 0.62, 6.798, 5.181)" fill="#974245"/>
          </g>
        </g>
        <g id="Group_239" data-name="Group 239" transform="translate(43.183 0)">
          <path id="Path_843" data-name="Path 843" d="M2066.485,1165.762c-.286,4.246-3.932,8.276-8.578,7.963s-9.826-5.21-9.54-9.457,5.084-6.447,9.738-6.3C2064.633,1158.186,2066.771,1161.515,2066.485,1165.762Z" transform="translate(-2048.355 -1150.718)" fill="#e8950c"/>
          <path id="Path_844" data-name="Path 844" d="M2066.7,1210.873h0a4.406,4.406,0,0,1-4.1-4.692l.672-9.987,8.792.592-.672,9.987A4.406,4.406,0,0,1,2066.7,1210.873Z" transform="translate(-2057.926 -1176.423)" fill="#ffba9a"/>
          <path id="Path_845" data-name="Path 845" d="M2069.338,1212.85c-1.989,2.1-4.148,3.692-6.72,4.059l.361-4.76Z" transform="translate(-2057.946 -1187.152)" fill="#001f40"/>
          <path id="Path_846" data-name="Path 846" d="M2053.354,1172.628s-1.717,11.333,2.153,12.548,8.67-1.233,8.67-1.233l.941-8.569-1.079-5.57Z" transform="translate(-2051.461 -1158.678)" fill="#ffba9a"/>
          <path id="Path_847" data-name="Path 847" d="M2064.058,1177.063a10.341,10.341,0,0,1-2.415-5.3c-2.782,1.21-6.166,1.339-10.036.6l1.148-3.557,8.469-1.61,4.368,1.249Z" transform="translate(-2050.542 -1156.924)" fill="#e8950c"/>
          <g id="Group_238" data-name="Group 238" transform="translate(11.46 17.1)">
            <ellipse id="Ellipse_23" data-name="Ellipse 23" cx="2.335" cy="2.017" rx="2.335" ry="2.017" transform="matrix(0.619, -0.785, 0.785, 0.619, 0, 3.667)" fill="#ffba9a"/>
            <path id="Path_848" data-name="Path 848" d="M2089.61,1196.2l-.653-.046a1.964,1.964,0,0,1,2.027-2.1l.02.655C2090.111,1194.741,2089.681,1195.2,2089.61,1196.2Z" transform="translate(-2087.117 -1192.088)" fill="#001f40"/>
          </g>
          <circle id="Ellipse_24" data-name="Ellipse 24" cx="5.474" cy="5.474" r="5.474" transform="translate(9.876 8.914) rotate(-54.516)" fill="#e8950c"/>
        </g>
        <path id="Path_849" data-name="Path 849" d="M2010.488,1298.982l-.653-.043,2.457-37.508.653.043Z" transform="translate(-1979.271 -1220.289)" fill="#001f40"/>
        <path id="Path_850" data-name="Path 850" d="M2118.128,1279.4l-14.25-7.207.3-.583,14.25,7.207Z" transform="translate(-2042.507 -1227.131)" fill="#001f40"/>
        <path id="Path_851" data-name="Path 851" d="M2063.313,1246.592a4.508,4.508,0,0,1-.777-.067,5,5,0,0,1-3.833-3.951l.632-.172a4.371,4.371,0,0,0,3.316,3.478c1.887.331,4-.79,5.49-2.925l.537.376A6.869,6.869,0,0,1,2063.313,1246.592Z" transform="translate(-2012.13 -1207.494)" fill="#001f40"/>
        <path id="Path_852" data-name="Path 852" d="M2054.717,1436.3a8.051,8.051,0,0,1-2.591-.409,7.651,7.651,0,0,1-4.816-4.819c-1.306-4.788-1.95-42.8-1.977-44.413l.655-.011c.006.394.669,39.542,1.954,44.252a7.065,7.065,0,0,0,4.395,4.37c3.227,1.091,7.343-.181,11.907-3.67l.4.519C2060.422,1435.346,2057.133,1436.3,2054.717,1436.3Z" transform="translate(-2003.139 -1304.487)" fill="#001f40"/>
        <rect id="Rectangle_223" data-name="Rectangle 223" width="24.118" height="0.657" transform="translate(54.204 105.888) rotate(-20.06)" fill="#001f40"/>
      </g>
      <g id="Group_243" data-name="Group 243" transform="translate(50.163 0)">
        <g id="Group_241" data-name="Group 241">
          <path id="Path_853" data-name="Path 853" d="M2094.378,913.33a22.7,22.7,0,0,0-10.4,42.889l-2.266,11.708,8.092-9.633a22.715,22.715,0,1,0,4.574-44.964Z" transform="translate(-2071.01 -912.675)" fill="#fff"/>
          <path id="Path_854" data-name="Path 854" d="M2079.242,968.938l2.654-13.713a23.345,23.345,0,1,1,11.137,2.84,23.544,23.544,0,0,1-4.321-.4Zm13.791-56.3a22.047,22.047,0,0,0-10.1,41.651l.435.225-1.878,9.71,6.718-8,.383.078a22.059,22.059,0,1,0,4.442-43.667Z" transform="translate(-2069.664 -911.33)" fill="#95beff"/>
        </g>
        <g id="Group_242" data-name="Group 242" transform="translate(9.61 20.094)">
          <circle id="Ellipse_25" data-name="Ellipse 25" cx="3.175" cy="3.175" r="3.175" fill="#95beff"/>
          <circle id="Ellipse_26" data-name="Ellipse 26" cx="3.175" cy="3.175" r="3.175" transform="translate(10.583)" fill="#95beff"/>
          <circle id="Ellipse_27" data-name="Ellipse 27" cx="3.175" cy="3.175" r="3.175" transform="translate(21.167)" fill="#95beff"/>
        </g>
      </g>
    </g>
    <path id="Path_855" data-name="Path 855" d="M0,0V0Z" transform="translate(456 744.373)" fill="#001f40"/>
  </g>
</svg>
