<svg xmlns="http://www.w3.org/2000/svg" xmlns:xlink="http://www.w3.org/1999/xlink" width="247" height="75" viewBox="0 0 247 75">
  <defs>
    <clipPath id="clip-path">
      <rect id="Rectangle_4" data-name="Rectangle 4" width="247" height="75" transform="translate(2905 1554)" fill="#fff" stroke="#707070" stroke-width="1"/>
    </clipPath>
  </defs>
  <g id="Mask_Group_1" data-name="Mask Group 1" transform="translate(-2905 -1554)" clip-path="url(#clip-path)">
    <g id="logow" transform="translate(2704.7 1283.385)">
      <path id="Path_15" data-name="Path 15" d="M225.25,342.672H209.694V335.2h23.844c.015.277.029.539.029.787,0,10.793.015,21.6-.015,32.394a17.774,17.774,0,0,1-2.622,9.992,13.775,13.775,0,0,1-10.225,6.234,19.952,19.952,0,0,1-16.765-5.287c-.189-.175-.408-.335-.641-.539,1.617-2.243,3.175-4.4,4.763-6.613.583.5,1.122.976,1.675,1.413a13.3,13.3,0,0,0,6.933,3.117,7.532,7.532,0,0,0,8.4-6.569,15.376,15.376,0,0,0,.146-2.17c.015-8.1,0-16.212,0-24.31C225.25,343.357,225.25,343.065,225.25,342.672Z" transform="translate(0 -52.615)" fill="#fff"/>
      <path id="Path_16" data-name="Path 16" d="M646.1,437.618c1.369-1.646,2.651-3.19,3.991-4.792.248.2.5.379.728.568a17.387,17.387,0,0,0,10.72,4.311,7.818,7.818,0,0,0,5.229-1.427,4.122,4.122,0,0,0-.364-6.831c-1.908-1.18-4.093-1.573-6.205-2.185A45.574,45.574,0,0,1,653.383,425a10.09,10.09,0,0,1-4.559-14.172,9.743,9.743,0,0,1,5.87-4.734c6.8-2.185,13.095-.918,18.877,3.19a3.368,3.368,0,0,0,.335.2c-1.165,1.646-2.272,3.2-3.379,4.777a16.43,16.43,0,0,0-9.613-3.379,8.462,8.462,0,0,0-4.573.918,4.015,4.015,0,0,0-.306,6.919,24.5,24.5,0,0,0,5.462,2.1c2.709.816,5.491,1.369,8.04,2.709a10.257,10.257,0,0,1,3.292,15.5,12.258,12.258,0,0,1-8.448,4.37,22.448,22.448,0,0,1-17.8-5.491C646.421,437.807,646.26,437.735,646.1,437.618Z" transform="translate(-378.619 -111.949)" fill="#fff"/>
      <path id="Path_17" data-name="Path 17" d="M453.753,418H459.9c.015.2.044.422.044.626,0,6.919.044,13.837-.044,20.741a15.547,15.547,0,0,1-3.481,10.269,14.641,14.641,0,0,1-11.157,5.1,16.311,16.311,0,0,1-8.71-1.879A13.959,13.959,0,0,1,429.37,442a35.021,35.021,0,0,1-.277-4.282c-.029-6.263-.015-12.527-.015-18.79v-.9H435.3v.816c0,6.584-.015,13.153,0,19.736a11.335,11.335,0,0,0,2.738,7.764c3.321,3.772,12.206,4.107,14.886-3.175a14.145,14.145,0,0,0,.816-4.923v-19.3C453.753,418.655,453.753,418.364,453.753,418Z" transform="translate(-192.889 -123.008)" fill="#fff"/>
      <path id="Path_18" data-name="Path 18" d="M1393.779,449.2h15.614v4.792h-15.614v8.463h17.945v5.025H1388.2V435.8h23v5.025h-17.435C1393.779,443.636,1393.779,446.375,1393.779,449.2Z" transform="translate(-1013.136 -138.225)" fill="#fff"/>
      <path id="Path_19" data-name="Path 19" d="M1214.158,469.189v-12.76h-15.57v12.76H1193.3V437.815h5.273v13.5h15.571V437.8h5.3v31.374C1217.712,469.189,1215.979,469.189,1214.158,469.189Z" transform="translate(-846.497 -139.932)" fill="#fff"/>
      <path id="Path_20" data-name="Path 20" d="M1736,385.583a14.555,14.555,0,0,1,12.119,4.923,21.176,21.176,0,0,1,5.477,12.264,23.617,23.617,0,0,1-2.316,13.779c-.437.859-.99,1.661-1.5,2.491a3.429,3.429,0,0,1-.321.379c-.728-.991-1.442-1.923-2.112-2.87a9.717,9.717,0,0,1-1.311-2.01c-.291-.8-1.049-1.267-1.194-2.2a7.774,7.774,0,0,0-1.121-2.025,2.921,2.921,0,0,1-.19-.816c-.029-.131,0-.32-.073-.408a7.135,7.135,0,0,1-1.238-2.112c-.306-.816-1.064-1.471-1.311-2.3-.35-1.18-.99-2.243-1.34-3.394a17.154,17.154,0,0,1-.859-2.083c-.116-.947-.816-1.777-.772-2.578a5.237,5.237,0,0,0-.6-2.127c-.088-.32.029-.685-.044-1.02a11.606,11.606,0,0,1-.568-2.913c.073-1.005-.612-1.923-.2-2.928.058-.146-.044-.379-.1-.553C1736.306,386.574,1736.16,386.122,1736,385.583Z" transform="translate(-1310.491 -95.381)" fill="#fff"/>
      <path id="Path_21" data-name="Path 21" d="M1569.5,293.087c.408.087.757.16,1.107.248,1.005.262,1.282.583,1.325,1.631.029.772.029,1.559.029,2.331.015,5.287,0,10.589.029,15.877.015,4.559.087,9.118.116,13.692.015,1.6-.524,2.185-2.112,2.185-1.5,0-3-.073-4.5-.146-.874-.044-1.194-.422-1.238-1.3-.015-.262-.015-.539-.015-.8-.014-5.651-.029-11.317-.058-16.969q-.044-7.276-.087-14.566c-.015-1.515.16-1.762,1.675-1.981.757-.116,1.034-.393,1-1.209-.146-5.331-.233-10.677-.335-16.008a5.142,5.142,0,0,1,0-.947c.1-.5.175-1.311.452-1.4a5.488,5.488,0,0,1,2.126-.015c.131.015.306.422.321.67.073.947.116,1.894.116,2.826.029,5.069.044,10.152.058,15.221C1569.5,292.636,1569.5,292.839,1569.5,293.087Z" transform="translate(-1163.625)" fill="#fff"/>
      <path id="Path_22" data-name="Path 22" d="M883.9,455.8h-6.1V420.9h6.1Z" transform="translate(-576.689 -125.498)" fill="#fff"/>
      <path id="Path_23" data-name="Path 23" d="M987,330.215V337c8.317-7.268,16.532-14.449,24.834-21.7.058.277.116.408.087.437Q996.253,332.8,980.5,349.952V330.2C982.685,330.215,984.8,330.215,987,330.215Z" transform="translate(-664.557 -35.613)" fill="#fff"/>
      <path id="Path_24" data-name="Path 24" d="M1648.308,472.142a13.843,13.843,0,0,1-7.152-2.127,18.722,18.722,0,0,1-8.011-10.968,23.7,23.7,0,0,1,1.922-18.848l.262-.437a3.226,3.226,0,0,1,.218-.262c.175.612.685,1.049.248,1.69a.18.18,0,0,0-.029.146c.553.874.16,1.879.437,2.811a7.163,7.163,0,0,1,.568,2.84,3.5,3.5,0,0,0,.51,2.141c.044.116.146.277.116.335-.51.7.16,1.151.306,1.719a9.706,9.706,0,0,1,.175,1.136,1.618,1.618,0,0,0,.029.277c.393.888.8,1.777,1.18,2.665.16.364.219.757.364,1.136a5.483,5.483,0,0,0,.437.816c.2.32.539.583.291,1.02a.31.31,0,0,0,.015.277c.539.845,1.107,1.69,1.646,2.534a5.378,5.378,0,0,1,.233.728,5.464,5.464,0,0,0,.51.961c.218.291.641.481.321.947a.312.312,0,0,0,.015.277c.422.714.874,1.413,1.3,2.127l1.311,2.229a3.394,3.394,0,0,0,.175.32C1646.546,469.782,1647.391,470.9,1648.308,472.142Z" transform="translate(-1221.663 -141.369)" fill="#fff"/>
      <path id="Path_25" data-name="Path 25" d="M1028.2,529.282c1.369-1.486,2.666-2.9,3.918-4.282.772.728,1.544,1.4,2.258,2.141Q1042,535.05,1049.583,543a2.724,2.724,0,0,1,.379.772,3.847,3.847,0,0,1-.772.219c-1.719.029-3.437.015-5.156.058a4.364,4.364,0,0,1-3.423-1.5c-2.607-2.767-5.2-5.564-7.793-8.346C1031.3,532.589,1029.773,530.972,1028.2,529.282Z" transform="translate(-705.317 -214.378)" fill="#fff"/>
      <path id="Path_26" data-name="Path 26" d="M1710.482,425.4c-.758.6-1.515,1.18-2.229,1.777-.452.379-.772.35-1.092-.175-1.894-2.957-3.845-5.885-5.681-8.87-4.341-7.064-6.613-14.886-8.288-22.912-.218-1.049-.452-2.083-.656-3.132a.807.807,0,0,1,.1-.568,10.749,10.749,0,0,1,3.656-1.617,11.744,11.744,0,0,0,.1,1.253c.087.452.481.874.058,1.355a.323.323,0,0,0,0,.2,4.965,4.965,0,0,1,.291,1.981,9.746,9.746,0,0,0,.568,2.826c.1.408.335.772.029,1.224-.087.131.1.481.19.728.2.583.772,1.063.422,1.806-.073.16.175.481.277.728.218.568.772,1.034.437,1.733a.189.189,0,0,0,.029.146c.32.787.641,1.573.947,2.36.189.481.32.976.524,1.457.116.277.35.524.466.8a6.192,6.192,0,0,1,.233.888c.014.087-.029.219.014.277.539.845,1.093,1.69,1.6,2.549a4.393,4.393,0,0,1,.262.772,1.949,1.949,0,0,0,.19.583,8.682,8.682,0,0,0,.786.859c-.058.029-.131.073-.19.1.16.379.306.757.466,1.136.146.335.306.656.466.99.029.058.029.146.058.2.5.728,1.02,1.457,1.5,2.2.452.728.816,1.515,1.282,2.243.393.626.845,1.224,1.3,1.806C1709.186,423.852,1709.8,424.566,1710.482,425.4Z" transform="translate(-1273.35 -99.062)" fill="#fff"/>
      <path id="Path_27" data-name="Path 27" d="M1691.3,441.263c-1.34.51-2.462.932-3.554,1.355-.99-1.3-1.937-2.491-2.84-3.729a19.507,19.507,0,0,1-.976-1.719,2.047,2.047,0,0,0-.321-.466c-.262-.291-.656-.51-.481-1.02a.137.137,0,0,0-.058-.131c-.859-.568-.743-1.69-1.369-2.389-.1-.1-.247-.262-.218-.364.189-.757-.466-1.092-.757-1.631a24.227,24.227,0,0,1-.976-2.272c-.015-.029-.015-.044-.029-.073a24.914,24.914,0,0,1-1.18-2.331c-.335-.9-1.063-1.646-1.034-2.709,0-.277-.262-.553-.408-.83-.218-.422-.553-.757-.335-1.384.116-.32-.32-.816-.451-1.253-.088-.277-.044-.583-.131-.859-.146-.481-.35-.932-.481-1.413a6.282,6.282,0,0,1-.175-1.049c-.029-.16-.044-.335-.058-.5-.088-.553-.16-1.107-.262-1.66-.19-1.049-.393-2.1-.6-3.146-.029-.131-.117-.335-.058-.408.408-.481.087-.918-.058-1.355-.131-.408-.364-.787-.058-1.282.131-.218-.175-.67-.219-1.02-.029-.233-.073-.583.058-.714.5-.524,1.063-.976,1.777-1.617A69.1,69.1,0,0,0,1691.3,441.263Z" transform="translate(-1257.682 -112.183)" fill="#fff"/>
      <path id="Path_28" data-name="Path 28" d="M873.548,559.5v13.488H867.11c-.073-.9-.131-1.806-.2-2.869-6.278,5.724-12.483,11.376-18.688,17.027l-.219-.131a2.433,2.433,0,0,1,.335-.568c2.374-2.564,4.748-5.113,7.137-7.676q8.783-9.417,17.552-18.848a2.9,2.9,0,0,0,.35-.626A.765.765,0,0,0,873.548,559.5Z" transform="translate(-551.248 -243.535)" fill="#fff"/>
      <path id="Path_29" data-name="Path 29" d="M1738.381,420.177c-.233.277-.525.626-.9,1.078-.7-.932-1.384-1.806-2.039-2.709-.524-.728-1.063-1.442-1.514-2.214-.408-.685-.714-1.427-1.064-2.141a2.075,2.075,0,0,0-.262-.422,1.767,1.767,0,0,1-.7-1.267c0-.306-.466-.626-.772-1.005.5-.583.116-.99-.335-1.413-.291-.262-.67-.539-.364-1.034a.2.2,0,0,0-.029-.2c-.845-.568-.772-1.69-1.428-2.374-.2-.219-.233-.568-.379-.845-.2-.408-.481-.772-.656-1.18-.349-.845-.611-1.7-.961-2.549-.2-.481-.5-.932-.7-1.413a5.4,5.4,0,0,1-.175-.845,13.3,13.3,0,0,0-.451-1.282c-.146-.364-.393-.655-.189-1.136.1-.248-.189-.655-.32-.99-.19-.5-.67-.918-.321-1.529.029-.044-.015-.146-.029-.2a9.213,9.213,0,0,1-.6-2.971c.131-.99-.626-1.835-.189-2.811.1-.219-.088-.612-.233-.888a1.748,1.748,0,0,1-.014-1.631c.1-.189.408-.277.772-.5.1.859.786,1.442.291,2.258-.073.117.073.364.131.554.146.466.5.918.1,1.413-.029.029-.014.1,0,.146.175.874.35,1.762.554,2.636a2.3,2.3,0,0,1,.146,1.515c-.131.349.335.9.481,1.384a4.788,4.788,0,0,1,.1.918c0,.073-.058.146-.029.2a11.543,11.543,0,0,1,.976,2.928,14.85,14.85,0,0,0,1.019,3.132,4.241,4.241,0,0,0,.263.51c.233.422.786.714.5,1.326-.015.029.015.1.044.131a7.27,7.27,0,0,1,1.209,2.054c.233.51.9.816.772,1.544a3.3,3.3,0,0,1,1.165,2.374c.189,1.049,1.209,1.515,1.325,2.564a3.384,3.384,0,0,0,.787,1.4c.51.743,1.049,1.457,1.573,2.185C1736.72,417.934,1737.521,419.012,1738.381,420.177Z" transform="translate(-1299.865 -95.5)" fill="#fff"/>
      <path id="Path_30" data-name="Path 30" d="M1676.553,457.328c-.525.073-1.02.131-1.5.2-.641-.8-1.3-1.573-1.879-2.389a18.239,18.239,0,0,1-.961-1.733c-.029-.044-.015-.1-.044-.146-.481-.714-.961-1.442-1.442-2.156-.087-.117-.218-.2-.262-.335-.2-.5-.394-1.005-.641-1.69.306-.393-.029-.83-.5-1.238-.291-.262-.7-.51-.364-1.02.044-.073-.015-.248-.073-.335a3.9,3.9,0,0,1-1.02-1.733c-.1-.539-.684-.99-.874-1.7a15.9,15.9,0,0,0-1.369-2.782,7.5,7.5,0,0,1-1.019-2.476c-.058-.859-.7-1.573-.641-2.258.1-1.005-.48-1.66-.684-2.476a16.425,16.425,0,0,1-.248-2.564,4.4,4.4,0,0,0-.146-.626c-.117-.437-.466-.859-.073-1.355.073-.087-.044-.32-.088-.481-.146-.524-.554-1.02-.16-1.631.073-.117-.015-.393-.116-.539a3.479,3.479,0,0,1-.19-2.33c.015-.408.51-.772.991-1.136v.976c0,.087-.087.189-.073.277.146.961.32,1.923.452,2.9a7.249,7.249,0,0,1,.029.976c0,.087-.059.189-.044.277.189.9.364,1.806.568,2.709.116.481.481.918.073,1.427a.251.251,0,0,0,0,.2c.379,1.122.772,2.258,1.136,3.379a3.681,3.681,0,0,1,.1.99c.015.116-.058.277-.015.35a8.761,8.761,0,0,1,.83,2.2c.335.9,1.165,1.719,1.209,2.607.044.976.99,1.384.961,2.3,0,.2.32.408.452.641.16.306.291.626.422.947.044.087.014.219.073.277a5.647,5.647,0,0,1,1.121,2.025c.189.408.7.7.422,1.282-.029.058.029.2.087.262.976.83,1.224,2.112,1.981,3.088.743.932,1.442,1.893,2.141,2.855C1675.65,456,1676.073,456.644,1676.553,457.328Z" transform="translate(-1247.403 -126.774)" fill="#fff"/>
      <path id="Path_31" data-name="Path 31" d="M891.035,346.215c0-1.034-.015-2.083,0-3.117.015-.961.451-1.4,1.369-1.4.961,0,1.457.452,1.457,1.4,0,2.083-.029,4.166-.073,6.249-.015,1.005-.452,1.413-1.355,1.413a1.321,1.321,0,0,1-1.471-1.486c-.015-1.02,0-2.039,0-3.059Z" transform="translate(-587.931 -58.168)" fill="#fff"/>
      <path id="Path_32" data-name="Path 32" d="M840.84,345.3c0,1.02.029,2.039,0,3.044-.029,1.122-.583,1.573-1.69,1.442A1.148,1.148,0,0,1,838,348.553c0-1.981.015-3.976.044-5.957a3.047,3.047,0,0,1,.117-.714c.175-.8.554-1.122,1.3-1.092.888.044,1.413.481,1.442,1.311.044,1.063.015,2.127.015,3.19A.194.194,0,0,1,840.84,345.3Z" transform="translate(-542.655 -57.388)" fill="#fff"/>
      <path id="Path_33" data-name="Path 33" d="M920.749,346c0,1.063.029,2.127-.015,3.19a1.213,1.213,0,0,1-1.311,1.325c-.961.015-1.457-.379-1.471-1.311-.015-2.127-.015-4.268.044-6.394a1.2,1.2,0,0,1,1.442-1.325,1.3,1.3,0,0,1,1.354,1.457c.015,1.02,0,2.039,0,3.059Z" transform="translate(-611.006 -57.979)" fill="#fff"/>
      <path id="Path_34" data-name="Path 34" d="M864.451,346.035c0-1.063-.015-2.141,0-3.2.029-.99.451-1.369,1.4-1.34.99.015,1.369.379,1.369,1.369.015,1.937.015,3.889,0,5.826a3.454,3.454,0,0,1-.146.932,1.136,1.136,0,0,1-1.369.99,1.272,1.272,0,0,1-1.311-1.282c-.029-1.092-.015-2.185-.015-3.277A.2.2,0,0,1,864.451,346.035Z" transform="translate(-565.205 -57.988)" fill="#fff"/>
      <path id="Path_35" data-name="Path 35" d="M798.028,360.624v3.19c-1.675,0-3.292.029-4.909-.015-.6-.015-1.107-.816-1.122-1.515-.015-.743.524-1.6,1.18-1.631C794.795,360.58,796.426,360.624,798.028,360.624Z" transform="translate(-503.329 -74.221)" fill="#fff"/>
      <path id="Path_36" data-name="Path 36" d="M941.9,364.623V361.2c1.69.073,3.321.1,4.938.248A1.389,1.389,0,0,1,947.9,362.9a1.511,1.511,0,0,1-1.034,1.573,3.894,3.894,0,0,1-1.005.146Z" transform="translate(-631.494 -74.724)" fill="#fff"/>
    </g>
  </g>
</svg>
