<svg xmlns="http://www.w3.org/2000/svg" xmlns:xlink="http://www.w3.org/1999/xlink" width="261" height="70" viewBox="0 0 261 70">
  <defs>
    <clipPath id="clip-path">
      <rect id="Rectangle_1" data-name="Rectangle 1" width="261" height="70" transform="translate(954 1618)" fill="#fff"/>
    </clipPath>
  </defs>
  <g id="Mask_Group_1" data-name="Mask Group 1" transform="translate(-954 -1618)" clip-path="url(#clip-path)">
    <g id="Group_10" data-name="Group 10" transform="translate(665.017 1528.414)">
      <text id="J_" data-name="J " transform="translate(298.983 149.586)" fill="#fff" font-size="69" font-family="Montserrat-Regular, Montserrat"><tspan x="0" y="0">J </tspan></text>
      <g id="Group_6" data-name="Group 6" transform="translate(386.08 102.036)">
        <path id="Path_4" data-name="Path 4" d="M979.859,225.5c-.087,1.636-.713,2.178-1.838,1.832a1.163,1.163,0,0,1-.925-1.174c0-2.156,0-4.313.046-6.469a1.154,1.154,0,0,1,1.281-1.256c.983.013,1.434.358,1.446,1.268C979.9,221.718,979.866,223.733,979.859,225.5Z" transform="translate(-966.672 -218.349)" fill="#fff" fill-rule="evenodd"/>
        <path id="Path_5" data-name="Path 5" d="M1006.329,225.258c0,.283.006.567,0,.85-.008.894-.432,1.376-1.233,1.407a1.346,1.346,0,0,1-1.528-1.352c-.009-2.125.022-4.251.067-6.376a1.221,1.221,0,0,1,1.43-1.219,1.274,1.274,0,0,1,1.345,1.419c-.007,1.757-.043,3.514-.067,5.27Z" transform="translate(-989.339 -218.46)" fill="#fff" fill-rule="evenodd"/>
        <path id="Path_6" data-name="Path 6" d="M1033.115,225.813c-.043.991-.448,1.467-1.253,1.476-1.073.012-1.511-.353-1.521-1.461-.017-2.036.019-4.074.072-6.109a1.2,1.2,0,0,1,1.33-1.3,1.313,1.313,0,0,1,1.4,1.369C1033.144,221.8,1033.125,223.8,1033.115,225.813Z" transform="translate(-1012.256 -218.332)" fill="#fff" fill-rule="evenodd"/>
        <path id="Path_7" data-name="Path 7" d="M950.349,219.77c.075-1.574.536-2.108,1.658-1.9a1.208,1.208,0,0,1,1.111,1.28q-.01,3.1-.044,6.2a1.2,1.2,0,0,1-1.288,1.346c-1.015,0-1.5-.406-1.506-1.407C950.271,223.449,950.323,221.609,950.349,219.77Z" transform="translate(-943.711 -217.828)" fill="#fff" fill-rule="evenodd"/>
        <path id="Path_8" data-name="Path 8" d="M910.582,237.225c-.013,1.137-.024,2.147-.038,3.342-1.6-.038-3.166-.021-4.726-.137a1.569,1.569,0,0,1-1.2-1.645,1.586,1.586,0,0,1,1.36-1.52C907.49,237.2,909.01,237.233,910.582,237.225Z" transform="translate(-904.612 -234.434)" fill="#fff" fill-rule="evenodd"/>
        <path id="Path_9" data-name="Path 9" d="M1054.057,241.721c.024-1.143.045-2.157.069-3.307,1.546.03,3.04,0,4.522.11a1.535,1.535,0,0,1,1.359,1.68,1.563,1.563,0,0,1-1.559,1.5C1057.032,241.741,1055.615,241.717,1054.057,241.721Z" transform="translate(-1032.565 -235.453)" fill="#fff" fill-rule="evenodd"/>
      </g>
      <text id="l" transform="translate(393.193 147.61)" fill="#fff" font-size="48" font-family="MyriadPro-Regular, Myriad Pro"><tspan x="0" y="0">l</tspan></text>
      <g id="Group_8" data-name="Group 8" transform="translate(394.021 98.451)">
        <g id="Group_7" data-name="Group 7" transform="translate(0)">
          <path id="Path_10" data-name="Path 10" d="M1123.523,193.179c-10.294,11.188-20.591,22.377-31.171,33.874.038-6.759.073-13.078.109-19.543l6.4.036c-.011,2.133-.023,4.193-.037,6.737,8.4-7.341,16.436-14.362,24.47-21.384C1123.372,192.993,1123.447,193.085,1123.523,193.179Z" transform="translate(-1073.294 -192.899)" fill="#fff"/>
          <path id="Path_11" data-name="Path 11" d="M1140.917,405.691l3.921-4.27,17.558,18.293c-.029.176-.058.351-.087.528a42.1,42.1,0,0,0-5.347.015c-2.169.267-3.38-.889-4.665-2.309-3.257-3.593-6.608-7.1-9.919-10.643C1141.909,406.8,1141.455,406.286,1140.917,405.691Z" transform="translate(-1114.874 -371.433)" fill="#fff"/>
          <path id="Path_12" data-name="Path 12" d="M959.829,463.751l25.332-27.2c-.027,4.79-.051,9.072-.076,13.5l-6.318-.035c-.047-.858-.092-1.672-.16-2.9-6.3,5.747-12.417,11.318-18.529,16.891Z" transform="translate(-959.829 -401.509)" fill="#fff"/>
        </g>
      </g>
      <path id="Path_13" data-name="Path 13" d="M1679.006,169.1c-.017-3.427,0-6.874-.058-10.321-.041-2.43-.21-4.856-.263-7.285-.012-.513.122-1.4.38-1.477a3.929,3.929,0,0,1,2.2.016c.252.08.336.982.343,1.512.047,5.831.067,11.662.095,17.655-.1-.092-.037.019.047.036,2.335.461,2.335.46,2.347,2.916.047,10.12.06,20.241.177,30.36.017,1.473-.566,2.108-1.864,2.144-1.564.043-3.135-.054-4.7-.138-.856-.045-1.2-.549-1.2-1.425q-.048-16.1-.148-32.192C1676.355,169.1,1677.855,169.631,1679.006,169.1Z" transform="translate(-1179.298 -57.606)" fill="#fff" fill-rule="evenodd"/>
      <text id="U" transform="translate(329.364 148.412)" fill="#fff" font-size="51" font-family="Montserrat-Regular, Montserrat"><tspan x="0" y="0">U</tspan></text>
      <text id="S" transform="translate(363.058 147.947)" fill="#fff" font-size="52" font-family="Montserrat-Regular, Montserrat"><tspan x="0" y="0">S</tspan></text>
      <text id="H" transform="translate(439.376 146.988)" fill="#fff" font-size="44" font-family="Montserrat-Regular, Montserrat"><tspan x="0" y="0">H</tspan></text>
      <text id="E" transform="translate(467.281 146.522)" fill="#fff" font-size="44" font-family="Montserrat-Regular, Montserrat"><tspan x="0" y="0">E</tspan></text>
      <g id="Group_9" data-name="Group 9" transform="translate(506.904 108.447)">
        <path id="Path_14" data-name="Path 14" d="M1850.426,262.41c.194.02.389.043.583.059a13.427,13.427,0,0,1,3.592.827,13.935,13.935,0,0,1,2.092.989,15.347,15.347,0,0,1,3.248,2.5c.459.465.907.949,1.332,1.46a18.981,18.981,0,0,1,2.063,3.087,21.19,21.19,0,0,1,1.374,3.112,19.377,19.377,0,0,1,.754,2.678c.141.721.283,1.444.382,2.175a23.424,23.424,0,0,1,.175,4.2,24.731,24.731,0,0,1-.356,3.209,22.861,22.861,0,0,1-.778,3.122,20.006,20.006,0,0,1-1.7,3.886c-.388.664-.815,1.294-1.225,1.938-.03.048-.067.09-.081.109-.361-.384-.715-.759-1.066-1.139a.336.336,0,0,1-.069-.164.637.637,0,0,0-.159-.37q-.376-.381-.744-.773a.289.289,0,0,1-.07-.159.592.592,0,0,0-.171-.393c-.221-.225-.44-.454-.662-.679a.214.214,0,0,1-.069-.243.5.5,0,0,0-.156-.51c-.164-.173-.332-.34-.492-.519a.227.227,0,0,1-.043-.162.523.523,0,0,0-.145-.5c-.256-.269-.515-.534-.771-.8.178-.4.148-.567-.144-.854-.139-.137-.276-.279-.411-.424a.152.152,0,0,1-.037-.108.678.678,0,0,0-.159-.649c-.219-.281-.429-.572-.641-.859-.028-.037-.052-.079-.084-.128a.577.577,0,0,0,.183-.589,1.166,1.166,0,0,0-.238-.4c-.278-.323-.567-.632-.827-.919a2.143,2.143,0,0,0,.051-.5.787.787,0,0,0-.179-.337c-.1-.131-.216-.24-.324-.361-.166-.185-.33-.371-.492-.554a.666.666,0,0,0-.151-.846c-.2-.213-.389-.432-.588-.654.018-.034.033-.063.049-.09a.577.577,0,0,0-.013-.649c-.188-.273-.388-.534-.588-.8a.26.26,0,0,1-.053-.29.565.565,0,0,0-.066-.5c-.2-.322-.394-.647-.593-.969a.177.177,0,0,1-.014-.213.628.628,0,0,0-.05-.6q-.448-.728-.893-1.46c-.015-.024-.026-.053-.053-.111a.626.626,0,0,0,.112-.105.609.609,0,0,0,.013-.63c-.18-.357-.364-.71-.545-1.066-.077-.152-.151-.306-.231-.468l.077-.078a.576.576,0,0,0,.112-.683c-.167-.346-.344-.685-.517-1.027l-.316-.63c.038-.039.073-.072.106-.11a.571.571,0,0,0,.07-.568q-.205-.585-.418-1.166a.182.182,0,0,1,.024-.212.536.536,0,0,0,.074-.551q-.214-.589-.424-1.18c-.015-.041-.024-.085-.034-.126.286-.229.324-.4.188-.786-.149-.416-.293-.835-.442-1.261.017-.014.029-.025.042-.033a.53.53,0,0,0,.2-.68c-.156-.507-.315-1.013-.473-1.519-.012-.038-.022-.076-.039-.136.178-.013.346-.024.514-.038.053,0,.106-.018.159-.027Z" transform="translate(-1833.607 -262.41)" fill="#fff" fill-rule="evenodd"/>
        <path id="Path_15" data-name="Path 15" d="M1813.749,287.057a.622.622,0,0,0,.1.874c.306.3.606.618.909.928a2.016,2.016,0,0,0-.133.182.564.564,0,0,0,.071.686c.254.264.512.523.769.784.06.062.119.126.169.179a1.427,1.427,0,0,0-.2.248.515.515,0,0,0,.1.6l.819.875c-.122.314-.114.533.031.692.1.112.21.218.315.327l.667.69a.58.58,0,0,0,.154.733c.23.227.451.468.674.7a.581.581,0,0,0,.158.724c.23.236.456.478.685.716a.158.158,0,0,1,.042.18.529.529,0,0,0,.15.542c.243.249.486.5.725.751a.6.6,0,0,1,.074.177,1.233,1.233,0,0,0,.136.329c.208.242.434.461.653.69.029.03.073.061.077.1.044.389.327.523.523.744.254.287.526.549.8.835-.19.18-.377.365-.571.539a16.29,16.29,0,0,1-1.852,1.446c-.091.061-.187.113-.275.182s-.13.046-.191-.036c-.3-.4-.6-.783-.891-1.184-.38-.523-.757-1.049-1.122-1.588-.461-.68-.92-1.363-1.36-2.065-.619-.989-1.235-1.983-1.824-3q-.984-1.7-1.914-3.449c-.579-1.087-1.132-2.2-1.687-3.3a36.191,36.191,0,0,1-1.556-3.588c-.522-1.4-.993-2.829-1.422-4.277-.3-1.006-.587-2.018-.853-3.038-.374-1.437-.747-2.875-1.079-4.327-.407-1.782-.771-3.58-1.152-5.371-.011-.054-.018-.11-.03-.184.24-.146.479-.3.722-.439a14.518,14.518,0,0,1,3.048-1.331c.114-.035.185-.029.208.141l-.091.057a.518.518,0,0,0-.189.575c.076.264.155.528.244.785.059.168.14.324.208.487a1.306,1.306,0,0,1,.044.153.609.609,0,0,0-.2.849c.154.374.285.762.423,1.138a1.3,1.3,0,0,0-.19.193.512.512,0,0,0-.056.474c.149.412.291.826.439,1.239a.146.146,0,0,1-.019.172.554.554,0,0,0-.077.589c.182.5.36,1,.539,1.5a.111.111,0,0,1,.005.03,1.75,1.75,0,0,0-.221.246.519.519,0,0,0-.024.519c.256.516.515,1.028.773,1.542.011.021.021.043.034.07l-.09.087a.589.589,0,0,0-.095.7q.418.819.836,1.639a.4.4,0,0,1,.018.054.648.648,0,0,0-.031.91c.064.1.124.206.187.308.117.193.237.383.35.579a.2.2,0,0,1,.013.144.666.666,0,0,0,.07.694c.248.4.489.8.736,1.2a.168.168,0,0,1,.01.188.606.606,0,0,0,.071.66c.128.168.254.338.38.508l.377.51a1.515,1.515,0,0,0-.157.272.625.625,0,0,0,.206.688C1813.207,286.5,1813.473,286.778,1813.749,287.057Z" transform="translate(-1795.854 -265.754)" fill="#fff" fill-rule="evenodd"/>
        <path id="Path_16" data-name="Path 16" d="M1749.577,342.729c-.195-.243-.4-.481-.584-.732a16.77,16.77,0,0,1-1.564-2.488c-.37-.733-.73-1.481-1.036-2.257s-.56-1.584-.8-2.4a21.449,21.449,0,0,1-.68-3.6,24.724,24.724,0,0,1-.14-3.483,24.378,24.378,0,0,1,.311-3.2,23.085,23.085,0,0,1,1.158-4.384,22.071,22.071,0,0,1,1.812-3.721c.031-.052.069-.1.117-.165l.484,1.352-.078.056a.534.534,0,0,0-.171.656c.146.4.289.805.432,1.209.01.027.017.057.027.09l-.044.034a.523.523,0,0,0-.18.676c.136.385.277.767.417,1.15.026.072.051.132-.014.2a.513.513,0,0,0-.088.546q.243.69.49,1.378c.023.066.045.132.071.209l-.081.06a.57.57,0,0,0-.152.729c.19.391.391.774.586,1.161.057.112.111.227.167.343a1.522,1.522,0,0,0-.161.166.609.609,0,0,0-.015.665q.361.71.72,1.42c.029.056.054.115.082.175-.013.018-.023.034-.035.048a.582.582,0,0,0-.069.771c.209.351.423.7.637,1.044a.257.257,0,0,1,.037.28.59.59,0,0,0,.065.56q.376.612.753,1.225a.2.2,0,0,1,.017.227.578.578,0,0,0,.051.611c.225.309.455.613.682.919l.092.125a2.282,2.282,0,0,0-.171.4.507.507,0,0,0,.139.48c.249.255.5.508.751.763.051.052.1.106.156.164a.611.611,0,0,0-.08.626,1.746,1.746,0,0,0,.23.3c.033.042.062.089.093.134-.171.208-.343.413-.512.623s-.314.406-.474.6-.332.4-.5.6-.31.383-.464.574l-.528.651q-.237.292-.473.584c-.166.207-.33.416-.5.62s-.327.39-.488.588S1749.745,342.518,1749.577,342.729Z" transform="translate(-1744.767 -308.554)" fill="#fff" fill-rule="evenodd"/>
        <path id="Path_17" data-name="Path 17" d="M1791.761,322.613c.153.573.3,1.148.461,1.718.2.725.416,1.446.624,2.17.07.243.128.492.2.732.113.355.236.705.36,1.055.281.793.544,1.6.852,2.373.455,1.145.917,2.286,1.423,3.4.473,1.04.994,2.048,1.517,3.052.438.84.9,1.664,1.37,2.475.545.936,1.1,1.862,1.677,2.77.619.977,1.262,1.931,1.9,2.887.288.431.591.846.892,1.263q.562.78,1.133,1.55c.285.384.576.762.864,1.142.019.026.037.054.064.094a13.892,13.892,0,0,1-3.549,1.346,1.119,1.119,0,0,0-.34-.77c-.308-.328-.626-.642-.936-.968a.284.284,0,0,1-.059-.168.558.558,0,0,0-.157-.4c-.253-.259-.5-.521-.755-.781-.019-.02-.051-.039-.054-.062-.043-.337-.29-.456-.461-.654a.3.3,0,0,1-.108-.317.439.439,0,0,0-.143-.4c-.17-.18-.345-.354-.52-.533a.615.615,0,0,0-.2-.626c-.238-.229-.463-.479-.69-.718a.573.573,0,0,0-.113-.76c-.262-.267-.521-.538-.788-.814a.582.582,0,0,0,.108-.527.737.737,0,0,0-.1-.194q-.345-.476-.7-.944a.152.152,0,0,1-.02-.2.6.6,0,0,0-.09-.725c-.273-.3-.545-.6-.823-.909a.621.621,0,0,0,.017-.7,7.589,7.589,0,0,0-.532-.611c-.079-.09-.162-.177-.237-.273a.144.144,0,0,1-.011-.1c.125-.422-.019-.555-.233-.794-.137-.153-.271-.312-.408-.464a1.549,1.549,0,0,0-.148-.128.627.627,0,0,0,.091-.653,1.841,1.841,0,0,0-.206-.306c-.19-.258-.384-.511-.57-.773a.264.264,0,0,1-.036-.17.686.686,0,0,0-.1-.5c-.21-.338-.415-.68-.624-1.018a.155.155,0,0,1-.006-.2.539.539,0,0,0,0-.62c-.266-.446-.537-.886-.806-1.329-.029-.048-.057-.1-.083-.142a1.3,1.3,0,0,0,.188-.211.63.63,0,0,0-.013-.632c-.244-.476-.483-.956-.725-1.434a.6.6,0,0,0,.113-.814c-.244-.488-.495-.971-.742-1.457-.018-.034-.032-.071-.05-.112.024-.025.045-.048.067-.069a.525.525,0,0,0,.122-.562c-.146-.418-.3-.834-.441-1.254a.188.188,0,0,1,.016-.137.571.571,0,0,0,.083-.6l-.447-1.252a2.14,2.14,0,0,0,.232-.331.658.658,0,0,0-.05-.513q-.205-.567-.409-1.135a.579.579,0,0,1-.019-.066,2.353,2.353,0,0,0,.245-.338,1.071,1.071,0,0,0,.048-.3c.1.124.209.246.312.373q1.069,1.315,2.137,2.632C1791.518,322.321,1791.64,322.466,1791.761,322.613Z" transform="translate(-1782.344 -311.006)" fill="#fff" fill-rule="evenodd"/>
        <path id="Path_18" data-name="Path 18" d="M1778.211,467.438c.168-.211.335-.425.505-.634s.327-.39.488-.588.331-.414.5-.62.316-.39.473-.584l.528-.651c.155-.191.308-.384.464-.574s.334-.4.5-.6.314-.405.474-.6.341-.416.512-.623c.077.065.158.125.231.2.182.179.36.363.536.542a1.734,1.734,0,0,0-.159.238.586.586,0,0,0,.113.658c.309.311.616.625.933.948-.026.022-.043.039-.063.052a.534.534,0,0,0-.051.8c.26.271.524.538.786.807.016.016.032.031.044.043a1.875,1.875,0,0,0-.1.289.542.542,0,0,0,.175.493c.276.28.551.562.826.842a.139.139,0,0,1,.054.162.584.584,0,0,0,.169.591c.165.153.325.316.481.482a.2.2,0,0,1,.027.143.563.563,0,0,0,.15.544c.255.255.5.519.75.786a.226.226,0,0,1,.043.147.57.57,0,0,0,.152.463c.239.247.479.49.715.742a.792.792,0,0,1,.082.177,1.616,1.616,0,0,0,.18.337c.233.262.479.506.737.774a.578.578,0,0,1-.093.018,12.922,12.922,0,0,1-2.861-.36,13.272,13.272,0,0,1-2.1-.688,14.859,14.859,0,0,1-3.155-1.8,16.775,16.775,0,0,1-2.851-2.7C1778.334,467.6,1778.274,467.518,1778.211,467.438Z" transform="translate(-1773.401 -433.262)" fill="#fff" fill-rule="evenodd"/>
        <path id="Path_19" data-name="Path 19" d="M1774.75,303.916a14.889,14.889,0,0,0,.535,1.707.924.924,0,0,0-.177.147.55.55,0,0,0-.067.542c.134.374.266.751.4,1.123a.189.189,0,0,1-.054.253.587.587,0,0,0-.118.621c.141.387.279.777.42,1.164a.212.212,0,0,1-.028.243.547.547,0,0,0-.052.579c.184.5.363,1.01.547,1.523-.027.023-.049.044-.073.061a.563.563,0,0,0-.16.746c.218.441.443.877.666,1.315l.077.152a.676.676,0,0,0-.066.907c.236.445.459.9.687,1.353a.914.914,0,0,1,.036.093.616.616,0,0,0-.23.776c-.1.133-.2.274-.31.4a.175.175,0,0,0,0,.267c.133.161.262.327.4.487.169.2.341.4.512.6l.508.871c.034.058.069.116.106.171a.536.536,0,0,1,.121.526.505.505,0,0,0,.122.457c.253.332.5.67.752,1.009-.019.036-.035.065-.051.094a.628.628,0,0,0,.07.735c.233.255.466.51.7.77a.172.172,0,0,1,.022.126.623.623,0,0,0,.146.67c.266.293.53.59.762.849a3.535,3.535,0,0,0-.048.532.53.53,0,0,0,.129.284c.25.292.51.573.768.854a.179.179,0,0,1,.039.23.535.535,0,0,0,.066.553l.7.943c.025.034.049.068.071.1a.136.136,0,0,1-.009.037.543.543,0,0,0,.042.818c.3.312.606.621.909.93a.561.561,0,0,0,.139.721.81.81,0,0,1,.1.16l-.8.987-.115-.063c.131-.387.079-.548-.256-.861-.116-.108-.225-.227-.337-.341l-.324-.328a1.761,1.761,0,0,0,.1-.3.528.528,0,0,0-.167-.466c-.249-.254-.5-.511-.756-.778a1.331,1.331,0,0,0,.156-.112.563.563,0,0,0,.036-.786c-.168-.2-.355-.37-.534-.553l-.479-.487a.609.609,0,0,0,.221-.5.589.589,0,0,0-.189-.413c-.288-.286-.571-.58-.862-.878l.053-.1a.6.6,0,0,0-.083-.692c-.232-.241-.467-.478-.7-.716-.048-.049-.094-.1-.14-.147a.643.643,0,0,0-.057-.849q-.394-.524-.785-1.052c-.022-.03-.041-.063-.064-.1a.665.665,0,0,0-.05-.734c-.221-.346-.433-.7-.643-1.057a.239.239,0,0,1-.01-.172.587.587,0,0,0-.032-.551c-.2-.33-.4-.655-.6-.984-.109-.179-.216-.36-.317-.529a1.883,1.883,0,0,0,.154-.255.557.557,0,0,0-.017-.482c-.256-.5-.509-1.008-.763-1.511a1.454,1.454,0,0,0,.177-.193.658.658,0,0,0-.025-.7c-.256-.491-.5-.989-.754-1.485a.447.447,0,0,1-.02-.056.621.621,0,0,0,.13-.795c-.129-.355-.256-.711-.387-1.065a.161.161,0,0,1,.029-.2.547.547,0,0,0,.067-.579c-.15-.421-.3-.842-.456-1.274.047-.039.092-.073.133-.112a.537.537,0,0,0,.11-.551c-.147-.418-.3-.835-.444-1.252-.016-.046-.031-.092-.049-.148a.485.485,0,0,0,.287-.518,1.02,1.02,0,0,0-.062-.248c-.156-.441-.314-.881-.471-1.321-.015-.042-.027-.085-.036-.114a1.217,1.217,0,0,0,.211-.2.539.539,0,0,0,.044-.516c-.134-.357-.131-.362.092-.64.08-.1.17-.186.255-.279Z" transform="translate(-1769.549 -297.481)" fill="#fff" fill-rule="evenodd"/>
        <path id="Path_20" data-name="Path 20" d="M1873.527,399.517c-.125-.117-.252-.23-.375-.35s-.231-.247-.35-.366a.228.228,0,0,1-.072-.257.508.508,0,0,0-.163-.52c-.239-.245-.477-.492-.712-.735.1-.4.076-.48-.182-.747-.223-.23-.443-.464-.667-.7a.6.6,0,0,1,.018-.057.552.552,0,0,0-.1-.679c-.239-.246-.48-.488-.72-.732-.032-.033-.063-.067-.1-.1a1.928,1.928,0,0,0,.082-.189.529.529,0,0,0-.11-.528c-.224-.234-.451-.465-.676-.7-.038-.038-.073-.08-.1-.108a1.517,1.517,0,0,0,.236-.268.572.572,0,0,0-.093-.685q-.469-.481-.941-.959c-.012-.013-.028-.021-.015-.011a2.17,2.17,0,0,0,.184-.408.576.576,0,0,0-.2-.554c-.28-.282-.558-.566-.833-.845a1.69,1.69,0,0,0,.1-.292.575.575,0,0,0-.157-.532c-.278-.276-.552-.558-.829-.839a1.575,1.575,0,0,0,.112-.241.575.575,0,0,0-.093-.512c-.161-.22-.326-.437-.487-.658a.8.8,0,0,1-.067-.153l.722-.893.447.559a2.251,2.251,0,0,0-.12.325.58.58,0,0,0,.157.532c.282.309.562.623.846.939a.638.638,0,0,0-.059.514,1.45,1.45,0,0,0,.247.372c.273.315.553.619.836.934-.02.047-.039.09-.056.134a.605.605,0,0,0,.116.626c.292.327.586.653.884.984-.016.024-.028.043-.041.06a.546.546,0,0,0-.005.72c.167.228.336.453.5.676-.142.331-.134.543.025.719.062.068.127.132.191.2l.808.832c-.025.059-.052.11-.07.164a.53.53,0,0,0,.124.523c.195.207.393.41.587.613a.525.525,0,0,0,.118.6c.23.244.464.482.7.72a.167.167,0,0,1,.048.191.525.525,0,0,0,.135.521c.247.251.493.5.733.763a.594.594,0,0,1,.086.2c.031.093.056.19.084.285l-.045.086a1.676,1.676,0,0,0-.124.124C1873.909,399.045,1873.718,399.281,1873.527,399.517Z" transform="translate(-1848.761 -367.283)" fill="#fff" fill-rule="evenodd"/>
        <path id="Path_21" data-name="Path 21" d="M1789.083,291.624c-.121-.147-.244-.292-.364-.44q-1.069-1.316-2.137-2.632c-.1-.126-.208-.249-.312-.373-.069-.174-.141-.346-.206-.522-.133-.363-.262-.728-.4-1.1a.46.46,0,0,0,.3-.377.765.765,0,0,0-.028-.313c-.12-.359-.25-.713-.384-1.065a.191.191,0,0,1,.049-.253c.572-.5,1.14-1.008,1.71-1.513a.719.719,0,0,1,.094-.06c.051.324.1.64.152.955.151.891.3,1.784.457,2.672.137.752.283,1.5.444,2.247.188.869.4,1.732.594,2.6C1789.068,291.5,1789.074,291.564,1789.083,291.624Z" transform="translate(-1779.666 -280.016)" fill="#fff" fill-rule="evenodd"/>
        <path id="Path_22" data-name="Path 22" d="M1845.106,315.779l-.722.893a.328.328,0,0,1-.1-.063c-.092-.118-.179-.242-.273-.372a.68.68,0,0,0-.057-.753c-.191-.29-.366-.6-.549-.895a.173.173,0,0,1-.011-.2.57.57,0,0,0-.031-.573q-.418-.68-.831-1.364c-.04-.065-.076-.134-.118-.209l.05-.067a.583.583,0,0,0,.066-.684c-.258-.52-.522-1.035-.784-1.551a1.835,1.835,0,0,0,.157-.167.585.585,0,0,0,.029-.611q-.386-.769-.774-1.537c-.017-.034-.034-.069-.059-.122a.42.42,0,0,0,.044-.031.525.525,0,0,0,.136-.642c-.138-.383-.274-.769-.413-1.151a.191.191,0,0,1,.025-.216.54.54,0,0,0,.067-.564c-.087-.242-.165-.488-.247-.733.067.069.138.133.2.209.175.218.343.443.519.66.308.379.619.754.928,1.13a.364.364,0,0,1-.047.075.611.611,0,0,0-.11.781c.245.475.486.952.728,1.429a.827.827,0,0,1,.032.085,1.4,1.4,0,0,0-.12.116.59.59,0,0,0-.062.645c.192.4.394.784.591,1.176.089.177.178.356.268.536l-.081.106a.6.6,0,0,0-.027.685c.2.322.394.646.594.968a.2.2,0,0,1,.016.228.576.576,0,0,0,.04.574q.27.442.542.882a.2.2,0,0,1,.015.238.627.627,0,0,0,.1.707C1844.932,315.522,1845.018,315.652,1845.106,315.779Z" transform="translate(-1826.917 -298.164)" fill="#fff" fill-rule="evenodd"/>
        <path id="Path_23" data-name="Path 23" d="M1838.593,499.349l.8-.987a1.388,1.388,0,0,1,.181.126.424.424,0,0,1,.169.385.609.609,0,0,0,.146.349c.11.145.249.255.368.39a.232.232,0,0,1,.039.152.559.559,0,0,0,.149.49c.251.252.5.511.743.772a.818.818,0,0,1,.084.158,1.356,1.356,0,0,0,.155.267c.313.337.634.662.949,1a.184.184,0,0,1,.038.113.6.6,0,0,0,.177.45c.34.353.672.717,1.007,1.076a.725.725,0,0,0,.072.061l-.013.064-1.709.2a.654.654,0,0,0-.23-.606c-.225-.21-.436-.443-.649-.672a.63.63,0,0,1-.07-.154,1.457,1.457,0,0,0-.168-.344c-.242-.272-.5-.521-.75-.784a.2.2,0,0,1-.043-.139.556.556,0,0,0-.159-.488q-.22-.226-.444-.447a.251.251,0,0,1-.087-.279.486.486,0,0,0-.153-.482c-.193-.2-.387-.4-.58-.6A.2.2,0,0,1,1838.593,499.349Z" transform="translate(-1825.1 -464.429)" fill="#fff" fill-rule="evenodd"/>
        <path id="Path_24" data-name="Path 24" d="M1837.964,271.474c-.309-.376-.62-.751-.928-1.13-.176-.217-.344-.442-.519-.66-.061-.076-.132-.139-.2-.209l-.217-.545c.305-.257.34-.417.193-.823-.134-.369-.265-.74-.4-1.109-.031-.086-.039-.136.046-.193a.5.5,0,0,0,.171-.615c-.178-.512-.364-1.02-.532-1.489a1.458,1.458,0,0,0,.258-.391,1.907,1.907,0,0,0-.016-.516l.756-.147.5,1.392c.017.047.03.1.048.142a.1.1,0,0,1-.041.144.511.511,0,0,0-.173.651c.073.217.152.432.228.648l.232.653c-.029.02-.054.035-.078.053a.506.506,0,0,0-.167.594c.135.4.281.8.426,1.194a.2.2,0,0,1-.026.249.506.506,0,0,0-.068.524l.526,1.475C1838.016,271.461,1838.016,271.461,1837.964,271.474Z" transform="translate(-1822.52 -263.47)" fill="#fff" fill-rule="evenodd"/>
        <path id="Path_25" data-name="Path 25" d="M1916.976,481.609c.191-.236.382-.472.574-.706a1.676,1.676,0,0,1,.124-.124c.045.052.091.1.135.157l.86,1.047.105.128c.043.062.083.127.129.184q.483.6.969,1.2c-.132.168-.261.34-.4.5s-.275.311-.422.475a3.546,3.546,0,0,0-.8-.968.586.586,0,0,1-.182-.312c-.032-.214-.192-.3-.308-.426-.187-.2-.381-.4-.571-.6-.027-.029-.067-.07-.066-.1A.8.8,0,0,0,1916.976,481.609Z" transform="translate(-1892.21 -449.375)" fill="#fff" fill-rule="evenodd"/>
        <path id="Path_26" data-name="Path 26" d="M1795.617,401.428c-.171-.2-.343-.4-.512-.6-.134-.16-.263-.326-.4-.487a.175.175,0,0,1,0-.267c.11-.123.208-.264.31-.4l.75,1.213A.692.692,0,0,0,1795.617,401.428Z" transform="translate(-1787.474 -379.936)" fill="#fff" fill-rule="evenodd"/>
        <path id="Path_27" data-name="Path 27" d="M1778.333,300.307l-.436-.544c.1-.135.193-.272.293-.4.053-.069.116-.128.186-.2l.27.747Z" transform="translate(-1773.132 -293.871)" fill="#fff" fill-rule="evenodd"/>
        <path id="Path_28" data-name="Path 28" d="M1930.575,491.418q-.485-.6-.969-1.2c-.046-.057-.086-.122-.129-.184.144.133.289.264.431.4.276.267.55.538.834.817Z" transform="translate(-1902.914 -457.302)" fill="#fff" fill-rule="evenodd"/>
        <path id="Path_29" data-name="Path 29" d="M1922.823,481.472l-.86-1.047c-.044-.054-.09-.1-.135-.157l.045-.086q.421.431.841.863a.162.162,0,0,1,.039.074C1922.78,481.236,1922.8,481.354,1922.823,481.472Z" transform="translate(-1896.365 -448.864)" fill="#fff" fill-rule="evenodd"/>
      </g>
    </g>
  </g>
</svg>
