<?xml version="1.0" encoding="utf-8"?>
<!-- Generator: Adobe Illustrator 16.0.0, SVG Export Plug-In . SVG Version: 6.00 Build 0)  -->
<!DOCTYPE svg PUBLIC "-//W3C//DTD SVG 1.1//EN" "http://www.w3.org/Graphics/SVG/1.1/DTD/svg11.dtd">
<svg version="1.1" id="Layer_1" xmlns="http://www.w3.org/2000/svg" xmlns:xlink="http://www.w3.org/1999/xlink" x="0px" y="0px"
	 width="2000px" height="1000px" viewBox="0 0 2000 1000" enable-background="new 0 0 2000 1000" xml:space="preserve">
<g>
	<text transform="matrix(1 0 0 1 170.5713 633.0313)" fill="#FFFFFF" font-family="'Montserrat-Regular'" font-size="482.7939">J </text>
	<g>
		<path fill-rule="evenodd" clip-rule="evenodd" fill="#FFFFFF" d="M865.899,351.029c-0.609,11.379-4.958,15.146-12.782,12.736
			c-4.056-1.248-6.434-3.919-6.434-8.163c0.003-14.995,0.025-29.993,0.317-44.985c0.113-5.842,3.499-8.806,8.909-8.733
			c6.835,0.092,9.97,2.49,10.058,8.813C866.16,324.701,865.942,338.712,865.899,351.029z"/>
		<path fill-rule="evenodd" clip-rule="evenodd" fill="#FFFFFF" d="M892.341,348.538c0.011,1.972,0.043,3.942,0.025,5.912
			c-0.056,6.215-3.003,9.569-8.572,9.785c-6.082,0.235-10.603-3.412-10.626-9.402c-0.059-14.777,0.154-29.558,0.469-44.333
			c0.12-5.592,4.088-8.727,9.941-8.474c5.991,0.26,9.375,3.644,9.351,9.865c-0.048,12.216-0.3,24.432-0.467,36.647
			C892.421,348.538,892.382,348.538,892.341,348.538z"/>
		<path fill-rule="evenodd" clip-rule="evenodd" fill="#FFFFFF" d="M919.243,353.289c-0.302,6.889-3.115,10.201-8.714,10.261
			c-7.458,0.081-10.51-2.456-10.574-10.157c-0.12-14.158,0.135-28.326,0.498-42.482c0.155-6.061,3.685-9.189,9.249-9.043
			c5.84,0.153,9.688,3.751,9.703,9.518C919.442,325.354,919.309,339.32,919.243,353.289z"/>
		<path fill-rule="evenodd" clip-rule="evenodd" fill="#FFFFFF" d="M820.358,314.778c0.52-10.942,3.728-14.661,11.526-13.203
			c4.86,0.909,7.743,3.781,7.727,8.903c-0.045,14.364-0.139,28.729-0.306,43.093c-0.07,6.058-3.33,9.347-8.959,9.362
			c-7.061,0.021-10.443-2.82-10.474-9.783C819.817,340.361,820.177,327.57,820.358,314.778z"/>
		<path fill-rule="evenodd" clip-rule="evenodd" fill="#FFFFFF" d="M815.711,320.68c-0.09,7.904-0.171,14.929-0.265,23.236
			c-11.092-0.263-22.013-0.143-32.864-0.951c-4.95-0.368-8.615-6.375-8.37-11.437c0.248-5.11,4.351-10.354,9.458-10.571
			C794.209,320.507,804.777,320.734,815.711,320.68z"/>
		<path fill-rule="evenodd" clip-rule="evenodd" fill="#FFFFFF" d="M923.645,344.854c0.166-7.951,0.313-14.996,0.48-22.994
			c10.753,0.206,21.137-0.024,31.444,0.768c6.028,0.463,9.886,6.11,9.447,11.683c-0.459,5.831-4.669,10.216-10.841,10.397
			C944.335,344.995,934.48,344.826,923.645,344.854z"/>
	</g>
	<text transform="matrix(1.4295 0 0 1 823.6616 620.8447)" fill="#FFFFFF" font-family="'MyriadPro-Regular'" font-size="337.8892">l</text>
	<g>
		<g>
			<path fill="#FFFFFF" d="M1178.686,278.288c-71.581,77.799-143.177,155.598-216.746,235.545
				c0.261-47.002,0.504-90.938,0.756-135.893c14.428,0.08,28.728,0.16,44.516,0.247c-0.08,14.829-0.163,29.157-0.259,46.849
				c58.414-51.049,114.288-99.865,170.151-148.691C1177.637,276.996,1178.162,277.638,1178.686,278.288z"/>
			<path fill="#FFFFFF" d="M1010.505,514.56c9.275-10.099,17.852-19.44,27.265-29.693c41.198,42.929,81.647,85.066,122.09,127.202
				c-0.199,1.225-0.406,2.441-0.604,3.669c-12.412-0.072-24.975-1.396-37.18,0.105c-15.085,1.857-23.501-6.185-32.44-16.056
				c-22.647-24.984-45.952-49.361-68.972-74.006C1017.401,522.29,1014.245,518.697,1010.505,514.56z"/>
			<path fill="#FFFFFF" d="M829.417,709.146c57.967-62.252,115.95-124.513,176.146-189.152c-0.188,33.309-0.354,63.08-0.53,93.863
				c-14.542-0.08-28.861-0.161-43.933-0.246c-0.329-5.968-0.64-11.623-1.114-20.186c-43.836,39.962-86.345,78.702-128.843,117.45
				C830.569,710.297,829.996,709.724,829.417,709.146z"/>
		</g>
	</g>
	<path fill-rule="evenodd" clip-rule="evenodd" fill="#FFFFFF" d="M1564.313,367.048c-0.115-23.827,0.006-47.801-0.405-71.766
		c-0.285-16.896-1.461-33.769-1.826-50.658c-0.081-3.568,0.852-9.74,2.646-10.268c4.768-1.421,10.573-1.396,15.326,0.109
		c1.754,0.557,2.339,6.83,2.382,10.512c0.329,40.545,0.469,81.09,0.658,122.768c-0.698-0.638-0.258,0.134,0.326,0.25
		c16.238,3.209,16.239,3.2,16.317,20.277c0.328,70.369,0.42,140.744,1.231,211.111c0.116,10.244-3.933,14.658-12.963,14.91
		c-10.876,0.301-21.797-0.373-32.676-0.957c-5.952-0.314-8.333-3.814-8.347-9.912c-0.222-74.613-0.558-149.229-1.028-223.848
		C1545.879,367.061,1556.311,370.733,1564.313,367.048z"/>
	<text transform="matrix(1 0 0 1 379.8242 628.0322)" fill="#FFFFFF" font-family="'Montserrat-Regular'" font-size="356.5699">U</text>
	<text transform="matrix(1 0 0 1 614.1187 626.8447)" fill="#FFFFFF" font-family="'Montserrat-Regular'" font-size="365.2299">S</text>
	<text transform="matrix(1 0 0 1 1144.7939 613.8447)" fill="#FFFFFF" font-family="'Montserrat-Regular'" font-size="308.9622">H</text>
	
		<text transform="matrix(1.0332 0 0 1 1338.8359 613.6045)" fill="#FFFFFF" font-family="'Montserrat-Regular'" font-size="311.9451">E</text>
	<g>
		<path fill-rule="evenodd" clip-rule="evenodd" fill="#FFFFFF" d="M1731.306,345.855c1.353,0.139,2.703,0.296,4.056,0.412
			c8.506,0.727,16.827,2.688,24.977,5.752c4.978,1.871,9.835,4.146,14.544,6.877c8.089,4.692,15.679,10.398,22.588,17.401
			c3.189,3.233,6.311,6.597,9.265,10.152c5.404,6.508,10.144,13.723,14.347,21.469c3.72,6.855,6.902,14.073,9.552,21.642
			c2.115,6.046,3.991,12.21,5.246,18.619c0.982,5.013,1.969,10.039,2.654,15.121c1.305,9.664,1.663,19.413,1.219,29.208
			c-0.341,7.522-1.168,14.959-2.474,22.313c-1.316,7.417-3.107,14.666-5.413,21.711c-3.125,9.544-6.924,18.663-11.812,27.023
			c-2.698,4.616-5.666,8.995-8.518,13.476c-0.211,0.332-0.463,0.624-0.565,0.76c-2.511-2.672-4.975-5.278-7.413-7.919
			c-0.246-0.267-0.42-0.733-0.482-1.142c-0.156-1.011-0.431-1.887-1.105-2.572c-1.742-1.764-3.465-3.556-5.17-5.375
			c-0.244-0.263-0.463-0.72-0.489-1.109c-0.079-1.145-0.48-2.018-1.186-2.734c-1.539-1.566-3.058-3.159-4.601-4.719
			c-0.456-0.462-0.72-0.865-0.482-1.693c0.427-1.49-0.202-2.611-1.085-3.546c-1.139-1.205-2.309-2.367-3.421-3.606
			c-0.213-0.237-0.374-0.798-0.304-1.126c0.32-1.483-0.139-2.582-1.007-3.496c-1.779-1.871-3.578-3.713-5.362-5.559
			c1.236-2.812,1.03-3.943-1.002-5.94c-0.971-0.956-1.922-1.941-2.859-2.946c-0.154-0.167-0.315-0.557-0.26-0.75
			c0.533-1.857-0.101-3.215-1.107-4.512c-1.519-1.955-2.979-3.978-4.46-5.976c-0.192-0.26-0.36-0.548-0.583-0.893
			c1.052-1.086,1.782-2.444,1.274-4.097c-0.319-1.035-0.985-1.983-1.655-2.765c-1.932-2.249-3.945-4.395-5.75-6.387
			c0.156-1.287,0.496-2.416,0.356-3.446c-0.114-0.849-0.729-1.659-1.247-2.343c-0.687-0.908-1.502-1.67-2.252-2.508
			c-1.151-1.285-2.295-2.582-3.419-3.85c0.993-2.776,0.769-3.911-1.051-5.885c-1.366-1.481-2.704-3.002-4.091-4.546
			c0.127-0.237,0.229-0.436,0.338-0.629c0.867-1.54,0.897-3.081-0.091-4.517c-1.309-1.9-2.7-3.714-4.087-5.53
			c-0.471-0.615-0.713-1.106-0.372-2.021c0.451-1.211,0.204-2.431-0.462-3.51c-1.382-2.24-2.742-4.501-4.125-6.739
			c-0.301-0.488-0.452-0.835-0.101-1.478c0.664-1.211,0.439-2.918-0.347-4.195c-2.078-3.376-4.143-6.766-6.209-10.153
			c-0.104-0.169-0.177-0.366-0.37-0.774c0.241-0.221,0.566-0.418,0.778-0.731c0.839-1.241,0.871-2.837,0.092-4.379
			c-1.252-2.479-2.529-4.937-3.788-7.411c-0.536-1.054-1.051-2.125-1.606-3.252c0.194-0.198,0.362-0.375,0.535-0.544
			c1.266-1.24,1.603-3.036,0.779-4.748c-1.16-2.408-2.393-4.763-3.592-7.142c-0.726-1.441-1.447-2.885-2.197-4.382
			c0.264-0.271,0.512-0.501,0.736-0.763c0.823-0.966,1.021-2.424,0.486-3.946c-0.952-2.713-1.92-5.416-2.906-8.109
			c-0.211-0.573-0.269-0.95,0.165-1.478c0.888-1.079,1.037-2.402,0.517-3.834c-0.992-2.729-1.968-5.468-2.945-8.206
			c-0.102-0.284-0.164-0.592-0.239-0.873c1.984-1.593,2.254-2.814,1.305-5.467c-1.037-2.896-2.039-5.809-3.076-8.77
			c0.117-0.094,0.199-0.171,0.29-0.231c1.635-1.094,2.085-2.548,1.414-4.726c-1.085-3.525-2.191-7.041-3.289-10.562
			c-0.082-0.262-0.154-0.529-0.273-0.945c1.235-0.09,2.402-0.165,3.57-0.264c0.369-0.032,0.736-0.125,1.105-0.189
			C1725.63,345.855,1728.468,345.855,1731.306,345.855z"/>
		<path fill-rule="evenodd" clip-rule="evenodd" fill="#FFFFFF" d="M1738.789,493.988c-1.42,2.628-1.191,4.211,0.691,6.077
			c2.131,2.114,4.216,4.299,6.321,6.453c-0.311,0.42-0.657,0.808-0.924,1.267c-0.928,1.6-0.738,3.491,0.496,4.772
			c1.769,1.838,3.563,3.636,5.345,5.455c0.42,0.43,0.829,0.877,1.176,1.243c-0.506,0.597-1.083,1.065-1.421,1.722
			c-0.733,1.426-0.431,3.003,0.681,4.192c1.898,2.031,3.8,4.057,5.695,6.081c-0.851,2.181-0.791,3.704,0.22,4.81
			c0.713,0.781,1.46,1.516,2.191,2.271c1.549,1.602,3.099,3.203,4.64,4.796c-0.826,2.354-0.541,3.508,1.07,5.099
			c1.6,1.579,3.138,3.254,4.689,4.871c-0.728,2.496-0.512,3.383,1.102,5.033c1.603,1.639,3.172,3.325,4.764,4.978
			c0.34,0.354,0.465,0.648,0.291,1.255c-0.438,1.541,0.072,2.772,1.043,3.771c1.687,1.732,3.382,3.45,5.039,5.223
			c0.264,0.281,0.348,0.816,0.513,1.233c0.308,0.773,0.473,1.733,0.948,2.286c1.449,1.683,3.021,3.207,4.54,4.799
			c0.198,0.207,0.507,0.426,0.535,0.678c0.304,2.704,2.276,3.636,3.639,5.173c1.766,1.993,3.655,3.818,5.575,5.804
			c-1.324,1.255-2.626,2.538-3.971,3.748c-4.111,3.7-8.398,7.064-12.877,10.052c-0.635,0.424-1.302,0.785-1.909,1.265
			c-0.542,0.428-0.905,0.317-1.327-0.248c-2.054-2.755-4.172-5.442-6.195-8.23c-2.64-3.638-5.264-7.296-7.804-11.039
			c-3.207-4.729-6.399-9.479-9.456-14.355c-4.308-6.879-8.592-13.787-12.686-20.859c-4.563-7.884-8.994-15.889-13.311-23.98
			c-4.029-7.558-7.871-15.271-11.729-22.966c-4.03-8.035-7.618-16.365-10.818-24.952c-3.632-9.746-6.905-19.671-9.889-29.74
			c-2.073-6.998-4.08-14.034-5.929-21.126c-2.604-9.99-5.195-19.992-7.5-30.091c-2.83-12.395-5.358-24.893-8.014-37.348
			c-0.08-0.376-0.127-0.765-0.211-1.276c1.664-1.014,3.326-2.074,5.021-3.05c6.821-3.932,13.88-7.04,21.198-9.255
			c0.79-0.239,1.287-0.201,1.444,0.978c-0.19,0.118-0.413,0.252-0.633,0.394c-1.188,0.77-1.764,2.43-1.313,3.998
			c0.529,1.836,1.074,3.669,1.698,5.458c0.407,1.169,0.974,2.253,1.446,3.389c0.141,0.336,0.207,0.719,0.304,1.063
			c-2.154,1.512-2.49,3.259-1.403,5.907c1.068,2.599,1.979,5.298,2.943,7.912c-0.492,0.488-0.99,0.831-1.32,1.339
			c-0.63,0.974-0.826,2.073-0.386,3.297c1.032,2.862,2.025,5.747,3.051,8.613c0.165,0.463,0.23,0.778-0.131,1.198
			c-1.005,1.173-1.101,2.558-0.537,4.1c1.269,3.471,2.501,6.964,3.745,10.447c0.033,0.094,0.037,0.203,0.037,0.21
			c-0.545,0.594-1.139,1.063-1.538,1.712c-0.683,1.108-0.769,2.388-0.165,3.606c1.776,3.585,3.581,7.15,5.373,10.724
			c0.074,0.147,0.144,0.299,0.234,0.488c-0.228,0.218-0.429,0.409-0.628,0.605c-1.26,1.234-1.519,3.166-0.658,4.85
			c1.939,3.798,3.876,7.598,5.811,11.398c0.059,0.117,0.089,0.257,0.128,0.373c-1.82,2.36-1.859,3.739-0.219,6.33
			c0.445,0.702,0.864,1.43,1.299,2.142c0.814,1.339,1.648,2.66,2.433,4.027c0.142,0.246,0.203,0.764,0.088,0.999
			c-0.868,1.788-0.457,3.312,0.486,4.826c1.726,2.768,3.4,5.581,5.117,8.355c0.286,0.462,0.313,0.792,0.067,1.307
			c-0.767,1.607-0.565,3.205,0.49,4.592c0.888,1.168,1.764,2.352,2.642,3.532c0.879,1.182,1.754,2.368,2.622,3.544
			c-0.384,0.65-0.863,1.208-1.092,1.893c-0.6,1.801-0.058,3.332,1.432,4.784C1735.015,490.122,1736.871,492.05,1738.789,493.988z"/>
		<path fill-rule="evenodd" clip-rule="evenodd" fill="#FFFFFF" d="M1647.799,583.493c-1.354-1.693-2.75-3.344-4.058-5.09
			c-4.028-5.378-7.736-11.09-10.873-17.298c-2.576-5.099-5.076-10.295-7.201-15.692c-2.12-5.39-3.893-11.016-5.531-16.663
			c-2.349-8.097-3.777-16.491-4.729-25.015c-0.896-8.043-1.216-16.118-0.973-24.219c0.226-7.484,0.96-14.907,2.161-22.259
			c1.724-10.551,4.396-20.712,8.054-30.483c3.439-9.188,7.686-17.778,12.601-25.877c0.219-0.362,0.482-0.684,0.813-1.147
			c1.146,3.2,2.246,6.276,3.363,9.398c-0.204,0.147-0.372,0.273-0.543,0.392c-1.431,0.991-1.864,2.719-1.191,4.564
			c1.019,2.792,2.009,5.6,3.007,8.403c0.069,0.191,0.116,0.394,0.185,0.63c-0.121,0.094-0.211,0.167-0.303,0.236
			c-1.594,1.184-1.991,2.613-1.25,4.704c0.947,2.675,1.927,5.333,2.897,7.995c0.182,0.499,0.355,0.915-0.097,1.413
			c-0.953,1.049-1.114,2.367-0.611,3.796c1.128,3.199,2.27,6.39,3.404,9.585c0.161,0.456,0.311,0.918,0.492,1.451
			c-0.192,0.143-0.379,0.278-0.563,0.42c-1.536,1.18-1.989,3.152-1.06,5.071c1.32,2.718,2.717,5.38,4.073,8.07
			c0.395,0.782,0.771,1.578,1.164,2.388c-0.385,0.39-0.804,0.716-1.121,1.154c-0.954,1.315-0.971,2.921-0.104,4.627
			c1.671,3.292,3.342,6.583,5.009,9.877c0.198,0.391,0.375,0.797,0.572,1.217c-0.093,0.126-0.16,0.239-0.244,0.331
			c-1.508,1.67-1.679,3.345-0.479,5.358c1.454,2.438,2.943,4.848,4.429,7.257c0.376,0.608,0.634,1.079,0.255,1.947
			c-0.586,1.34-0.285,2.696,0.452,3.896c1.745,2.838,3.484,5.683,5.236,8.516c0.315,0.511,0.455,0.907,0.116,1.577
			c-0.716,1.409-0.552,3.002,0.356,4.247c1.565,2.147,3.163,4.26,4.746,6.388c0.252,0.338,0.5,0.678,0.639,0.866
			c-0.442,0.99-0.977,1.817-1.19,2.755c-0.295,1.291,0.115,2.466,0.967,3.337c1.734,1.775,3.481,3.533,5.221,5.303
			c0.354,0.359,0.7,0.736,1.085,1.141c-0.873,1.34-1.299,2.815-0.555,4.354c0.386,0.797,1.065,1.374,1.603,2.062
			c0.229,0.293,0.43,0.618,0.645,0.93c-1.188,1.443-2.388,2.871-3.562,4.333c-1.111,1.385-2.183,2.822-3.297,4.203
			c-1.137,1.408-2.312,2.767-3.457,4.163c-1.084,1.319-2.152,2.661-3.229,3.991c-1.222,1.51-2.447,3.016-3.671,4.524
			c-1.097,1.354-2.197,2.705-3.291,4.063c-1.154,1.436-2.294,2.89-3.457,4.313c-1.12,1.376-2.271,2.712-3.392,4.089
			C1650.131,580.541,1648.969,582.023,1647.799,583.493z"/>
		<path fill-rule="evenodd" clip-rule="evenodd" fill="#FFFFFF" d="M1679.838,426.57c1.067,3.983,2.098,7.983,3.209,11.947
			c1.413,5.044,2.895,10.057,4.338,15.087c0.485,1.692,0.889,3.422,1.423,5.091c0.789,2.466,1.644,4.903,2.504,7.334
			c1.953,5.514,3.782,11.103,5.926,16.501c3.16,7.959,6.377,15.899,9.892,23.624c3.289,7.231,6.91,14.241,10.549,21.22
			c3.045,5.841,6.239,11.57,9.523,17.211c3.789,6.509,7.66,12.951,11.66,19.264c4.305,6.792,8.775,13.427,13.224,20.078
			c2.003,2.995,4.111,5.881,6.204,8.782c2.606,3.614,5.232,7.208,7.877,10.779c1.98,2.673,4.005,5.297,6.009,7.943
			c0.135,0.179,0.255,0.374,0.448,0.656c-7.971,4.315-16.167,7.425-24.679,9.361c-0.063-2.361-1.081-3.983-2.365-5.353
			c-2.144-2.283-4.355-4.468-6.51-6.734c-0.24-0.252-0.401-0.768-0.411-1.167c-0.026-1.154-0.381-2.047-1.095-2.778
			c-1.758-1.799-3.499-3.62-5.245-5.434c-0.133-0.138-0.353-0.268-0.374-0.431c-0.301-2.347-2.021-3.169-3.209-4.548
			c-0.537-0.622-1.023-1.069-0.753-2.204c0.266-1.113-0.307-2.071-0.993-2.798c-1.185-1.252-2.399-2.462-3.615-3.704
			c0.418-1.89-0.188-3.203-1.379-4.351c-1.653-1.595-3.218-3.333-4.8-4.99c1.038-2.433,0.826-3.647-0.786-5.288
			c-1.824-1.855-3.626-3.744-5.479-5.661c0.721-1.112,1.217-2.269,0.75-3.662c-0.161-0.482-0.385-0.965-0.665-1.353
			c-1.601-2.205-3.22-4.392-4.851-6.563c-0.336-0.447-0.462-0.767-0.138-1.364c0.959-1.763,0.691-3.604-0.622-5.044
			c-1.899-2.084-3.787-4.185-5.721-6.321c0.918-1.607,1.182-3.345,0.121-4.836c-1.105-1.552-2.453-2.842-3.695-4.246
			c-0.553-0.627-1.125-1.232-1.649-1.895c-0.113-0.142-0.136-0.514-0.074-0.724c0.868-2.935-0.135-3.855-1.619-5.521
			c-0.953-1.067-1.882-2.168-2.84-3.229c-0.29-0.32-0.64-0.559-1.027-0.889c0.964-1.397,1.396-2.91,0.636-4.544
			c-0.367-0.789-0.932-1.445-1.436-2.129c-1.318-1.795-2.668-3.555-3.966-5.373c-0.199-0.279-0.311-0.822-0.247-1.186
			c0.23-1.325-0.02-2.446-0.679-3.505c-1.46-2.348-2.886-4.726-4.342-7.078c-0.292-0.474-0.401-0.808-0.039-1.374
			c0.922-1.44,0.928-2.81,0.032-4.311c-1.848-3.099-3.735-6.162-5.604-9.241c-0.205-0.337-0.4-0.681-0.579-0.985
			c0.476-0.522,0.988-0.911,1.305-1.47c0.826-1.455,0.655-2.93-0.093-4.392c-1.695-3.313-3.362-6.646-5.04-9.972
			c1.721-1.632,1.974-3.281,0.784-5.658c-1.698-3.394-3.441-6.753-5.162-10.13c-0.122-0.236-0.221-0.491-0.349-0.779
			c0.166-0.172,0.313-0.334,0.468-0.481c1.013-0.955,1.354-2.457,0.847-3.906c-1.018-2.907-2.063-5.801-3.066-8.718
			c-0.09-0.259-0.034-0.749,0.115-0.952c1.004-1.366,1.184-2.505,0.578-4.205c-1.055-2.961-2.111-5.921-3.104-8.704
			c0.602-0.835,1.236-1.478,1.614-2.302c0.56-1.214,0.065-2.417-0.35-3.566c-0.949-2.63-1.9-5.262-2.847-7.894
			c-0.081-0.225-0.134-0.464-0.132-0.458c0.634-0.848,1.284-1.511,1.7-2.349c0.281-0.567,0.232-1.384,0.332-2.088
			c0.723,0.863,1.456,1.714,2.168,2.592c4.956,6.098,9.906,12.203,14.86,18.303C1678.143,424.537,1678.994,425.55,1679.838,426.57z"
			/>
		<path fill-rule="evenodd" clip-rule="evenodd" fill="#FFFFFF" d="M1647.799,583.493c1.17-1.47,2.332-2.952,3.515-4.407
			c1.12-1.377,2.271-2.713,3.392-4.089c1.163-1.424,2.303-2.878,3.457-4.313c1.094-1.358,2.194-2.709,3.291-4.063
			c1.224-1.509,2.449-3.015,3.671-4.524c1.076-1.33,2.145-2.672,3.229-3.991c1.146-1.396,2.32-2.755,3.457-4.163
			c1.114-1.381,2.186-2.818,3.297-4.203c1.174-1.462,2.373-2.89,3.562-4.333c0.536,0.453,1.099,0.866,1.605,1.364
			c1.263,1.242,2.5,2.523,3.728,3.77c-0.395,0.581-0.832,1.062-1.104,1.656c-0.73,1.595-0.372,3.411,0.785,4.576
			c2.148,2.16,4.281,4.344,6.488,6.589c-0.18,0.151-0.302,0.271-0.436,0.365c-1.737,1.235-1.918,3.912-0.354,5.538
			c1.812,1.883,3.643,3.74,5.467,5.608c0.109,0.114,0.227,0.22,0.311,0.302c-0.254,0.727-0.572,1.342-0.684,2.008
			c-0.241,1.453,0.336,2.533,1.219,3.427c1.92,1.946,3.827,3.908,5.744,5.857c0.293,0.299,0.537,0.496,0.374,1.123
			c-0.424,1.616,0.083,3.094,1.175,4.113c1.146,1.067,2.258,2.195,3.346,3.354c0.174,0.184,0.245,0.689,0.188,0.995
			c-0.294,1.548,0.021,2.761,1.042,3.785c1.771,1.772,3.5,3.611,5.219,5.462c0.197,0.212,0.321,0.69,0.297,1.025
			c-0.097,1.316,0.239,2.379,1.055,3.222c1.659,1.715,3.333,3.409,4.969,5.158c0.273,0.292,0.37,0.826,0.572,1.229
			c0.402,0.796,0.712,1.728,1.254,2.34c1.617,1.821,3.329,3.516,5.125,5.385c-0.308,0.061-0.479,0.125-0.648,0.124
			c-6.698-0.045-13.321-0.967-19.897-2.505c-4.973-1.164-9.845-2.781-14.631-4.786c-7.676-3.217-15.007-7.371-21.94-12.546
			c-7.167-5.35-13.809-11.561-19.826-18.765C1648.655,584.638,1648.234,584.057,1647.799,583.493z"/>
		<path fill-rule="evenodd" clip-rule="evenodd" fill="#FFFFFF" d="M1650.52,390.602c0.589,4.267,2.674,7.812,3.72,11.869
			c-0.388,0.313-0.893,0.574-1.232,1.023c-0.825,1.096-0.956,2.386-0.463,3.767c0.935,2.604,1.847,5.219,2.805,7.808
			c0.286,0.775,0.254,1.239-0.378,1.76c-1.072,0.886-1.37,2.813-0.822,4.315c0.981,2.693,1.939,5.399,2.921,8.093
			c0.231,0.635,0.291,1.115-0.195,1.688c-1.001,1.175-0.896,2.569-0.365,4.027c1.277,3.503,2.524,7.023,3.803,10.592
			c-0.188,0.16-0.341,0.308-0.506,0.427c-1.652,1.196-2.106,3.178-1.112,5.188c1.518,3.067,3.084,6.099,4.629,9.146
			c0.182,0.356,0.359,0.715,0.533,1.058c-1.829,2.311-1.872,3.644-0.461,6.306c1.641,3.097,3.189,6.268,4.773,9.411
			c0.104,0.205,0.17,0.438,0.249,0.647c-2.023,1.877-2.351,3.001-1.598,5.396c-0.717,0.926-1.394,1.903-2.159,2.76
			c-0.62,0.693-0.515,1.226,0.009,1.856c0.928,1.118,1.825,2.272,2.755,3.386c1.177,1.408,2.372,2.791,3.561,4.185
			c1.177,2.019,2.352,4.038,3.532,6.055c0.236,0.404,0.478,0.805,0.734,1.19c0.709,1.066,1.382,2.021,0.839,3.656
			c-0.373,1.12,0.144,2.256,0.849,3.182c1.759,2.307,3.478,4.66,5.228,7.014c-0.134,0.248-0.242,0.454-0.355,0.656
			c-0.951,1.711-0.757,3.737,0.489,5.107c1.617,1.776,3.239,3.546,4.834,5.354c0.152,0.17,0.224,0.626,0.157,0.879
			c-0.533,2.039-0.269,3.249,1.011,4.658c1.853,2.038,3.686,4.104,5.3,5.904c-0.146,1.411-0.4,2.57-0.336,3.7
			c0.038,0.688,0.464,1.471,0.896,1.976c1.741,2.031,3.545,3.982,5.343,5.939c0.438,0.478,0.596,0.843,0.272,1.6
			c-0.579,1.349-0.4,2.686,0.456,3.845c1.616,2.183,3.228,4.371,4.842,6.559c0.172,0.233,0.34,0.474,0.492,0.688
			c-0.028,0.126-0.026,0.211-0.06,0.256c-1.612,2.135-1.539,3.792,0.292,5.687c2.099,2.172,4.217,4.317,6.319,6.469
			c-0.881,2.191-0.617,3.448,0.963,5.013c0.285,0.282,0.456,0.739,0.68,1.115c-1.86,2.288-3.72,4.577-5.581,6.864
			c-0.269-0.146-0.537-0.292-0.803-0.438c0.91-2.689,0.548-3.808-1.782-5.985c-0.805-0.752-1.562-1.577-2.342-2.368
			c-0.756-0.768-1.514-1.533-2.253-2.279c0.254-0.735,0.593-1.387,0.697-2.09c0.202-1.353-0.331-2.395-1.161-3.243
			c-1.732-1.769-3.457-3.551-5.261-5.407c0.419-0.297,0.782-0.488,1.082-0.779c1.529-1.473,1.681-3.772,0.248-5.463
			c-1.164-1.376-2.47-2.57-3.715-3.842c-1.086-1.108-2.178-2.212-3.33-3.383c0.97-0.903,1.601-1.949,1.538-3.449
			c-0.052-1.234-0.549-2.107-1.312-2.869c-2.001-1.989-3.968-4.032-5.997-6.103c0.135-0.265,0.25-0.496,0.368-0.726
			c0.834-1.613,0.616-3.563-0.578-4.809c-1.611-1.679-3.245-3.321-4.867-4.982c-0.331-0.338-0.653-0.687-0.974-1.023
			c1.336-2.462,1.231-3.734-0.4-5.904c-1.828-2.43-3.641-4.876-5.457-7.318c-0.154-0.208-0.287-0.439-0.443-0.685
			c0.998-1.827,0.709-3.462-0.345-5.104c-1.54-2.402-3.012-4.871-4.472-7.349c-0.168-0.282-0.198-0.886-0.068-1.199
			c0.559-1.358,0.489-2.634-0.221-3.829c-1.365-2.297-2.771-4.558-4.153-6.839c-0.755-1.245-1.499-2.5-2.206-3.681
			c0.398-0.646,0.819-1.159,1.071-1.775c0.455-1.11,0.446-2.242-0.118-3.35c-1.781-3.497-3.542-7.011-5.305-10.504
			c0.428-0.456,0.902-0.828,1.233-1.341c0.91-1.406,0.776-3.021-0.173-4.844c-1.778-3.416-3.501-6.878-5.245-10.322
			c-0.061-0.119-0.094-0.261-0.139-0.389c1.71-1.948,1.86-2.89,0.902-5.525c-0.896-2.47-1.777-4.947-2.689-7.407
			c-0.205-0.555-0.22-0.909,0.202-1.366c0.912-0.986,1.039-2.407,0.463-4.025c-1.045-2.931-2.096-5.857-3.172-8.86
			c0.326-0.271,0.639-0.506,0.926-0.778c0.918-0.867,1.245-2.471,0.767-3.828c-1.021-2.906-2.058-5.806-3.086-8.709
			c-0.113-0.318-0.216-0.643-0.345-1.029c1.343-0.679,2.151-1.783,1.994-3.603c-0.051-0.587-0.239-1.173-0.434-1.723
			c-1.081-3.068-2.185-6.126-3.277-9.188c-0.104-0.289-0.188-0.589-0.252-0.795c0.526-0.48,1.098-0.824,1.464-1.374
			c0.71-1.067,0.81-2.261,0.309-3.589c-0.935-2.479-0.908-2.516,0.64-4.447c0.555-0.691,1.182-1.294,1.774-1.937
			C1648.497,388.078,1649.508,389.34,1650.52,390.602z"/>
		<path fill-rule="evenodd" clip-rule="evenodd" fill="#FFFFFF" d="M1786.563,569.996c-0.869-0.811-1.755-1.597-2.604-2.437
			c-0.829-0.822-1.609-1.72-2.435-2.548c-0.481-0.484-0.742-0.931-0.502-1.785c0.431-1.535-0.206-2.662-1.132-3.613
			c-1.662-1.707-3.316-3.424-4.951-5.114c0.686-2.751,0.529-3.339-1.262-5.193c-1.548-1.601-3.078-3.226-4.641-4.863
			c0.047-0.148,0.075-0.279,0.126-0.396c0.834-1.903,0.636-3.354-0.688-4.719c-1.661-1.711-3.34-3.395-5.009-5.091
			c-0.221-0.226-0.435-0.463-0.678-0.724c0.203-0.456,0.429-0.864,0.572-1.312c0.425-1.311,0.132-2.736-0.764-3.671
			c-1.558-1.63-3.134-3.232-4.699-4.85c-0.261-0.268-0.507-0.555-0.685-0.75c0.579-0.639,1.248-1.138,1.644-1.863
			c0.894-1.636,0.589-3.497-0.647-4.766c-2.177-2.23-4.359-4.45-6.543-6.672c-0.087-0.088-0.196-0.144-0.103-0.076
			c0.476-1.021,1.062-1.865,1.278-2.834c0.366-1.636-0.386-2.85-1.386-3.854c-1.945-1.958-3.88-3.934-5.795-5.877
			c0.263-0.706,0.612-1.339,0.729-2.033c0.251-1.466-0.107-2.72-1.091-3.697c-1.932-1.922-3.84-3.88-5.768-5.833
			c0.277-0.583,0.616-1.092,0.778-1.675c0.369-1.319,0.106-2.534-0.646-3.563c-1.121-1.533-2.271-3.036-3.384-4.577
			c-0.211-0.291-0.313-0.704-0.464-1.061c1.673-2.069,3.347-4.139,5.02-6.208c1.064,1.332,2.128,2.664,3.105,3.888
			c-0.329,0.865-0.688,1.53-0.837,2.262c-0.305,1.492,0.178,2.696,1.092,3.699c1.963,2.151,3.904,4.33,5.882,6.526
			c-0.521,1.147-0.909,2.39-0.411,3.57c0.41,0.971,1.06,1.831,1.715,2.59c1.896,2.191,3.848,4.307,5.815,6.495
			c-0.137,0.325-0.272,0.624-0.388,0.932c-0.566,1.519-0.271,3.142,0.81,4.351c2.033,2.274,4.072,4.538,6.145,6.845
			c-0.114,0.168-0.193,0.3-0.283,0.42c-1.265,1.66-1.284,3.31-0.037,5.009c1.16,1.582,2.337,3.147,3.489,4.696
			c-0.985,2.305-0.928,3.774,0.178,5.002c0.429,0.477,0.884,0.917,1.328,1.374c1.861,1.917,3.724,3.834,5.619,5.786
			c-0.176,0.411-0.361,0.762-0.482,1.144c-0.398,1.255-0.076,2.646,0.859,3.64c1.356,1.438,2.73,2.852,4.083,4.261
			c-0.551,1.788-0.345,2.906,0.821,4.142c1.6,1.694,3.223,3.354,4.848,5.009c0.369,0.375,0.5,0.66,0.332,1.328
			c-0.352,1.402-0.02,2.649,0.938,3.623c1.716,1.744,3.427,3.498,5.099,5.305c0.302,0.325,0.431,0.916,0.595,1.406
			c0.217,0.649,0.391,1.32,0.582,1.982c-0.105,0.198-0.21,0.398-0.315,0.598c-0.288,0.286-0.6,0.543-0.861,0.861
			C1789.218,566.714,1787.893,568.357,1786.563,569.996z"/>
		<path fill-rule="evenodd" clip-rule="evenodd" fill="#FFFFFF" d="M1679.838,426.57c-0.844-1.021-1.695-2.033-2.533-3.063
			c-4.954-6.1-9.904-12.205-14.86-18.303c-0.712-0.878-1.445-1.729-2.168-2.592c-0.479-1.209-0.98-2.403-1.43-3.629
			c-0.925-2.523-1.82-5.063-2.753-7.664c1.034-0.497,1.909-1.216,2.067-2.623c0.079-0.705,0.026-1.522-0.192-2.174
			c-0.837-2.497-1.742-4.961-2.67-7.408c-0.293-0.769-0.271-1.229,0.338-1.762c3.979-3.48,7.928-7.011,11.892-10.519
			c0.182-0.161,0.401-0.257,0.656-0.417c0.358,2.257,0.688,4.453,1.056,6.639c1.047,6.196,2.056,12.403,3.178,18.578
			c0.951,5.23,1.968,10.447,3.086,15.628c1.305,6.046,2.752,12.044,4.131,18.065C1679.729,425.733,1679.771,426.155,1679.838,426.57
			z"/>
		<path fill-rule="evenodd" clip-rule="evenodd" fill="#FFFFFF" d="M1740.837,468.344c-1.673,2.069-3.347,4.139-5.02,6.208
			c-0.226-0.142-0.501-0.223-0.667-0.436c-0.639-0.82-1.241-1.684-1.896-2.584c1.004-1.855,0.714-3.545-0.396-5.232
			c-1.326-2.021-2.542-4.15-3.816-6.224c-0.283-0.458-0.372-0.779-0.078-1.383c0.644-1.326,0.579-2.696-0.214-3.985
			c-1.938-3.15-3.856-6.318-5.779-9.483c-0.275-0.454-0.528-0.931-0.823-1.452c0.129-0.173,0.237-0.317,0.347-0.463
			c1.17-1.55,1.346-2.958,0.457-4.753c-1.791-3.615-3.63-7.194-5.448-10.786c0.359-0.378,0.766-0.724,1.091-1.162
			c0.859-1.162,0.929-2.801,0.201-4.248c-1.79-3.565-3.589-7.123-5.384-10.685c-0.121-0.239-0.234-0.483-0.413-0.851
			c0.108-0.075,0.216-0.133,0.308-0.216c1.354-1.223,1.629-2.57,0.945-4.466c-0.962-2.666-1.902-5.344-2.871-8.007
			c-0.209-0.575-0.246-1.005,0.174-1.506c0.945-1.135,0.992-2.466,0.467-3.923c-0.606-1.68-1.146-3.395-1.717-5.094
			c0.463,0.481,0.956,0.923,1.381,1.451c1.217,1.513,2.386,3.081,3.606,4.588c2.14,2.635,4.303,5.24,6.455,7.858
			c-0.108,0.177-0.192,0.396-0.329,0.523c-1.562,1.455-1.821,3.385-0.765,5.434c1.701,3.302,3.378,6.621,5.061,9.935
			c0.089,0.174,0.144,0.372,0.225,0.588c-0.298,0.285-0.591,0.512-0.831,0.805c-1,1.22-1.201,2.902-0.433,4.484
			c1.335,2.751,2.736,5.451,4.107,8.176c0.621,1.233,1.237,2.475,1.864,3.73c-0.213,0.274-0.389,0.505-0.565,0.733
			c-1.062,1.384-1.131,3.238-0.19,4.767c1.378,2.24,2.743,4.495,4.131,6.728c0.326,0.525,0.438,0.917,0.111,1.588
			c-0.658,1.352-0.49,2.735,0.275,3.99c1.25,2.051,2.502,4.1,3.768,6.136c0.338,0.545,0.51,0.938,0.104,1.658
			c-0.861,1.527-0.533,3.275,0.707,4.918C1739.627,466.556,1740.221,467.462,1740.837,468.344z"/>
		<path fill-rule="evenodd" clip-rule="evenodd" fill="#FFFFFF" d="M1708.181,588.672c1.861-2.287,3.721-4.576,5.581-6.864
			c0.422,0.288,0.878,0.52,1.256,0.876c0.701,0.659,1.282,1.299,1.176,2.68c-0.061,0.775,0.515,1.772,1.012,2.43
			c0.763,1.006,1.728,1.774,2.557,2.71c0.195,0.22,0.307,0.72,0.271,1.06c-0.149,1.384,0.122,2.498,1.032,3.41
			c1.747,1.753,3.463,3.555,5.169,5.369c0.259,0.276,0.386,0.735,0.587,1.1c0.348,0.632,0.622,1.373,1.075,1.859
			c2.178,2.341,4.407,4.606,6.603,6.922c0.158,0.167,0.265,0.521,0.263,0.786c-0.011,1.306,0.406,2.274,1.228,3.129
			c2.363,2.452,4.67,4.985,7.003,7.481c0.152,0.163,0.334,0.283,0.503,0.422c-0.03,0.149-0.06,0.298-0.089,0.446
			c-3.933,0.46-7.866,0.92-11.887,1.39c0.222-1.98-0.479-3.162-1.601-4.211c-1.564-1.463-3.031-3.082-4.512-4.672
			c-0.236-0.254-0.321-0.712-0.488-1.069c-0.378-0.81-0.633-1.791-1.167-2.39c-1.686-1.891-3.485-3.624-5.216-5.454
			c-0.19-0.202-0.337-0.664-0.299-0.964c0.183-1.425-0.246-2.512-1.106-3.391c-1.022-1.046-2.054-2.082-3.089-3.107
			c-0.515-0.509-0.861-0.983-0.605-1.941c0.371-1.397-0.218-2.472-1.063-3.353c-1.344-1.401-2.693-2.795-4.031-4.204
			C1708.25,589.024,1708.232,588.824,1708.181,588.672z"/>
		<path fill-rule="evenodd" clip-rule="evenodd" fill="#FFFFFF" d="M1721.745,401.512c-2.152-2.618-4.315-5.224-6.455-7.858
			c-1.221-1.507-2.39-3.075-3.606-4.588c-0.425-0.528-0.918-0.97-1.381-1.451c-0.504-1.27-1.01-2.54-1.507-3.792
			c2.122-1.787,2.365-2.898,1.344-5.722c-0.929-2.568-1.84-5.146-2.776-7.71c-0.218-0.596-0.271-0.949,0.319-1.339
			c1.354-0.892,1.8-2.516,1.188-4.274c-1.237-3.562-2.532-7.094-3.703-10.357c0.684-0.984,1.53-1.731,1.795-2.717
			c0.267-1-0.043-2.232-0.11-3.588c1.7-0.329,3.589-0.697,5.261-1.021c1.201,3.379,2.323,6.527,3.442,9.676
			c0.116,0.326,0.206,0.667,0.335,0.985c0.191,0.471,0.12,0.715-0.286,1.001c-1.499,1.056-1.876,2.526-1.201,4.528
			c0.51,1.512,1.056,3.005,1.587,4.507c0.529,1.494,1.063,2.988,1.614,4.541c-0.202,0.139-0.375,0.245-0.539,0.368
			c-1.247,0.931-1.729,2.462-1.165,4.133c0.942,2.791,1.955,5.548,2.961,8.305c0.24,0.656,0.373,1.101-0.18,1.729
			c-0.863,0.985-0.954,2.3-0.475,3.641c1.221,3.42,2.44,6.84,3.661,10.26C1722.103,401.423,1722.104,401.423,1721.745,401.512z"/>
		<path fill-rule="evenodd" clip-rule="evenodd" fill="#FFFFFF" d="M1786.563,569.996c1.329-1.639,2.654-3.282,3.992-4.91
			c0.262-0.318,0.573-0.575,0.861-0.861c0.313,0.364,0.632,0.72,0.938,1.093c1.994,2.423,3.985,4.852,5.978,7.277
			c0.244,0.296,0.488,0.591,0.732,0.888c0.298,0.429,0.574,0.883,0.896,1.281c2.241,2.781,4.492,5.551,6.74,8.324
			c-0.918,1.168-1.814,2.364-2.762,3.496c-0.931,1.113-1.914,2.16-2.935,3.302c-1.253-3.063-3.668-4.552-5.538-6.733
			c-0.543-0.634-1.114-1.165-1.263-2.17c-0.223-1.487-1.335-2.083-2.14-2.961c-1.299-1.416-2.651-2.754-3.971-4.139
			c-0.189-0.199-0.467-0.489-0.457-0.723C1787.689,571.876,1787.118,570.947,1786.563,569.996z"/>
		<path fill-rule="evenodd" clip-rule="evenodd" fill="#FFFFFF" d="M1670.984,495.308c-1.188-1.394-2.384-2.776-3.561-4.185
			c-0.93-1.113-1.827-2.268-2.755-3.386c-0.523-0.631-0.629-1.163-0.009-1.856c0.766-0.856,1.442-1.834,2.159-2.76
			c1.727,2.792,3.451,5.584,5.214,8.435C1671.082,492.608,1670.892,493.904,1670.984,495.308z"/>
		<path fill-rule="evenodd" clip-rule="evenodd" fill="#FFFFFF" d="M1650.52,390.602c-1.012-1.262-2.022-2.523-3.034-3.784
			c0.678-0.938,1.339-1.895,2.037-2.806c0.371-0.483,0.809-0.888,1.293-1.41c0.668,1.848,1.318,3.647,1.877,5.194
			C1651.899,388.82,1651.209,389.711,1650.52,390.602z"/>
		<path fill-rule="evenodd" clip-rule="evenodd" fill="#FFFFFF" d="M1806.701,583.088c-2.248-2.773-4.499-5.543-6.74-8.324
			c-0.322-0.398-0.599-0.853-0.896-1.281c1,0.928,2.012,1.836,2.996,2.79c1.919,1.859,3.822,3.743,5.799,5.682
			C1807.444,582.362,1807.072,582.725,1806.701,583.088z"/>
		<path fill-rule="evenodd" clip-rule="evenodd" fill="#FFFFFF" d="M1798.332,572.595c-1.992-2.426-3.983-4.854-5.978-7.277
			c-0.306-0.373-0.624-0.729-0.938-1.093c0.105-0.199,0.21-0.399,0.315-0.598c1.952,1.998,3.906,3.995,5.852,6.002
			c0.123,0.127,0.231,0.327,0.271,0.516C1798.029,570.957,1798.176,571.777,1798.332,572.595z"/>
	</g>
</g>
</svg>
