<svg xmlns="http://www.w3.org/2000/svg" xmlns:xlink="http://www.w3.org/1999/xlink" width="168" height="56" viewBox="0 0 168 56">
  <defs>
    <clipPath id="clip-path">
      <rect id="Rectangle_271" data-name="Rectangle 271" width="168" height="56" transform="translate(1807 -293)" fill="none"/>
    </clipPath>
  </defs>
  <g id="justkhelologo" transform="translate(-1807 293)" clip-path="url(#clip-path)">
    <g id="logow" transform="translate(1813 -287)">
      <path id="Path_1" data-name="Path 1" d="M217.512,340.038H207.44V335.2h15.438c.009.179.019.349.019.509,0,6.988.009,13.986-.009,20.974a11.508,11.508,0,0,1-1.7,6.469,8.919,8.919,0,0,1-6.62,4.036,12.918,12.918,0,0,1-10.855-3.423c-.123-.113-.264-.217-.415-.349,1.047-1.452,2.056-2.848,3.084-4.281.377.321.726.632,1.085.915a8.611,8.611,0,0,0,4.489,2.018,4.877,4.877,0,0,0,5.441-4.253,9.955,9.955,0,0,0,.094-1.405c.009-5.243,0-10.5,0-15.74A5.727,5.727,0,0,0,217.512,340.038Z" transform="translate(-203.3 -329.392)" fill="#fff"/>
      <path id="Path_2" data-name="Path 2" d="M646.1,426.133c.886-1.066,1.716-2.065,2.584-3.1.16.132.321.245.472.368a11.257,11.257,0,0,0,6.941,2.791,5.061,5.061,0,0,0,3.386-.924,2.669,2.669,0,0,0-.236-4.423,15.547,15.547,0,0,0-4.017-1.415,29.507,29.507,0,0,1-4.414-1.462,6.533,6.533,0,0,1-2.952-9.176,6.308,6.308,0,0,1,3.8-3.065,13.183,13.183,0,0,1,12.222,2.065,2.194,2.194,0,0,0,.217.132c-.754,1.066-1.471,2.075-2.188,3.093a10.638,10.638,0,0,0-6.224-2.188,5.479,5.479,0,0,0-2.961.594,2.6,2.6,0,0,0-.2,4.48,15.862,15.862,0,0,0,3.536,1.358,28.412,28.412,0,0,1,5.206,1.754,6.641,6.641,0,0,1,2.131,10.034,7.936,7.936,0,0,1-5.47,2.829,14.534,14.534,0,0,1-11.524-3.555C646.307,426.256,646.2,426.209,646.1,426.133Z" transform="translate(-604.341 -392.646)" fill="#fff"/>
      <path id="Path_3" data-name="Path 3" d="M445.053,418h3.98c.009.132.028.273.028.406,0,4.48.028,8.959-.028,13.429a10.066,10.066,0,0,1-2.254,6.649,9.479,9.479,0,0,1-7.224,3.3,10.56,10.56,0,0,1-5.64-1.217,9.038,9.038,0,0,1-4.649-7.026,22.683,22.683,0,0,1-.179-2.773c-.019-4.055-.009-8.11-.009-12.166v-.585H433.1v.528c0,4.263-.009,8.516,0,12.779a7.338,7.338,0,0,0,1.773,5.027c2.15,2.443,7.9,2.659,9.638-2.056a9.16,9.16,0,0,0,.528-3.188v-12.5C445.053,418.424,445.053,418.236,445.053,418Z" transform="translate(-407.783 -404.384)" fill="#fff"/>
      <path id="Path_4" data-name="Path 4" d="M1391.81,444.476h10.11v3.1h-10.11v5.479h11.619v3.254H1388.2V435.8h14.891v3.254H1391.8C1391.81,440.874,1391.81,442.647,1391.81,444.476Z" transform="translate(-1276.456 -420.505)" fill="#fff"/>
      <path id="Path_5" data-name="Path 5" d="M1206.8,458.123v-8.261h-10.082v8.261H1193.3V437.809h3.414v8.742H1206.8V437.8h3.433v20.314C1209.11,458.123,1207.98,458.123,1206.8,458.123Z" transform="translate(-1099.937 -422.316)" fill="#fff"/>
      <path id="Path_7" data-name="Path 7" d="M1567.59,286.222c.264.057.49.1.717.16.651.17.83.377.858,1.056.019.5.019,1.009.019,1.509.009,3.423,0,6.856.019,10.279.009,2.952.057,5.9.075,8.865.009,1.037-.34,1.415-1.368,1.415-.971,0-1.943-.047-2.914-.094-.566-.028-.773-.273-.8-.839-.009-.17-.009-.349-.009-.519-.01-3.659-.019-7.328-.038-10.987q-.028-4.711-.057-9.431c-.009-.981.1-1.141,1.084-1.283.49-.075.67-.255.651-.783-.094-3.452-.151-6.913-.217-10.364a3.339,3.339,0,0,1,0-.613c.066-.321.113-.849.292-.9a3.555,3.555,0,0,1,1.377-.009c.085.009.2.273.208.434.047.613.075,1.226.075,1.83.019,3.282.028,6.573.038,9.855C1567.59,285.93,1567.59,286.062,1567.59,286.222Z" transform="translate(-1435.763 -273.615)" fill="#fff"/>
      <path id="Path_8" data-name="Path 8" d="M881.751,443.09H877.8V420.9h3.951Z" transform="translate(-814.142 -407.284)" fill="#fff"/>
      <path id="Path_9" data-name="Path 9" d="M984.706,324.957v4.395c5.385-4.706,10.7-9.355,16.079-14.052.038.179.075.264.057.283Q990.7,326.631,980.5,337.736V324.948C981.915,324.957,983.282,324.957,984.706,324.957Z" transform="translate(-907.205 -311.369)" fill="#fff"/>
      <path id="Path_11" data-name="Path 11" d="M1028.2,527.773c.886-.962,1.726-1.877,2.537-2.773.5.472,1,.905,1.462,1.386q4.937,5.121,9.846,10.27a1.771,1.771,0,0,1,.245.5,2.481,2.481,0,0,1-.5.141c-1.113.019-2.226.009-3.339.038a2.825,2.825,0,0,1-2.216-.971c-1.688-1.792-3.367-3.6-5.045-5.4C1030.21,529.913,1029.22,528.867,1028.2,527.773Z" transform="translate(-950.407 -501.293)" fill="#fff"/>
      <path id="Path_14" data-name="Path 14" d="M864.541,559.432v8.733h-4.168c-.047-.585-.085-1.169-.132-1.858-4.065,3.706-8.082,7.365-12.1,11.024l-.141-.085a1.574,1.574,0,0,1,.217-.368c1.537-1.66,3.074-3.31,4.621-4.97q5.687-6.1,11.364-12.2a1.881,1.881,0,0,0,.226-.406A.492.492,0,0,0,864.541,559.432Z" transform="translate(-787.201 -532.358)" fill="#fff"/>
      <g id="Group_287" data-name="Group 287" transform="translate(134.738 10.651)">
        <path id="Path_6" data-name="Path 6" d="M1736,385.57a9.423,9.423,0,0,1,7.846,3.188,13.71,13.71,0,0,1,3.546,7.941,15.292,15.292,0,0,1-1.5,8.921c-.283.556-.641,1.075-.971,1.613a2.17,2.17,0,0,1-.207.245c-.471-.641-.934-1.245-1.367-1.858a6.28,6.28,0,0,1-.849-1.3c-.189-.519-.679-.82-.773-1.424a5.041,5.041,0,0,0-.726-1.311,1.879,1.879,0,0,1-.123-.528c-.019-.085,0-.207-.047-.264a4.617,4.617,0,0,1-.8-1.367c-.2-.528-.688-.952-.849-1.49-.226-.764-.641-1.452-.868-2.2a11.048,11.048,0,0,1-.557-1.349c-.075-.613-.528-1.151-.5-1.669a3.391,3.391,0,0,0-.387-1.377c-.057-.207.019-.443-.028-.66a7.5,7.5,0,0,1-.368-1.886c.047-.651-.4-1.245-.132-1.9.038-.094-.028-.245-.066-.358C1736.2,386.212,1736.1,385.919,1736,385.57Z" transform="translate(-1726.195 -385.547)" fill="#fff"/>
        <path id="Path_10" data-name="Path 10" d="M1642.57,460.634a8.964,8.964,0,0,1-4.63-1.377,12.123,12.123,0,0,1-5.187-7.1,15.344,15.344,0,0,1,1.245-12.2l.17-.283a2.128,2.128,0,0,1,.141-.17c.113.4.443.679.16,1.094a.116.116,0,0,0-.019.094c.358.566.1,1.216.283,1.82a4.642,4.642,0,0,1,.368,1.839,2.267,2.267,0,0,0,.33,1.386c.028.075.094.179.075.217-.33.453.1.745.2,1.113a6.242,6.242,0,0,1,.113.736,1.038,1.038,0,0,0,.019.179c.255.575.519,1.151.764,1.726.1.236.141.49.236.736a3.546,3.546,0,0,0,.283.528c.132.208.349.377.189.66a.2.2,0,0,0,.009.179c.349.547.717,1.094,1.066,1.641a3.442,3.442,0,0,1,.151.471,3.548,3.548,0,0,0,.33.622c.141.189.415.311.207.613a.2.2,0,0,0,.009.179c.274.462.566.915.839,1.377l.849,1.443a2.29,2.29,0,0,0,.113.207C1641.43,459.106,1641.97,459.832,1642.57,460.634Z" transform="translate(-1632.028 -434.507)" fill="#fff"/>
        <path id="Path_12" data-name="Path 12" d="M1704.15,412.792c-.49.385-.981.761-1.443,1.146-.292.244-.5.225-.708-.113-1.226-1.907-2.49-3.8-3.678-5.721a45.268,45.268,0,0,1-5.366-14.776c-.141-.676-.292-1.343-.424-2.02a.519.519,0,0,1,.066-.366,6.976,6.976,0,0,1,2.367-1.043,7.553,7.553,0,0,0,.066.808c.057.291.311.564.038.874a.209.209,0,0,0,0,.132,3.2,3.2,0,0,1,.189,1.278,6.266,6.266,0,0,0,.368,1.822c.066.263.217.5.019.789-.056.085.066.31.123.47.132.376.5.686.274,1.165-.047.1.113.31.179.47.141.366.5.667.283,1.118a.122.122,0,0,0,.019.094c.207.507.415,1.015.613,1.522.123.31.208.629.34.939.075.178.226.338.3.517a3.92,3.92,0,0,1,.151.573c.01.056-.019.141.01.179.349.545.707,1.09,1.037,1.644a2.824,2.824,0,0,1,.17.5,1.262,1.262,0,0,0,.123.376,5.635,5.635,0,0,0,.509.554c-.038.019-.085.047-.123.066l.3.733c.094.216.2.423.3.639.019.038.019.094.038.131.321.47.66.939.972,1.418.292.47.528.977.83,1.447.254.4.547.789.839,1.165C1703.31,411.8,1703.71,412.257,1704.15,412.792Z" transform="translate(-1686.821 -389.489)" fill="#fff"/>
        <path id="Path_13" data-name="Path 13" d="M1685.27,428.493c-.868.329-1.594.6-2.3.874-.641-.836-1.254-1.606-1.839-2.4a12.587,12.587,0,0,1-.632-1.108,1.322,1.322,0,0,0-.207-.3c-.17-.188-.425-.329-.311-.658a.089.089,0,0,0-.038-.085c-.556-.366-.481-1.09-.886-1.541-.066-.066-.16-.169-.141-.235.123-.488-.3-.7-.49-1.052a15.58,15.58,0,0,1-.632-1.465c-.01-.019-.01-.028-.019-.047a16.047,16.047,0,0,1-.764-1.5c-.217-.582-.688-1.061-.67-1.747,0-.178-.17-.357-.264-.535-.142-.272-.358-.488-.217-.892.075-.207-.207-.526-.292-.808-.057-.178-.028-.376-.085-.554-.094-.31-.226-.6-.311-.911a4.037,4.037,0,0,1-.113-.676c-.019-.1-.028-.216-.038-.319-.057-.357-.1-.714-.17-1.071-.123-.676-.255-1.353-.386-2.029-.019-.085-.076-.216-.038-.263.264-.31.057-.592-.038-.874-.085-.263-.236-.507-.038-.827.085-.141-.113-.432-.142-.658-.019-.15-.047-.376.038-.46.321-.338.688-.629,1.15-1.043A44.47,44.47,0,0,0,1685.27,428.493Z" transform="translate(-1670.211 -403.437)" fill="#fff"/>
        <path id="Path_15" data-name="Path 15" d="M1733.16,407.93l-.585.7c-.453-.6-.9-1.165-1.32-1.747-.339-.47-.688-.93-.981-1.428-.264-.441-.462-.92-.688-1.381a1.311,1.311,0,0,0-.17-.272,1.138,1.138,0,0,1-.453-.817c0-.2-.3-.4-.5-.648.321-.376.076-.639-.217-.911-.189-.169-.434-.348-.236-.667a.132.132,0,0,0-.019-.132c-.547-.366-.5-1.089-.924-1.531-.132-.141-.151-.366-.245-.545-.132-.263-.311-.5-.424-.761-.226-.545-.4-1.1-.622-1.644-.132-.31-.321-.6-.453-.911a3.5,3.5,0,0,1-.113-.545,8.559,8.559,0,0,0-.292-.826c-.094-.235-.255-.423-.122-.733.066-.16-.123-.423-.208-.639-.123-.319-.434-.592-.207-.986.019-.028-.009-.094-.019-.132a5.925,5.925,0,0,1-.387-1.916c.085-.639-.406-1.183-.123-1.813.066-.141-.057-.394-.151-.573a1.123,1.123,0,0,1-.009-1.052c.066-.122.264-.178.5-.319.066.554.509.93.189,1.456-.047.075.047.235.085.357.094.3.321.592.066.911-.019.019-.009.066,0,.094.113.563.226,1.136.359,1.7a1.478,1.478,0,0,1,.094.977c-.085.225.217.582.311.892a3.064,3.064,0,0,1,.066.592c0,.047-.038.094-.019.131a7.418,7.418,0,0,1,.632,1.888,9.557,9.557,0,0,0,.66,2.019,2.746,2.746,0,0,0,.17.329c.151.272.509.46.321.855a.1.1,0,0,0,.028.085,4.688,4.688,0,0,1,.783,1.324c.151.329.585.526.5,1a2.125,2.125,0,0,1,.754,1.531c.123.676.783.977.858,1.653a2.177,2.177,0,0,0,.509.9c.33.479.679.939,1.018,1.409C1732.08,406.484,1732.6,407.179,1733.16,407.93Z" transform="translate(-1714.93 -385.686)" fill="#fff"/>
        <path id="Path_16" data-name="Path 16" d="M1671.48,444.92c-.34.047-.66.085-.971.131-.415-.517-.839-1.014-1.217-1.54a11.672,11.672,0,0,1-.622-1.118c-.019-.028-.01-.066-.028-.094-.311-.46-.622-.93-.934-1.39-.057-.075-.142-.132-.17-.216-.132-.319-.255-.648-.415-1.089.2-.254-.019-.535-.321-.8-.188-.169-.453-.329-.236-.657.028-.047-.009-.16-.047-.216a2.509,2.509,0,0,1-.66-1.118c-.066-.348-.443-.639-.566-1.1a10.213,10.213,0,0,0-.886-1.794,4.831,4.831,0,0,1-.66-1.6c-.038-.554-.453-1.014-.415-1.456.066-.648-.311-1.071-.443-1.6a10.561,10.561,0,0,1-.16-1.653,2.791,2.791,0,0,0-.094-.4c-.075-.282-.3-.554-.047-.873.047-.056-.028-.207-.057-.31-.094-.338-.358-.657-.1-1.052.047-.075-.009-.254-.075-.347-.321-.479-.151-1-.123-1.5.009-.263.33-.5.641-.732v.629c0,.056-.057.122-.047.178.094.62.208,1.24.292,1.869a4.644,4.644,0,0,1,.019.629c0,.056-.038.122-.028.178.123.582.236,1.164.368,1.747.075.31.311.592.047.92a.16.16,0,0,0,0,.132c.245.723.5,1.456.736,2.179a2.371,2.371,0,0,1,.066.639c.01.075-.038.178-.009.225a5.628,5.628,0,0,1,.537,1.418c.217.582.755,1.108.783,1.681.028.629.641.892.622,1.484,0,.132.207.263.292.413.1.2.189.4.273.61.028.056.01.141.047.178a3.634,3.634,0,0,1,.726,1.3c.123.263.453.451.274.826-.019.038.019.131.057.169.632.535.792,1.362,1.283,1.991.481.6.934,1.221,1.386,1.841C1670.89,444.066,1671.17,444.479,1671.48,444.92Z" transform="translate(-1659.315 -418.925)" fill="#fff"/>
      </g>
      <g id="Group_4" data-name="Group 4" transform="translate(56.623 5.631)">
        <path id="Path_17" data-name="Path 17" d="M891.008,342.605c.01-.622.292-.9.886-.9.622,0,.943.292.943.9,0,1.349-.019,2.7-.047,4.046-.01.651-.292.915-.877.915a.855.855,0,0,1-.953-.962C890.952,345.944,891,343.275,891.008,342.605Z" transform="translate(-881.624 -341.614)" fill="#fff"/>
        <path id="Path_18" data-name="Path 18" d="M839.839,345.683c-.019.726-.377,1.018-1.094.934a.743.743,0,0,1-.745-.8c0-1.283.009-2.575.028-3.857a1.969,1.969,0,0,1,.075-.462c.113-.519.358-.726.839-.707.575.028.915.311.934.849C839.885,342.322,839.858,345.032,839.839,345.683Z" transform="translate(-833.662 -340.788)" fill="#fff"/>
        <path id="Path_19" data-name="Path 19" d="M919.751,346.469a.786.786,0,0,1-.849.858c-.622.009-.943-.245-.952-.849-.01-1.377-.01-2.763.028-4.14a.78.78,0,0,1,.934-.858.841.841,0,0,1,.877.943C919.8,343.084,919.779,345.781,919.751,346.469Z" transform="translate(-906.067 -341.413)" fill="#fff"/>
        <path id="Path_20" data-name="Path 20" d="M864.428,344.433c0-.688-.009-1.386,0-2.075.019-.641.292-.886.905-.868.641.009.886.245.886.886.009,1.254-.038,4.178-.094,4.376a.735.735,0,0,1-.886.641.823.823,0,0,1-.849-.83C864.371,345.857,864.418,344.433,864.428,344.433Z" transform="translate(-857.552 -341.423)" fill="#fff"/>
        <path id="Path_21" data-name="Path 21" d="M795.9,360.619v2.065c-1.085,0-2.131.019-3.178-.009-.387-.009-.717-.528-.726-.981-.009-.481.34-1.037.764-1.056C793.809,360.591,794.865,360.619,795.9,360.619Z" transform="translate(-791.998 -358.741)" fill="#fff"/>
        <path id="Path_22" data-name="Path 22" d="M941.9,363.416V361.2c1.094.047,2.15.066,3.2.16a.9.9,0,0,1,.688.943.979.979,0,0,1-.67,1.018,2.525,2.525,0,0,1-.651.094Z" transform="translate(-927.763 -359.275)" fill="#fff"/>
      </g>
    </g>
  </g>
</svg>
