<?xml version="1.0" encoding="utf-8"?>
<!-- Generator: Adobe Illustrator 21.0.0, SVG Export Plug-In . SVG Version: 6.00 Build 0)  -->
<svg version="1.1" id="Layer_1" xmlns="http://www.w3.org/2000/svg" xmlns:xlink="http://www.w3.org/1999/xlink" x="0px" y="0px"
	 viewBox="0 0 2166.4 1024" style="enable-background:new 0 0 2166.4 1024;" xml:space="preserve">
<style type="text/css">
	.st0{fill:#FFFFFF;}
</style>
<path class="st0" d="M354,386.5c-35.9,0-71.1,0-106.8,0c0-17.3,0-34.1,0-51.3c54.5,0,108.9,0,163.7,0c0.1,1.9,0.2,3.7,0.2,5.4
	c0,74.1,0.1,148.3-0.1,222.4c-0.1,24.3-4.3,47.8-18,68.6c-16.6,25.2-40.7,39.1-70.2,42.8c-43.7,5.5-82.4-6.1-115.1-36.3
	c-1.3-1.2-2.8-2.3-4.4-3.7c11.1-15.4,21.8-30.2,32.7-45.4c4,3.4,7.7,6.7,11.5,9.7c14,11.2,29.3,19.4,47.6,21.4
	c28.8,3.1,53.9-16.3,57.7-45.1c0.7-4.9,1-9.9,1-14.9c0.1-55.6,0-111.3,0-166.9C354,391.2,354,389.2,354,386.5z"/>
<path class="st0" d="M646.1,628.7c9.4-11.3,18.2-21.9,27.4-32.9c1.7,1.4,3.4,2.6,5,3.9c21.5,17.4,45.4,29,73.6,29.6
	c12.8,0.3,25.3-1.5,35.9-9.8c16-12.5,14.8-36.3-2.5-46.9c-13.1-8.1-28.1-10.8-42.6-15c-15.8-4.6-32-8.5-46.8-15.5
	c-37.4-17.6-50.8-60.6-31.3-97.3c8.7-16.5,23.1-27,40.3-32.5c46.7-15,89.9-6.3,129.6,21.9c0.7,0.5,1.4,0.9,2.3,1.4
	c-8,11.3-15.6,22-23.2,32.8c-19.6-15.2-41.8-22.1-66-23.2c-10.9-0.5-21.6,0.9-31.4,6.3c-18.3,10-20.1,37-2.1,47.5
	c11.4,6.7,24.7,10.6,37.5,14.4c18.6,5.6,37.7,9.4,55.2,18.6c39.3,20.5,50.4,72.1,22.6,106.4c-14.9,18.3-35,27.3-58,30
	c-46.2,5.3-86.9-7.6-122.2-37.7C648.3,630,647.2,629.5,646.1,628.7z"/>
<path class="st0" d="M598.5,418c14.4,0,28,0,42.2,0c0.1,1.4,0.3,2.9,0.3,4.3c0,47.5,0.3,95-0.3,142.4c-0.3,25.8-6.6,50.2-23.9,70.5
	c-20.1,23.4-46.2,34-76.6,35c-21,0.7-41.2-2.5-59.8-12.9c-29.2-16.4-44.7-41.9-49.3-74.5c-1.3-9.7-1.8-19.6-1.9-29.4
	c-0.2-43-0.1-86-0.1-129c0-2,0-3.9,0-6.2c14.2,0,28,0,42.7,0c0,1.8,0,3.7,0,5.6c0,45.2-0.1,90.3,0,135.5c0.1,19.9,5.3,38,18.8,53.3
	c22.8,25.9,83.8,28.2,102.2-21.8c4-10.9,5.6-22.2,5.6-33.8c0-44.2,0-88.3,0-132.5C598.5,422.5,598.5,420.5,598.5,418z"/>
<path class="st0" d="M1426.5,527.8c35.9,0,71.3,0,107.2,0c0,11,0,21.7,0,32.9c-35.6,0-71.2,0-107.2,0c0,19.5,0,38.5,0,58.1
	c41.1,0,82,0,123.2,0c0,11.7,0,23,0,34.5c-53.7,0-107.4,0-161.5,0c0-72.4,0-144.7,0-217.5c52.5,0,105.1,0,157.9,0
	c0,11.4,0,22.7,0,34.5c-39.9,0-79.7,0-119.7,0C1426.5,489.6,1426.5,508.4,1426.5,527.8z"/>
<path class="st0" d="M1336.5,653.3c0-29.1,0-58.2,0-87.6c-35.8,0-71.1,0-106.9,0c0,29.3,0,58.3,0,87.6c-12.4,0-24.1,0-36.3,0
	c0-71.7,0-143.4,0-215.4c11.8,0,23.7,0,36.2,0c0,30.8,0,61.6,0,92.7c35.7,0,71,0,106.9,0c0-30.8,0-61.7,0-92.8c12.5,0,24.3,0,36.4,0
	c0,71.7,0,143.4,0,215.4C1360.9,653.3,1349,653.3,1336.5,653.3z"/>
<path class="st0" d="M1736,385.8c33.8-2.2,60.9,10,83.2,33.8c22.2,23.7,33.7,52.4,37.6,84.2c4,33-0.8,64.7-15.9,94.6
	c-3,5.9-6.8,11.4-10.3,17.1c-0.4,0.7-1,1.2-2.2,2.6c-5-6.8-9.9-13.2-14.5-19.7c-3.2-4.5-7.1-8.8-9-13.8c-2-5.5-7.2-8.7-8.2-15.1
	c-0.8-4.9-5.2-9.2-7.7-13.9c-0.9-1.6-0.9-3.7-1.3-5.6c-0.2-0.9,0-2.2-0.5-2.8c-3.6-4.4-6.5-9-8.5-14.5c-2.1-5.6-7.3-10.1-9-15.8
	c-2.4-8.1-6.8-15.4-9.2-23.3c-1.5-5.2-5.3-9.5-5.9-14.3c-0.8-6.5-5.6-12.2-5.3-17.7c0.4-6-2.6-9.8-4.1-14.6c-0.6-2.2,0.2-4.7-0.3-7
	c-1.3-6.7-4.4-13.4-3.9-20c0.5-6.9-4.2-13.2-1.4-20.1c0.4-1-0.3-2.6-0.7-3.8C1738.1,392.6,1737.1,389.5,1736,385.8z"/>
<path class="st0" d="M1601.2,407.3c2.8,0.6,5.2,1.1,7.6,1.7c6.9,1.8,8.8,4,9.1,11.2c0.2,5.3,0.2,10.7,0.2,16
	c0.1,36.3,0,72.7,0.2,109c0.1,31.3,0.6,62.6,0.8,94c0.1,11-3.6,15-14.5,15c-10.3,0-20.6-0.5-30.9-1c-6-0.3-8.2-2.9-8.5-8.9
	c-0.1-1.8-0.1-3.7-0.1-5.5c-0.1-38.8-0.2-77.7-0.4-116.5c-0.2-33.3-0.4-66.6-0.6-100c-0.1-10.4,1.1-12.1,11.5-13.6
	c5.2-0.8,7.1-2.7,6.9-8.3c-1-36.6-1.6-73.3-2.3-109.9c0-2.2-0.4-4.4,0-6.5c0.7-3.4,1.2-9,3.1-9.6c4.5-1.4,9.7-0.6,14.6-0.1
	c0.9,0.1,2.1,2.9,2.2,4.6c0.5,6.5,0.8,13,0.8,19.4c0.2,34.8,0.3,69.7,0.4,104.5C1601.2,404.2,1601.2,405.6,1601.2,407.3z"/>
<path class="st0" d="M919.7,660.5c-14,0-27.8,0-41.9,0c0-79.9,0-159.6,0-239.6c14,0,27.7,0,41.9,0
	C919.7,500.6,919.7,580.3,919.7,660.5z"/>
<path class="st0" d="M1025.1,417.7c0,15.5,0,30.4,0,46.6c57.1-49.9,113.5-99.2,170.5-149c0.4,1.9,0.8,2.8,0.6,3
	c-71.7,78.1-143.4,156.2-215.7,234.9c0-45.8,0-90.6,0-135.6C995.5,417.7,1010,417.7,1025.1,417.7z"/>
<path class="st0" d="M1743.8,663.6c-18.1-0.5-34.3-5.3-49.1-14.6c-28.2-17.8-45.7-43.8-55-75.3c-13.4-44.8-9.4-88.1,13.2-129.4
	c0.6-1,1.2-2,1.8-3c0.3-0.4,0.6-0.8,1.5-1.8c1.2,4.2,4.7,7.2,1.7,11.6c-0.2,0.3-0.3,0.7-0.2,1c3.8,6,1.1,12.9,3,19.3
	c1.9,6.4,4.8,13.3,3.9,19.5c-1,6.1,1.5,10,3.5,14.7c0.3,0.8,1,1.9,0.8,2.3c-3.5,4.8,1.1,7.9,2.1,11.8c0.7,2.5,0.8,5.2,1.2,7.8
	c0.1,0.6,0,1.4,0.2,1.9c2.7,6.1,5.5,12.2,8.1,18.3c1.1,2.5,1.5,5.2,2.5,7.8c0.8,2,1.9,3.8,3,5.6c1.4,2.2,3.7,4,2,7
	c-0.3,0.5-0.2,1.4,0.1,1.9c3.7,5.8,7.6,11.6,11.3,17.4c0.9,1.4,0.9,3.4,1.6,5c1,2.3,2.1,4.6,3.5,6.6c1.5,2,4.4,3.3,2.2,6.5
	c-0.3,0.4-0.2,1.4,0.1,1.9c2.9,4.9,6,9.7,8.9,14.6c3,5.1,6,10.2,9,15.3c0.4,0.7,0.7,1.5,1.2,2.2
	C1731.7,647.4,1737.5,655.1,1743.8,663.6z"/>
<path class="st0" d="M1028.2,554.4c9.4-10.2,18.3-19.9,26.9-29.4c5.3,5,10.6,9.6,15.5,14.7c34.9,36.2,69.7,72.5,104.4,108.9
	c1.3,1.4,1.8,3.5,2.6,5.3c-1.8,0.5-3.5,1.4-5.3,1.5c-11.8,0.2-23.6,0.1-35.4,0.4c-9.5,0.3-17.2-3.6-23.5-10.3
	c-17.9-19-35.7-38.2-53.5-57.3C1049.5,577.1,1039,566,1028.2,554.4z"/>
<path class="st0" d="M1815.8,633.6c-5.2,4.1-10.4,8.1-15.3,12.2c-3.1,2.6-5.3,2.4-7.5-1.2c-13-20.3-26.4-40.4-39-60.9
	c-29.8-48.5-45.4-102.2-56.9-157.3c-1.5-7.2-3.1-14.3-4.5-21.5c-0.2-1.3,0-3.1,0.7-3.9c3.3-3.5,20.1-10.6,25.1-11.1
	c0.2,2.9,0.2,5.8,0.7,8.6c0.6,3.1,3.3,6,0.4,9.3c-0.2,0.3-0.1,1,0,1.4c1.5,4.4,2.3,8.6,2,13.6c-0.4,6.4,2.3,13,3.9,19.4
	c0.7,2.8,2.3,5.3,0.2,8.4c-0.6,0.9,0.7,3.3,1.3,5c1.4,4,5.3,7.3,2.9,12.4c-0.5,1.1,1.2,3.3,1.9,5c1.5,3.9,5.3,7.1,3,11.9
	c-0.1,0.2,0,0.7,0.2,1c2.2,5.4,4.4,10.8,6.5,16.2c1.3,3.3,2.2,6.7,3.6,10c0.8,1.9,2.4,3.6,3.2,5.5c0.8,1.9,1.1,4.1,1.6,6.1
	c0.1,0.6-0.2,1.5,0.1,1.9c3.7,5.8,7.5,11.6,11,17.5c0.9,1.6,1.2,3.5,1.8,5.3c0.4,1.3,0.5,2.9,1.3,4c1.6,2.1,3.5,4,5.4,5.9
	c-0.4,0.2-0.9,0.5-1.3,0.7c1.1,2.6,2.1,5.2,3.2,7.8c1,2.3,2.1,4.5,3.2,6.8c0.2,0.4,0.2,1,0.4,1.4c3.4,5,7,10,10.3,15.1
	c3.1,5,5.6,10.4,8.8,15.4c2.7,4.3,5.8,8.4,8.9,12.4C1806.9,623,1811.1,627.9,1815.8,633.6z"/>
<path class="st0" d="M1791.7,652.2c-9.2,3.5-16.9,6.4-24.4,9.3c-6.8-8.9-13.3-17.1-19.5-25.6c-2.6-3.6-4.4-7.8-6.7-11.8
	c-0.6-1.1-1.3-2.3-2.2-3.2c-1.8-2-4.5-3.5-3.3-7c0.1-0.2-0.1-0.7-0.4-0.9c-5.9-3.9-5.1-11.6-9.4-16.4c-0.7-0.7-1.7-1.8-1.5-2.5
	c1.3-5.2-3.2-7.5-5.2-11.2c-2.7-4.9-4.5-10.4-6.7-15.6c-0.1-0.2-0.1-0.3-0.2-0.5c-2.7-5.3-6-10.5-8.1-16c-2.3-6.2-7.3-11.3-7.1-18.6
	c0-1.9-1.8-3.8-2.8-5.7c-1.5-2.9-3.8-5.2-2.3-9.5c0.8-2.2-2.2-5.6-3.1-8.6c-0.6-1.9-0.3-4-0.9-5.9c-1-3.3-2.4-6.4-3.3-9.7
	c-0.7-2.3-0.9-4.8-1.2-7.2c-0.2-1.1-0.3-2.3-0.4-3.4c-0.6-3.8-1.1-7.6-1.8-11.4c-1.3-7.2-2.7-14.4-4.1-21.6
	c-0.2-0.9-0.8-2.3-0.4-2.8c2.8-3.3,0.6-6.3-0.4-9.3c-0.9-2.8-2.5-5.4-0.4-8.8c0.9-1.5-1.2-4.6-1.5-7c-0.2-1.6-0.5-4,0.4-4.9
	c3.4-3.6,7.3-6.7,12.2-11.1C1697.9,498,1733.2,579.4,1791.7,652.2z"/>
<path class="st0" d="M1023.4,560.7c0,30.7,0,61.5,0,92.6c-14.8,0-29.2,0-44.2,0c-0.5-6.2-0.9-12.4-1.4-19.7
	c-43.1,39.3-85.7,78.1-128.3,116.9c-0.5-0.3-1-0.6-1.5-0.9c0.7-1.3,1.3-2.9,2.3-3.9c16.3-17.6,32.6-35.1,49-52.7
	c40.2-43.1,80.3-86.2,120.5-129.4c1.1-1.2,1.6-2.8,2.4-4.3C1022.5,559.8,1022.9,560.3,1023.4,560.7z"/>
<path class="st0" d="M1825.3,622.4c-1.6,1.9-3.6,4.3-6.2,7.4c-4.8-6.4-9.5-12.4-14-18.6c-3.6-5-7.3-9.9-10.4-15.2
	c-2.8-4.7-4.9-9.8-7.3-14.7c-0.5-1-1.1-2.1-1.8-2.9c-2.3-2.5-4.8-4.5-4.8-8.7c0-2.1-3.2-4.3-5.3-6.9c3.4-4,0.8-6.8-2.3-9.7
	c-2-1.8-4.6-3.7-2.5-7.1c0.2-0.3,0.1-1.2-0.2-1.4c-5.8-3.9-5.3-11.6-9.8-16.3c-1.4-1.5-1.6-3.9-2.6-5.8c-1.4-2.8-3.3-5.3-4.5-8.1
	c-2.4-5.8-4.2-11.7-6.6-17.5c-1.4-3.3-3.4-6.4-4.8-9.7c-0.8-1.8-0.7-3.9-1.2-5.8c-0.9-3-1.9-5.9-3.1-8.8c-1-2.5-2.7-4.5-1.3-7.8
	c0.7-1.7-1.3-4.5-2.2-6.8c-1.3-3.4-4.6-6.3-2.2-10.5c0.2-0.3-0.1-1-0.2-1.4c-1.5-6.8-5-13.9-4.1-20.4c0.9-6.8-4.3-12.6-1.3-19.3
	c0.7-1.5-0.6-4.2-1.6-6.1c-2-3.8-1.8-7.6-0.1-11.2c0.7-1.3,2.8-1.9,5.3-3.4c0.7,5.9,5.4,9.9,2,15.5c-0.5,0.8,0.5,2.5,0.9,3.8
	c1,3.2,3.4,6.3,0.7,9.7c-0.2,0.2-0.1,0.7,0,1c1.2,6,2.4,12.1,3.8,18.1c0.8,3.4,2.5,6.2,1,10.4c-0.9,2.4,2.3,6.2,3.3,9.5
	c0.6,2,0.5,4.2,0.7,6.3c0,0.5-0.4,1-0.2,1.4c2.5,6.6,5.9,12.6,6.7,20.1c0.8,7.3,4.5,14.4,7,21.5c0.4,1.2,1.2,2.3,1.8,3.5
	c1.6,2.9,5.4,4.9,3.4,9.1c-0.1,0.2,0.1,0.7,0.3,0.9c3.8,4.1,6,9,8.3,14.1c1.6,3.5,6.2,5.6,5.3,10.6c5.8,3.8,7,10.8,8,16.3
	c1.3,7.2,8.3,10.4,9.1,17.6c0.3,3.4,3.3,6.6,5.4,9.6c3.5,5.1,7.2,10,10.8,15C1813.9,607,1819.4,614.4,1825.3,622.4z"/>
<path class="st0" d="M1761,662.2c-3.6,0.5-7,0.9-10.3,1.4c-4.4-5.5-8.9-10.8-12.9-16.4c-2.6-3.7-4.4-7.9-6.6-11.9
	c-0.2-0.3-0.1-0.7-0.3-1c-3.3-4.9-6.6-9.9-9.9-14.8c-0.6-0.8-1.5-1.4-1.8-2.3c-1.4-3.4-2.7-6.9-4.4-11.6c2.1-2.7-0.2-5.7-3.4-8.5
	c-2-1.8-4.8-3.5-2.5-7c0.3-0.5-0.1-1.7-0.5-2.3c-2.9-3.6-5.9-6.6-7-11.9c-0.7-3.7-4.7-6.8-6-11.7c-1.7-6.7-6.3-12.7-9.4-19.1
	c-2.7-5.6-6.6-11.2-7-17c-0.4-5.9-4.8-10.8-4.4-15.5c0.7-6.9-3.3-11.4-4.7-17c-1.4-5.6-1.2-11.7-1.7-17.6c-0.1-1.5-0.7-2.9-1-4.3
	c-0.8-3-3.2-5.9-0.5-9.3c0.5-0.6-0.3-2.2-0.6-3.3c-1-3.6-3.8-7-1.1-11.2c0.5-0.8-0.1-2.7-0.8-3.7c-3.4-5.1-1.6-10.7-1.3-16
	c0.1-2.8,3.5-5.3,6.8-7.8c0,2.2,0,4.4,0,6.7c0,0.6-0.6,1.3-0.5,1.9c1,6.6,2.2,13.2,3.1,19.9c0.3,2.2,0.2,4.4,0.2,6.7
	c0,0.6-0.4,1.3-0.3,1.9c1.3,6.2,2.5,12.4,3.9,18.6c0.8,3.3,3.3,6.3,0.5,9.8c-0.2,0.3-0.2,1,0,1.4c2.6,7.7,5.3,15.5,7.8,23.2
	c0.7,2.1,0.6,4.5,0.7,6.8c0.1,0.8-0.4,1.9-0.1,2.4c3.2,4.6,3.9,10.1,5.7,15.1c2.3,6.2,8,11.8,8.3,17.9c0.3,6.7,6.8,9.5,6.6,15.8
	c0,1.4,2.2,2.8,3.1,4.4c1.1,2.1,2,4.3,2.9,6.5c0.3,0.6,0.1,1.5,0.5,1.9c4.1,3.8,5.5,9,7.7,13.9c1.3,2.8,4.8,4.8,2.9,8.8
	c-0.2,0.4,0.2,1.4,0.6,1.8c6.7,5.7,8.4,14.5,13.6,21.2c5.1,6.4,9.9,13,14.7,19.6C1754.8,653.1,1757.7,657.5,1761,662.2z"/>
<path class="st0" d="M891.5,372.7c0-7.1-0.1-14.3,0-21.4c0.1-6.6,3.1-9.6,9.4-9.6c6.6,0,10,3.1,10,9.6c0,14.3-0.2,28.6-0.5,42.9
	c-0.1,6.9-3.1,9.7-9.3,9.7c-6.6,0-10-3.4-10.1-10.2c-0.1-7,0-14,0-21C891.2,372.7,891.3,372.7,891.5,372.7z"/>
<path class="st0" d="M857.5,371.8c0,7,0.2,14,0,20.9c-0.2,7.7-4,10.8-11.6,9.9c-5-0.6-7.9-3.3-7.9-8.5c0-13.6,0.1-27.3,0.3-40.9
	c0-1.6,0.4-3.3,0.8-4.9c1.2-5.5,3.8-7.7,8.9-7.5c6.1,0.3,9.7,3.3,9.9,9c0.3,7.3,0.1,14.6,0.1,21.9
	C857.7,371.8,857.6,371.8,857.5,371.8z"/>
<path class="st0" d="M937.2,372.5c0,7.3,0.2,14.6-0.1,21.9c-0.2,6-3.4,9-9,9.1c-6.6,0.1-10-2.6-10.1-9c-0.1-14.6-0.1-29.3,0.3-43.9
	c0.2-6.6,3.6-9.4,9.9-9.1c6,0.3,9.2,3.6,9.3,10c0.1,7,0,14,0,21C937.4,372.5,937.3,372.5,937.2,372.5z"/>
<path class="st0" d="M864.9,372.7c0-7.3-0.1-14.7,0-22c0.2-6.8,3.1-9.4,9.6-9.2c6.8,0.1,9.4,2.6,9.4,9.4c0.1,13.3,0.1,26.7,0,40
	c0,2.1-0.4,4.3-1,6.4c-1.4,5.3-4.4,7.4-9.4,6.8c-5.6-0.6-8.9-3.6-9-8.8c-0.2-7.5-0.1-15-0.1-22.5
	C864.7,372.7,864.8,372.7,864.9,372.7z"/>
<path class="st0" d="M833.4,360.7c0,7.6,0,15,0,21.9c-11.5,0-22.6,0.2-33.7-0.1c-4.1-0.1-7.6-5.6-7.7-10.4c-0.1-5.1,3.6-11,8.1-11.2
	C811.2,360.4,822.4,360.7,833.4,360.7z"/>
<path class="st0" d="M941.9,384.7c0-7.9,0-15.1,0-23.5c11.6,0.5,22.8,0.7,33.9,1.7c4.4,0.4,7.2,5.2,7.3,10c0.1,5.2-2.5,9.4-7.1,10.8
	c-2.2,0.7-4.6,0.9-6.9,1C960.2,384.7,951.3,384.7,941.9,384.7z"/>
</svg>
