<svg id="logow" xmlns="http://www.w3.org/2000/svg" width="224.057" height="64.568" viewBox="0 0 224.057 64.568">
  <path id="Path_1" data-name="Path 1" d="M223.7,342.146h-14.46V335.2h22.164c.014.257.027.5.027.731,0,10.033.014,20.079-.014,30.112a16.522,16.522,0,0,1-2.437,9.288,12.8,12.8,0,0,1-9.5,5.795,18.546,18.546,0,0,1-15.584-4.915c-.176-.162-.379-.311-.6-.5,1.5-2.085,2.952-4.089,4.427-6.147.542.46,1.043.907,1.557,1.313a12.364,12.364,0,0,0,6.445,2.9,7,7,0,0,0,7.812-6.106,14.292,14.292,0,0,0,.135-2.017c.014-7.528,0-15.069,0-22.6C223.7,342.782,223.7,342.511,223.7,342.146Z" transform="translate(-203.3 -326.862)" fill="#fff"/>
  <path id="Path_2" data-name="Path 2" d="M646.1,435.323c1.273-1.53,2.464-2.965,3.71-4.454.23.19.46.352.677.528a16.162,16.162,0,0,0,9.965,4.008,7.267,7.267,0,0,0,4.861-1.327,3.832,3.832,0,0,0-.339-6.35,22.321,22.321,0,0,0-5.768-2.031,42.371,42.371,0,0,1-6.336-2.1,9.38,9.38,0,0,1-4.238-13.174,9.056,9.056,0,0,1,5.456-4.4c6.323-2.031,12.172-.853,17.547,2.965a3.147,3.147,0,0,0,.311.19c-1.083,1.53-2.112,2.979-3.141,4.441a15.274,15.274,0,0,0-8.936-3.141,7.866,7.866,0,0,0-4.251.853,3.732,3.732,0,0,0-.284,6.431,22.772,22.772,0,0,0,5.077,1.95,40.79,40.79,0,0,1,7.474,2.518,9.534,9.534,0,0,1,3.06,14.406,11.394,11.394,0,0,1-7.853,4.062,20.867,20.867,0,0,1-16.545-5.1C646.4,435.5,646.249,435.431,646.1,435.323Z" transform="translate(-586.147 -387.246)" fill="#fff"/>
  <path id="Path_3" data-name="Path 3" d="M452.014,418h5.714c.014.19.041.393.041.582,0,6.431.041,12.863-.041,19.28a14.451,14.451,0,0,1-3.236,9.545,13.609,13.609,0,0,1-10.371,4.739,15.161,15.161,0,0,1-8.1-1.747,12.976,12.976,0,0,1-6.675-10.087,32.567,32.567,0,0,1-.257-3.981c-.027-5.822-.014-11.644-.014-17.466v-.839h5.781v.758c0,6.12-.014,12.226,0,18.346a10.536,10.536,0,0,0,2.545,7.217c3.087,3.507,11.346,3.818,13.837-2.952A13.149,13.149,0,0,0,452,436.82V418.88C452.014,418.609,452.014,418.339,452.014,418Z" transform="translate(-398.506 -398.451)" fill="#fff"/>
  <path id="Path_4" data-name="Path 4" d="M1393.385,448.256H1407.9v4.454h-14.514v7.866h16.681v4.671H1388.2V435.8h21.379v4.671h-16.207C1393.385,443.084,1393.385,445.63,1393.385,448.256Z" transform="translate(-1227.771 -413.841)" fill="#fff"/>
  <path id="Path_5" data-name="Path 5" d="M1212.688,466.978V455.117h-14.474v11.861H1193.3V437.814h4.9v12.551h14.474V437.8h4.928v29.164C1215.992,466.978,1214.381,466.978,1212.688,466.978Z" transform="translate(-1059.259 -415.57)" fill="#fff"/>
  <path id="Path_7" data-name="Path 7" d="M1569.118,291.715c.379.081.7.149,1.029.23.934.244,1.191.542,1.232,1.516.027.718.027,1.449.027,2.166.014,4.915,0,9.843.027,14.758.013,4.238.081,8.476.108,12.727.013,1.489-.487,2.031-1.963,2.031-1.395,0-2.789-.068-4.184-.135-.812-.041-1.11-.393-1.151-1.2-.014-.244-.014-.5-.014-.745-.014-5.253-.027-10.52-.054-15.773q-.041-6.763-.081-13.54c-.014-1.408.149-1.638,1.557-1.841.7-.108.961-.366.934-1.124-.135-4.956-.217-9.924-.311-14.88a4.773,4.773,0,0,1,0-.88c.095-.46.162-1.219.42-1.3a5.1,5.1,0,0,1,1.977-.014c.122.014.284.393.3.623.068.88.108,1.76.108,2.627.027,4.712.041,9.437.054,14.149C1569.118,291.3,1569.118,291.485,1569.118,291.715Z" transform="translate(-1379.85 -273.615)" fill="#fff"/>
  <path id="Path_8" data-name="Path 8" d="M883.473,452.758H877.8V420.9h5.673Z" transform="translate(-786.406 -401.351)" fill="#fff"/>
  <path id="Path_9" data-name="Path 9" d="M986.539,329.164v6.309c7.731-6.756,15.367-13.431,23.085-20.174.054.257.108.379.081.406q-14.562,15.862-29.2,31.8v-18.36C982.531,329.164,984.494,329.164,986.539,329.164Z" transform="translate(-875.271 -309.656)" fill="#fff"/>
  <path id="Path_11" data-name="Path 11" d="M1028.2,528.981c1.273-1.381,2.478-2.694,3.642-3.981.718.677,1.435,1.3,2.1,1.99q7.088,7.352,14.135,14.744a2.534,2.534,0,0,1,.352.718,3.567,3.567,0,0,1-.718.2c-1.6.027-3.2.014-4.793.054a4.056,4.056,0,0,1-3.182-1.395c-2.424-2.573-4.833-5.172-7.244-7.758C1031.084,532.054,1029.662,530.551,1028.2,528.981Z" transform="translate(-916.513 -490.964)" fill="#fff"/>
  <path id="Path_14" data-name="Path 14" d="M871.748,559.49v12.538h-5.984c-.068-.839-.122-1.679-.19-2.667-5.836,5.321-11.6,10.574-17.371,15.828l-.2-.122a2.262,2.262,0,0,1,.311-.528c2.207-2.383,4.414-4.752,6.634-7.135q8.164-8.753,16.315-17.52a2.693,2.693,0,0,0,.325-.582A.71.71,0,0,0,871.748,559.49Z" transform="translate(-760.711 -520.62)" fill="#fff"/>
  <g id="Group_471" data-name="Group 471">
    <path id="Path_6" data-name="Path 6" d="M1736,385.581a13.529,13.529,0,0,1,11.265,4.576,19.683,19.683,0,0,1,5.091,11.4,21.953,21.953,0,0,1-2.153,12.808c-.406.8-.921,1.544-1.395,2.315a3.12,3.12,0,0,1-.3.352c-.677-.921-1.34-1.787-1.963-2.667a9.032,9.032,0,0,1-1.219-1.868c-.271-.745-.975-1.178-1.11-2.044a7.229,7.229,0,0,0-1.042-1.882,2.7,2.7,0,0,1-.176-.758c-.027-.122,0-.3-.068-.379a6.632,6.632,0,0,1-1.151-1.963c-.284-.758-.988-1.367-1.219-2.139-.325-1.1-.921-2.085-1.245-3.155a15.866,15.866,0,0,1-.8-1.936c-.108-.88-.758-1.652-.718-2.4a4.868,4.868,0,0,0-.555-1.977c-.081-.3.027-.636-.041-.948a10.761,10.761,0,0,1-.528-2.708c.068-.934-.569-1.787-.189-2.721.054-.135-.041-.352-.095-.514C1736.284,386.5,1736.149,386.082,1736,385.581Z" transform="translate(-1528.48 -370.392)" fill="#fff"/>
    <path id="Path_10" data-name="Path 10" d="M1647.161,469.842a12.869,12.869,0,0,1-6.648-1.977,17.405,17.405,0,0,1-7.447-10.2,22.029,22.029,0,0,1,1.787-17.52l.244-.406a3,3,0,0,1,.2-.244c.163.569.636.975.23,1.571a.167.167,0,0,0-.027.135c.515.812.149,1.747.406,2.613a6.66,6.66,0,0,1,.528,2.64,3.257,3.257,0,0,0,.474,1.99c.041.108.135.257.108.311-.474.65.149,1.07.284,1.6a8.991,8.991,0,0,1,.162,1.056,1.5,1.5,0,0,0,.027.257c.365.826.745,1.652,1.1,2.478.149.339.2.7.338,1.056a5.094,5.094,0,0,0,.406.758c.189.3.5.542.271.948a.288.288,0,0,0,.013.257c.5.785,1.029,1.571,1.53,2.356a4.966,4.966,0,0,1,.217.677,5.1,5.1,0,0,0,.474.894c.2.271.6.447.3.88a.29.29,0,0,0,.014.257c.393.663.812,1.313,1.2,1.977l1.219,2.072a3.226,3.226,0,0,0,.162.3C1645.523,467.649,1646.308,468.691,1647.161,469.842Z" transform="translate(-1438.585 -417.04)" fill="#fff"/>
    <path id="Path_12" data-name="Path 12" d="M1709.217,422.9c-.7.555-1.408,1.1-2.072,1.652-.42.352-.718.325-1.016-.162-1.76-2.749-3.574-5.47-5.28-8.246-4.035-6.567-6.147-13.837-7.7-21.3-.2-.975-.42-1.936-.609-2.911a.749.749,0,0,1,.095-.528,10,10,0,0,1,3.4-1.5,10.972,10.972,0,0,0,.095,1.164c.081.42.447.812.054,1.259a.3.3,0,0,0,0,.19,4.614,4.614,0,0,1,.271,1.841,9.054,9.054,0,0,0,.528,2.627c.095.379.311.718.027,1.137-.081.122.095.447.176.677.189.542.718.988.393,1.679-.068.149.162.447.257.677.2.528.718.961.406,1.611a.176.176,0,0,0,.027.135c.3.731.6,1.462.88,2.193.176.447.3.907.487,1.354.108.257.325.487.433.745a5.691,5.691,0,0,1,.217.826c.014.081-.027.2.014.257.5.785,1.016,1.571,1.489,2.369a4.076,4.076,0,0,1,.244.718,1.815,1.815,0,0,0,.176.542,8.109,8.109,0,0,0,.731.8c-.054.027-.122.068-.176.095.149.352.284.7.433,1.056.135.311.284.609.433.921.027.054.027.135.054.19.46.677.948,1.354,1.395,2.044.42.677.758,1.408,1.191,2.085.365.582.785,1.137,1.205,1.679C1708.012,421.46,1708.581,422.124,1709.217,422.9Z" transform="translate(-1490.893 -374.156)" fill="#fff"/>
    <path id="Path_13" data-name="Path 13" d="M1690.1,438.729c-1.245.474-2.288.867-3.3,1.259-.921-1.205-1.8-2.315-2.64-3.466a18.1,18.1,0,0,1-.907-1.6,1.9,1.9,0,0,0-.3-.433c-.244-.271-.609-.474-.447-.948a.127.127,0,0,0-.054-.122c-.8-.528-.69-1.571-1.272-2.22-.095-.095-.23-.244-.2-.338.176-.7-.433-1.015-.7-1.516a22.511,22.511,0,0,1-.907-2.112c-.014-.027-.014-.041-.027-.068a23.231,23.231,0,0,1-1.1-2.166c-.311-.839-.988-1.53-.961-2.518,0-.257-.244-.514-.379-.772-.2-.393-.515-.7-.311-1.286.108-.3-.3-.758-.42-1.164-.081-.257-.041-.542-.122-.8-.135-.447-.325-.867-.447-1.313a5.857,5.857,0,0,1-.163-.975c-.027-.149-.041-.311-.054-.46-.081-.514-.149-1.029-.244-1.544-.176-.975-.366-1.95-.555-2.925-.027-.122-.108-.311-.054-.379.379-.447.081-.853-.054-1.259-.122-.379-.339-.731-.054-1.191.122-.2-.162-.623-.2-.948-.027-.217-.068-.542.054-.663.46-.487.988-.907,1.652-1.5A64.226,64.226,0,0,0,1690.1,438.729Z" transform="translate(-1475.036 -387.471)" fill="#fff"/>
    <path id="Path_15" data-name="Path 15" d="M1737.337,417.748c-.217.257-.487.582-.839,1-.65-.866-1.286-1.679-1.9-2.518-.487-.677-.988-1.34-1.408-2.058-.379-.636-.663-1.327-.988-1.99a1.909,1.909,0,0,0-.244-.393,1.643,1.643,0,0,1-.65-1.178c0-.284-.433-.582-.718-.934.46-.542.108-.921-.311-1.313-.271-.244-.623-.5-.339-.961a.191.191,0,0,0-.027-.19c-.785-.528-.718-1.571-1.327-2.207-.189-.2-.217-.528-.352-.785-.19-.379-.447-.718-.609-1.1-.325-.785-.569-1.584-.894-2.369-.19-.447-.46-.867-.65-1.313a5.06,5.06,0,0,1-.162-.785,12.355,12.355,0,0,0-.42-1.191c-.135-.339-.366-.609-.176-1.056.095-.23-.176-.609-.3-.921-.176-.46-.623-.853-.3-1.422.027-.041-.013-.135-.027-.19a8.567,8.567,0,0,1-.555-2.762c.122-.921-.582-1.706-.176-2.613.095-.2-.081-.569-.217-.826a1.625,1.625,0,0,1-.014-1.516c.095-.176.379-.257.718-.46.095.8.731,1.34.271,2.1-.068.108.068.339.122.514.135.433.46.853.095,1.313-.027.027-.014.095,0,.135.162.812.325,1.638.515,2.451a2.139,2.139,0,0,1,.135,1.408c-.122.325.311.839.447,1.286a4.464,4.464,0,0,1,.095.853c0,.068-.054.135-.027.19a10.723,10.723,0,0,1,.907,2.721,13.8,13.8,0,0,0,.948,2.911,3.967,3.967,0,0,0,.244.474c.217.393.731.663.46,1.232a.149.149,0,0,0,.041.122,6.756,6.756,0,0,1,1.124,1.909c.217.474.839.758.718,1.435a3.068,3.068,0,0,1,1.083,2.207c.176.975,1.124,1.408,1.232,2.383a3.142,3.142,0,0,0,.731,1.3c.474.691.975,1.354,1.462,2.031C1735.793,415.663,1736.538,416.665,1737.337,417.748Z" transform="translate(-1517.727 -370.524)" fill="#fff"/>
    <path id="Path_16" data-name="Path 16" d="M1675.539,454.868c-.487.068-.948.122-1.395.19-.6-.745-1.2-1.462-1.747-2.22a16.875,16.875,0,0,1-.894-1.611c-.027-.041-.014-.095-.041-.135-.447-.663-.894-1.34-1.34-2-.081-.108-.2-.19-.244-.311-.19-.46-.366-.934-.6-1.571.284-.366-.027-.772-.461-1.151-.271-.244-.65-.474-.338-.948.041-.068-.013-.23-.068-.311a3.621,3.621,0,0,1-.948-1.611c-.095-.5-.636-.921-.812-1.584a14.749,14.749,0,0,0-1.273-2.586,6.975,6.975,0,0,1-.948-2.3c-.054-.8-.65-1.462-.6-2.1.095-.934-.447-1.543-.636-2.3a15.3,15.3,0,0,1-.23-2.383,4.048,4.048,0,0,0-.135-.582c-.108-.406-.433-.8-.068-1.259.068-.081-.041-.3-.081-.447-.135-.487-.514-.948-.149-1.516.068-.108-.014-.366-.108-.5a3.234,3.234,0,0,1-.176-2.166c.014-.379.474-.718.921-1.056v.907c0,.081-.081.176-.068.257.135.894.3,1.787.42,2.694a6.719,6.719,0,0,1,.027.907c0,.081-.054.176-.041.257.176.839.339,1.679.528,2.518.108.447.447.853.068,1.327a.231.231,0,0,0,0,.19c.352,1.043.718,2.1,1.056,3.141a3.428,3.428,0,0,1,.095.921c.014.108-.054.257-.013.325a8.142,8.142,0,0,1,.772,2.044c.312.839,1.083,1.6,1.124,2.424.041.907.921,1.286.894,2.139,0,.19.3.379.42.6.149.284.271.582.393.88.041.081.014.2.068.257a5.246,5.246,0,0,1,1.043,1.882c.176.379.65.65.393,1.191-.027.054.027.19.081.244.907.772,1.137,1.963,1.841,2.87.69.867,1.34,1.76,1.99,2.654C1674.7,453.636,1675.092,454.231,1675.539,454.868Z" transform="translate(-1464.635 -402.255)" fill="#fff"/>
  </g>
  <g id="Group_4" data-name="Group 4" transform="translate(81.293 8.084)">
    <path id="Path_17" data-name="Path 17" d="M891.029,343c.014-.894.42-1.3,1.273-1.3.894,0,1.354.42,1.354,1.3,0,1.936-.027,3.872-.068,5.808-.014.934-.42,1.313-1.259,1.313a1.228,1.228,0,0,1-1.368-1.381C890.948,347.793,891.016,343.961,891.029,343Z" transform="translate(-877.557 -341.576)" fill="#fff"/>
    <path id="Path_18" data-name="Path 18" d="M840.64,347.816c-.027,1.043-.542,1.462-1.571,1.34a1.067,1.067,0,0,1-1.07-1.151c0-1.841.014-3.7.041-5.538a2.829,2.829,0,0,1,.108-.663c.163-.745.515-1.043,1.205-1.015.826.041,1.313.447,1.34,1.219C840.707,342.991,840.667,346.882,840.64,347.816Z" transform="translate(-831.772 -340.788)" fill="#fff"/>
    <path id="Path_19" data-name="Path 19" d="M920.538,348.644a1.128,1.128,0,0,1-1.219,1.232c-.894.013-1.354-.352-1.367-1.219-.014-1.977-.014-3.967.041-5.944a1.12,1.12,0,0,1,1.34-1.232,1.208,1.208,0,0,1,1.259,1.354C920.606,343.783,920.579,347.655,920.538,348.644Z" transform="translate(-900.892 -341.385)" fill="#fff"/>
    <path id="Path_20" data-name="Path 20" d="M864.446,345.715c0-.988-.014-1.99,0-2.979.027-.921.42-1.273,1.3-1.246.921.014,1.273.352,1.273,1.273.014,1.8-.054,6-.135,6.282a1.056,1.056,0,0,1-1.273.921,1.182,1.182,0,0,1-1.219-1.191C864.365,347.76,864.432,345.715,864.446,345.715Z" transform="translate(-854.575 -341.394)" fill="#fff"/>
    <path id="Path_21" data-name="Path 21" d="M797.6,360.623v2.965c-1.557,0-3.06.027-4.563-.014-.555-.014-1.029-.758-1.043-1.408-.014-.691.487-1.489,1.1-1.516C794.6,360.582,796.114,360.623,797.6,360.623Z" transform="translate(-791.998 -357.927)" fill="#fff"/>
    <path id="Path_22" data-name="Path 22" d="M941.9,364.382V361.2c1.571.068,3.087.095,4.59.23a1.291,1.291,0,0,1,.988,1.354,1.4,1.4,0,0,1-.961,1.462,3.624,3.624,0,0,1-.934.135Z" transform="translate(-921.604 -358.436)" fill="#fff"/>
  </g>
</svg>
