<svg xmlns="http://www.w3.org/2000/svg" xmlns:xlink="http://www.w3.org/1999/xlink" width="314.117" height="208.929" viewBox="0 0 314.117 208.929">
  <defs>
    <clipPath id="clip-path">
      <ellipse id="Ellipse_96" data-name="Ellipse 96" cx="88" cy="12.944" rx="88" ry="12.944" transform="translate(210.447 312.024)" fill="none"/>
    </clipPath>
    <linearGradient id="linear-gradient" x1="-123.683" y1="23.212" x2="-122.542" y2="23.212" gradientUnits="objectBoundingBox">
      <stop offset="0" stop-color="#7bdaff"/>
      <stop offset="1" stop-color="#59bdef"/>
    </linearGradient>
    <linearGradient id="linear-gradient-2" x1="-18.466" y1="-1.705" x2="-17.325" y2="-1.705" xlink:href="#linear-gradient"/>
  </defs>
  <g id="Contact-us" transform="translate(-129.829 -128.982)">
    <g id="Group_22" data-name="Group 22">
      <path id="Path_173" data-name="Path 173" d="M234.166,250.505l3.072-1.774L240.3,250.5l-3.073,1.775Z" fill="#fff"/>
      <path id="Path_174" data-name="Path 174" d="M240.7,254.277l3.073-1.774,3.061,1.768-3.072,1.773Z" fill="#fff"/>
      <path id="Path_175" data-name="Path 175" d="M247.234,258.05l3.073-1.774,3.061,1.767-3.072,1.775Z" fill="#fff"/>
      <path id="Path_176" data-name="Path 176" d="M253.768,261.822l3.072-1.774,3.061,1.768-3.072,1.773Z" fill="#fff"/>
      <path id="Path_177" data-name="Path 177" d="M260.3,265.6l3.072-1.774,3.062,1.767-3.073,1.775Z" fill="#fff"/>
    </g>
    <g id="Group_25" data-name="Group 25" opacity="0.5" style="mix-blend-mode: multiply;isolation: isolate">
      <g id="Group_24" data-name="Group 24">
        <g id="Group_23" data-name="Group 23" clip-path="url(#clip-path)">
          <rect id="Rectangle_558" data-name="Rectangle 558" width="176" height="25.888" transform="translate(210.447 312.024)" fill="#fff"/>
          <ellipse id="Ellipse_1" data-name="Ellipse 1" cx="78.792" cy="10.578" rx="78.792" ry="10.578" transform="translate(219.388 315.376) rotate(-0.323)" fill="#fff"/>
          <ellipse id="Ellipse_2" data-name="Ellipse 2" cx="78.483" cy="10.537" rx="78.483" ry="10.537" transform="translate(219.428 315.417) rotate(-0.323)" fill="#fff"/>
          <ellipse id="Ellipse_3" data-name="Ellipse 3" cx="78.174" cy="10.495" rx="78.174" ry="10.495" transform="translate(219.467 315.458) rotate(-0.323)" fill="#fff"/>
          <ellipse id="Ellipse_4" data-name="Ellipse 4" cx="77.865" cy="10.454" rx="77.865" ry="10.454" transform="translate(219.507 315.499) rotate(-0.323)" fill="#fff"/>
          <ellipse id="Ellipse_5" data-name="Ellipse 5" cx="77.556" cy="10.412" rx="77.556" ry="10.412" transform="translate(219.546 315.54) rotate(-0.323)" fill="#fff"/>
          <ellipse id="Ellipse_6" data-name="Ellipse 6" cx="77.247" cy="10.371" rx="77.247" ry="10.371" transform="translate(219.585 315.582) rotate(-0.323)" fill="#feffff"/>
          <ellipse id="Ellipse_7" data-name="Ellipse 7" cx="76.938" cy="10.329" rx="76.938" ry="10.329" transform="translate(219.625 315.623) rotate(-0.323)" fill="#feffff"/>
          <ellipse id="Ellipse_8" data-name="Ellipse 8" cx="76.629" cy="10.288" rx="76.629" ry="10.288" transform="matrix(1, -0.006, 0.006, 1, 219.664, 315.664)" fill="#fefeff"/>
          <ellipse id="Ellipse_9" data-name="Ellipse 9" cx="76.32" cy="10.246" rx="76.32" ry="10.246" transform="translate(219.704 315.705) rotate(-0.323)" fill="#fefeff"/>
          <ellipse id="Ellipse_10" data-name="Ellipse 10" cx="76.011" cy="10.205" rx="76.011" ry="10.205" transform="translate(219.743 315.746) rotate(-0.323)" fill="#fefeff"/>
          <ellipse id="Ellipse_11" data-name="Ellipse 11" cx="75.702" cy="10.163" rx="75.702" ry="10.163" transform="translate(219.782 315.787) rotate(-0.323)" fill="#fdfeff"/>
          <ellipse id="Ellipse_12" data-name="Ellipse 12" cx="75.393" cy="10.122" rx="75.393" ry="10.122" transform="translate(219.822 315.828) rotate(-0.323)" fill="#fdfefe"/>
          <ellipse id="Ellipse_13" data-name="Ellipse 13" cx="75.084" cy="10.08" rx="75.084" ry="10.08" transform="translate(219.861 315.869) rotate(-0.323)" fill="#fdfefe"/>
          <ellipse id="Ellipse_14" data-name="Ellipse 14" cx="74.775" cy="10.039" rx="74.775" ry="10.039" transform="translate(219.901 315.91) rotate(-0.323)" fill="#fdfefe"/>
          <ellipse id="Ellipse_15" data-name="Ellipse 15" cx="74.466" cy="9.997" rx="74.466" ry="9.997" transform="translate(219.94 315.951) rotate(-0.323)" fill="#fcfdfe"/>
          <ellipse id="Ellipse_16" data-name="Ellipse 16" cx="74.157" cy="9.956" rx="74.157" ry="9.956" transform="matrix(1, -0.006, 0.006, 1, 219.98, 315.993)" fill="#fcfdfe"/>
          <ellipse id="Ellipse_17" data-name="Ellipse 17" cx="73.848" cy="9.914" rx="73.848" ry="9.914" transform="translate(220.019 316.034) rotate(-0.323)" fill="#fcfdfe"/>
          <ellipse id="Ellipse_18" data-name="Ellipse 18" cx="73.539" cy="9.873" rx="73.539" ry="9.873" transform="translate(220.058 316.075) rotate(-0.323)" fill="#fbfdfe"/>
          <path id="Path_178" data-name="Path 178" d="M366.611,325.121c.031,5.429-32.73,10.016-73.173,10.244s-73.254-3.988-73.285-9.418,32.731-10.016,73.174-10.244S366.581,319.691,366.611,325.121Z" fill="#fbfdfe"/>
          <ellipse id="Ellipse_19" data-name="Ellipse 19" cx="72.921" cy="9.79" rx="72.921" ry="9.79" transform="translate(220.137 316.157) rotate(-0.323)" fill="#fbfcfe"/>
          <ellipse id="Ellipse_20" data-name="Ellipse 20" cx="72.612" cy="9.748" rx="72.612" ry="9.748" transform="matrix(1, -0.006, 0.006, 1, 220.177, 316.198)" fill="#fafcfe"/>
          <ellipse id="Ellipse_21" data-name="Ellipse 21" cx="72.303" cy="9.707" rx="72.303" ry="9.707" transform="matrix(1, -0.006, 0.006, 1, 220.216, 316.239)" fill="#fafcfd"/>
          <ellipse id="Ellipse_22" data-name="Ellipse 22" cx="71.994" cy="9.665" rx="71.994" ry="9.665" transform="translate(220.256 316.28) rotate(-0.323)" fill="#fafcfd"/>
          <ellipse id="Ellipse_23" data-name="Ellipse 23" cx="71.685" cy="9.624" rx="71.685" ry="9.624" transform="matrix(1, -0.006, 0.006, 1, 220.295, 316.322)" fill="#f9fcfd"/>
          <ellipse id="Ellipse_24" data-name="Ellipse 24" cx="71.376" cy="9.582" rx="71.376" ry="9.582" transform="translate(220.334 316.363) rotate(-0.323)" fill="#f9fbfd"/>
          <ellipse id="Ellipse_25" data-name="Ellipse 25" cx="71.067" cy="9.541" rx="71.067" ry="9.541" transform="matrix(1, -0.006, 0.006, 1, 220.374, 316.404)" fill="#f8fbfd"/>
          <ellipse id="Ellipse_26" data-name="Ellipse 26" cx="70.758" cy="9.499" rx="70.758" ry="9.499" transform="translate(220.413 316.445) rotate(-0.323)" fill="#f8fbfd"/>
          <ellipse id="Ellipse_27" data-name="Ellipse 27" cx="70.449" cy="9.458" rx="70.449" ry="9.458" transform="translate(220.453 316.486) rotate(-0.323)" fill="#f8fafd"/>
          <path id="Path_179" data-name="Path 179" d="M360.824,325.152c.029,5.2-31.35,9.594-70.086,9.812s-70.164-3.82-70.193-9.021,31.349-9.593,70.086-9.812S360.794,319.952,360.824,325.152Z" fill="#f7fafc"/>
          <ellipse id="Ellipse_28" data-name="Ellipse 28" cx="69.831" cy="9.375" rx="69.831" ry="9.375" transform="translate(220.532 316.568) rotate(-0.323)" fill="#f7fafc"/>
          <ellipse id="Ellipse_29" data-name="Ellipse 29" cx="69.522" cy="9.334" rx="69.522" ry="9.334" transform="translate(220.571 316.609) rotate(-0.323)" fill="#f6fafc"/>
          <path id="Path_180" data-name="Path 180" d="M359.087,325.161c.029,5.132-30.935,9.467-69.16,9.683s-69.235-3.77-69.264-8.9,30.935-9.467,69.16-9.682S359.058,320.03,359.087,325.161Z" fill="#f6f9fc"/>
          <ellipse id="Ellipse_30" data-name="Ellipse 30" cx="68.904" cy="9.251" rx="68.904" ry="9.251" transform="matrix(1, -0.006, 0.006, 1, 220.65, 316.691)" fill="#f5f9fc"/>
          <ellipse id="Ellipse_31" data-name="Ellipse 31" cx="68.595" cy="9.209" rx="68.595" ry="9.209" transform="translate(220.689 316.733) rotate(-0.323)" fill="#f5f9fc"/>
          <ellipse id="Ellipse_32" data-name="Ellipse 32" cx="68.286" cy="9.168" rx="68.286" ry="9.168" transform="translate(220.729 316.774) rotate(-0.323)" fill="#f4f9fc"/>
          <ellipse id="Ellipse_33" data-name="Ellipse 33" cx="67.977" cy="9.126" rx="67.977" ry="9.126" transform="matrix(1, -0.006, 0.006, 1, 220.768, 316.815)" fill="#f4f8fb"/>
          <ellipse id="Ellipse_34" data-name="Ellipse 34" cx="67.668" cy="9.085" rx="67.668" ry="9.085" transform="matrix(1, -0.006, 0.006, 1, 220.807, 316.856)" fill="#f3f8fb"/>
          <ellipse id="Ellipse_35" data-name="Ellipse 35" cx="67.359" cy="9.043" rx="67.359" ry="9.043" transform="translate(220.847 316.897) rotate(-0.323)" fill="#f3f8fb"/>
          <ellipse id="Ellipse_36" data-name="Ellipse 36" cx="67.05" cy="9.002" rx="67.05" ry="9.002" transform="translate(220.886 316.938) rotate(-0.323)" fill="#f2f7fb"/>
          <ellipse id="Ellipse_37" data-name="Ellipse 37" cx="66.742" cy="8.96" rx="66.742" ry="8.96" transform="matrix(1, -0.006, 0.006, 1, 220.926, 316.979)" fill="#f2f7fb"/>
          <path id="Path_181" data-name="Path 181" d="M353.878,325.189c.028,4.926-29.692,9.087-66.381,9.294s-66.454-3.618-66.482-8.544,29.692-9.086,66.382-9.293S353.85,320.264,353.878,325.189Z" fill="#f1f7fb"/>
          <ellipse id="Ellipse_38" data-name="Ellipse 38" cx="66.124" cy="8.877" rx="66.124" ry="8.877" transform="matrix(1, -0.006, 0.006, 1, 221.005, 317.061)" fill="#f1f6fa"/>
          <ellipse id="Ellipse_39" data-name="Ellipse 39" cx="65.814" cy="8.836" rx="65.814" ry="8.836" transform="translate(221.044 317.103) rotate(-0.323)" fill="#f0f6fa"/>
          <path id="Path_182" data-name="Path 182" d="M352.142,325.2c.027,4.857-29.278,8.959-65.455,9.163s-65.527-3.567-65.554-8.424,29.278-8.96,65.455-9.164S352.115,320.342,352.142,325.2Z" fill="#f0f6fa"/>
          <path id="Path_183" data-name="Path 183" d="M351.563,325.2c.027,4.834-29.14,8.917-65.146,9.12s-65.218-3.551-65.245-8.385,29.14-8.917,65.146-9.12S351.536,320.368,351.563,325.2Z" fill="#eff5fa"/>
          <path id="Path_184" data-name="Path 184" d="M350.984,325.2c.027,4.811-29,8.875-64.837,9.077s-64.908-3.534-64.936-8.345,29-8.875,64.838-9.077S350.957,320.394,350.984,325.2Z" fill="#eef5fa"/>
          <path id="Path_185" data-name="Path 185" d="M350.406,325.208c.027,4.788-28.864,8.833-64.529,9.034s-64.6-3.517-64.626-8.3,28.863-8.833,64.528-9.034S350.379,320.42,350.406,325.208Z" fill="#eef5fa"/>
          <ellipse id="Ellipse_40" data-name="Ellipse 40" cx="64.27" cy="8.628" rx="64.27" ry="8.628" transform="matrix(1, -0.006, 0.006, 1, 221.241, 317.308)" fill="#edf4f9"/>
          <path id="Path_186" data-name="Path 186" d="M349.248,325.214c.027,4.743-28.587,8.749-63.911,8.948s-63.981-3.484-64.008-8.226,28.587-8.748,63.911-8.948S349.221,320.472,349.248,325.214Z" fill="#edf4f9"/>
          <ellipse id="Ellipse_41" data-name="Ellipse 41" cx="63.652" cy="8.545" rx="63.652" ry="8.545" transform="translate(221.32 317.39) rotate(-0.323)" fill="#ecf3f9"/>
          <ellipse id="Ellipse_42" data-name="Ellipse 42" cx="63.343" cy="8.504" rx="63.343" ry="8.504" transform="matrix(1, -0.006, 0.006, 1, 221.359, 317.431)" fill="#ebf3f9"/>
          <path id="Path_187" data-name="Path 187" d="M347.512,325.224c.026,4.673-28.173,8.621-62.985,8.818s-63.054-3.434-63.08-8.107,28.172-8.622,62.984-8.818S347.485,320.55,347.512,325.224Z" fill="#ebf3f9"/>
          <path id="Path_188" data-name="Path 188" d="M346.933,325.227c.026,4.65-28.035,8.579-62.676,8.774s-62.745-3.416-62.771-8.067,28.034-8.579,62.676-8.774S346.907,320.576,346.933,325.227Z" fill="#eaf2f8"/>
          <ellipse id="Ellipse_43" data-name="Ellipse 43" cx="62.416" cy="8.379" rx="62.416" ry="8.379" transform="translate(221.478 317.555) rotate(-0.323)" fill="#eaf2f8"/>
          <ellipse id="Ellipse_44" data-name="Ellipse 44" cx="62.107" cy="8.338" rx="62.107" ry="8.338" transform="translate(221.517 317.596) rotate(-0.323)" fill="#e9f2f8"/>
          <path id="Path_189" data-name="Path 189" d="M345.2,325.236c.026,4.582-27.621,8.452-61.75,8.645s-61.818-3.366-61.844-7.948,27.621-8.452,61.75-8.645S345.171,320.654,345.2,325.236Z" fill="#e8f1f8"/>
          <path id="Path_190" data-name="Path 190" d="M344.618,325.239c.025,4.559-27.483,8.41-61.441,8.6s-61.509-3.349-61.535-7.908,27.483-8.41,61.442-8.6S344.592,320.68,344.618,325.239Z" fill="#e8f1f7"/>
          <ellipse id="Ellipse_45" data-name="Ellipse 45" cx="61.18" cy="8.213" rx="61.18" ry="8.213" transform="translate(221.635 317.719) rotate(-0.323)" fill="#e7f0f7"/>
          <ellipse id="Ellipse_46" data-name="Ellipse 46" cx="60.871" cy="8.172" rx="60.871" ry="8.172" transform="translate(221.675 317.76) rotate(-0.323)" fill="#e6f0f7"/>
          <ellipse id="Ellipse_47" data-name="Ellipse 47" cx="60.562" cy="8.131" rx="60.562" ry="8.131" transform="translate(221.714 317.801) rotate(-0.323)" fill="#e6eff7"/>
          <ellipse id="Ellipse_48" data-name="Ellipse 48" cx="60.253" cy="8.089" rx="60.253" ry="8.089" transform="translate(221.754 317.843) rotate(-0.323)" fill="#e5eff7"/>
          <ellipse id="Ellipse_49" data-name="Ellipse 49" cx="59.944" cy="8.048" rx="59.944" ry="8.048" transform="translate(221.793 317.884) rotate(-0.323)" fill="#e4eff6"/>
          <ellipse id="Ellipse_50" data-name="Ellipse 50" cx="59.635" cy="8.006" rx="59.635" ry="8.006" transform="translate(221.832 317.925) rotate(-0.323)" fill="#e4eef6"/>
          <path id="Path_191" data-name="Path 191" d="M340.566,325.261c.025,4.4-26.515,8.114-59.279,8.3s-59.345-3.231-59.37-7.63,26.515-8.114,59.28-8.3S340.542,320.862,340.566,325.261Z" fill="#e3eef6"/>
          <path id="Path_192" data-name="Path 192" d="M339.988,325.264c.024,4.376-26.378,8.072-58.971,8.256s-59.036-3.214-59.061-7.59,26.377-8.072,58.971-8.256S339.963,320.888,339.988,325.264Z" fill="#e2edf6"/>
          <ellipse id="Ellipse_51" data-name="Ellipse 51" cx="58.708" cy="7.882" rx="58.708" ry="7.882" transform="translate(221.951 318.048) rotate(-0.323)" fill="#e1edf6"/>
          <path id="Path_193" data-name="Path 193" d="M338.83,325.27c.025,4.33-26.1,7.988-58.354,8.17s-58.417-3.181-58.442-7.511,26.1-7.987,58.354-8.169S338.806,320.94,338.83,325.27Z" fill="#e1ecf5"/>
          <path id="Path_194" data-name="Path 194" d="M338.251,325.274c.025,4.307-25.963,7.945-58.045,8.126s-58.108-3.164-58.133-7.471,25.964-7.945,58.045-8.126S338.227,320.966,338.251,325.274Z" fill="#e0ecf5"/>
          <path id="Path_195" data-name="Path 195" d="M337.672,325.277c.025,4.284-25.825,7.9-57.736,8.083s-57.8-3.147-57.823-7.432,25.825-7.9,57.736-8.082S337.648,320.992,337.672,325.277Z" fill="#dfecf5"/>
          <path id="Path_196" data-name="Path 196" d="M337.094,325.28c.024,4.261-25.687,7.861-57.428,8.04s-57.49-3.131-57.514-7.392,25.687-7.861,57.427-8.04S337.07,321.018,337.094,325.28Z" fill="#dfebf5"/>
          <ellipse id="Ellipse_52" data-name="Ellipse 52" cx="57.163" cy="7.674" rx="57.163" ry="7.674" transform="translate(222.148 318.254) rotate(-0.323)" fill="#deebf4"/>
          <ellipse id="Ellipse_53" data-name="Ellipse 53" cx="56.854" cy="7.633" rx="56.854" ry="7.633" transform="translate(222.187 318.295) rotate(-0.323)" fill="#ddeaf4"/>
          <path id="Path_197" data-name="Path 197" d="M335.357,325.289c.024,4.193-25.272,7.734-56.5,7.91s-56.563-3.08-56.587-7.272,25.273-7.734,56.5-7.91S335.334,321.1,335.357,325.289Z" fill="#dceaf4"/>
          <ellipse id="Ellipse_54" data-name="Ellipse 54" cx="56.236" cy="7.55" rx="56.236" ry="7.55" transform="matrix(1, -0.006, 0.006, 1, 222.266, 318.377)" fill="#dce9f4"/>
          <ellipse id="Ellipse_55" data-name="Ellipse 55" cx="55.927" cy="7.508" rx="55.927" ry="7.508" transform="matrix(1, -0.006, 0.006, 1, 222.305, 318.418)" fill="#dbe9f3"/>
          <path id="Path_198" data-name="Path 198" d="M333.621,325.3c.023,4.124-24.858,7.608-55.575,7.781s-55.636-3.029-55.659-7.153,24.859-7.607,55.575-7.781S333.6,321.175,333.621,325.3Z" fill="#dae8f3"/>
          <path id="Path_199" data-name="Path 199" d="M333.042,325.3c.023,4.1-24.72,7.564-55.266,7.737s-55.327-3.013-55.35-7.113,24.72-7.565,55.266-7.738S333.019,321.2,333.042,325.3Z" fill="#d9e8f3"/>
          <ellipse id="Ellipse_56" data-name="Ellipse 56" cx="55" cy="7.384" rx="55" ry="7.384" transform="translate(222.424 318.541) rotate(-0.323)" fill="#d8e7f3"/>
          <ellipse id="Ellipse_57" data-name="Ellipse 57" cx="54.691" cy="7.342" rx="54.691" ry="7.342" transform="matrix(1, -0.006, 0.006, 1, 222.463, 318.583)" fill="#d8e7f2"/>
          <path id="Path_200" data-name="Path 200" d="M331.306,325.311c.023,4.032-24.306,7.438-54.34,7.607s-54.4-2.961-54.422-6.994,24.306-7.438,54.34-7.607S331.283,321.279,331.306,325.311Z" fill="#d7e6f2"/>
          <path id="Path_201" data-name="Path 201" d="M330.727,325.314c.023,4.009-24.168,7.4-54.031,7.564s-54.09-2.945-54.113-6.954,24.168-7.4,54.031-7.564S330.7,321.3,330.727,325.314Z" fill="#d6e6f2"/>
          <ellipse id="Ellipse_58" data-name="Ellipse 58" cx="53.764" cy="7.218" rx="53.764" ry="7.218" transform="translate(222.581 318.706) rotate(-0.323)" fill="#d5e5f2"/>
          <path id="Path_202" data-name="Path 202" d="M329.57,325.32c.022,3.964-23.892,7.312-53.414,7.478s-53.472-2.911-53.5-6.875,23.892-7.311,53.414-7.477S329.547,321.357,329.57,325.32Z" fill="#d4e5f1"/>
          <path id="Path_203" data-name="Path 203" d="M328.991,325.323c.022,3.941-23.754,7.269-53.105,7.435s-53.163-2.895-53.186-6.835,23.754-7.269,53.1-7.435S328.969,321.383,328.991,325.323Z" fill="#d4e4f1"/>
          <ellipse id="Ellipse_59" data-name="Ellipse 59" cx="52.837" cy="7.093" rx="52.837" ry="7.093" transform="translate(222.7 318.829) rotate(-0.323)" fill="#d3e4f1"/>
          <ellipse id="Ellipse_60" data-name="Ellipse 60" cx="52.528" cy="7.052" rx="52.528" ry="7.052" transform="translate(222.739 318.87) rotate(-0.323)" fill="#d2e3f0"/>
          <ellipse id="Ellipse_61" data-name="Ellipse 61" cx="52.219" cy="7.011" rx="52.219" ry="7.011" transform="translate(222.779 318.911) rotate(-0.323)" fill="#d1e3f0"/>
          <ellipse id="Ellipse_62" data-name="Ellipse 62" cx="51.91" cy="6.969" rx="51.91" ry="6.969" transform="translate(222.818 318.953) rotate(-0.323)" fill="#d0e2f0"/>
          <path id="Path_204" data-name="Path 204" d="M326.1,325.339c.021,3.826-23.063,7.058-51.561,7.218s-51.618-2.81-51.64-6.636,23.064-7.058,51.562-7.218S326.075,321.513,326.1,325.339Z" fill="#cfe2f0"/>
          <ellipse id="Ellipse_63" data-name="Ellipse 63" cx="51.292" cy="6.886" rx="51.292" ry="6.886" transform="translate(222.897 319.035) rotate(-0.323)" fill="#cee1ef"/>
          <path id="Path_205" data-name="Path 205" d="M324.939,325.345c.022,3.78-22.787,6.973-50.943,7.132s-51-2.777-51.021-6.557,22.787-6.973,50.944-7.132S324.918,321.565,324.939,325.345Z" fill="#cee1ef"/>
          <ellipse id="Ellipse_64" data-name="Ellipse 64" cx="50.674" cy="6.803" rx="50.674" ry="6.803" transform="translate(222.976 319.117) rotate(-0.323)" fill="#cde0ef"/>
          <ellipse id="Ellipse_65" data-name="Ellipse 65" cx="50.365" cy="6.762" rx="50.365" ry="6.762" transform="matrix(1, -0.006, 0.006, 1, 223.015, 319.158)" fill="#cce0ef"/>
          <ellipse id="Ellipse_66" data-name="Ellipse 66" cx="50.056" cy="6.72" rx="50.056" ry="6.72" transform="matrix(1, -0.006, 0.006, 1, 223.054, 319.199)" fill="#cbdfee"/>
          <ellipse id="Ellipse_67" data-name="Ellipse 67" cx="49.747" cy="6.679" rx="49.747" ry="6.679" transform="translate(223.094 319.24) rotate(-0.323)" fill="#cadfee"/>
          <path id="Path_206" data-name="Path 206" d="M322.045,325.361c.021,3.665-22.1,6.762-49.4,6.916s-49.454-2.693-49.474-6.358,22.1-6.762,49.4-6.916S322.025,321.7,322.045,325.361Z" fill="#c9deee"/>
          <path id="Path_207" data-name="Path 207" d="M321.467,325.364c.02,3.643-21.959,6.719-49.091,6.873s-49.145-2.676-49.166-6.319,21.958-6.72,49.091-6.873S321.446,321.721,321.467,325.364Z" fill="#c8deed"/>
          <ellipse id="Ellipse_68" data-name="Ellipse 68" cx="48.82" cy="6.554" rx="48.82" ry="6.554" transform="translate(223.212 319.364) rotate(-0.323)" fill="#c7dded"/>
          <ellipse id="Ellipse_69" data-name="Ellipse 69" cx="48.511" cy="6.513" rx="48.511" ry="6.513" transform="translate(223.252 319.405) rotate(-0.323)" fill="#c6dced"/>
          <path id="Path_208" data-name="Path 208" d="M319.73,325.373c.02,3.574-21.544,6.593-48.165,6.743s-48.217-2.625-48.237-6.2,21.544-6.593,48.164-6.743S319.71,321.8,319.73,325.373Z" fill="#c6dced"/>
          <path id="Path_209" data-name="Path 209" d="M319.152,325.376c.02,3.551-21.406,6.551-47.857,6.7s-47.908-2.608-47.928-6.159,21.406-6.551,47.856-6.7S319.132,321.825,319.152,325.376Z" fill="#c5dbec"/>
          <ellipse id="Ellipse_70" data-name="Ellipse 70" cx="47.584" cy="6.388" rx="47.584" ry="6.388" transform="translate(223.37 319.528) rotate(-0.323)" fill="#c4dbec"/>
          <path id="Path_210" data-name="Path 210" d="M317.994,325.383c.02,3.505-21.13,6.466-47.239,6.613s-47.29-2.575-47.31-6.08,21.13-6.466,47.239-6.613S317.974,321.877,317.994,325.383Z" fill="#c3daec"/>
          <path id="Path_211" data-name="Path 211" d="M317.415,325.386c.02,3.482-20.991,6.424-46.93,6.57s-46.981-2.558-47-6.04,20.992-6.424,46.93-6.571S317.4,321.9,317.415,325.386Z" fill="#c2daeb"/>
          <ellipse id="Ellipse_71" data-name="Ellipse 71" cx="46.657" cy="6.264" rx="46.657" ry="6.264" transform="matrix(1, -0.006, 0.006, 1, 223.488, 319.652)" fill="#c1d9eb"/>
          <ellipse id="Ellipse_72" data-name="Ellipse 72" cx="46.348" cy="6.222" rx="46.348" ry="6.222" transform="matrix(1, -0.006, 0.006, 1, 223.527, 319.693)" fill="#c0d8eb"/>
          <path id="Path_212" data-name="Path 212" d="M315.679,325.395c.019,3.414-20.577,6.3-46,6.441s-46.054-2.508-46.073-5.922,20.577-6.3,46-6.44S315.66,321.981,315.679,325.395Z" fill="#bfd8ea"/>
          <ellipse id="Ellipse_73" data-name="Ellipse 73" cx="45.73" cy="6.139" rx="45.73" ry="6.139" transform="translate(223.606 319.775) rotate(-0.323)" fill="#bed7ea"/>
          <path id="Path_213" data-name="Path 213" d="M314.521,325.4c.019,3.368-20.3,6.213-45.386,6.354s-45.436-2.474-45.455-5.841,20.3-6.213,45.386-6.354S314.5,322.034,314.521,325.4Z" fill="#bdd7ea"/>
          <ellipse id="Ellipse_74" data-name="Ellipse 74" cx="45.112" cy="6.056" rx="45.112" ry="6.056" transform="matrix(1, -0.006, 0.006, 1, 223.685, 319.857)" fill="#bcd6e9"/>
          <path id="Path_214" data-name="Path 214" d="M313.364,325.408c.019,3.321-20.025,6.127-44.769,6.267s-44.818-2.44-44.836-5.762,20.024-6.128,44.768-6.268S313.345,322.086,313.364,325.408Z" fill="#bbd5e9"/>
          <path id="Path_215" data-name="Path 215" d="M312.785,325.411c.019,3.3-19.887,6.085-44.46,6.224s-44.509-2.423-44.527-5.722,19.887-6.086,44.46-6.225S312.766,322.112,312.785,325.411Z" fill="#bad5e9"/>
          <ellipse id="Ellipse_75" data-name="Ellipse 75" cx="44.185" cy="5.932" rx="44.185" ry="5.932" transform="translate(223.803 319.98) rotate(-0.323)" fill="#b9d4e9"/>
          <ellipse id="Ellipse_76" data-name="Ellipse 76" cx="43.876" cy="5.89" rx="43.876" ry="5.89" transform="translate(223.843 320.021) rotate(-0.323)" fill="#b8d4e8"/>
          <path id="Path_216" data-name="Path 216" d="M311.049,325.42c.018,3.23-19.473,5.959-43.534,6.1s-43.581-2.373-43.6-5.6,19.473-5.958,43.534-6.094S311.03,322.19,311.049,325.42Z" fill="#b7d3e8"/>
          <path id="Path_217" data-name="Path 217" d="M310.47,325.423c.018,3.207-19.335,5.917-43.225,6.051s-43.272-2.356-43.291-5.563,19.335-5.917,43.225-6.051S310.452,322.216,310.47,325.423Z" fill="#b6d2e8"/>
          <ellipse id="Ellipse_77" data-name="Ellipse 77" cx="42.949" cy="5.766" rx="42.949" ry="5.766" transform="matrix(1, -0.006, 0.006, 1, 223.961, 320.145)" fill="#b5d2e7"/>
          <path id="Path_218" data-name="Path 218" d="M309.312,325.429c.018,3.162-19.058,5.832-42.607,5.965s-42.654-2.322-42.672-5.484,19.058-5.832,42.607-5.965S309.3,322.268,309.312,325.429Z" fill="#b4d1e7"/>
          <ellipse id="Ellipse_78" data-name="Ellipse 78" cx="42.331" cy="5.683" rx="42.331" ry="5.683" transform="translate(224.04 320.227) rotate(-0.323)" fill="#b3d1e7"/>
          <path id="Path_219" data-name="Path 219" d="M308.155,325.436c.017,3.115-18.782,5.747-41.99,5.878s-42.036-2.289-42.054-5.4,18.782-5.748,41.99-5.879S308.137,322.32,308.155,325.436Z" fill="#b2d0e6"/>
          <path id="Path_220" data-name="Path 220" d="M307.576,325.439c.017,3.092-18.644,5.705-41.681,5.835S224.168,329,224.15,325.909s18.644-5.7,41.682-5.835S307.559,322.346,307.576,325.439Z" fill="#b1cfe6"/>
          <path id="Path_221" data-name="Path 221" d="M307,325.442c.018,3.07-18.506,5.663-41.372,5.792s-41.418-2.255-41.435-5.325,18.505-5.663,41.372-5.792S306.98,322.372,307,325.442Z" fill="#b0cfe6"/>
          <path id="Path_222" data-name="Path 222" d="M306.418,325.445c.018,3.047-18.367,5.621-41.063,5.749s-41.109-2.238-41.126-5.285,18.368-5.621,41.064-5.749S306.4,322.4,306.418,325.445Z" fill="#afcee5"/>
          <path id="Path_223" data-name="Path 223" d="M305.84,325.448c.017,3.024-18.23,5.579-40.755,5.706s-40.8-2.222-40.817-5.246,18.23-5.578,40.755-5.7S305.823,322.424,305.84,325.448Z" fill="#aecde5"/>
          <path id="Path_224" data-name="Path 224" d="M305.261,325.451c.017,3-18.092,5.536-40.446,5.663s-40.491-2.205-40.508-5.206,18.092-5.537,40.446-5.663S305.244,322.45,305.261,325.451Z" fill="#adcde5"/>
          <ellipse id="Ellipse_79" data-name="Ellipse 79" cx="40.168" cy="5.393" rx="40.168" ry="5.393" transform="matrix(1, -0.006, 0.006, 1, 224.316, 320.515)" fill="#accce4"/>
          <path id="Path_225" data-name="Path 225" d="M304.1,325.457c.017,2.956-17.815,5.452-39.828,5.576s-39.873-2.171-39.889-5.126,17.815-5.452,39.828-5.576S304.087,322.5,304.1,325.457Z" fill="#abcce4"/>
          <path id="Path_226" data-name="Path 226" d="M303.525,325.46c.016,2.933-17.678,5.41-39.52,5.533s-39.564-2.154-39.58-5.086,17.677-5.41,39.52-5.533S303.508,322.528,303.525,325.46Z" fill="#aacbe4"/>
          <path id="Path_227" data-name="Path 227" d="M302.946,325.464c.016,2.909-17.539,5.367-39.212,5.489s-39.254-2.137-39.27-5.047,17.539-5.367,39.211-5.489S302.929,322.554,302.946,325.464Z" fill="#a9cae3"/>
          <ellipse id="Ellipse_80" data-name="Ellipse 80" cx="38.933" cy="5.227" rx="38.933" ry="5.227" transform="translate(224.474 320.679) rotate(-0.323)" fill="#a8cae3"/>
          <path id="Path_228" data-name="Path 228" d="M301.788,325.47c.016,2.863-17.263,5.282-38.593,5.4s-38.636-2.1-38.653-4.968,17.263-5.282,38.594-5.4S301.772,322.606,301.788,325.47Z" fill="#a7c9e3"/>
          <path id="Path_229" data-name="Path 229" d="M301.209,325.473c.016,2.841-17.124,5.24-38.284,5.36s-38.328-2.087-38.343-4.928,17.124-5.24,38.284-5.36S301.193,322.632,301.209,325.473Z" fill="#a6c8e2"/>
          <path id="Path_230" data-name="Path 230" d="M300.631,325.476c.015,2.818-16.987,5.2-37.977,5.317s-38.017-2.07-38.033-4.888,16.986-5.2,37.976-5.317S300.615,322.658,300.631,325.476Z" fill="#a4c8e2"/>
          <path id="Path_231" data-name="Path 231" d="M300.052,325.479c.016,2.795-16.849,5.156-37.668,5.274S224.676,328.7,224.66,325.9s16.848-5.155,37.667-5.273S300.036,322.684,300.052,325.479Z" fill="#a3c7e2"/>
          <path id="Path_232" data-name="Path 232" d="M299.473,325.482c.016,2.772-16.71,5.114-37.359,5.23s-37.4-2.036-37.415-4.808,16.711-5.114,37.359-5.23S299.457,322.71,299.473,325.482Z" fill="#a2c6e1"/>
          <path id="Path_233" data-name="Path 233" d="M298.894,325.485c.016,2.749-16.572,5.072-37.05,5.187s-37.09-2.019-37.106-4.768,16.573-5.072,37.05-5.187S298.879,322.736,298.894,325.485Z" fill="#a1c6e1"/>
          <ellipse id="Ellipse_81" data-name="Ellipse 81" cx="36.77" cy="4.936" rx="36.77" ry="4.936" transform="translate(224.75 320.967) rotate(-0.323)" fill="#a0c5e0"/>
          <path id="Path_234" data-name="Path 234" d="M297.737,325.492c.015,2.7-16.3,4.987-36.433,5.1s-36.472-1.986-36.487-4.689,16.3-4.987,36.432-5.1S297.722,322.788,297.737,325.492Z" fill="#9fc4e0"/>
          <path id="Path_235" data-name="Path 235" d="M297.158,325.495c.015,2.68-16.158,4.944-36.124,5.057s-36.163-1.969-36.178-4.649,16.158-4.945,36.124-5.058S297.143,322.814,297.158,325.495Z" fill="#9ec4e0"/>
          <path id="Path_236" data-name="Path 236" d="M296.579,325.5c.015,2.657-16.02,4.9-35.815,5.014S224.91,328.56,224.9,325.9s16.02-4.9,35.815-5.014S296.564,322.84,296.579,325.5Z" fill="#9dc3df"/>
          <path id="Path_237" data-name="Path 237" d="M296,325.5c.015,2.635-15.881,4.86-35.506,4.971s-35.545-1.936-35.56-4.57,15.882-4.86,35.506-4.971S295.985,322.866,296,325.5Z" fill="#9cc2df"/>
          <ellipse id="Ellipse_82" data-name="Ellipse 82" cx="35.225" cy="4.729" rx="35.225" ry="4.729" transform="translate(224.947 321.173) rotate(-0.323)" fill="#9ac2df"/>
          <path id="Path_238" data-name="Path 238" d="M294.843,325.507c.014,2.589-15.606,4.776-34.889,4.885s-34.927-1.9-34.941-4.491,15.6-4.776,34.888-4.884S294.828,322.918,294.843,325.507Z" fill="#99c1de"/>
          <path id="Path_239" data-name="Path 239" d="M294.264,325.51c.014,2.566-15.468,4.734-34.58,4.841s-34.618-1.884-34.632-4.45,15.467-4.734,34.58-4.841S294.25,322.944,294.264,325.51Z" fill="#98c0de"/>
          <path id="Path_240" data-name="Path 240" d="M293.685,325.513c.015,2.543-15.329,4.692-34.271,4.8s-34.309-1.868-34.323-4.411,15.329-4.691,34.271-4.8S293.671,322.97,293.685,325.513Z" fill="#97bfde"/>
          <ellipse id="Ellipse_83" data-name="Ellipse 83" cx="33.989" cy="4.563" rx="33.989" ry="4.563" transform="translate(225.104 321.337) rotate(-0.323)" fill="#96bfdd"/>
          <path id="Path_241" data-name="Path 241" d="M292.528,325.52c.014,2.5-15.053,4.606-33.654,4.711s-33.691-1.834-33.7-4.331,15.053-4.607,33.654-4.712S292.514,323.023,292.528,325.52Z" fill="#95bedd"/>
          <path id="Path_242" data-name="Path 242" d="M291.949,325.523c.014,2.474-14.915,4.564-33.345,4.668s-33.382-1.817-33.4-4.292,14.916-4.564,33.345-4.668S291.935,323.048,291.949,325.523Z" fill="#94bddc"/>
          <path id="Path_243" data-name="Path 243" d="M291.37,325.526c.014,2.451-14.777,4.522-33.036,4.625s-33.073-1.8-33.086-4.252,14.777-4.522,33.036-4.625S291.356,323.074,291.37,325.526Z" fill="#92bddc"/>
          <path id="Path_244" data-name="Path 244" d="M290.791,325.529c.014,2.428-14.638,4.48-32.727,4.582s-32.763-1.784-32.777-4.212,14.639-4.48,32.727-4.582S290.778,323.1,290.791,325.529Z" fill="#91bcdc"/>
          <path id="Path_245" data-name="Path 245" d="M290.213,325.532c.013,2.406-14.5,4.438-32.419,4.539S225.34,328.3,225.326,325.9s14.5-4.437,32.419-4.539S290.2,323.127,290.213,325.532Z" fill="#90bbdb"/>
          <path id="Path_246" data-name="Path 246" d="M289.634,325.535c.013,2.383-14.363,4.395-32.11,4.5s-32.145-1.751-32.159-4.133,14.363-4.4,32.11-4.5S289.62,323.153,289.634,325.535Z" fill="#8fbadb"/>
          <path id="Path_247" data-name="Path 247" d="M289.055,325.538c.013,2.36-14.224,4.353-31.8,4.453s-31.836-1.734-31.85-4.094,14.225-4.353,31.8-4.452S289.042,323.179,289.055,325.538Z" fill="#8ebadb"/>
          <path id="Path_248" data-name="Path 248" d="M288.476,325.541c.013,2.337-14.086,4.311-31.492,4.409s-31.527-1.716-31.54-4.053,14.086-4.311,31.492-4.409S288.463,323.2,288.476,325.541Z" fill="#8db9da"/>
          <path id="Path_249" data-name="Path 249" d="M287.9,325.545c.012,2.313-13.949,4.268-31.184,4.365s-31.218-1.7-31.231-4.013,13.948-4.269,31.184-4.366S287.884,323.231,287.9,325.545Z" fill="#8bb8da"/>
          <path id="Path_250" data-name="Path 250" d="M287.319,325.548c.013,2.291-13.811,4.226-30.875,4.322s-30.909-1.683-30.922-3.974,13.81-4.226,30.875-4.322S287.306,323.257,287.319,325.548Z" fill="#8ab8d9"/>
          <ellipse id="Ellipse_84" data-name="Ellipse 84" cx="30.59" cy="4.107" rx="30.59" ry="4.107" transform="translate(225.538 321.789) rotate(-0.323)" fill="#89b7d9"/>
          <path id="Path_251" data-name="Path 251" d="M286.161,325.554c.013,2.245-13.534,4.142-30.257,4.236s-30.291-1.649-30.3-3.9,13.534-4.141,30.258-4.235S286.149,323.309,286.161,325.554Z" fill="#88b6d9"/>
          <ellipse id="Ellipse_85" data-name="Ellipse 85" cx="29.972" cy="4.024" rx="29.972" ry="4.024" transform="translate(225.617 321.871) rotate(-0.323)" fill="#87b5d8"/>
          <path id="Path_252" data-name="Path 252" d="M285,325.56c.012,2.2-13.258,4.057-29.64,4.15s-29.673-1.616-29.685-3.815,13.258-4.057,29.64-4.15S284.991,323.361,285,325.56Z" fill="#85b5d8"/>
          <path id="Path_253" data-name="Path 253" d="M284.425,325.563c.012,2.177-13.12,4.015-29.331,4.107s-29.364-1.6-29.376-3.776,13.12-4.014,29.331-4.106S284.412,323.387,284.425,325.563Z" fill="#84b4d8"/>
          <path id="Path_254" data-name="Path 254" d="M283.846,325.566c.012,2.154-12.982,3.973-29.022,4.064s-29.055-1.582-29.067-3.736,12.982-3.973,29.023-4.063S283.834,323.413,283.846,325.566Z" fill="#83b3d7"/>
          <path id="Path_255" data-name="Path 255" d="M283.267,325.57c.012,2.13-12.843,3.93-28.713,4.019s-28.746-1.565-28.758-3.695,12.844-3.931,28.714-4.02S283.255,323.439,283.267,325.57Z" fill="#82b2d7"/>
          <path id="Path_256" data-name="Path 256" d="M282.688,325.573c.012,2.107-12.7,3.888-28.4,3.976s-28.437-1.548-28.448-3.656,12.705-3.888,28.4-3.976S282.677,323.465,282.688,325.573Z" fill="#81b2d6"/>
          <path id="Path_257" data-name="Path 257" d="M282.11,325.576c.011,2.084-12.568,3.846-28.1,3.933s-28.128-1.531-28.139-3.616,12.567-3.846,28.1-3.934S282.1,323.491,282.11,325.576Z" fill="#7fb1d6"/>
          <path id="Path_258" data-name="Path 258" d="M281.531,325.579c.012,2.062-12.429,3.8-27.788,3.89s-27.817-1.514-27.829-3.576,12.429-3.8,27.787-3.891S281.519,323.517,281.531,325.579Z" fill="#7eb0d6"/>
          <path id="Path_259" data-name="Path 259" d="M280.952,325.582c.012,2.039-12.291,3.761-27.479,3.847s-27.508-1.5-27.52-3.537,12.291-3.761,27.479-3.847S280.941,323.543,280.952,325.582Z" fill="#7dafd5"/>
          <path id="Path_260" data-name="Path 260" d="M280.373,325.585c.012,2.016-12.153,3.719-27.17,3.8s-27.2-1.481-27.211-3.5,12.153-3.719,27.17-3.8S280.362,323.569,280.373,325.585Z" fill="#7cafd5"/>
          <path id="Path_261" data-name="Path 261" d="M279.8,325.588c.011,1.993-12.015,3.677-26.862,3.761s-26.89-1.464-26.9-3.457,12.015-3.677,26.862-3.761S279.783,323.6,279.8,325.588Z" fill="#7aaed4"/>
          <ellipse id="Ellipse_86" data-name="Ellipse 86" cx="26.573" cy="3.567" rx="26.573" ry="3.567" transform="translate(226.05 322.324) rotate(-0.323)" fill="#79add4"/>
          <path id="Path_262" data-name="Path 262" d="M278.637,325.594c.011,1.948-11.739,3.593-26.244,3.674s-26.272-1.43-26.283-3.377,11.739-3.593,26.244-3.674S278.626,323.647,278.637,325.594Z" fill="#78acd4"/>
          <path id="Path_263" data-name="Path 263" d="M278.058,325.6c.011,1.924-11.6,3.55-25.935,3.63s-25.963-1.413-25.974-3.338,11.6-3.55,25.935-3.631S278.047,323.673,278.058,325.6Z" fill="#77acd3"/>
          <ellipse id="Ellipse_87" data-name="Ellipse 87" cx="25.646" cy="3.443" rx="25.646" ry="3.443" transform="translate(226.169 322.447) rotate(-0.323)" fill="#75abd3"/>
          <path id="Path_264" data-name="Path 264" d="M276.9,325.6c.01,1.878-11.325,3.465-25.318,3.544s-25.345-1.38-25.356-3.258,11.325-3.466,25.318-3.545S276.89,323.725,276.9,325.6Z" fill="#74aad2"/>
          <path id="Path_265" data-name="Path 265" d="M276.322,325.607c.01,1.856-11.186,3.423-25.009,3.5s-25.036-1.363-25.046-3.219,11.186-3.423,25.008-3.5S276.311,323.751,276.322,325.607Z" fill="#73a9d2"/>
          <path id="Path_266" data-name="Path 266" d="M275.743,325.61c.01,1.833-11.048,3.381-24.7,3.458s-24.727-1.346-24.737-3.179,11.048-3.381,24.7-3.458S275.733,323.777,275.743,325.61Z" fill="#72a8d2"/>
          <path id="Path_267" data-name="Path 267" d="M275.164,325.613c.011,1.81-10.91,3.339-24.391,3.415s-24.418-1.33-24.428-3.139,10.91-3.339,24.391-3.415S275.154,323.8,275.164,325.613Z" fill="#70a8d1"/>
          <path id="Path_268" data-name="Path 268" d="M274.586,325.616c.01,1.787-10.772,3.3-24.083,3.372s-24.109-1.313-24.119-3.1,10.772-3.3,24.083-3.371S274.575,323.829,274.586,325.616Z" fill="#6fa7d1"/>
          <ellipse id="Ellipse_88" data-name="Ellipse 88" cx="23.792" cy="3.194" rx="23.792" ry="3.194" transform="translate(226.405 322.694) rotate(-0.323)" fill="#6ea6d0"/>
          <path id="Path_269" data-name="Path 269" d="M273.428,325.623c.01,1.741-10.5,3.211-23.465,3.285s-23.491-1.28-23.5-3.021,10.495-3.211,23.465-3.285S273.418,323.881,273.428,325.623Z" fill="#6ca5d0"/>
          <path id="Path_270" data-name="Path 270" d="M272.849,325.626c.01,1.718-10.357,3.169-23.156,3.241s-23.182-1.262-23.191-2.98,10.357-3.17,23.156-3.242S272.84,323.907,272.849,325.626Z" fill="#6ba5cf"/>
          <path id="Path_271" data-name="Path 271" d="M272.27,325.629c.01,1.7-10.219,3.127-22.847,3.2s-22.873-1.245-22.882-2.94,10.219-3.128,22.847-3.2S272.261,323.933,272.27,325.629Z" fill="#6aa4cf"/>
          <path id="Path_272" data-name="Path 272" d="M271.692,325.632c.009,1.672-10.082,3.085-22.539,3.155s-22.563-1.228-22.573-2.9,10.082-3.085,22.539-3.155S271.682,323.959,271.692,325.632Z" fill="#68a3cf"/>
          <path id="Path_273" data-name="Path 273" d="M271.113,325.635c.009,1.649-9.944,3.043-22.23,3.112s-22.254-1.212-22.264-2.861,9.944-3.043,22.23-3.112S271.1,323.985,271.113,325.635Z" fill="#67a2ce"/>
          <path id="Path_274" data-name="Path 274" d="M270.534,325.638c.009,1.627-9.8,3-21.921,3.069s-21.945-1.2-21.955-2.822,9.806-3,21.922-3.068S270.525,324.011,270.534,325.638Z" fill="#66a1ce"/>
          <path id="Path_275" data-name="Path 275" d="M269.955,325.641c.009,1.6-9.667,2.958-21.612,3.026s-21.636-1.178-21.645-2.782,9.667-2.958,21.612-3.026S269.946,324.037,269.955,325.641Z" fill="#65a1cd"/>
          <path id="Path_276" data-name="Path 276" d="M269.376,325.644c.009,1.581-9.529,2.916-21.3,2.983s-21.327-1.161-21.336-2.742,9.529-2.916,21.3-2.983S269.368,324.063,269.376,325.644Z" fill="#63a0cd"/>
          <path id="Path_277" data-name="Path 277" d="M268.8,325.647c.008,1.558-9.391,2.874-21,2.94s-21.018-1.145-21.027-2.7,9.391-2.873,20.995-2.939S268.789,324.089,268.8,325.647Z" fill="#629fcc"/>
          <path id="Path_278" data-name="Path 278" d="M268.219,325.651c.009,1.534-9.253,2.831-20.686,2.895s-20.709-1.127-20.718-2.662,9.253-2.831,20.686-2.9S268.21,324.116,268.219,325.651Z" fill="#619ecc"/>
          <ellipse id="Ellipse_89" data-name="Ellipse 89" cx="20.393" cy="2.738" rx="20.393" ry="2.738" transform="translate(226.839 323.146) rotate(-0.323)" fill="#5f9dcc"/>
          <path id="Path_279" data-name="Path 279" d="M267.061,325.657c.009,1.489-8.976,2.747-20.068,2.809s-20.091-1.094-20.1-2.583,8.976-2.747,20.068-2.809S267.053,324.168,267.061,325.657Z" fill="#5e9ccb"/>
          <path id="Path_280" data-name="Path 280" d="M266.483,325.66c.008,1.466-8.839,2.7-19.76,2.766s-19.782-1.077-19.79-2.543,8.838-2.7,19.76-2.766S266.474,324.194,266.483,325.66Z" fill="#5d9ccb"/>
          <path id="Path_281" data-name="Path 281" d="M265.9,325.663c.008,1.443-8.7,2.662-19.451,2.723s-19.473-1.06-19.481-2.5,8.7-2.663,19.451-2.724S265.9,324.22,265.9,325.663Z" fill="#5b9bca"/>
          <path id="Path_282" data-name="Path 282" d="M265.325,325.666c.008,1.421-8.562,2.62-19.142,2.68s-19.164-1.043-19.172-2.464,8.562-2.62,19.143-2.68S265.317,324.246,265.325,325.666Z" fill="#5a9aca"/>
          <path id="Path_283" data-name="Path 283" d="M264.746,325.669c.008,1.4-8.424,2.578-18.833,2.637s-18.855-1.027-18.863-2.424,8.425-2.578,18.834-2.637S264.738,324.272,264.746,325.669Z" fill="#5899c9"/>
          <path id="Path_284" data-name="Path 284" d="M264.168,325.672c.007,1.375-8.287,2.536-18.526,2.594s-18.545-1.01-18.552-2.384,8.286-2.536,18.525-2.594S264.16,324.3,264.168,325.672Z" fill="#5798c9"/>
          <ellipse id="Ellipse_90" data-name="Ellipse 90" cx="18.23" cy="2.447" rx="18.23" ry="2.447" transform="translate(227.115 323.434) rotate(-0.323)" fill="#5697c9"/>
          <path id="Path_285" data-name="Path 285" d="M263.01,325.678c.007,1.329-8.01,2.452-17.908,2.508s-17.927-.977-17.934-2.3,8.01-2.452,17.907-2.507S263,324.35,263.01,325.678Z" fill="#5497c8"/>
          <path id="Path_286" data-name="Path 286" d="M262.431,325.682c.008,1.306-7.872,2.409-17.6,2.463s-17.618-.959-17.625-2.265,7.872-2.409,17.6-2.463S262.424,324.376,262.431,325.682Z" fill="#5396c8"/>
          <path id="Path_287" data-name="Path 287" d="M261.852,325.685c.008,1.283-7.733,2.366-17.29,2.42s-17.309-.942-17.316-2.225,7.734-2.367,17.29-2.421S261.845,324.4,261.852,325.685Z" fill="#5295c7"/>
          <path id="Path_288" data-name="Path 288" d="M261.274,325.688c.007,1.26-7.6,2.324-16.982,2.377s-17-.925-17.007-2.185,7.6-2.325,16.982-2.378S261.267,324.428,261.274,325.688Z" fill="#5094c7"/>
          <path id="Path_289" data-name="Path 289" d="M260.7,325.691c.007,1.237-7.458,2.282-16.673,2.334s-16.69-.909-16.7-2.146,7.457-2.282,16.672-2.334S260.688,324.454,260.7,325.691Z" fill="#4f93c6"/>
          <path id="Path_290" data-name="Path 290" d="M260.116,325.694c.007,1.214-7.319,2.24-16.364,2.291s-16.381-.892-16.388-2.106,7.319-2.24,16.363-2.291S260.109,324.48,260.116,325.694Z" fill="#4e92c6"/>
          <path id="Path_291" data-name="Path 291" d="M259.537,325.7c.007,1.192-7.181,2.2-16.055,2.248s-16.072-.875-16.079-2.067,7.181-2.2,16.055-2.247S259.531,324.506,259.537,325.7Z" fill="#4c92c5"/>
          <path id="Path_292" data-name="Path 292" d="M258.958,325.7c.007,1.169-7.043,2.156-15.746,2.2s-15.763-.859-15.77-2.027,7.043-2.155,15.746-2.2S258.952,324.532,258.958,325.7Z" fill="#4b91c5"/>
          <path id="Path_293" data-name="Path 293" d="M258.38,325.7c.006,1.145-6.9,2.113-15.438,2.161s-15.454-.842-15.461-1.987,6.9-2.113,15.438-2.162S258.373,324.558,258.38,325.7Z" fill="#4990c5"/>
          <path id="Path_294" data-name="Path 294" d="M257.8,325.707c.006,1.122-6.767,2.07-15.129,2.118s-15.145-.825-15.151-1.948,6.767-2.071,15.128-2.118S257.8,324.584,257.8,325.707Z" fill="#488fc4"/>
          <ellipse id="Ellipse_91" data-name="Ellipse 91" cx="14.831" cy="1.991" rx="14.831" ry="1.991" transform="matrix(1, -0.006, 0.006, 1, 227.549, 323.886)" fill="#478ec4"/>
          <path id="Path_295" data-name="Path 295" d="M256.643,325.713c.007,1.077-6.49,1.986-14.511,2.031s-14.527-.791-14.533-1.867,6.491-1.987,14.511-2.032S256.637,324.636,256.643,325.713Z" fill="#458dc3"/>
          <path id="Path_296" data-name="Path 296" d="M256.065,325.716c.005,1.054-6.353,1.944-14.2,1.988s-14.218-.774-14.224-1.828,6.353-1.944,14.2-1.988S256.059,324.662,256.065,325.716Z" fill="#448cc3"/>
          <path id="Path_297" data-name="Path 297" d="M255.486,325.719c.006,1.031-6.215,1.9-13.894,1.945s-13.909-.757-13.915-1.788,6.215-1.9,13.894-1.945S255.48,324.688,255.486,325.719Z" fill="#428cc2"/>
          <path id="Path_298" data-name="Path 298" d="M254.907,325.722c.006,1.008-6.076,1.86-13.585,1.9s-13.6-.74-13.606-1.749,6.077-1.859,13.586-1.9S254.9,324.714,254.907,325.722Z" fill="#418bc2"/>
          <path id="Path_299" data-name="Path 299" d="M254.328,325.725c.006.985-5.938,1.818-13.276,1.859s-13.291-.724-13.3-1.709,5.938-1.817,13.276-1.858S254.323,324.74,254.328,325.725Z" fill="#3f8ac1"/>
          <path id="Path_300" data-name="Path 300" d="M253.749,325.728c.006.963-5.8,1.775-12.967,1.816s-12.982-.707-12.987-1.669,5.8-1.775,12.967-1.816S253.744,324.766,253.749,325.728Z" fill="#3e89c1"/>
          <path id="Path_301" data-name="Path 301" d="M253.171,325.731c0,.94-5.663,1.733-12.659,1.773s-12.673-.69-12.678-1.63,5.662-1.732,12.659-1.772S253.165,324.792,253.171,325.731Z" fill="#3d88c0"/>
          <path id="Path_302" data-name="Path 302" d="M252.592,325.735c.005.916-5.524,1.69-12.35,1.729s-12.364-.674-12.369-1.59,5.524-1.69,12.35-1.729S252.587,324.818,252.592,325.735Z" fill="#3b87c0"/>
          <ellipse id="Ellipse_92" data-name="Ellipse 92" cx="12.051" cy="1.618" rx="12.051" ry="1.618" transform="matrix(1, -0.006, 0.006, 1, 227.903, 324.256)" fill="#3a86c0"/>
          <path id="Path_303" data-name="Path 303" d="M251.434,325.741c0,.87-5.247,1.606-11.732,1.642s-11.745-.639-11.75-1.51,5.247-1.606,11.732-1.642S251.43,324.87,251.434,325.741Z" fill="#3885bf"/>
          <ellipse id="Ellipse_93" data-name="Ellipse 93" cx="11.433" cy="1.535" rx="11.433" ry="1.535" transform="matrix(1, -0.006, 0.006, 1, 227.982, 324.338)" fill="#3784bf"/>
          <ellipse id="Ellipse_94" data-name="Ellipse 94" cx="11.124" cy="1.493" rx="11.124" ry="1.493" transform="translate(228.022 324.379) rotate(-0.323)" fill="#3584be"/>
          <path id="Path_304" data-name="Path 304" d="M249.7,325.75c.005.8-4.834,1.479-10.806,1.513s-10.818-.589-10.823-1.391,4.834-1.479,10.806-1.513S249.694,324.948,249.7,325.75Z" fill="#3483be"/>
          <path id="Path_305" data-name="Path 305" d="M249.119,325.753c0,.779-4.7,1.437-10.5,1.47s-10.509-.572-10.514-1.351,4.7-1.437,10.5-1.47S249.115,324.974,249.119,325.753Z" fill="#3282bd"/>
          <path id="Path_306" data-name="Path 306" d="M248.541,325.756c0,.756-4.558,1.395-10.189,1.427s-10.2-.556-10.2-1.311,4.557-1.4,10.188-1.427S248.536,325,248.541,325.756Z" fill="#3181bd"/>
          <path id="Path_307" data-name="Path 307" d="M247.962,325.759c0,.734-4.42,1.353-9.88,1.384s-9.891-.539-9.9-1.272,4.419-1.352,9.88-1.383S247.958,325.026,247.962,325.759Z" fill="#2f80bc"/>
          <path id="Path_308" data-name="Path 308" d="M247.383,325.763c0,.71-4.281,1.31-9.571,1.34s-9.582-.522-9.586-1.232,4.281-1.31,9.571-1.34S247.379,325.053,247.383,325.763Z" fill="#2e7fbc"/>
          <path id="Path_309" data-name="Path 309" d="M246.8,325.766c0,.687-4.143,1.268-9.262,1.3s-9.273-.5-9.277-1.193,4.143-1.268,9.263-1.3S246.8,325.079,246.8,325.766Z" fill="#2c7ebb"/>
          <path id="Path_310" data-name="Path 310" d="M246.225,325.769c0,.664-4.005,1.225-8.953,1.253s-8.964-.488-8.968-1.152,4.005-1.226,8.954-1.254S246.222,325.105,246.225,325.769Z" fill="#2b7dbb"/>
          <ellipse id="Ellipse_95" data-name="Ellipse 95" cx="8.652" cy="1.162" rx="8.652" ry="1.162" transform="translate(228.337 324.708) rotate(-0.323)" fill="#2a7cba"/>
          <path id="Path_311" data-name="Path 311" d="M245.068,325.775c0,.619-3.729,1.141-8.336,1.167s-8.346-.454-8.349-1.073,3.728-1.141,8.336-1.167S245.064,325.157,245.068,325.775Z" fill="#287bba"/>
          <path id="Path_312" data-name="Path 312" d="M244.489,325.778c0,.6-3.591,1.1-8.027,1.124s-8.037-.438-8.04-1.033,3.59-1.1,8.027-1.124S244.486,325.183,244.489,325.778Z" fill="#277bb9"/>
          <path id="Path_313" data-name="Path 313" d="M243.91,325.781c0,.573-3.452,1.057-7.719,1.081s-7.727-.421-7.73-.994,3.453-1.056,7.719-1.08S243.907,325.209,243.91,325.781Z" fill="#257ab9"/>
          <path id="Path_314" data-name="Path 314" d="M243.332,325.785c0,.549-3.315,1.014-7.411,1.037s-7.418-.4-7.421-.954,3.315-1.014,7.41-1.037S243.328,325.235,243.332,325.785Z" fill="#2479b8"/>
          <path id="Path_315" data-name="Path 315" d="M242.753,325.788c0,.526-3.177.972-7.1.994s-7.109-.387-7.112-.914,3.177-.972,7.1-.994S242.75,325.261,242.753,325.788Z" fill="#2278b8"/>
          <path id="Path_316" data-name="Path 316" d="M242.174,325.791c0,.5-3.038.93-6.793.951s-6.8-.371-6.8-.875,3.038-.929,6.792-.951S242.171,325.287,242.174,325.791Z" fill="#2177b7"/>
          <path id="Path_317" data-name="Path 317" d="M241.6,325.794c0,.481-2.9.887-6.484.908s-6.49-.354-6.493-.835,2.9-.887,6.484-.908S241.592,325.313,241.6,325.794Z" fill="#1f76b7"/>
          <path id="Path_318" data-name="Path 318" d="M241.016,325.8c0,.458-2.762.845-6.175.864s-6.181-.336-6.184-.794,2.762-.846,6.175-.865S241.014,325.339,241.016,325.8Z" fill="#1e75b6"/>
          <path id="Path_319" data-name="Path 319" d="M240.438,325.8c0,.435-2.624.8-5.867.821s-5.872-.319-5.875-.755,2.624-.8,5.866-.821S240.435,325.365,240.438,325.8Z" fill="#1c74b6"/>
          <path id="Path_320" data-name="Path 320" d="M239.859,325.8c0,.412-2.486.761-5.558.778s-5.563-.3-5.566-.715,2.486-.761,5.558-.778S239.856,325.391,239.859,325.8Z" fill="#1a73b6"/>
          <path id="Path_321" data-name="Path 321" d="M239.28,325.806c0,.39-2.348.719-5.249.735s-5.254-.286-5.256-.675,2.347-.719,5.248-.735S239.278,325.417,239.28,325.806Z" fill="#1972b5"/>
          <path id="Path_322" data-name="Path 322" d="M238.7,325.809c0,.367-2.209.677-4.94.692s-4.945-.269-4.947-.636,2.209-.676,4.94-.691S238.7,325.443,238.7,325.809Z" fill="#1771b5"/>
          <path id="Path_323" data-name="Path 323" d="M238.122,325.813c0,.343-2.071.633-4.631.648s-4.636-.253-4.638-.6,2.072-.634,4.631-.649S238.121,325.469,238.122,325.813Z" fill="#1670b4"/>
          <path id="Path_324" data-name="Path 324" d="M237.544,325.816c0,.32-1.934.591-4.323.6s-4.327-.236-4.329-.557,1.934-.591,4.323-.605S237.542,325.495,237.544,325.816Z" fill="#146fb4"/>
          <path id="Path_325" data-name="Path 325" d="M236.965,325.819c0,.3-1.795.549-4.014.562s-4.018-.219-4.02-.517,1.8-.549,4.014-.562S236.963,325.521,236.965,325.819Z" fill="#136eb3"/>
          <path id="Path_326" data-name="Path 326" d="M236.386,325.822c0,.275-1.657.507-3.705.518s-3.709-.2-3.71-.476,1.657-.508,3.705-.519S236.385,325.547,236.386,325.822Z" fill="#116eb3"/>
          <path id="Path_327" data-name="Path 327" d="M235.807,325.825c0,.252-1.519.465-3.4.475s-3.4-.185-3.4-.437,1.519-.465,3.4-.475S235.806,325.573,235.807,325.825Z" fill="#106db2"/>
          <path id="Path_328" data-name="Path 328" d="M235.229,325.828c0,.229-1.382.423-3.088.432s-3.091-.168-3.092-.4,1.381-.423,3.087-.432S235.227,325.6,235.229,325.828Z" fill="#0e6cb2"/>
          <path id="Path_329" data-name="Path 329" d="M234.65,325.831c0,.206-1.243.381-2.779.389s-2.782-.151-2.783-.357,1.243-.381,2.779-.39S234.649,325.625,234.65,325.831Z" fill="#0d6bb1"/>
          <path id="Path_330" data-name="Path 330" d="M234.071,325.834c0,.184-1.1.338-2.47.346s-2.473-.135-2.474-.318,1.1-.338,2.47-.346S234.07,325.651,234.071,325.834Z" fill="#0b6ab1"/>
          <path id="Path_331" data-name="Path 331" d="M233.492,325.837c0,.161-.966.3-2.161.3s-2.164-.118-2.165-.278.967-.3,2.162-.3S233.491,325.677,233.492,325.837Z" fill="#0969b0"/>
          <path id="Path_332" data-name="Path 332" d="M232.913,325.84c0,.138-.828.254-1.852.26s-1.855-.1-1.855-.238.828-.254,1.852-.26S232.913,325.7,232.913,325.84Z" fill="#0868b0"/>
          <path id="Path_333" data-name="Path 333" d="M232.335,325.844c0,.114-.691.211-1.544.216s-1.545-.084-1.546-.2.69-.211,1.544-.216S232.334,325.729,232.335,325.844Z" fill="#0667af"/>
          <path id="Path_334" data-name="Path 334" d="M231.756,325.847c0,.091-.552.169-1.235.173s-1.236-.068-1.237-.159.552-.169,1.235-.173S231.755,325.755,231.756,325.847Z" fill="#0566af"/>
          <path id="Path_335" data-name="Path 335" d="M231.177,325.85c0,.069-.414.127-.926.13s-.927-.051-.928-.12.415-.126.926-.129S231.177,325.781,231.177,325.85Z" fill="#0365ae"/>
          <path id="Path_336" data-name="Path 336" d="M230.6,325.853c0,.046-.276.085-.617.086s-.618-.033-.619-.079.277-.084.618-.086S230.6,325.807,230.6,325.853Z" fill="#0264ae"/>
          <path id="Path_337" data-name="Path 337" d="M230.019,325.856c0,.023-.138.042-.308.043s-.309-.016-.309-.039.138-.043.308-.044S230.019,325.833,230.019,325.856Z" fill="#0063ad"/>
        </g>
      </g>
    </g>
    <g id="Group_26" data-name="Group 26" opacity="0.5">
      <path id="Path_338" data-name="Path 338" d="M199.464,225.835l-10.173-5.712-5.042,1.416,10.173,5.712Z" fill="#f3c500"/>
      <path id="Path_339" data-name="Path 339" d="M197.025,194.093l1.476,5.255,10.174,5.712L207.2,199.8Z" fill="#f3c500"/>
      <path id="Path_340" data-name="Path 340" d="M143.52,198.672l10.173,5.712-1.416-5.042L142.1,193.631Z" fill="#f3c500"/>
      <path id="Path_341" data-name="Path 341" d="M200.326,205.844l2.91,10.362-7.449,2.092,10.173,5.712,7.449-2.092-2.91-10.362Z" fill="#f3c500"/>
      <path id="Path_342" data-name="Path 342" d="M150.453,192.846l-2.092-7.449,33.864-9.511-10.173-5.712-33.865,9.511,2.092,7.449Z" fill="#f3c500"/>
      <path id="Path_343" data-name="Path 343" d="M174.377,224.311l-13.983,3.927-3.927-13.983-10.174-5.712,8.389,29.869,29.869-8.389Z" fill="#f3c500"/>
      <path id="Path_344" data-name="Path 344" d="M178.549,168.349l10.173,5.712,3.178,1.784,10.173,5.712-5.158-18.366Z" fill="#f3c500"/>
      <path id="Path_345" data-name="Path 345" d="M193.725,182.342,195.2,187.6l10.173,5.712-1.476-5.255Z" fill="#f3c500"/>
    </g>
    <g id="Group_27" data-name="Group 27">
      <path id="Path_346" data-name="Path 346" d="M240.012,226.377H220.33l7.076-7.075h19.682Zm-16.049-1.5h15.426l4.066-4.067H228.029Z" fill="#fff"/>
      <path id="Path_347" data-name="Path 347" d="M243.869,186.767H224.188l-7.31-7.311h19.68Zm-19.058-1.5h15.425l-4.3-4.3H220.509Z" fill="#0b1f50"/>
      <path id="Path_348" data-name="Path 348" d="M171.244,226.377H151.563l-7.077-7.075h19.682Zm-19.058-1.5h15.425l-4.066-4.067H148.119Z" fill="#0b1f50"/>
      <path id="Path_349" data-name="Path 349" d="M252.762,213.627H233.08l8.984-8.983-12.2-12.2h19.681l12.2,12.2Zm-16.049-1.5h15.426l7.479-7.479-10.7-10.7H233.495l10.7,10.7Z" fill="#fff"/>
      <path id="Path_350" data-name="Path 350" d="M158.493,213.627h-19.68l-8.984-8.983L168,166.471h19.682l-38.174,38.173Zm-19.057-1.5H154.86l-7.478-7.479,36.668-36.669H168.624l-36.668,36.669Z" fill="#0b1f50"/>
      <path id="Path_351" data-name="Path 351" d="M195.787,270.6l-34.821-34.82h19.68l15.141,15.139,15.14-15.139h19.681ZM164.6,237.285l31.188,31.19,31.189-31.19H211.55l-15.763,15.763-15.764-15.763Z" fill="#0b1f50"/>
      <path id="Path_352" data-name="Path 352" d="M217.9,160.8H173.676l22.111-22.11Zm-40.589-1.5h36.957l-18.479-18.479Z" fill="#0b1f50"/>
      <path id="Path_353" data-name="Path 353" d="M230.884,173.782H211.2l-7.309-7.311h19.679Zm-19.059-1.5h15.426l-4.3-4.3H207.523Z" fill="#0b1f50"/>
    </g>
    <g id="Group_29" data-name="Group 29" opacity="0.5">
      <path id="Path_354" data-name="Path 354" d="M443.537,181.663h0c-.014-.036-.029-.072-.044-.107l-.031-.076c-.011-.026-.022-.052-.034-.078a4.517,4.517,0,0,0-1.788-2.195l-.218-.126h0L415.01,163.827,388.6,148.572h0l-.217-.126a2.172,2.172,0,0,0-2.185-.1c-.018.008-.035.018-.052.027l-.052.029-3.487,2.011,2.01.853-6.975,36.981a5.235,5.235,0,0,0,.379,2.953l.033.08c.011.025.021.05.032.074a4.52,4.52,0,0,0,1.79,2.2l52.678,30.425-.486,2.32,3.3-1.913c.018-.01.035-.018.052-.029a2.715,2.715,0,0,0,1.31-1.978l7.142-37.866A5.2,5.2,0,0,0,443.537,181.663Z" fill="#d5ebfd"/>
      <g id="Group_28" data-name="Group 28">
        <path id="Path_355" data-name="Path 355" d="M429.706,226.294l-53.259-30.76a5.571,5.571,0,0,1-2.182-5.574l7.04-37.327c.4-2.148,2.039-3.135,3.65-2.205l53.258,30.761a5.569,5.569,0,0,1,2.183,5.573l-7.04,37.327C432.95,226.237,431.316,227.224,429.706,226.294Z" fill="url(#linear-gradient)"/>
        <path id="Path_356" data-name="Path 356" d="M438,181.063l-26.412-15.255-8.276,43.879,26.18,16.482a2.425,2.425,0,0,0,3.817-1.81l7.142-37.866A5.511,5.511,0,0,0,438,181.063Z" fill="#0b1f50"/>
        <path id="Path_357" data-name="Path 357" d="M385.172,150.554l26.412,15.254-8.224,43.6-26.695-13.753a5.507,5.507,0,0,1-2.451-5.429l7.142-37.866A2.424,2.424,0,0,1,385.172,150.554Z" fill="#051232"/>
        <path id="Path_358" data-name="Path 358" d="M374.55,193.077a5.2,5.2,0,0,0,2.115,2.582l52.823,30.51a2.511,2.511,0,0,0,2.578.128l-23.666-43.6Z" fill="#04143a"/>
        <path id="Path_359" data-name="Path 359" d="M440.111,183.645A5.2,5.2,0,0,0,438,181.063l-52.824-30.509a2.511,2.511,0,0,0-2.578-.129l23.667,43.6Z" fill="#0b1f50"/>
      </g>
    </g>
    <g id="Group_31" data-name="Group 31">
      <path id="Path_360" data-name="Path 360" d="M196.82,213.773h0v0c.036-.09.073-.179.11-.269.026-.064.053-.127.079-.191s.056-.132.085-.2a11.417,11.417,0,0,1,4.52-5.547l.549-.317h0l66.721-38.536,66.721-38.536h0l.549-.317a5.488,5.488,0,0,1,5.519-.251c.046.021.088.046.133.068s.088.047.131.074l8.809,5.079-5.078,2.155,17.62,93.421a13.233,13.233,0,0,1-.958,7.461c-.026.068-.055.133-.083.2s-.052.126-.081.188a11.41,11.41,0,0,1-4.52,5.548l-133.075,76.86,1.226,5.862-8.344-4.833c-.043-.025-.088-.047-.13-.073a6.858,6.858,0,0,1-3.309-5l-18.042-95.657A13.134,13.134,0,0,1,196.82,213.773Z" fill="#dce7f0"/>
      <g id="Group_30" data-name="Group 30">
        <path id="Path_361" data-name="Path 361" d="M231.761,326.518,366.3,248.812c4.068-2.35,6.537-8.654,5.513-14.081L354.03,140.439c-1.023-5.427-5.151-7.921-9.22-5.572L210.27,212.574c-4.069,2.35-6.537,8.654-5.513,14.08l17.784,94.293C223.565,326.374,227.693,328.868,231.761,326.518Z" fill="url(#linear-gradient-2)"/>
        <path id="Path_362" data-name="Path 362" d="M210.819,212.257l66.721-38.536,20.907,110.846L232.311,326.2c-4.372,2.525-8.689.478-9.641-4.572l-18.042-95.656C203.675,220.922,206.447,214.782,210.819,212.257Z" fill="#091b48"/>
        <path id="Path_363" data-name="Path 363" d="M344.261,135.185,277.54,173.721l20.776,110.15,67.436-34.742c4.372-2.525,7.144-8.666,6.192-13.716L353.9,139.757C352.949,134.707,348.633,132.66,344.261,135.185Z" fill="#091b48"/>
        <path id="Path_364" data-name="Path 364" d="M371.1,242.607a13.146,13.146,0,0,1-5.344,6.522L232.311,326.2a6.343,6.343,0,0,1-6.513.326l59.787-110.153Z" fill="#03143f"/>
        <path id="Path_365" data-name="Path 365" d="M205.475,218.779a13.146,13.146,0,0,1,5.344-6.522l133.442-77.072a6.343,6.343,0,0,1,6.513-.326L290.987,245.012Z" fill="#0b1f50"/>
      </g>
    </g>
  </g>
</svg>
