<svg xmlns="http://www.w3.org/2000/svg" xmlns:xlink="http://www.w3.org/1999/xlink" width="120" height="120" viewBox="0 0 120 120">
  <defs>
    <linearGradient id="linear-gradient" x1="0.5" x2="0.5" y2="1" gradientUnits="objectBoundingBox">
      <stop offset="0" stop-color="#2338b0"/>
      <stop offset="0.766" stop-color="#4726a6"/>
      <stop offset="1" stop-color="#4c24a5"/>
    </linearGradient>
  </defs>
  <g id="easytowithdraw" transform="translate(-1393 -866)">
    <g id="Group_15" data-name="Group 15" transform="translate(510)">
      <g id="address" transform="translate(-250 394)">
        <g id="Group_4" data-name="Group 4" transform="translate(1133 472)">
          <circle id="Ellipse_1" data-name="Ellipse 1" cx="60" cy="60" r="60" fill="url(#linear-gradient)"/>
        </g>
      </g>
    </g>
    <g id="Group_14" data-name="Group 14" transform="translate(-156.6 522.912)">
      <path id="Path_28" data-name="Path 28" d="M1585.6,385.8a15.828,15.828,0,0,1,.787-2.444,7.332,7.332,0,0,1,6.535-4.243c.972-.052,1.95-.014,2.925-.014q15.169,0,30.338,0a7.486,7.486,0,0,1,7.316,5.128,8.271,8.271,0,0,1,.405,2.5c.043,3.57.021,7.14.017,10.71a1.894,1.894,0,1,1-3.772-.027c0-3.523,0-7.046,0-10.569a3.747,3.747,0,0,0-2.823-3.82,4.457,4.457,0,0,0-1.165-.138q-16.4-.011-32.792,0a3.791,3.791,0,0,0-3.991,4.007q-.007,9.955,0,19.911a3.8,3.8,0,0,0,4.028,4.018c2.91,0,5.819-.01,8.729.006a1.879,1.879,0,0,1,1.688,2.851,1.758,1.758,0,0,1-1.558.91c-3.208.009-6.419.075-9.624-.029a7.472,7.472,0,0,1-6.945-6.358,2.014,2.014,0,0,0-.094-.3Z" fill="#fff" stroke="#2b33ad" stroke-width="1"/>
      <path id="Path_29" data-name="Path 29" d="M1727.051,608.171a7.1,7.1,0,0,1-4.2-2.5c-.587-.634-1.227-1.219-1.843-1.827-.381-.375-.767-.745-1.14-1.129a1.891,1.891,0,1,1,2.657-2.679c.937.909,1.857,1.835,2.785,2.753.109.108.224.21.418.391V602.6q0-8.233,0-16.467a1.925,1.925,0,0,1,1.172-1.97,1.873,1.873,0,0,1,2.595,1.573c.018.187.012.377.012.566q0,8.233,0,16.467v.588c.184-.167.3-.265.4-.37,1.007-.995,2-2.005,3.022-2.983a1.88,1.88,0,0,1,3.221.873,1.7,1.7,0,0,1-.444,1.659c-1.465,1.47-2.938,2.934-4.444,4.362a5.748,5.748,0,0,1-2.892,1.275Z" transform="translate(-117.854 -180.744)" fill="#fff" stroke="#2b33ad" stroke-width="1"/>
      <path id="Path_30" data-name="Path 30" d="M1709.392,452.456c.214-4.028,1.858-7.223,5.529-9.165a8.982,8.982,0,0,1,10.173,1.435,10.561,10.561,0,0,1,1.778,13.356,1.9,1.9,0,0,1-3.55-.523,2.168,2.168,0,0,1,.39-1.562,6.573,6.573,0,0,0,.976-3.871,6.3,6.3,0,0,0-3.021-5.26,5.365,5.365,0,0,0-7.532,2.153,6.9,6.9,0,0,0-.083,6.894,2.415,2.415,0,0,1,.428,1.647,1.882,1.882,0,0,1-3.444.686,9.8,9.8,0,0,1-1.523-4.266C1709.455,453.481,1709.433,452.979,1709.392,452.456Z" transform="translate(-109.187 -55.769)" fill="#fff" stroke="#2b33ad" stroke-width="1"/>
      <path id="Path_31" data-name="Path 31" d="M1845.056,609.461c-1.588,0-3.177.012-4.765,0a1.87,1.87,0,0,1-1.863-1.56,1.843,1.843,0,0,1,1.1-2.031,2.84,2.84,0,0,1,1.01-.17c2.878-.013,5.755,0,8.633-.01a3.738,3.738,0,0,0,3.793-2.793,5.877,5.877,0,0,0,.157-1.069,1.887,1.887,0,0,1,3.771.156,7.553,7.553,0,0,1-7.123,7.46c-1.57.061-3.145.01-4.717.01Z" transform="translate(-222.972 -194.873)" fill="#fff" stroke="#2b33ad" stroke-width="1"/>
      <path id="Path_32" data-name="Path 32" d="M1649.1,516.6a1.884,1.884,0,1,1,1.894-1.886A1.894,1.894,0,0,1,1649.1,516.6Z" transform="translate(-54.357 -117.96)" fill="#fff" stroke="#2b33ad" stroke-width="1"/>
      <path id="Path_33" data-name="Path 33" d="M1903.529,516.6a1.884,1.884,0,1,1,1.869-1.912A1.894,1.894,0,0,1,1903.529,516.6Z" transform="translate(-278.743 -117.962)" fill="#fff" stroke="#2b33ad" stroke-width="1"/>
    </g>
  </g>
</svg>
