<svg xmlns="http://www.w3.org/2000/svg" xmlns:xlink="http://www.w3.org/1999/xlink" width="120" height="120" viewBox="0 0 120 120">
  <defs>
    <linearGradient id="linear-gradient" x1="0.5" x2="0.5" y2="1" gradientUnits="objectBoundingBox">
      <stop offset="0" stop-color="#2338b0"/>
      <stop offset="0.766" stop-color="#4726a6"/>
      <stop offset="1" stop-color="#4c24a5"/>
    </linearGradient>
  </defs>
  <g id="easytojoincontest" transform="translate(-883 -866)">
    <g id="address" transform="translate(-250 394)">
      <g id="Group_4" data-name="Group 4" transform="translate(1133 472)">
        <circle id="Ellipse_1" data-name="Ellipse 1" cx="60" cy="60" r="60" fill="url(#linear-gradient)"/>
      </g>
    </g>
    <g id="Group_7" data-name="Group 7" transform="translate(-572.048 368.952)">
      <path id="Path_16" data-name="Path 16" d="M1507.128,651.3a33.447,33.447,0,0,1-4.589-1.156,15.871,15.871,0,0,1-10.226-12.554,19.267,19.267,0,0,1-.249-3.2c-.035-2.531,0-5.064-.013-7.6a5.091,5.091,0,0,1,2.712-4.708q5.615-3.265,11.235-6.52a4.949,4.949,0,0,1,5.789.7c.134.127.272.249.521.477v-.814q0-4.957,0-9.914a5.162,5.162,0,0,1,1.681-4.089,4.81,4.81,0,0,1,5.327-.931,4.921,4.921,0,0,1,3.125,4.5c.019.256.011.515.011.772q0,11.3,0,22.6v.883c.39-.383.688-.664.972-.958a11.819,11.819,0,0,1,3.945-2.935,10.02,10.02,0,0,1,9.37.7,1.8,1.8,0,0,1,.417,2.82c-.153.179-.324.343-.491.51q-8.193,8.194-16.388,16.387a16.656,16.656,0,0,1-8.553,4.7c-.669.138-1.348.229-2.023.342Zm7.726-27.4c-1.487-1.82-2.846-3.479-4.2-5.141-1.2-1.479-2.214-1.678-3.858-.725-3.542,2.052-7.071,4.126-10.621,6.163a2.9,2.9,0,0,0-1.6,2.777c.033,2.531-.065,5.066.038,7.593a17.071,17.071,0,0,0,.648,4.491,13.817,13.817,0,0,0,23.032,5.569q7.985-7.944,15.945-15.912c.129-.128.244-.271.388-.433-.143-.072-.235-.126-.331-.167a7.567,7.567,0,0,0-8.312,1.692c-1.059,1.034-2.1,2.091-3.14,3.14a1.176,1.176,0,0,1-1.565.226,2.755,2.755,0,0,1-1.374-2.7q.006-12.1,0-24.2c0-.3,0-.6-.026-.9a2.49,2.49,0,0,0-2.344-2.239,2.521,2.521,0,0,0-2.682,2.7q-.011,8.592,0,17.184Z" transform="translate(0 -61.371)" fill="#fff"/>
      <path id="Path_17" data-name="Path 17" d="M1613.794,534.1v-10.05h2.461V534.1Z" transform="translate(-97.645)" fill="#fff"/>
      <path id="Path_18" data-name="Path 18" d="M1543.721,551.51l1.6-1.616,7.035,7.043-1.632,1.573Z" transform="translate(-41.443 -20.73)" fill="#fff"/>
      <path id="Path_19" data-name="Path 19" d="M1517.771,622.486v-2.417h10.076v2.417Z" transform="translate(-20.631 -77.013)" fill="#fff"/>
      <path id="Path_20" data-name="Path 20" d="M1681.458,620.1v2.428H1671.39V620.1Z" transform="translate(-143.839 -77.041)" fill="#fff"/>
      <path id="Path_21" data-name="Path 21" d="M1653.983,558.614l-1.65-1.594,7.069-7.069,1.609,1.636Z" transform="translate(-128.555 -20.774)" fill="#fff"/>
    </g>
  </g>
</svg>
