<svg xmlns="http://www.w3.org/2000/svg" xmlns:xlink="http://www.w3.org/1999/xlink" width="120" height="120" viewBox="0 0 120 120">
  <defs>
    <linearGradient id="linear-gradient" x1="0.5" x2="0.5" y2="1" gradientUnits="objectBoundingBox">
      <stop offset="0" stop-color="#2338b0"/>
      <stop offset="0.766" stop-color="#4726a6"/>
      <stop offset="1" stop-color="#4c24a5"/>
    </linearGradient>
  </defs>
  <g id="full_protection" data-name="full protection" transform="translate(-1221 -866)">
    <g id="Group_11" data-name="Group 11" transform="translate(338)">
      <g id="address" transform="translate(-250 394)">
        <g id="Group_4" data-name="Group 4" transform="translate(1133 472)">
          <circle id="Ellipse_1" data-name="Ellipse 1" cx="60" cy="60" r="60" fill="url(#linear-gradient)"/>
        </g>
      </g>
    </g>
    <g id="fullprotection" transform="translate(-251.051 640)">
      <path id="Path_25" data-name="Path 25" d="M1532.74,310.617h-1.234c-.712-.292-1.442-.545-2.131-.881a33.793,33.793,0,0,1-15.185-14.5,32.587,32.587,0,0,1-4.045-14.144c-.125-2.51-.084-5.028-.094-7.543a3.749,3.749,0,0,1,2.494-3.628,8.631,8.631,0,0,0,5.384-5.428,3.707,3.707,0,0,1,2.065-2.174c.283-.127.584-.214.877-.319h22.41a4.449,4.449,0,0,1,3.308,3.113,8.071,8.071,0,0,0,4.948,4.74,3.852,3.852,0,0,1,2.663,3.8q.006,2.61,0,5.22a31.473,31.473,0,0,1-.965,8.077C1550.251,298.163,1543.543,306.168,1532.74,310.617Zm-.593-45.769h-10.4a1.081,1.081,0,0,0-1.245.856,11.277,11.277,0,0,1-6.77,6.806,1.07,1.07,0,0,0-.842,1.206c0,1.6.007,3.2,0,4.794a29.121,29.121,0,0,0,.517,6.041q3.275,15.981,18.013,23.006a1.571,1.571,0,0,0,1.442-.016,30.994,30.994,0,0,0,13.494-11.644,30.237,30.237,0,0,0,4.9-14.967c.126-2.367.072-4.744.093-7.117.007-.807-.171-1.055-.924-1.347a11.207,11.207,0,0,1-6.671-6.716c-.282-.733-.52-.9-1.307-.9Z" fill="#fff"/>
      <path id="Path_26" data-name="Path 26" d="M1657.969,361c.351.06.666.091.968.17a3.306,3.306,0,0,1,2.541,3.164c.03,2.911.062,5.824-.012,8.733a6.283,6.283,0,0,1-6.1,5.976q-3.346.055-6.693,0a6.284,6.284,0,0,1-6.094-5.986c-.074-2.909-.046-5.823-.01-8.733a3.338,3.338,0,0,1,3.063-3.249c.139-.015.276-.04.446-.065,0-1.353-.008-2.681,0-4.008a5.944,5.944,0,0,1,11.885-.226c.025,1.234.007,2.468.009,3.7C1657.969,360.648,1657.969,360.819,1657.969,361Zm-5.948,2.891c-1.93,0-3.86,0-5.79,0-.684,0-.835.158-.836.845,0,2.594-.009,5.189,0,7.783a3.508,3.508,0,0,0,3.7,3.683q2.871.007,5.743,0a3.526,3.526,0,0,0,3.8-3.777q.008-3.821,0-7.641c0-.75-.141-.894-.882-.9Q1654.893,363.888,1652.021,363.891Zm3.065-2.877a2.731,2.731,0,0,0,.032-.29c0-1.265.016-2.53,0-3.794a3.088,3.088,0,0,0-6.095-.662,6.74,6.74,0,0,0-.094,1.412c-.012,1.1,0,2.2,0,3.335Z" transform="translate(-119.897 -80.58)" fill="#fff"/>
      <path id="Path_27" data-name="Path 27" d="M1727.469,524.9c0-.426-.012-.853,0-1.278a1.419,1.419,0,1,1,2.837-.03q.035,1.325,0,2.651a1.406,1.406,0,0,1-1.4,1.433,1.421,1.421,0,0,1-1.434-1.45C1727.454,525.789,1727.469,525.346,1727.469,524.9Z" transform="translate(-196.768 -235.44)" fill="#fff"/>
    </g>
  </g>
</svg>
