<svg xmlns="http://www.w3.org/2000/svg" xmlns:xlink="http://www.w3.org/1999/xlink" width="203" height="65" viewBox="0 0 203 65">
  <defs>
    <clipPath id="clip-path">
      <rect id="Rectangle_35" data-name="Rectangle 35" width="203" height="65" transform="translate(8862.383 -2311.146)" fill="#fff"/>
    </clipPath>
  </defs>
  <g id="LOGO_okjaanu" transform="translate(-8862.383 2311.146)" clip-path="url(#clip-path)">
    <g id="okjannu" transform="translate(8865.542 -2306.588)">
      <path id="Union_6" data-name="Union 6" d="M37.365,33.135A5.245,5.245,0,0,1,35.738,29a11.779,11.779,0,0,1,.3-2.547l.407-1.91a7.628,7.628,0,0,0,.2-1.812q0-2.351-1.83-2.351a3.837,3.837,0,0,0-1.7.441,12.028,12.028,0,0,0-2.059,1.371l-2.643,12.1H21.1l3.47-15.677a20.951,20.951,0,0,1-4.283,1.13A21.538,21.538,0,0,1,18.2,27.527a13.339,13.339,0,0,1-4.321,5.143,9.955,9.955,0,0,1-5.745,1.812,8.877,8.877,0,0,1-5.948-1.861Q0,30.76,0,26.743a22.592,22.592,0,0,1,1.423-7.4A17.413,17.413,0,0,1,6,12.319a11.123,11.123,0,0,1,7.931-2.963q6.507,0,6.507,7.837v.049A2.121,2.121,0,0,0,21,17.29a10.787,10.787,0,0,0,3.864-.857l.208-.083L28.468.98,35.992,0,32.18,17.241,41.991,9.8h5.033L36.857,16.6a6.738,6.738,0,0,1,1.678-.2A5.26,5.26,0,0,1,42.7,18.025a6,6,0,0,1,1.423,4.114,7.86,7.86,0,0,1-.2,1.861l-.559,2.449a5.74,5.74,0,0,0-.254,1.567c0,1.208.46,2.47,1.782,2.47h0c2.729-.128,6.068-1.919,8.325-1.731-.517.394-1.084,3.695,0,4.162-2.6.052-2.7.578-5.446.989-2.6.389-5.256.629-5.527.653a.308.308,0,0,1-.1.019,6.989,6.989,0,0,1-4.779-1.443ZM11.082,14.694A20.412,20.412,0,0,0,8.54,20.327a20.82,20.82,0,0,0-.966,5.78,6.085,6.085,0,0,0,.559,3.159,2.3,2.3,0,0,0,2.033.808,3.4,3.4,0,0,0,2.44-1.347,11.958,11.958,0,0,0,2.135-3.674,22.992,22.992,0,0,0,1.322-5.167q-1.373-.294-1.373-2.057a2.556,2.556,0,0,1,1.576-2.645,4.889,4.889,0,0,0-.508-2.229,1.581,1.581,0,0,0-1.423-.612Q12.658,12.343,11.082,14.694Z" transform="translate(0 13.827)" fill="#293373" stroke="rgba(0,0,0,0)" stroke-miterlimit="10" stroke-width="1"/>
      <path id="Path_248" data-name="Path 248" d="M1.922-399.358v-4.823a2.415,2.415,0,0,0,.72.1q2.431,0,2.431-3.306V-443.8h6.652v36.65A9.122,9.122,0,0,1,9.886-401.2a6.408,6.408,0,0,1-5.261,2.246,8.864,8.864,0,0,1-2.7-.4Z" transform="translate(48.057 455.139)" fill="#fc217a" stroke="#fc217a" stroke-width="3"/>
      <path id="Path_244" data-name="Path 244" d="M668.44,536.412c-2.915-.626-3.037-6.163-1.681-8.638a3.008,3.008,0,0,1,1.32-1.475,3.448,3.448,0,0,1,2.192-.468,12.551,12.551,0,0,1,7.422,2.558,12.416,12.416,0,0,1,4.06,11c-.274,2.454-2.825,4.2-2.825,4.2l.02-4.834s-1.92-3.374-4.581-3.24C672.373,535.612,670.45,536.5,668.44,536.412Z" transform="translate(-618.023 -498.781)" fill="#293373"/>
      <path id="Path_252" data-name="Path 252" d="M19.86-14.509a15.685,15.685,0,0,1-4.784,3.269,12.688,12.688,0,0,1-4.864.983,8.367,8.367,0,0,1-2.831-.478A6.962,6.962,0,0,1,5.056-12.09,6.351,6.351,0,0,1,3.5-14.217a6.632,6.632,0,0,1-.571-2.791,7.905,7.905,0,0,1,1.063-3.934A10.582,10.582,0,0,1,7.169-24.33,19.768,19.768,0,0,1,12.5-26.881,34.623,34.623,0,0,1,20-28.33q0-1.86.013-3.508t.013-2.87a2.81,2.81,0,0,0-.691-1.927,2.8,2.8,0,0,0-2.206-.784,3.308,3.308,0,0,0-2.777,1.249,19.712,19.712,0,0,0-1.767,2.724,17.169,17.169,0,0,1-1.821,2.724,3.579,3.579,0,0,1-2.944,1.25,3.329,3.329,0,0,1-2.312-.864,2.946,2.946,0,0,1-.957-2.3,4.324,4.324,0,0,1,1.076-2.777A9.41,9.41,0,0,1,8.511-37.7a17.356,17.356,0,0,1,4.226-1.542,21.894,21.894,0,0,1,5.05-.571,20.651,20.651,0,0,1,4.093.372,9.77,9.77,0,0,1,3.1,1.13A5.431,5.431,0,0,1,26.92-36.4a5.29,5.29,0,0,1,.678,2.724q0,1.754-.04,4.04t-.08,4.678l-.08,4.784q-.04,2.392-.04,4.359a2.018,2.018,0,0,0,.651,1.621,2.205,2.205,0,0,0,1.475.558,3.56,3.56,0,0,0,1.316-.226,3.368,3.368,0,0,0,1.076-.7l.558.93a5.489,5.489,0,0,1-1.262,1.4,8.374,8.374,0,0,1-1.7,1.05,9.426,9.426,0,0,1-1.94.651,9.291,9.291,0,0,1-2.007.226,8.586,8.586,0,0,1-1.953-.226,5.216,5.216,0,0,1-1.728-.731,4.472,4.472,0,0,1-1.276-1.3,4.223,4.223,0,0,1-.625-1.94Zm-9.09-4.306a5.077,5.077,0,0,0,.983,3.336A3.276,3.276,0,0,0,14.411-14.3a7.72,7.72,0,0,0,2.91-.585,10.464,10.464,0,0,0,2.591-1.488v.027q0-2.153.013-4.731t.04-5.076a18.483,18.483,0,0,0-4.412,1.01,8.848,8.848,0,0,0-2.831,1.661,5.7,5.7,0,0,0-1.5,2.153,6.977,6.977,0,0,0-.452,2.514ZM51.7-14.509a15.685,15.685,0,0,1-4.784,3.269,12.688,12.688,0,0,1-4.864.983,8.367,8.367,0,0,1-2.831-.478A6.962,6.962,0,0,1,36.9-12.09a6.351,6.351,0,0,1-1.555-2.126,6.632,6.632,0,0,1-.571-2.791,7.905,7.905,0,0,1,1.063-3.934,10.582,10.582,0,0,1,3.176-3.389,19.769,19.769,0,0,1,5.329-2.551,34.623,34.623,0,0,1,7.5-1.449q0-1.86.013-3.508t.013-2.87a2.81,2.81,0,0,0-.691-1.927,2.8,2.8,0,0,0-2.206-.784,3.308,3.308,0,0,0-2.777,1.249,19.712,19.712,0,0,0-1.767,2.724A17.168,17.168,0,0,1,42.6-30.722a3.579,3.579,0,0,1-2.937,1.249,3.329,3.329,0,0,1-2.312-.864,2.946,2.946,0,0,1-.957-2.3,4.324,4.324,0,0,1,1.076-2.777A9.41,9.41,0,0,1,40.352-37.7a17.356,17.356,0,0,1,4.226-1.542,21.894,21.894,0,0,1,5.05-.571,20.651,20.651,0,0,1,4.093.372,9.77,9.77,0,0,1,3.1,1.13,5.431,5.431,0,0,1,1.94,1.914,5.29,5.29,0,0,1,.678,2.724q0,1.754-.04,4.04t-.08,4.678l-.08,4.784q-.04,2.392-.04,4.359a2.018,2.018,0,0,0,.651,1.621,2.2,2.2,0,0,0,1.475.558,3.56,3.56,0,0,0,1.316-.226,3.368,3.368,0,0,0,1.076-.7l.558.93a5.489,5.489,0,0,1-1.262,1.4,8.374,8.374,0,0,1-1.7,1.05,9.426,9.426,0,0,1-1.94.651,9.291,9.291,0,0,1-2.007.226,8.586,8.586,0,0,1-1.953-.226,5.216,5.216,0,0,1-1.728-.731,4.472,4.472,0,0,1-1.276-1.3,4.223,4.223,0,0,1-.625-1.94Zm-9.09-4.306a5.077,5.077,0,0,0,.983,3.336A3.276,3.276,0,0,0,46.252-14.3a7.72,7.72,0,0,0,2.91-.585,10.464,10.464,0,0,0,2.591-1.488v.027q0-2.153.013-4.731t.04-5.076a18.483,18.483,0,0,0-4.412,1.01,8.848,8.848,0,0,0-2.831,1.661,5.7,5.7,0,0,0-1.5,2.153,6.977,6.977,0,0,0-.452,2.514Zm24,6.8A5.671,5.671,0,0,0,69-13.9a5.017,5.017,0,0,0,.877-3V-29.977a6.377,6.377,0,0,0-.744-3.4,4.088,4.088,0,0,0-2.525-1.648v-.983a17.417,17.417,0,0,0,2.751-.558,23.4,23.4,0,0,0,2.684-.944,18.644,18.644,0,0,0,2.445-1.249,16.027,16.027,0,0,0,2.033-1.449h.957v3.11q0,.93-.04,1.887a14.817,14.817,0,0,1-.12,1.488l.159.053a20.7,20.7,0,0,1,2.5-2.14,25.567,25.567,0,0,1,3.152-1.99,22.063,22.063,0,0,1,3.4-1.475,10.4,10.4,0,0,1,3.309-.585,5.332,5.332,0,0,1,4.292,1.728A6.717,6.717,0,0,1,95.6-33.614V-16.9a5.891,5.891,0,0,0,.744,3.043,4.4,4.4,0,0,0,2.1,1.847v.983H84.95v-.983a7.941,7.941,0,0,0,2.339-2.007,4.7,4.7,0,0,0,.824-2.884V-30.828a5.134,5.134,0,0,0-.7-2.963,2.618,2.618,0,0,0-2.246-1.023,8.842,8.842,0,0,0-3.362.757,26.422,26.422,0,0,0-4.319,2.3V-16.9a4.5,4.5,0,0,0,.877,2.884,9.287,9.287,0,0,0,2.286,2.007v.983H66.611Zm56.292-1.3q0-.93.053-1.887t.053-1.488H122.9a25.467,25.467,0,0,1-2.458,2.179,25.722,25.722,0,0,1-3.056,2.073,20.939,20.939,0,0,1-3.322,1.555,9.516,9.516,0,0,1-3.256.625,5.187,5.187,0,0,1-4.213-1.728,6.755,6.755,0,0,1-1.449-4.492V-29.765a7.6,7.6,0,0,0-.651-3.349,3.866,3.866,0,0,0-2.4-1.914v-.983a15.228,15.228,0,0,0,2.738-.532,20.091,20.091,0,0,0,2.631-.957,18.79,18.79,0,0,0,2.365-1.262,15.725,15.725,0,0,0,1.967-1.449h.824v20.917a5.3,5.3,0,0,0,.731,3.056,2.622,2.622,0,0,0,2.246,1.063,6.357,6.357,0,0,0,3.177-.85A37.553,37.553,0,0,0,122.9-18.55V-29.42a9.073,9.073,0,0,0-.651-3.641,3.487,3.487,0,0,0-2.512-1.967v-.983a17.516,17.516,0,0,0,2.724-.558,23.4,23.4,0,0,0,2.684-.944,18.643,18.643,0,0,0,2.445-1.249,17.825,17.825,0,0,0,2.06-1.449h.877v21.183a7.3,7.3,0,0,0,.691,3.535,3.938,3.938,0,0,0,2.392,1.754v.957a34.355,34.355,0,0,0-5.13,1.05,24.648,24.648,0,0,0-4.545,1.794H122.9Z" transform="translate(63.435 58.126)" fill="#fc217a"/>
      <path id="Path_194" data-name="Path 194" d="M119.513,23.575q-1.086,0-1.086-1.041V17.511q0-1.131,1.086-1.131s1.887,2.653,3.607,2.653,3.272-2.653,3.272-2.653a.891.891,0,0,1,.747.317,1.279,1.279,0,0,1,.249.815v5.023a1.083,1.083,0,0,1-.747.838C126.028,23.623,124.37,23.575,119.513,23.575Z" transform="translate(-67.067 -16.38)" fill="#fc217a"/>
    </g>
  </g>
</svg>
