<svg xmlns="http://www.w3.org/2000/svg" xmlns:xlink="http://www.w3.org/1999/xlink" width="819" height="401" viewBox="0 0 819 401">
  <defs>
    <clipPath id="clip-path">
      <rect id="Rectangle_97" data-name="Rectangle 97" width="819" height="401" transform="translate(2709 4983)" fill="none"/>
    </clipPath>
  </defs>
  <g id="mastercard" transform="translate(-2709 -4983)" clip-path="url(#clip-path)">
    <g id="mastercard-2" data-name="mastercard" transform="translate(2749.237 4463.621)">
      <path id="Path_13298" data-name="Path 13298" d="M2409.306,1541.083a7.062,7.062,0,1,1-6.9,7.036,6.842,6.842,0,0,1,6.9-7.036v-1.41a8.471,8.471,0,1,0,8.556,8.446,8.458,8.458,0,0,0-8.556-8.446Z" transform="translate(-1715.215 -740.301)" fill="#fff"/>
      <g id="Group_1138" data-name="Group 1138" transform="translate(36.763 519.379)">
        <path id="Path_13299" data-name="Path 13299" d="M493.338,519.379a199.674,199.674,0,0,0-127.854,46.049,199.79,199.79,0,0,0-128.22-46.049c-110.731,0-200.5,89.771-200.5,200.5s89.77,200.5,200.5,200.5a199.805,199.805,0,0,0,128.221-46.049,199.7,199.7,0,0,0,127.854,46.049c110.734,0,200.5-89.767,200.5-200.5S604.071,519.379,493.338,519.379Zm.006,386.263a183.925,183.925,0,0,1-117.024-41.7,200.226,200.226,0,0,0,53.025-86.407H413.913a185.189,185.189,0,0,1-48.75,76.793,185.743,185.743,0,0,1-48.437-76.7h-15.44a200.39,200.39,0,0,0,52.484,86.186c-31.912,25.854-72.234,41.828-116.5,41.828-102.595,0-185.77-83.168-185.77-185.766S134.671,534.1,237.265,534.1c44.269,0,84.588,15.981,116.5,41.828a200.462,200.462,0,0,0-52.484,86.194l15.44,0a185.872,185.872,0,0,1,48.438-76.708,185.256,185.256,0,0,1,48.75,76.8h15.433A200.2,200.2,0,0,0,376.32,575.8a183.922,183.922,0,0,1,117.024-41.7c102.6,0,185.773,83.176,185.773,185.773S595.937,905.648,493.344,905.642Z" transform="translate(-36.763 -519.379)" fill="#fff"/>
        <path id="Path_13300" data-name="Path 13300" d="M2424.778,1558.2a2.546,2.546,0,0,0,2.538-2.684c0-1.932-1.146-2.78-3.456-2.78h-3.72v9.767h1.481v-4.232h1.7l2.573,4.232h1.662Zm-3.158-1.188v-3.022h2.011c1.029,0,2.128.228,2.128,1.431,0,1.5-1.117,1.591-2.378,1.591Z" transform="translate(-1766.084 -1269.155)" fill="#fff"/>
      </g>
      <path id="Path_13301" data-name="Path 13301" d="M1879.95,1226.835l12.827-68.747H1909l1.7,6.777c2.9-3.392,8.475-6.777,17.907-6.777l-5.083,17.91c-4.595,0-13.311-1.207-18.874,19.365l-5.812,31.471Z" transform="translate(-1337.372 -463.432)" fill="#fff"/>
      <path id="Path_13302" data-name="Path 13302" d="M938.431,1094.45h18.693l-3.837,18.213h10.062L960,1127.519h-9.585l-5.271,27.794c-.961,5.275-.477,10.065,10.308,8.389l-1.2,13.9c-4.076,2.634-9.585,3.356-13.9,3.356s-18.455-2.641-14.853-21.327l12.934-65.176Z" transform="translate(-644.422 -417.257)" fill="#fff"/>
      <path id="Path_13303" data-name="Path 13303" d="M1109.139,1195.65c2.153-11.027,7.19-38.34-25.641-38.34-30.2,0-34.029,29.958-34.748,34.264s-1.2,34.745,31.15,34.745c7.909.242,19.412-.715,23.968-3.114l2.872-14.134c-2.872.715-13.657,1.676-21.089,1.676s-19.4.481-17.255-15.1h40.743Zm-38.587-16.273h0l-.014.057h0l-.028.111c-.006.024-.012.051-.02.078l-.025.1c-.017.067-.035.141-.056.222l-.019.074c-.015.059-.031.121-.047.186l-.046.185c-.036.143-.074.295-.113.45l-.106.421-.131.524-.189.754c0,.019-.009.037-.014.055l-.024.1c-.034.138-.063.253-.085.338l-.011.045-.008.031-.017.068,0,.018c2.16-8.627,7.428-12.464,14.859-12.461s9.585,5.748,8.386,12.461H1069.6l0-.018.017-.068.008-.031.011-.045c.029-.115.057-.229.085-.338l.024-.1.014-.055c.055-.22.12-.479.189-.754l.131-.524.106-.421.113-.45.046-.185c.017-.066.032-.129.047-.186l.019-.074.056-.222.025-.1.02-.078.028-.111h0C1070.544,1179.407,1070.55,1179.388,1070.553,1179.377Z" transform="translate(-734.13 -462.867)" fill="#fff"/>
      <path id="Path_13304" data-name="Path 13304" d="M775.237,1172.8l4.31-13.9a44.647,44.647,0,0,0-18.455-2.637c-2.634,0-25.074-.274-28.513,16.3-2.637,12.7,2.015,17.96,6.467,19.885,7.19,3.114,11.269,5.994,15.1,7.912,4.741,2.371,3.872,10.3-2.4,10.3-2.879,0-15.34,1.438-24.683-1.676l-2.634,14.134c8.627,2.4,15.571,2.4,22.046,2.4,4.549,0,26.837,1.2,29.951-19.408,1.524-10.051-2.876-14.618-6.467-16.775a105.461,105.461,0,0,0-13.422-7.432c-3.833-1.673-6.709-8.144.242-10.058,4.313-.488,13.179-.488,18.454.953Z" transform="translate(-498.957 -462.062)" fill="#fff"/>
      <path id="Path_13305" data-name="Path 13305" d="M236.458,1189.562l15.575-82.912h-30.67l-22.772,50.324L195,1106.65H165.046l-16.056,82.912h18.689l11.5-59.9,5.036,59.9h17.735l26.121-58.466-11.027,58.466Z" transform="translate(-81.429 -426.11)" fill="#fff"/>
      <g id="Group_1139" data-name="Group 1139" transform="translate(163.641 694.193)">
        <path id="Path_13306" data-name="Path 13306" d="M547.287,1164.043l.476-.093Z" transform="translate(-534.065 -1161.878)" fill="#fff"/>
        <path id="Path_13307" data-name="Path 13307" d="M549.021,1163.937l.025,0Z" transform="translate(-535.323 -1161.865)" fill="#fff"/>
        <path id="Path_13308" data-name="Path 13308" d="M542.8,1165.161l.018,0A.126.126,0,0,1,542.8,1165.161Z" transform="translate(-530.812 -1162.754)" fill="#fff"/>
        <path id="Path_13309" data-name="Path 13309" d="M550.177,1163.286l.835-.164C550.756,1163.174,550.479,1163.229,550.177,1163.286Z" transform="translate(-536.161 -1161.277)" fill="#fff"/>
        <path id="Path_13310" data-name="Path 13310" d="M549.111,1163.778l.293-.057Z" transform="translate(-535.388 -1161.712)" fill="#fff"/>
        <path id="Path_13311" data-name="Path 13311" d="M542.869,1165l.314-.062Z" transform="translate(-530.859 -1162.593)" fill="#fff"/>
        <path id="Path_13312" data-name="Path 13312" d="M544.014,1164.854l.147-.029C544.113,1164.835,544.063,1164.846,544.014,1164.854Z" transform="translate(-531.69 -1162.513)" fill="#fff"/>
        <path id="Path_13313" data-name="Path 13313" d="M544.683,1164.429l.715-.14Z" transform="translate(-532.175 -1162.124)" fill="#fff"/>
        <path id="Path_13314" data-name="Path 13314" d="M544.55,1164.811l.036-.007Z" transform="translate(-532.079 -1162.498)" fill="#fff"/>
        <path id="Path_13315" data-name="Path 13315" d="M561.469,1161.474l.07-.014C561.517,1161.463,561.494,1161.468,561.469,1161.474Z" transform="translate(-544.355 -1160.071)" fill="#fff"/>
        <path id="Path_13316" data-name="Path 13316" d="M562.357,1161.315l.029-.006A.077.077,0,0,1,562.357,1161.315Z" transform="translate(-544.999 -1159.962)" fill="#fff"/>
        <path id="Path_13317" data-name="Path 13317" d="M562.462,1161.294Z" transform="translate(-545.075 -1159.946)" fill="#fff"/>
        <path id="Path_13318" data-name="Path 13318" d="M535.538,1156.4c-5.748.249-12.216.007-24.441,2.406l-2.879,14.853c4.559-.477,16.778-2.392,23.245-2.157s13.66-.719,11.5,9.582c-4.794.487-38.343-4.791-43.611,23.961-2.157,14.148,10.058,21.334,19.647,20.853s12.222-1.683,15.579-4.075l2.4,3.83h17.49l7.432-37.379C563.819,1178.93,566.926,1156.4,535.538,1156.4Zm2.879,46.021c-1.206,6.236-10.058,10.211-16.056,7.905-6.232-2.4-4.559-9.585,1.435-13.66s12.945-2.157,16.059-1.676Z" transform="translate(-499.104 -1156.4)" fill="#fff"/>
        <path id="Path_13319" data-name="Path 13319" d="M561.723,1161.369l.174-.034C561.856,1161.342,561.8,1161.356,561.723,1161.369Z" transform="translate(-544.539 -1159.981)" fill="#fff"/>
        <path id="Path_13320" data-name="Path 13320" d="M559.721,1161.669l.349-.068C559.972,1161.62,559.856,1161.645,559.721,1161.669Z" transform="translate(-543.086 -1160.174)" fill="#fff"/>
        <path id="Path_13321" data-name="Path 13321" d="M553.222,1162.2l1.784-.35C554.525,1161.947,553.88,1162.076,553.222,1162.2Z" transform="translate(-538.371 -1160.358)" fill="#fff"/>
        <path id="Path_13322" data-name="Path 13322" d="M560.992,1161.532l.131-.026C561.082,1161.516,561.039,1161.524,560.992,1161.532Z" transform="translate(-544.009 -1160.105)" fill="#fff"/>
      </g>
      <g id="Group_1140" data-name="Group 1140" transform="translate(420.546 676.235)">
        <path id="Path_13323" data-name="Path 13323" d="M1479.829,1091.755c-12.931-.477-35.108,8.965-42.176,34.749-9.578,34.991,11.507,52.238,30.915,52.238,10.308,0,16.536-1.438,22.765-4.31l-5.513-16.774c-19.167,6.467-32.827-3.356-29.712-23.245,2.634-16.807,16.536-22.761,22.765-22.761s9.578.473,14.376,3.349h0l12.226-12.218C1500.682,1097.507,1495.164,1092.326,1479.829,1091.755Z" transform="translate(-1435.267 -1091.525)" fill="#fff"/>
        <path id="Path_13324" data-name="Path 13324" d="M2095.633,1090.96l-5.029,26.356h0c-3.6-2.637-5.755-8.147-14.618-8.147-10.3,0-26.36-1.918-35.468,29.232-6.083,20.828,6.229,39.778,19.648,39.778a32.841,32.841,0,0,0,16.294-5.506l2.406,5.506h20.124l16.294-87.219Zm-11.74,54.391c-3.36,8.386-7.667,13.9-14.621,13.9-6.471,0-12.219-7.432-9.585-17.255,4.032-15.023,17.255-21.085,23-13.418C2084.763,1131.339,2085.812,1139.122,2083.893,1145.351Z" transform="translate(-1873.263 -1090.96)" fill="#fff"/>
      </g>
      <g id="Group_1141" data-name="Group 1141" transform="translate(479.954 694.193)">
        <path id="Path_13325" data-name="Path 13325" d="M1697.31,1164.445l.685-.135Z" transform="translate(-1684.807 -1162.14)" fill="#fff"/>
        <path id="Path_13326" data-name="Path 13326" d="M1699.81,1163.882l.825-.162Z" transform="translate(-1686.621 -1161.711)" fill="#fff"/>
        <path id="Path_13327" data-name="Path 13327" d="M1702.81,1163.29l.828-.162C1703.384,1163.178,1703.109,1163.233,1702.81,1163.29Z" transform="translate(-1688.798 -1161.282)" fill="#fff"/>
        <path id="Path_13328" data-name="Path 13328" d="M1710.91,1162.1l.05-.01A.425.425,0,0,1,1710.91,1162.1Z" transform="translate(-1694.675 -1160.532)" fill="#fff"/>
        <path id="Path_13329" data-name="Path 13329" d="M1705.83,1162.406l1.4-.274C1706.81,1162.214,1706.324,1162.31,1705.83,1162.406Z" transform="translate(-1690.989 -1160.559)" fill="#fff"/>
        <path id="Path_13330" data-name="Path 13330" d="M1695.5,1164.987l.334-.066C1695.659,1164.954,1695.541,1164.979,1695.5,1164.987Z" transform="translate(-1683.493 -1162.583)" fill="#fff"/>
        <path id="Path_13331" data-name="Path 13331" d="M1696.72,1164.856l.123-.024Z" transform="translate(-1684.378 -1162.518)" fill="#fff"/>
        <path id="Path_13332" data-name="Path 13332" d="M1697.17,1164.81l.039-.008Z" transform="translate(-1684.705 -1162.496)" fill="#fff"/>
        <path id="Path_13333" data-name="Path 13333" d="M1695.44,1165.161l.017,0A.162.162,0,0,1,1695.44,1165.161Z" transform="translate(-1683.45 -1162.754)" fill="#fff"/>
        <path id="Path_13334" data-name="Path 13334" d="M1714.36,1161.369l.174-.034C1714.492,1161.342,1714.434,1161.356,1714.36,1161.369Z" transform="translate(-1697.178 -1159.981)" fill="#fff"/>
        <path id="Path_13335" data-name="Path 13335" d="M1714.99,1161.315l.029-.006A.072.072,0,0,1,1714.99,1161.315Z" transform="translate(-1697.635 -1159.962)" fill="#fff"/>
        <path id="Path_13336" data-name="Path 13336" d="M1711.1,1161.92l.346-.068C1711.336,1161.874,1711.221,1161.9,1711.1,1161.92Z" transform="translate(-1694.812 -1160.356)" fill="#fff"/>
        <path id="Path_13337" data-name="Path 13337" d="M1688.178,1156.4c-5.748.249-12.215.007-24.441,2.406l-2.872,14.853c4.552-.477,16.774-2.392,23.238-2.157s13.667-.719,11.5,9.582c-4.791.487-38.336-4.791-43.608,23.961-2.16,14.148,10.058,21.334,19.647,20.853s12.222-1.683,15.579-4.075l2.4,3.83h17.483l7.438-37.379C1716.458,1178.93,1719.573,1156.4,1688.178,1156.4Zm2.879,46.021c-1.2,6.236-10.051,10.211-16.052,7.905-6.236-2.4-4.563-9.585,1.431-13.66s12.945-2.157,16.059-1.676Z" transform="translate(-1651.748 -1156.4)" fill="#fff"/>
        <path id="Path_13338" data-name="Path 13338" d="M1715.1,1161.294Z" transform="translate(-1697.715 -1159.946)" fill="#fff"/>
        <path id="Path_13339" data-name="Path 13339" d="M1712.36,1161.678l.333-.065Z" transform="translate(-1695.727 -1160.183)" fill="#fff"/>
        <path id="Path_13340" data-name="Path 13340" d="M1713.57,1161.527l.159-.031C1713.68,1161.508,1713.628,1161.516,1713.57,1161.527Z" transform="translate(-1696.605 -1160.098)" fill="#fff"/>
        <path id="Path_13341" data-name="Path 13341" d="M1714.15,1161.47l.058-.011A.475.475,0,0,0,1714.15,1161.47Z" transform="translate(-1697.026 -1160.071)" fill="#fff"/>
      </g>
      <path id="Path_13342" data-name="Path 13342" d="M1271.29,1228.85l12.7-68.052h16.06l1.676,6.709c2.872-3.36,8.382-6.709,17.725-6.709l-4.791,17.97c-4.552,0-13.422-1.434-18.928,18.931l-5.748,31.151Z" transform="translate(-895.743 -465.398)" fill="#fff"/>
    </g>
  </g>
</svg>
