<?xml version="1.0" encoding="utf-8"?>
<!-- Generator: Adobe Illustrator 16.0.0, SVG Export Plug-In . SVG Version: 6.00 Build 0)  -->
<!DOCTYPE svg PUBLIC "-//W3C//DTD SVG 1.1//EN" "http://www.w3.org/Graphics/SVG/1.1/DTD/svg11.dtd">
<svg version="1.1" id="Layer_1" xmlns="http://www.w3.org/2000/svg" xmlns:xlink="http://www.w3.org/1999/xlink" x="0px" y="0px"
	 width="2500px" height="2500px" viewBox="0 0 2500 2500" enable-background="new 0 0 2500 2500" xml:space="preserve">
<path fill="#FFFFFF" d="M2432.058,1544.809c13.955,0,24.979,11.023,24.979,25.641c0,14.863-11.024,25.811-24.979,25.811
	c-14.137,0-25.148-10.947-25.148-25.811C2406.896,1555.832,2417.921,1544.809,2432.058,1544.809v-5.137
	c-17.004,0-31.361,13.074-31.361,30.777c0,17.885,14.357,30.959,31.361,30.959c16.822,0,31.18-13.074,31.18-30.959
	c0-17.703-14.357-30.777-31.18-30.777V1544.809z"/>
<g>
	<path fill="#FFFFFF" d="M1700.524,519.38c-170.143-0.258-334.996,59.117-465.9,167.804
		C1108.026,581.907,944.893,519.38,767.389,519.38c-403.503,0-730.626,327.124-730.626,730.626s327.123,730.613,730.626,730.613
		c177.517,0,340.65-62.541,467.235-167.803c130.907,108.68,295.759,168.053,465.9,167.803
		c403.515,0,730.612-327.111,730.612-730.613C2431.137,846.491,2104.026,519.38,1700.524,519.38z M1700.537,1926.924
		c-162.252,0-309.835-56.77-426.434-151.941c88.908-85.846,156.792-193.354,193.224-314.866h-56.236
		c-35.239,108.038-97.17,203.366-177.646,279.835c-81.033-77.15-141.678-173.184-176.506-279.511h-56.263
		c35.917,119.288,101.755,227.403,191.252,314.063c-116.287,94.211-263.222,152.42-424.539,152.42
		c-373.854,0-676.944-303.064-676.944-676.931s303.091-676.957,676.944-676.957c161.317,0,308.239,58.234,424.539,152.421
		c-89.491,86.674-155.329,194.796-191.252,314.089l56.263-0.013c34.845-106.323,95.486-202.358,176.506-279.524
		c80.477,76.495,142.407,171.823,177.646,279.861h56.236c-36.419-121.514-104.315-229.033-193.224-314.88
		c116.599-95.173,264.182-151.941,426.434-151.941c373.866,0,676.956,303.091,676.956,676.957
		C2377.493,1623.873,2074.39,1926.938,1700.537,1926.924z"/>
	<path fill="#FFFFFF" d="M2437.038,1572.641c5.214-0.66,9.247-3.424,9.247-9.779c0-7.041-4.176-10.129-12.593-10.129h-13.554v35.59
		h5.396V1572.9h6.199l9.377,15.422h6.057L2437.038,1572.641z M2425.534,1568.309v-11.01h7.327c3.749,0,7.757,0.83,7.757,5.213
		c0,5.473-4.073,5.797-8.664,5.797H2425.534z"/>
</g>
<path fill="#FFFFFF" d="M1879.948,1408.601l46.742-250.512h59.104l6.187,24.695c10.558-12.36,30.882-24.695,65.251-24.695
	l-18.521,65.265c-16.744,0-48.507-4.397-68.778,70.568l-21.18,114.679H1879.948L1879.948,1408.601z"/>
<path fill="#FFFFFF" d="M974.165,1094.446h68.117l-13.981,66.367h36.666l-12.218,54.135h-34.928l-19.208,101.281
	c-3.502,19.222-1.738,36.679,37.561,30.57l-4.371,50.634c-14.851,9.598-34.928,12.23-50.646,12.23
	c-15.707,0-67.249-9.624-54.123-77.715L974.165,1094.446L974.165,1094.446z"/>
<path fill="#FFFFFF" d="M1269.331,1297.021c7.847-40.181,26.199-139.71-93.435-139.71c-110.035,0-124.003,109.166-126.623,124.859
	c-2.607,15.732-4.371,126.611,113.511,126.611c28.819,0.882,70.737-2.607,87.339-11.349l10.467-51.503
	c-10.467,2.606-49.766,6.108-76.847,6.108c-27.067,0-70.711,1.751-62.877-55.018H1269.331z M1128.721,1237.716
	C1128.741,1237.636,1128.74,1237.637,1128.721,1237.716c-0.011,0.044-0.027,0.109-0.052,0.206c0,0,0,0.001,0,0.001
	c-0.026,0.103-0.06,0.239-0.101,0.405c-0.022,0.088-0.046,0.185-0.072,0.286c-0.028,0.112-0.059,0.234-0.092,0.368
	c-0.062,0.244-0.129,0.515-0.203,0.81c-0.022,0.087-0.044,0.175-0.067,0.268c-0.055,0.216-0.111,0.442-0.17,0.678
	c-0.053,0.212-0.109,0.438-0.169,0.675c-0.131,0.522-0.27,1.075-0.411,1.642c-0.119,0.476-0.247,0.985-0.384,1.534
	c-0.162,0.645-0.323,1.288-0.479,1.911c-0.211,0.842-0.441,1.761-0.688,2.748c-0.017,0.069-0.034,0.135-0.051,0.202
	c-0.029,0.119-0.059,0.237-0.089,0.358c-0.125,0.501-0.23,0.921-0.308,1.23c-0.014,0.055-0.027,0.108-0.041,0.163
	c-0.01,0.041-0.02,0.08-0.028,0.114c-0.021,0.083-0.041,0.162-0.062,0.247c-0.01,0.039-0.016,0.064-0.016,0.064
	c7.872-31.438,27.067-45.42,54.148-45.407c27.068,0,34.928,20.946,30.557,45.407h-84.705c0.006-0.021,0.011-0.043,0.016-0.064
	c0.013-0.052,0.034-0.135,0.062-0.247c0.01-0.038,0.019-0.075,0.028-0.114c0.013-0.051,0.026-0.104,0.041-0.163
	c0.105-0.421,0.208-0.833,0.308-1.23c0.029-0.115,0.059-0.235,0.089-0.358c0.017-0.067,0.034-0.136,0.051-0.202
	c0.2-0.8,0.438-1.746,0.688-2.748c0.171-0.684,0.33-1.317,0.479-1.911c0.129-0.516,0.258-1.03,0.384-1.534
	c0.151-0.604,0.288-1.151,0.411-1.642c0.058-0.232,0.114-0.457,0.169-0.675c0.061-0.241,0.117-0.468,0.17-0.678
	c0.022-0.091,0.045-0.181,0.067-0.268c0.076-0.304,0.144-0.575,0.203-0.81c0.033-0.131,0.063-0.254,0.092-0.368
	c0.026-0.104,0.05-0.2,0.072-0.286c0.041-0.163,0.074-0.298,0.101-0.405c0,0,0,0,0-0.001
	C1128.691,1237.833,1128.709,1237.761,1128.721,1237.716z"/>
<path fill="#FFFFFF" d="M909.563,1216.687l15.706-50.646c-32.32-12.218-57.624-9.61-67.248-9.61c-9.598,0-91.371-0.999-103.9,59.388
	c-9.61,46.276,7.341,65.446,23.566,72.463c26.198,11.348,41.063,21.841,55.03,28.831c17.276,8.638,14.111,37.548-8.741,37.548
	c-10.493,0-55.9,5.24-89.945-6.108l-9.598,51.503c31.438,8.741,56.742,8.741,80.334,8.741c16.576,0,97.793,4.384,109.141-70.724
	c5.552-36.627-10.479-53.268-23.565-61.127c-13.087-8.742-34.928-20.946-48.909-27.081c-13.969-6.096-24.448-29.675,0.882-36.652
	C858.034,1211.435,890.342,1211.435,909.563,1216.687C909.563,1216.687,890.342,1211.435,909.563,1216.687L909.563,1216.687z"/>
<polygon fill="#FFFFFF" points="467.722,1408.782 524.478,1106.651 412.717,1106.651 329.736,1290.031 316.65,1106.651 
	207.497,1106.651 148.99,1408.782 217.094,1408.782 259,1190.488 277.352,1408.782 341.979,1408.782 437.165,1195.728 
	396.984,1408.782 467.722,1408.782 "/>
<g>
	<path fill="#FFFFFF" d="M547.287,1164.291c0.598-0.117,1.176-0.231,1.733-0.34C548.417,1164.069,547.837,1164.183,547.287,1164.291
		z"/>
	<path fill="#FFFFFF" d="M549.021,1163.951c0.03-0.006,0.061-0.012,0.091-0.018C549.081,1163.939,549.051,1163.945,549.021,1163.951
		z"/>
	<path fill="#FFFFFF" d="M542.804,1165.171c0,0,0.027-0.005,0.065-0.013C542.847,1165.163,542.826,1165.167,542.804,1165.171z"/>
	<path fill="#FFFFFF" d="M550.177,1163.724c0.994-0.195,2.022-0.397,3.044-0.598C552.288,1163.31,551.277,1163.508,550.177,1163.724
		z"/>
	<path fill="#FFFFFF" d="M549.111,1163.933c0.359-0.07,0.723-0.142,1.066-0.209C549.816,1163.794,549.46,1163.865,549.111,1163.933z
		"/>
	<path fill="#FFFFFF" d="M542.869,1165.158c0.393-0.077,0.766-0.15,1.145-0.225C543.416,1165.051,543.014,1165.129,542.869,1165.158
		z"/>
	<path fill="#FFFFFF" d="M544.014,1164.933c0.165-0.032,0.343-0.067,0.537-0.105
		C544.375,1164.862,544.191,1164.898,544.014,1164.933z"/>
	<path fill="#FFFFFF" d="M544.683,1164.802c0.72-0.141,1.609-0.315,2.604-0.511C546.456,1164.454,545.595,1164.624,544.683,1164.802
		z"/>
	<path fill="#FFFFFF" d="M544.55,1164.828c0.043-0.008,0.089-0.018,0.132-0.026C544.637,1164.811,544.594,1164.82,544.55,1164.828z"
		/>
	<path fill="#FFFFFF" d="M561.469,1161.508c0.089-0.018,0.175-0.034,0.254-0.05C561.644,1161.474,561.56,1161.491,561.469,1161.508z
		"/>
	<path fill="#FFFFFF" d="M562.357,1161.334c0.041-0.008,0.073-0.014,0.104-0.021
		C562.432,1161.319,562.397,1161.326,562.357,1161.334z"/>
	<path fill="#FFFFFF" d="M562.462,1161.313C562.646,1161.277,562.636,1161.279,562.462,1161.313L562.462,1161.313z"/>
	<path fill="#FFFFFF" d="M631.867,1156.403c-20.946,0.908-44.513,0.025-89.063,8.768l-10.492,54.123
		c16.614-1.738,61.139-8.716,84.705-7.86c23.592,0.882,49.778-2.62,41.918,34.915c-17.47,1.776-139.723-17.457-158.918,87.313
		c-7.859,51.555,36.652,77.74,71.593,75.99c34.94-1.752,44.538-6.135,56.769-14.851l8.742,13.955h63.733l27.081-136.208
		C734.925,1238.502,746.247,1156.403,631.867,1156.403z M642.359,1324.103c-4.396,22.723-36.652,37.21-58.507,28.806
		c-22.71-8.741-16.613-34.928,5.228-49.778c21.841-14.85,47.171-7.859,58.52-6.108L642.359,1324.103z"/>
	<path fill="#FFFFFF" d="M561.723,1161.458c0.282-0.056,0.492-0.097,0.634-0.125
		C562.208,1161.363,561.993,1161.405,561.723,1161.458z"/>
	<path fill="#FFFFFF" d="M559.721,1161.851c0.471-0.092,0.898-0.176,1.271-0.249
		C560.635,1161.672,560.211,1161.755,559.721,1161.851z"/>
	<path fill="#FFFFFF" d="M553.222,1163.126c2.896-0.568,5.013-0.983,6.499-1.275
		C557.969,1162.195,555.618,1162.656,553.222,1163.126z"/>
	<path fill="#FFFFFF" d="M560.992,1161.602c0.173-0.034,0.333-0.065,0.477-0.094
		C561.321,1161.537,561.164,1161.568,560.992,1161.602z"/>
</g>
<g>
	<path fill="#FFFFFF" d="M1597.647,1091.801c-47.119-1.738-127.934,32.671-153.691,126.624
		c-34.901,127.506,41.932,190.357,112.655,190.357c37.561,0,60.258-5.24,82.955-15.707l-20.091-61.126
		c-69.842,23.565-119.62-12.23-108.271-84.706c9.598-61.243,60.258-82.941,82.955-82.941s34.901,1.725,52.385,12.205v-0.001
		l44.551-44.524C1673.638,1112.76,1653.534,1093.876,1597.647,1091.801z"/>
	<path fill="#FFFFFF" d="M2245.579,1090.958l-18.326,96.041h-0.001c-13.125-9.61-20.972-29.688-53.267-29.688
		c-37.548,0-96.055-6.991-129.244,106.521c-22.165,75.899,22.697,144.95,71.594,144.95c22.723-0.856,45.42-10.467,59.375-20.064
		l8.768,20.064h73.332l59.375-317.824H2245.579z M2202.804,1289.162c-12.243,30.557-27.937,50.646-53.279,50.646
		c-23.579,0-44.525-27.081-34.928-62.877c14.694-54.745,62.877-76.833,83.823-48.896
		C2205.969,1238.1,2209.795,1266.465,2202.804,1289.162z"/>
</g>
<g>
	<path fill="#FFFFFF" d="M1697.311,1164.804c0.692-0.136,1.543-0.303,2.496-0.49
		C1699.009,1164.471,1698.182,1164.633,1697.311,1164.804z"/>
	<path fill="#FFFFFF" d="M1699.807,1164.314c1.063-0.208,2.07-0.406,3.006-0.59
		C1701.752,1163.932,1700.731,1164.132,1699.807,1164.314z"/>
	<path fill="#FFFFFF" d="M1702.813,1163.724c0.985-0.193,2.005-0.394,3.019-0.592
		C1704.904,1163.314,1703.902,1163.51,1702.813,1163.724z"/>
	<path fill="#FFFFFF" d="M1710.914,1162.134c0.061-0.012,0.121-0.023,0.182-0.035
		C1711.037,1162.11,1710.974,1162.123,1710.914,1162.134z"/>
	<path fill="#FFFFFF" d="M1705.831,1163.132c2.076-0.408,3.75-0.736,5.083-0.998
		C1709.399,1162.432,1707.627,1162.779,1705.831,1163.132z"/>
	<path fill="#FFFFFF" d="M1695.504,1165.158c0.418-0.082,0.814-0.16,1.217-0.239
		C1696.082,1165.044,1695.653,1165.129,1695.504,1165.158z"/>
	<path fill="#FFFFFF" d="M1696.721,1164.919c0.141-0.027,0.289-0.057,0.449-0.088
		C1697.023,1164.86,1696.869,1164.89,1696.721,1164.919z"/>
	<path fill="#FFFFFF" d="M1697.17,1164.832c0.046-0.009,0.095-0.019,0.141-0.028
		C1697.262,1164.813,1697.217,1164.822,1697.17,1164.832z"/>
	<path fill="#FFFFFF" d="M1695.439,1165.171c0,0,0.026-0.005,0.064-0.013C1695.482,1165.163,1695.462,1165.167,1695.439,1165.171z"
		/>
	<path fill="#FFFFFF" d="M1714.359,1161.458c0.281-0.056,0.491-0.097,0.634-0.125
		C1714.845,1161.363,1714.629,1161.405,1714.359,1161.458z"/>
	<path fill="#FFFFFF" d="M1714.993,1161.334c0.042-0.008,0.074-0.014,0.104-0.021
		C1715.068,1161.319,1715.033,1161.326,1714.993,1161.334z"/>
	<path fill="#FFFFFF" d="M1711.096,1162.099c0.465-0.092,0.881-0.173,1.261-0.248
		C1711.963,1161.928,1711.543,1162.011,1711.096,1162.099z"/>
	<path fill="#FFFFFF" d="M1784.503,1156.403c-20.946,0.908-44.512,0.025-89.063,8.768l-10.466,54.123
		c16.588-1.738,61.126-8.716,84.68-7.86c23.604,0.882,49.804-2.62,41.918,34.915c-17.457,1.776-139.697-17.457-158.906,87.313
		c-7.872,51.555,36.653,77.74,71.594,75.99c34.94-1.752,44.538-6.135,56.769-14.851l8.741,13.955h63.708l27.106-136.208
		C1887.548,1238.502,1898.896,1156.403,1784.503,1156.403z M1794.995,1324.103c-4.383,22.723-36.626,37.21-58.493,28.806
		c-22.723-8.741-16.627-34.928,5.214-49.778c21.841-14.85,47.171-7.859,58.52-6.108L1794.995,1324.103z"/>
	<path fill="#FFFFFF" d="M1715.098,1161.313C1715.283,1161.277,1715.271,1161.279,1715.098,1161.313L1715.098,1161.313z"/>
	<path fill="#FFFFFF" d="M1712.356,1161.851c0.445-0.087,0.854-0.167,1.212-0.237
		C1713.225,1161.681,1712.821,1161.76,1712.356,1161.851z"/>
	<path fill="#FFFFFF" d="M1713.568,1161.614c0.215-0.042,0.41-0.081,0.58-0.114
		C1713.972,1161.535,1713.781,1161.572,1713.568,1161.614z"/>
	<path fill="#FFFFFF" d="M1714.148,1161.5c0.073-0.014,0.145-0.028,0.211-0.041
		C1714.293,1161.471,1714.224,1161.485,1714.148,1161.5z"/>
</g>
<path fill="#FFFFFF" d="M1271.289,1408.782l46.276-247.982h58.52l6.109,24.448c10.466-12.243,30.543-24.448,64.589-24.448
	l-17.457,65.484c-16.589,0-48.909-5.227-68.974,68.986l-20.945,113.512H1271.289z"/>
</svg>
