<?xml version="1.0" encoding="utf-8"?>
<!-- Generator: Adobe Illustrator 16.0.0, SVG Export Plug-In . SVG Version: 6.00 Build 0)  -->
<!DOCTYPE svg PUBLIC "-//W3C//DTD SVG 1.1//EN" "http://www.w3.org/Graphics/SVG/1.1/DTD/svg11.dtd">
<svg version="1.1" id="Layer_1" xmlns="http://www.w3.org/2000/svg" xmlns:xlink="http://www.w3.org/1999/xlink" x="0px" y="0px"
	 width="1848.185px" height="579.058px" viewBox="322.227 103.791 1848.185 579.058"
	 enable-background="new 322.227 103.791 1848.185 579.058" xml:space="preserve">
<g>
	<path fill="#FFFFFF" d="M2121.889,279.653c-16.444-46.875-60.706-78.252-110.385-78.247h-1.043
		c-33.178,0-63.017,13.772-84.298,35.889c-22.054-22.987-52.55-35.952-84.405-35.889h-1.043c-29.215,0-55.816,10.64-76.161,28.273
		v-8.969c-0.657-9.016-8.178-15.988-17.215-15.964h-78.248c-9.565,0-17.319,7.756-17.319,17.32l0,0v424.938
		c0,9.598,7.724,17.317,17.319,17.317h78.248c8.598-0.026,15.859-6.397,17.006-14.919V344.343l0.104-3.131
		c1.19-14.243,12.747-25.395,27.023-26.083h14.398c15.41,0.894,27.374,13.784,27.127,29.215l0.313,303.601
		c0,9.601,7.721,17.32,17.319,17.32h78.248c9.18,0,16.691-7.306,17.11-16.482V343.926c-0.306-15.452,11.691-28.372,27.128-29.212
		h14.396c17.008,1.463,27.128,14.296,27.128,29.212l0.313,303.184c0,9.598,7.825,17.32,17.32,17.32h78.247
		c9.564,0,17.317-7.753,17.317-17.317c0-0.003,0-0.003,0-0.003V321.079C2127.833,298.851,2125.33,289.355,2121.889,279.653
		 M1592.199,205.891h-44.863v-72.717c0.049-8.703-6.967-15.792-15.67-15.839c-1.044-0.006-2.086,0.092-3.108,0.298
		c-49.56,13.665-39.646,82.421-130.206,88.261h-8.766c-1.262,0.009-2.52,0.149-3.756,0.417h-0.207
		c-7.924,1.761-13.559,8.787-13.563,16.903v78.25c0,9.392,7.823,17.216,17.422,17.216h47.261l-0.103,331.77
		c0,9.493,7.615,17.216,17.109,17.216h77.309c9.392,0,17.11-7.723,17.11-17.108V318.778h43.821c9.564,0,17.316-7.756,17.316-17.32
		l0,0v-78.25C1609.311,213.728,1601.686,206.007,1592.199,205.891"/>
	<path fill="#FFFFFF" d="M1310.611,205.891h-78.248c-9.525,0.06-17.214,7.794-17.214,17.32v161.71
		c-0.173,10.021-8.341,18.051-18.365,18.051h-32.756c-10.1,0-18.304-8.158-18.362-18.256l-0.314-161.505
		c0-9.564-7.756-17.32-17.317-17.32h-78.248c-9.526,0.06-17.214,7.794-17.214,17.32v177.363c0,67.297,47.99,115.282,115.389,115.282
		c0,0,50.599,0,52.165,0.319c10.004,1.257,17.095,10.384,15.835,20.392c-1.031,8.203-7.441,14.687-15.628,15.813l-1.354,0.205
		l-114.45,0.417c-9.525,0.06-17.217,7.798-17.217,17.32v78.247c0,9.493,7.72,17.213,17.217,17.213h128.012
		c67.399,0,115.389-47.989,115.389-115.387V223.217C1327.934,213.647,1320.178,205.891,1310.611,205.891L1310.611,205.891
		 M553.28,349.242v48.305c0,10.139-8.221,18.363-18.362,18.363h-49.659v-96.715h49.659c10.12,0,18.362,8.138,18.362,18.259V349.242z
		 M560.166,205.891H389.063c-9.312,0.06-16.845,7.592-16.903,16.903v425.251c0,9.389,6.99,17.108,15.753,17.317h79.71
		c9.566,0,17.322-7.753,17.322-17.317l0.314-118.936h74.907c62.6,0,106.209-43.508,106.209-106.419V312.414
		C666.375,249.503,622.762,205.891,560.166,205.891 M877.954,532.969v12.207c-0.067,1.848-0.42,3.68-1.042,5.42
		c-2.734,7.22-9.709,11.939-17.422,11.79h-32.549c-10.225,0-18.469-7.72-18.469-17.213v-14.814v-52.166
		c0-9.389,8.349-17.109,18.469-17.109h32.549c10.225,0,18.469,7.721,18.469,17.216v54.67H877.954z M865.437,206.312H756.931
		c-9.6,0-17.423,7.306-17.423,16.17v73.447c0,9.392,8.346,17.219,18.466,17.219H861.26c8.243,1.249,14.609,7.303,15.648,16.48
		v10.122c-1.042,8.867-7.304,15.335-15.127,16.065h-51.228c-68.128,0-116.64,45.281-116.64,108.817v90.976
		c0,63.119,41.733,108.087,109.339,108.087h141.887c25.456,0,46.115-19.302,46.115-43.088V323.787
		C991.257,251.797,954.22,206.312,865.437,206.312"/>
</g>
</svg>
