<svg xmlns="http://www.w3.org/2000/svg" xmlns:xlink="http://www.w3.org/1999/xlink" width="1028" height="401" viewBox="0 0 1028 401">
  <defs>
    <clipPath id="clip-path">
      <rect id="Rectangle_98" data-name="Rectangle 98" width="1028" height="401" transform="translate(2699 5326)" fill="none"/>
    </clipPath>
  </defs>
  <g id="paytm" transform="translate(-2699 -5326)" clip-path="url(#clip-path)">
    <g id="paytm-2" data-name="paytm" transform="translate(2350.84 5255.665)">
      <path id="Path_13343" data-name="Path 13343" d="M1790.455,207.906a65.267,65.267,0,0,0-61.593-43.661h-.582a65.023,65.023,0,0,0-47.037,20.026,65.088,65.088,0,0,0-47.1-20.026h-.582a64.6,64.6,0,0,0-42.5,15.776v-5a9.607,9.607,0,0,0-9.606-8.908H1537.8a9.665,9.665,0,0,0-9.664,9.664h0V412.883a9.64,9.64,0,0,0,9.664,9.663h43.661a9.606,9.606,0,0,0,9.489-8.325V244l.058-1.747a15.9,15.9,0,0,1,15.078-14.554h8.034a16.072,16.072,0,0,1,15.136,16.3l.175,169.4a9.64,9.64,0,0,0,9.664,9.664h43.661a9.6,9.6,0,0,0,9.547-9.2V243.769a16.009,16.009,0,0,1,15.137-16.3h8.033c9.49.816,15.137,7.977,15.137,16.3l.175,169.172a9.678,9.678,0,0,0,9.664,9.664h43.661a9.663,9.663,0,0,0,9.663-9.663V231.021c0-12.4-1.4-17.7-3.318-23.115M1494.9,166.748h-25.033V126.173a8.789,8.789,0,0,0-8.744-8.838,8.529,8.529,0,0,0-1.734.166c-27.654,7.625-22.122,45.99-72.653,49.248h-4.891a10.233,10.233,0,0,0-2.1.233h-.115a9.665,9.665,0,0,0-7.568,9.432v43.662a9.714,9.714,0,0,0,9.721,9.606h26.371l-.057,185.123a9.566,9.566,0,0,0,9.547,9.606h43.137a9.59,9.59,0,0,0,9.547-9.546V229.737h24.452a9.664,9.664,0,0,0,9.662-9.664h0V176.41a9.659,9.659,0,0,0-9.545-9.663" transform="translate(-441.971)" fill="#fff"/>
      <path id="Path_13344" data-name="Path 13344" d="M895.8,205.891H852.14a9.664,9.664,0,0,0-9.605,9.664v90.232a10.247,10.247,0,0,1-10.247,10.072H814.01a10.246,10.246,0,0,1-10.246-10.187l-.175-90.117a9.665,9.665,0,0,0-9.663-9.664H750.266a9.664,9.664,0,0,0-9.605,9.664v98.966c0,37.551,26.778,64.326,64.385,64.326,0,0,28.234,0,29.107.178a10.188,10.188,0,0,1,.115,20.2l-.756.114-63.861.233a9.667,9.667,0,0,0-9.607,9.664V452.9a9.615,9.615,0,0,0,9.607,9.6h71.429c37.608,0,64.385-26.777,64.385-64.384V215.559a9.664,9.664,0,0,0-9.664-9.668h0M473.222,285.879v26.953a10.247,10.247,0,0,1-10.246,10.246H435.268V269.113h27.709A10.211,10.211,0,0,1,473.222,279.3Zm3.842-79.988H381.592a9.491,9.491,0,0,0-9.432,9.432V452.607c0,5.239,3.9,9.546,8.79,9.663h44.477a9.664,9.664,0,0,0,9.665-9.663l.175-66.365h41.8c34.93,0,59.263-24.277,59.263-59.38V265.329c0-35.1-24.335-59.438-59.263-59.438M654.386,388.4v6.811a10.079,10.079,0,0,1-.581,3.024,10.185,10.185,0,0,1-9.721,6.579H625.921c-5.705,0-10.305-4.308-10.305-9.6V357.832c0-5.239,4.659-9.547,10.305-9.547h18.162c5.705,0,10.305,4.308,10.305,9.606V388.4h0ZM647.4,206.126H586.857c-5.357,0-9.722,4.077-9.722,9.023v40.982c0,5.241,4.657,9.608,10.3,9.608h57.632a10.1,10.1,0,0,1,8.731,9.2v5.648c-.581,4.948-4.076,8.557-8.441,8.964H616.777c-38.014,0-65.083,25.266-65.083,60.718v50.763c0,35.22,23.286,60.311,61.01,60.311h79.171c14.2,0,25.732-10.77,25.732-24.042V271.675c0-40.169-20.664-65.549-70.2-65.549" transform="translate(0 -39.143)" fill="#fff"/>
    </g>
  </g>
</svg>
