<svg xmlns="http://www.w3.org/2000/svg" xmlns:xlink="http://www.w3.org/1999/xlink" width="1828" height="393" viewBox="0 0 1828 393">
  <defs>
    <clipPath id="clip-path">
      <rect id="Rectangle_96" data-name="Rectangle 96" width="1828" height="393" transform="translate(669 4645)" fill="none"/>
    </clipPath>
  </defs>
  <g id="razorpay" transform="translate(-669 -4645)" clip-path="url(#clip-path)">
    <g id="Rozor_pay" transform="translate(336.736 4444.656)">
      <path id="Path_13287" data-name="Path 13287" d="M516.426,303c-27.4,17.631-54.112,34.817-82.213,52.9,2.717-19.546,9.531-36.372,13.982-53.732,1.476-5.765,9.918-7.5,15.222-10.962q65.955-43.008,132.114-85.7c2.04-1.323,4.167-2.507,8.6-5.156-3.263,13.3-5.8,24.418-8.728,35.421q-30.395,114.122-60.94,228.206c-3.667,13.706-7.685,27.32-11.033,41.1-1.56,6.419-4.821,8.446-11.262,8.22-13.149-.462-26.338-.532-39.483-.032-7.6.288-9.174-2.107-7.216-9.214,8.759-31.822,17.181-63.738,25.719-95.619q12.67-47.281,25.323-94.563C517.243,311.142,518.248,308.431,516.426,303Z" fill="#fff" fill-rule="evenodd"/>
      <path id="Path_13288" data-name="Path 13288" d="M2160.37,342.563C2132.543,382.1,2105.864,420,2079.18,457.9q-42.531,60.414-85,120.862c-3.249,4.642-6.359,7.634-12.76,7.379-14.492-.567-29.022-.18-45.373-.18,14.173-19.809,27.414-38.4,40.762-56.915,4.981-6.907,10.133-13.693,15.362-20.414,2.889-3.7,2.962-7.512,2.2-12q-12.036-70.889-23.7-141.83c-.628-3.788-.986-7.617-1.579-12.271,16.05,0,31.658.221,47.255-.1,6.57-.138,6.519,4.275,6.816,8.4,2.282,31.576,8.418,62.663,11.957,96.5,6.62-8.7,12.386-15.9,17.756-23.4q27.271-38.04,54.317-76.247c2.344-3.3,4.963-5.376,9.6-5.256C2130.66,342.8,2144.54,342.563,2160.37,342.563Z" fill="#fff" fill-rule="evenodd"/>
      <path id="Path_13289" data-name="Path 13289" d="M1071.73,475.212h91c-3.154,11.692-6.188,22.792-9.125,33.921-1.1,4.191-4.265,3.991-7.554,3.987-45.866-.03-91.729-.093-137.593.07-5.827.021-5.4-1.868-4.959-6.911,2.473-28.4,23.957-42.521,42.789-58.763,25.15-21.689,50.245-43.438,77.8-67.264h-25.179c-17.066,0-34.138-.271-51.194.133-6.521.155-8.27-2.056-6.484-7.946.2-.675.25-1.4.4-2.094,5.8-27.817,5.8-27.817,34.049-27.817h117.808c-.336,25.2-13.853,41.177-32.217,55.844C1131.22,422.369,1102.78,448.38,1071.73,475.212Z" fill="#fff" fill-rule="evenodd"/>
      <path id="Path_13290" data-name="Path 13290" d="M494.59,340.953q-11.887,45.159-23.784,90.309c-6.4,24.28-13.016,48.5-19.133,72.853-1.606,6.4-3.967,9.272-11.258,9.176-33.394-.429-66.8-.32-100.194-.074-6.8.05-9.452-.646-7.137-8.672,7.262-25.177,13.686-50.591,20.276-75.956.851-3.271,2.035-5.772,5.009-7.68Q423.18,379.418,487.9,337.78a36.491,36.491,0,0,1,3.8-1.881C495.771,335.81,495.549,338.171,494.59,340.953Z" fill="#fff" fill-rule="evenodd"/>
      <path id="Path_13291" data-name="Path 13291" d="M1380.92,513.1c7.122-26.374,13.919-51.655,20.776-76.916,7.8-28.727,15.954-57.365,23.247-86.221,1.61-6.374,4.183-7.775,10.062-7.558,11.01.409,22.071.592,33.058-.038,8.254-.476,9.97,1.96,6.773,9.4-1.167,2.729-3.547,5.532-1.85,9.665,8.622-4.463,15.043-12.213,24.083-15.976,6.232-2.594,12.368-5.614,19.043-6.481,8.058-1.052,17.35-3.362,23.938,1.572,8.222,6.152-1.676,13.56-1.569,20.618a11.727,11.727,0,0,1-.6,3.132c-1.859,6.828-2.075,14.9-6.027,20.171-5.3,7.07-12.109-1.505-18.545-1.9-28.971-1.781-50.886,13.969-57.947,42.236-6.694,26.8-14.355,53.361-21.193,80.128-1.592,6.223-4.163,8.617-10.832,8.333C1409.86,512.7,1396.34,513.1,1380.92,513.1Z" fill="#fff" fill-rule="evenodd"/>
      <path id="Path_13292" data-name="Path 13292" d="M494.59,340.953c-.726-1.819-.518-4.171-2.889-5.056.786-1.564,2.768-3.475,3.612-2.661C497.862,335.693,496.4,338.5,494.59,340.953Z" fill="#fff" fill-rule="evenodd"/>
      <path id="Path_13293" data-name="Path 13293" d="M811.3,295.934c-11.346-15.558-27.546-20.981-45.45-21.344-38.744-.784-77.506-.476-116.255-.968-6.177-.079-7.7,2.887-8.966,7.9-4.933,19.57-10.1,39.079-15.327,58.57-14.762,55.1-29.473,110.213-44.552,165.227-1.772,6.477-.6,8.091,5.885,7.892,12.08-.372,24.2-.547,36.258.07,6.455.329,8.686-2.482,10.059-7.972q7.608-30.426,15.593-60.76c7.227-27.646,7.271-27.651,35.682-27.567,4.263.012,8.54.05,12.788.372,13.06.979,17.946,5,19.634,17.856,3.045,23.224,5.777,46.494,8.013,69.812.624,6.495,2.815,8.417,9.122,8.208,12.785-.425,25.624-.63,38.387.059,7.808.426,8.807-2.765,7.948-9.255-2.982-22.533-5.533-45.123-8.547-67.652-1.591-11.9-6.832-21.589-20.321-27.074,3.477-1.347,4.753-1.835,6.025-2.34,34.127-13.5,54.614-38.429,61.088-74.4C820.662,319.813,819.511,307.192,811.3,295.934Zm-45.484,51.288c-6.616,19.663-21.854,27.613-40.583,28.9-19.07,1.31-38.3.288-58.508.288,5.2-19.675,10.348-38.783,15.232-57.958,1.089-4.271,3.938-4.442,7.241-4.388,18.835.3,37.713-.083,56.489,1.126C764.749,316.414,771.915,329.1,765.818,347.222Z" fill="#fff" fill-rule="evenodd"/>
      <path id="Path_13294" data-name="Path 13294" d="M1715.18,356.186c-17.574-20.005-46.284-23.888-73.484-11.892-11.4,5.022-20.984,12.538-32.063,18.962,1.539-4.555,2.7-9.285,4.709-13.627,2.719-5.886.88-7.391-5.089-7.2-10.305.321-20.69.813-30.918-.117-8.788-.8-12.177,2.361-14.339,10.683-13.2,50.762-26.937,101.387-40.5,152.058-7.133,26.649-14.278,53.294-21.679,80.915,13.712,0,26.5-.722,39.159.242,9.352.709,12.791-2.878,14.924-11.472,6.919-27.857,14.606-55.524,22.59-85.49,8.509,17.277,21.774,24.242,37.6,25.985,24.42,2.691,46.452-4.35,65.422-19.787,28.554-23.241,42.329-54.583,46.6-90.279C1730.22,387.523,1727.34,370.03,1715.18,356.186Zm-39.94,59.159c-3.29,24.046-11.275,46.2-35.532,57.815a41.565,41.565,0,0,1-17.433,4.121c-20.141.367-30.993-10.449-30.606-34.161,2.916-19.759,8.424-41.836,28.377-57.073a38.149,38.149,0,0,1,14.031-7.25C1663.26,371.656,1679.35,385.3,1675.24,415.345Z" fill="#fff" fill-rule="evenodd"/>
      <path id="Path_13295" data-name="Path 13295" d="M993.671,342.529h-8.534c-21.461,0-21.461,0-26.493,22.883-4.887-7.062-7.8-13.035-13.454-17.089-17.848-12.809-37.263-13-56.94-6.757-47.9,15.187-81.942,67.718-79.934,122.206,1.141,30.983,21.922,51.3,53.088,51.98,23.441.5,43.492-7.954,60.8-23.759,2.828,5.193-.646,8.9-1.523,12.709-1.426,6.178-1.4,9,6.323,8.567,11.7-.65,23.458-.313,35.188-.1,4.928.092,7.348-1.127,8.772-6.587q18.663-71.465,38.126-142.706C1014.91,342.463,1015.15,342.529,993.671,342.529Zm-83.3,129.647c-7.883,4.505-16.676,5.844-25.738,4.984-14.275-1.355-24.29-10.386-24.461-24.6-.317-26.6,7.333-50.15,29.656-67.055,11.375-8.609,24.028-10,37.344-6.895,11.629,2.707,17.765,12.918,17.623,31.167C942,433.026,935.714,457.7,910.375,472.176Z" fill="#fff" fill-rule="evenodd"/>
      <path id="Path_13296" data-name="Path 13296" d="M1920.65,342.529c-20.155,0-20.146,0-26.122,18.8-.164.517-.988.821-1.508,1.222-14.463-21.11-35.158-29.093-61.039-23.446-61.183,13.352-93.724,82.706-87.685,130.881,2.616,20.868,13.611,37.219,35.69,43.079,22.539,5.98,43.582,2.044,63.172-10.19,5.139-3.207,9.893-7.037,15.48-11.054.875,7.867-3.62,13.386-3.646,21.282,13.939,0,27.453-.41,40.927.17,6.841.293,9-2.369,10.632-8.592,7.906-30.157,16.532-60.123,24.607-90.238,6.325-23.583,12.22-47.284,18.56-71.914Zm-76.99,130.49c-13.234,6.22-27.171,7.5-39.177-2.311-10.886-8.9-10.76-21.448-7.985-34.249,4.859-22.424,12.757-42.766,34.38-54.642,15.831-8.7,36.695-5.577,45.165,6.8,4.055,5.928,4.684,12.468,4.69,19.487C1876.19,434.161,1871.14,460.1,1843.66,473.019Z" fill="#fff" fill-rule="evenodd"/>
      <path id="Path_13297" data-name="Path 13297" d="M1320.68,338.383c-70.443-4.789-124.211,41.2-129.692,111.385-1.087,13.928.791,27.625,9.066,39.718,14.484,21.168,36.443,25.135,54.79,26.249,74.514.771,120.73-54.546,122.955-116.091C1379.04,365.166,1355.6,340.753,1320.68,338.383Zm5.92,67.981c-.915,21.048-7.313,40.313-21.681,56.188-11.381,12.568-26.021,16.985-42.436,13.874-10.814-2.048-19.435-8.076-19.827-20.269-.9-28,5.344-53.344,29.026-71.546,7.748-5.952,16.583-7.621,25.988-7.616C1317.59,376.979,1327.45,386.63,1326.6,406.364Z" fill="#fff" fill-rule="evenodd"/>
    </g>
  </g>
</svg>
