<?xml version="1.0" encoding="utf-8"?>
<!-- Generator: Adobe Illustrator 16.0.0, SVG Export Plug-In . SVG Version: 6.00 Build 0)  -->
<!DOCTYPE svg PUBLIC "-//W3C//DTD SVG 1.1//EN" "http://www.w3.org/Graphics/SVG/1.1/DTD/svg11.dtd">
<svg version="1.1" id="Layer_1" xmlns="http://www.w3.org/2000/svg" xmlns:xlink="http://www.w3.org/1999/xlink" x="0px" y="0px"
	 width="1848.185px" height="579.058px" viewBox="322.227 103.791 1848.185 579.058"
	 enable-background="new 322.227 103.791 1848.185 579.058" xml:space="preserve">
<g>
	<path fill-rule="evenodd" clip-rule="evenodd" fill="#FFFFFF" d="M516.426,303c-27.405,17.631-54.112,34.817-82.213,52.898
		c2.717-19.546,9.531-36.372,13.982-53.732c1.476-5.765,9.918-7.504,15.222-10.962c43.97-28.672,88.054-57.169,132.114-85.704
		c2.04-1.323,4.167-2.507,8.603-5.156c-3.263,13.301-5.796,24.418-8.728,35.421c-20.263,76.081-40.604,152.142-60.94,228.206
		c-3.667,13.706-7.685,27.32-11.033,41.103c-1.56,6.419-4.821,8.446-11.262,8.22c-13.149-0.462-26.338-0.532-39.483-0.032
		c-7.6,0.288-9.174-2.107-7.216-9.214c8.759-31.822,17.181-63.738,25.719-95.619c8.447-31.521,16.889-63.042,25.323-94.563
		C517.243,311.142,518.248,308.431,516.426,303z"/>
	<path fill-rule="evenodd" clip-rule="evenodd" fill="#FFFFFF" d="M2160.373,342.563c-27.827,39.533-54.506,77.436-81.19,115.339
		c-28.354,40.276-56.757,80.511-84.997,120.862c-3.249,4.642-6.359,7.634-12.76,7.379c-14.492-0.567-29.022-0.18-45.373-0.18
		c14.173-19.809,27.414-38.398,40.762-56.915c4.981-6.907,10.133-13.693,15.362-20.414c2.889-3.703,2.962-7.512,2.2-12
		c-8.024-47.259-15.854-94.546-23.701-141.83c-0.628-3.788-0.986-7.617-1.579-12.271c16.05,0,31.658,0.221,47.255-0.104
		c6.57-0.138,6.519,4.275,6.816,8.404c2.282,31.576,8.418,62.663,11.957,96.503c6.62-8.696,12.386-15.904,17.756-23.4
		c18.181-25.36,36.219-50.825,54.317-76.247c2.344-3.295,4.963-5.376,9.603-5.256
		C2130.66,342.796,2144.536,342.563,2160.373,342.563z"/>
	<path fill-rule="evenodd" clip-rule="evenodd" fill="#FFFFFF" d="M1071.726,475.212c31.773,0,60.888,0,91.003,0
		c-3.154,11.692-6.188,22.792-9.125,33.921c-1.105,4.191-4.265,3.991-7.554,3.987c-45.866-0.03-91.729-0.093-137.593,0.07
		c-5.827,0.021-5.397-1.868-4.959-6.911c2.473-28.401,23.957-42.521,42.789-58.763c25.15-21.689,50.245-43.438,77.799-67.264
		c-10.138,0-17.658,0-25.179,0c-17.066-0.004-34.138-0.271-51.194,0.133c-6.521,0.155-8.27-2.056-6.484-7.946
		c0.204-0.675,0.25-1.397,0.396-2.094c5.802-27.817,5.804-27.817,34.049-27.817c35.555,0,71.109,0,106.661,0
		c3.867,0,7.731,0,11.147,0c-0.336,25.198-13.853,41.177-32.217,55.844C1131.216,422.369,1102.775,448.38,1071.726,475.212z"/>
	<path fill-rule="evenodd" clip-rule="evenodd" fill="#FFFFFF" d="M494.59,340.953c-7.925,30.106-15.844,60.209-23.784,90.309
		c-6.405,24.28-13.016,48.501-19.133,72.853c-1.606,6.398-3.967,9.272-11.258,9.176c-33.394-0.429-66.796-0.32-100.194-0.074
		c-6.799,0.05-9.452-0.646-7.137-8.672c7.262-25.177,13.686-50.591,20.276-75.956c0.851-3.271,2.035-5.772,5.009-7.68
		c43.207-27.661,86.353-55.421,129.53-83.129c1.18-0.76,2.532-1.26,3.802-1.881C495.771,335.81,495.549,338.171,494.59,340.953z"/>
	<path fill-rule="evenodd" clip-rule="evenodd" fill="#FFFFFF" d="M1380.924,513.104c7.122-26.374,13.919-51.655,20.776-76.916
		c7.801-28.727,15.954-57.365,23.247-86.221c1.61-6.374,4.183-7.775,10.062-7.558c11.01,0.409,22.071,0.592,33.058-0.038
		c8.254-0.476,9.97,1.96,6.773,9.405c-1.167,2.729-3.547,5.532-1.85,9.665c8.622-4.463,15.043-12.213,24.083-15.976
		c6.232-2.594,12.368-5.614,19.043-6.481c8.058-1.052,17.35-3.362,23.938,1.572c8.222,6.152-1.676,13.56-1.569,20.618
		c0.015,1.042-0.326,2.105-0.604,3.132c-1.859,6.828-2.075,14.903-6.027,20.171c-5.302,7.07-12.109-1.505-18.545-1.901
		c-28.971-1.781-50.886,13.969-57.947,42.236c-6.694,26.805-14.355,53.361-21.193,80.128c-1.592,6.223-4.163,8.617-10.832,8.333
		C1409.859,512.698,1396.34,513.104,1380.924,513.104z"/>
	<path fill-rule="evenodd" clip-rule="evenodd" fill="#FFFFFF" d="M494.59,340.953c-0.726-1.819-0.518-4.171-2.889-5.056
		c0.786-1.564,2.768-3.475,3.612-2.661C497.862,335.693,496.398,338.5,494.59,340.953z"/>
	<path fill-rule="evenodd" clip-rule="evenodd" fill="#FFFFFF" d="M811.302,295.934c-11.346-15.558-27.546-20.981-45.45-21.344
		c-38.744-0.784-77.506-0.476-116.255-0.968c-6.177-0.079-7.704,2.887-8.966,7.896c-4.933,19.57-10.104,39.079-15.327,58.57
		c-14.762,55.1-29.473,110.213-44.552,165.227c-1.772,6.477-0.605,8.091,5.885,7.892c12.08-0.372,24.199-0.547,36.258,0.07
		c6.455,0.329,8.686-2.482,10.059-7.972c5.072-20.284,10.307-40.53,15.593-60.76c7.227-27.646,7.271-27.651,35.682-27.567
		c4.263,0.012,8.54,0.05,12.788,0.372c13.06,0.979,17.946,5,19.634,17.856c3.045,23.224,5.777,46.494,8.013,69.812
		c0.624,6.495,2.815,8.417,9.122,8.208c12.785-0.425,25.624-0.63,38.387,0.059c7.808,0.426,8.807-2.765,7.948-9.255
		c-2.982-22.533-5.533-45.123-8.547-67.652c-1.591-11.896-6.832-21.589-20.321-27.074c3.477-1.347,4.753-1.835,6.025-2.34
		c34.127-13.497,54.614-38.429,61.088-74.396C820.662,319.813,819.511,307.192,811.302,295.934z M765.818,347.222
		c-6.616,19.663-21.854,27.613-40.583,28.897c-19.07,1.31-38.299,0.288-58.508,0.288c5.197-19.675,10.348-38.783,15.232-57.958
		c1.089-4.271,3.938-4.442,7.241-4.388c18.835,0.301,37.713-0.083,56.489,1.126C764.749,316.414,771.915,329.099,765.818,347.222z"
		/>
	<path fill-rule="evenodd" clip-rule="evenodd" fill="#FFFFFF" d="M1715.184,356.186c-17.574-20.005-46.284-23.888-73.484-11.892
		c-11.395,5.022-20.984,12.538-32.063,18.962c1.539-4.555,2.702-9.285,4.709-13.627c2.719-5.886,0.88-7.391-5.089-7.204
		c-10.305,0.321-20.69,0.813-30.918-0.117c-8.788-0.797-12.177,2.361-14.339,10.683c-13.199,50.762-26.937,101.387-40.499,152.058
		c-7.133,26.649-14.278,53.294-21.679,80.915c13.712,0,26.501-0.722,39.159,0.242c9.352,0.709,12.791-2.878,14.924-11.472
		c6.919-27.857,14.606-55.524,22.59-85.49c8.509,17.277,21.774,24.242,37.596,25.985c24.42,2.691,46.452-4.35,65.422-19.787
		c28.554-23.241,42.329-54.583,46.6-90.279C1730.223,387.523,1727.345,370.03,1715.184,356.186z M1675.244,415.345
		c-3.29,24.046-11.275,46.203-35.532,57.815c-5.495,2.632-11.296,4.013-17.433,4.121c-20.141,0.367-30.993-10.449-30.606-34.161
		c2.916-19.759,8.424-41.836,28.377-57.073c4.213-3.22,8.738-5.952,14.031-7.25C1663.256,371.656,1679.353,385.3,1675.244,415.345z"
		/>
	<path fill-rule="evenodd" clip-rule="evenodd" fill="#FFFFFF" d="M993.671,342.529c-2.845,0-5.689,0-8.534,0
		c-21.461,0-21.461,0-26.493,22.883c-4.887-7.062-7.8-13.035-13.454-17.089c-17.848-12.809-37.263-12.997-56.94-6.757
		c-47.897,15.187-81.942,67.718-79.934,122.206c1.141,30.983,21.922,51.304,53.088,51.98c23.441,0.504,43.492-7.954,60.798-23.759
		c2.828,5.193-0.646,8.9-1.523,12.709c-1.426,6.178-1.401,9.002,6.323,8.567c11.696-0.65,23.458-0.313,35.188-0.1
		c4.928,0.092,7.348-1.127,8.772-6.587c12.442-47.643,25.214-95.192,38.126-142.706
		C1014.907,342.463,1015.15,342.529,993.671,342.529z M910.375,472.176c-7.883,4.505-16.676,5.844-25.738,4.984
		c-14.275-1.355-24.29-10.386-24.461-24.597c-0.317-26.596,7.333-50.15,29.656-67.055c11.375-8.609,24.028-9.998,37.344-6.895
		c11.629,2.707,17.765,12.918,17.623,31.167C942.002,433.026,935.714,457.698,910.375,472.176z"/>
	<path fill-rule="evenodd" clip-rule="evenodd" fill="#FFFFFF" d="M1920.653,342.529c-20.155,0-20.146,0-26.122,18.8
		c-0.164,0.517-0.988,0.821-1.508,1.222c-14.463-21.11-35.158-29.093-61.039-23.446c-61.183,13.352-93.724,82.706-87.685,130.881
		c2.616,20.868,13.611,37.219,35.69,43.079c22.539,5.98,43.582,2.044,63.172-10.19c5.139-3.207,9.893-7.037,15.48-11.054
		c0.875,7.867-3.62,13.386-3.646,21.282c13.939,0,27.453-0.41,40.927,0.17c6.841,0.293,9.001-2.369,10.632-8.592
		c7.906-30.157,16.532-60.123,24.607-90.238c6.325-23.583,12.22-47.284,18.56-71.914
		C1939.692,342.529,1930.174,342.529,1920.653,342.529z M1843.658,473.019c-13.234,6.22-27.171,7.504-39.177-2.311
		c-10.886-8.901-10.76-21.448-7.985-34.249c4.859-22.424,12.757-42.766,34.38-54.642c15.831-8.697,36.695-5.577,45.165,6.803
		c4.055,5.928,4.684,12.468,4.69,19.487C1876.187,434.161,1871.142,460.097,1843.658,473.019z"/>
	<path fill-rule="evenodd" clip-rule="evenodd" fill="#FFFFFF" d="M1320.676,338.383c-70.443-4.789-124.211,41.198-129.692,111.385
		c-1.087,13.928,0.791,27.625,9.066,39.718c14.484,21.168,36.443,25.135,54.79,26.249c74.514,0.771,120.73-54.546,122.955-116.091
		C1379.043,365.166,1355.596,340.753,1320.676,338.383z M1326.597,406.364c-0.915,21.048-7.313,40.313-21.681,56.188
		c-11.381,12.568-26.021,16.985-42.436,13.874c-10.814-2.048-19.435-8.076-19.827-20.269c-0.901-28,5.344-53.344,29.026-71.546
		c7.748-5.952,16.583-7.621,25.988-7.616C1317.593,376.979,1327.454,386.63,1326.597,406.364z"/>
</g>
</svg>
