<?xml version="1.0" encoding="utf-8"?>
<!-- Generator: Adobe Illustrator 16.0.0, SVG Export Plug-In . SVG Version: 6.00 Build 0)  -->
<!DOCTYPE svg PUBLIC "-//W3C//DTD SVG 1.1//EN" "http://www.w3.org/Graphics/SVG/1.1/DTD/svg11.dtd">
<svg version="1.1" id="Layer_1" xmlns="http://www.w3.org/2000/svg" xmlns:xlink="http://www.w3.org/1999/xlink" x="0px" y="0px"
	 width="1024px" height="1024px" viewBox="0 0 1024 1024" enable-background="new 0 0 1024 1024" xml:space="preserve">
<path fill-rule="evenodd" clip-rule="evenodd" fill="#FFFFFF" d="M311.759,576.051c15.162,5.844,17.394,15.096,14.497,29.357
	c-2.056,10.125-5.035,20.061-7.127,30.18c-0.589,2.85,0.092,6.164,0.925,9.053c0.991,3.439,0.077,5.801-3.565,5.838
	c-13.822,0.148-27.649,0.145-41.471-0.066c-1.104-0.016-3.219-2.168-3.098-3.098c0.934-7.158,2.265-14.268,3.55-21.379
	c1.198-6.629,2.554-13.229,3.729-19.859c1.184-6.68-5.116-10.594-10.788-11.033c-7.619-0.59-15.318-0.416-22.968-0.143
	c-1.509,0.053-3.86,1.764-4.277,3.168c-3.334,11.221-6.278,22.557-9.38,33.848c-1.441,5.246-2.814,10.52-4.563,15.664
	c-0.414,1.221-2.207,2.803-3.378,2.813c-14.147,0.129-28.298-0.002-42.446-0.096c-0.262-0.002-0.521-0.367-1.411-1.037
	c2.774-10.148,5.595-20.586,8.483-31.002c2.621-9.447,5.297-18.879,7.982-28.307c3.594-12.615,7.318-25.195,10.801-37.84
	c2.527-9.178,4.673-18.459,7.135-27.656c2.936-10.967,5.904-21.931,9.211-32.789c0.406-1.334,2.98-2.854,4.556-2.861
	c26.315-0.107,52.652-0.577,78.937,0.368c10.643,0.382,21.73,1.627,31.254,8.029c5.295,3.559,9.157,8.228,9.183,14.381
	c0.034,8.178-0.819,16.463-2.298,24.518c-2.076,11.301-7.801,20.898-16.752,28.195c-4.015,3.273-8.744,5.662-13.092,8.539
	C314.215,573.613,313.254,574.709,311.759,576.051z M277.216,528.164c0-0.148,0-0.295,0.001-0.441
	c-3.494,0-7.025,0.328-10.471-0.076c-5.205-0.611-6.904,2.316-7.944,6.582c-1.64,6.727-2.911,13.631-5.438,20.023
	c-1.684,4.26-0.168,4.746,3.091,4.77c7.317,0.049,14.656,0.281,21.946-0.184c4.049-0.26,8.188-1.336,11.982-2.822
	c5.947-2.332,7.601-7.979,9.551-13.506c2.66-7.545-0.352-13.484-8.265-14.26C286.895,527.781,282.037,528.164,277.216,528.164z"/>
<path fill-rule="evenodd" clip-rule="evenodd" fill="#FFFFFF" d="M465.324,650.471c15.08-54.205,30.001-107.834,45.012-161.785
	c2.185,0,3.992,0,5.801,0c19.494-0.001,38.992-0.231,58.481,0.096c9.262,0.155,18.681,0.491,27.718,2.299
	c16.465,3.294,30.7,12.955,29.629,35.255c-1.434,29.846-13.736,53.889-41.154,67.531c-9.192,4.576-20.295,5.941-30.717,7.232
	c-9.52,1.178-19.299,0.398-28.959,0.219c-3.998-0.074-5.258,1.586-6.139,5.381c-2.082,8.959-4.934,17.736-7.426,26.602
	c-1.246,4.432-2.201,8.957-3.682,13.307c-0.51,1.496-2.196,3.678-3.377,3.697C495.731,650.559,480.945,650.471,465.324,650.471z
	 M537.65,561.799c8.893,0,16.624,0.135,24.35-0.029c13.253-0.285,21.001-7.1,23.214-20.145c1.115-6.572-0.258-9.91-6.851-11.414
	c-6.82-1.557-13.992-1.699-21.03-2.119c-3.242-0.193-7.111-0.527-9.613,0.99c-1.892,1.146-2.056,5.131-3.015,7.844
	c-0.163,0.463-0.543,0.857-0.671,1.324C542.012,545.652,540.014,553.063,537.65,561.799z"/>
<path fill-rule="evenodd" clip-rule="evenodd" fill="#FFFFFF" d="M628.292,566.568c6.249-17.729,18.14-28.41,35.437-34.113
	c17.888-5.898,36.089-5.42,54.206-3.383c9.224,1.037,19.32,3.457,24.44,12.688c2.489,4.49,4.561,10.59,3.636,15.34
	c-2.925,15.018-7.292,29.758-11.22,44.574c-3.035,11.449-6.537,22.781-9.229,34.307c-0.961,4.111-0.154,8.637-0.154,13.963
	c-0.432,0.061-2.27,0.527-4.11,0.541c-10.999,0.086-22.004-0.131-32.994,0.18c-4.446,0.125-6.228-1.055-5.267-5.619
	c0.282-1.344-0.163-2.842-0.323-4.893c-5.813,3.102-11.033,5.861-16.23,8.666c-12.521,6.756-26.195,7.363-39.614,5.451
	c-9.363-1.332-19.575-7.961-19.329-22.57c0.267-15.908,5.075-29.484,17.928-39.359c8.15-6.264,17.975-8.699,27.889-10.525
	c12.818-2.359,25.688-4.436,38.492-6.869c4.924-0.938,8.586-3.916,10.658-8.623c1.858-4.223,0.254-7.963-4.075-9.494
	c-11.352-4.01-19.139-1.676-26.618,7.592c-1.191,1.477-3.445,2.92-5.237,2.957c-11.993,0.25-23.993,0.127-35.991,0.078
	C629.995,567.453,629.408,567.016,628.292,566.568z M691.911,597.924c-7.386,2.043-14.48,3.395-21.068,6.018
	c-5.336,2.125-10.65,5.121-14.904,8.926c-4.843,4.334-2.664,11.404,3.399,13.713c7.619,2.9,20.674-1.078,25.964-8.533
	C689.502,612.129,693.2,605.758,691.911,597.924z"/>
<path fill-rule="evenodd" clip-rule="evenodd" fill="#FFFFFF" d="M737.295,663.82c3.985,0,7.805,0.156,11.607-0.029
	c11.737-0.57,15.737-5.146,16.712-16.078c0.617-6.914-0.183-13.971-0.535-20.955c-0.545-10.809-1.269-21.609-1.882-32.414
	c-0.79-13.924-1.468-27.855-2.355-41.773c-0.357-5.596-1.123-11.168-1.742-16.746c-0.342-3.09,0.703-4.668,4.091-4.646
	c11.996,0.072,23.994,0.088,35.988-0.076c3.767-0.053,3.856,2.096,3.84,4.83c-0.115,19.328-0.195,38.656-0.24,57.984
	c-0.006,2.518,0.256,5.035,0.394,7.555c0.43,0.07,0.859,0.141,1.289,0.211c4.131-7.6,8.276-15.191,12.388-22.803
	c7.818-14.471,15.676-28.924,23.379-43.457c1.685-3.18,3.915-4.371,7.474-4.309c9.66,0.17,19.325,0.01,28.988,0.041
	c4.526,0.014,5.511,1.914,3.219,5.836c-15.731,26.906-31.368,53.871-47.192,80.725c-11.747,19.934-23.712,39.74-35.612,59.582
	c-8.66,14.439-22.014,20.965-38.286,21.793c-8.963,0.457-17.979-0.141-26.971-0.244c-2.978-0.033-4.471-1.346-3.591-4.381
	C731.188,684.359,734.203,674.277,737.295,663.82z"/>
<path fill-rule="evenodd" clip-rule="evenodd" fill="#FFFFFF" d="M407.572,650.525c1.58-5.582,2.926-10.338,4.271-15.094
	c-0.287-0.227-0.575-0.455-0.863-0.682c-4.516,3.314-8.949,6.75-13.563,9.92c-9.485,6.52-20.235,9.998-31.557,9.727
	c-21.574-0.518-33.167-15.885-27.481-37.629c3.416-13.063,6.246-26.279,9.702-39.332c3.112-11.75,6.718-23.371,10.108-35.049
	c0.047-0.158,0.145-0.301,0.197-0.459c3.643-10.777,3.643-10.775,14.979-10.777c7.996-0.002,15.992-0.053,23.988-0.01
	c5.629,0.031,6.901,2.172,5.273,7.553c-3.041,10.047-5.801,20.18-8.682,30.277c-2.652,9.299-5.654,18.516-7.818,27.926
	c-1.096,4.77-1.412,10.004-0.629,14.791c0.359,2.201,3.975,5,6.52,5.516c11.036,2.23,19.666-2.957,24.393-15.205
	c3.664-9.494,6.154-19.451,9.002-29.248c3.676-12.645,7.23-25.326,10.739-38.018c0.826-2.988,2.626-3.668,5.509-3.629
	c10.827,0.141,21.658,0.189,32.482-0.02c4.146-0.08,5.596,1.568,4.647,5.365c-1.682,6.734-3.49,13.439-5.337,20.131
	c-1.912,6.928-3.931,13.826-5.906,20.736c-2.712,9.48-5.5,18.939-8.121,28.445c-2.625,9.525-5.043,19.107-7.639,28.639
	c-1.29,4.74-2.662,9.465-4.27,14.102c-0.313,0.9-1.885,1.928-2.887,1.938C432.662,650.574,420.691,650.525,407.572,650.525z"/>
<path fill-rule="evenodd" clip-rule="evenodd" fill="#FFFFFF" d="M890.414,680.74c3.122-13.59,6.969-25.527,8.612-39.055
	c-12.111,11.107-23.536,21.586-36.136,33.143c1.498-8.164,2.358-14.996,4.051-21.617c3.191-12.477,6.744-24.867,10.402-37.217
	c1.192-4.023,2.391-7.74,3.734-11.73c0.91-2.705,1.961-5.688,2.688-8.469c2.943-11.266,6.014-22.498,9.012-33.752
	c3.494-13.115,6.936-26.248,10.473-39.354c0.515-1.908,1.464-3.697,2.161-5.561c0.751-2.008,1.441-4.039,2.253-6.328
	c5.889,10.636,10.447,22.941,18.089,33.402c0.64-0.064,1.279-0.129,1.919-0.193c3.396-11.928,6.791-23.854,10.474-36.789
	c1.58,2.438,3.11,4.369,4.19,6.527c12.221,24.416,24.406,48.848,36.523,73.314c3.584,7.236,3.393,7.207-2.473,12.719
	c-12.006,11.277-23.881,22.695-35.875,33.986C924.118,649.203,907.664,664.572,890.414,680.74z"/>
</svg>
