<svg xmlns="http://www.w3.org/2000/svg" xmlns:xlink="http://www.w3.org/1999/xlink" width="1343" height="389" viewBox="0 0 1343 389">
  <defs>
    <clipPath id="clip-path">
      <rect id="Rectangle_99" data-name="Rectangle 99" width="1343" height="389" transform="translate(4881 4754)" fill="none"/>
    </clipPath>
  </defs>
  <g id="rupay" transform="translate(-4881 -4754)" clip-path="url(#clip-path)">
    <g id="rupay-2" data-name="rupay" transform="translate(4701.012 4302.97)">
      <path id="Path_13345" data-name="Path 13345" d="M399.81,634.49c25.293,9.749,29.017,25.183,24.184,48.974-3.43,16.891-8.4,33.466-11.889,50.346-.983,4.754.154,10.283,1.543,15.1,1.653,5.737.128,9.677-5.947,9.739q-34.587.37-69.182-.11c-1.842-.027-5.37-3.617-5.168-5.168,1.558-11.941,3.779-23.8,5.922-35.665,2-11.059,4.261-22.069,6.221-33.129,1.975-11.144-8.535-17.673-18-18.405-12.71-.984-25.554-.694-38.315-.239-2.517.088-6.439,2.943-7.135,5.285-5.562,18.719-10.473,37.63-15.648,56.466-2.4,8.751-4.694,17.55-7.612,26.131-.691,2.037-3.682,4.676-5.635,4.693-23.6.215-47.207,0-70.809-.16-.437,0-.869-.612-2.354-1.73,4.628-16.929,9.334-34.342,14.151-51.718q6.559-23.639,13.316-47.222c6-21.044,12.208-42.031,18.018-63.125,4.216-15.311,7.8-30.793,11.9-46.136,4.9-18.3,9.849-36.586,15.366-54.7.677-2.225,4.971-4.761,7.6-4.773,43.9-.178,87.835-.963,131.683.614,17.755.637,36.25,2.714,52.138,13.394,8.833,5.937,15.276,13.726,15.319,23.991a222.628,222.628,0,0,1-3.834,40.9A77.667,77.667,0,0,1,427.7,614.882c-6.7,5.46-14.587,9.445-21.84,14.245C403.907,630.423,402.3,632.252,399.81,634.49ZM342.185,554.6c0-.247,0-.492,0-.736-5.829,0-11.719.547-17.468-.127-8.683-1.019-11.517,3.864-13.252,10.98-2.736,11.222-4.856,22.739-9.072,33.4-2.809,7.107-.28,7.917,5.156,7.957,12.206.082,24.449.469,36.611-.307a67.7,67.7,0,0,0,19.988-4.708c9.921-3.89,12.68-13.311,15.933-22.531,4.437-12.587-.587-22.494-13.788-23.789C358.331,553.966,350.227,554.6,342.185,554.6Z" transform="translate(0 0)" fill="#fff" fill-rule="evenodd"/>
      <path id="Path_13346" data-name="Path 13346" d="M465.324,758.63c25.157-90.425,50.048-179.89,75.089-269.891h9.677c32.52,0,65.047-.385,97.559.16,15.451.259,31.164.819,46.239,3.835,27.467,5.5,51.214,21.612,49.427,58.813-2.392,49.789-22.915,89.9-68.654,112.656-15.334,7.634-33.856,9.911-51.242,12.065-15.881,1.965-32.195.664-48.31.365-6.669-.123-8.771,2.646-10.241,8.977-3.473,14.945-8.231,29.587-12.388,44.378-2.079,7.393-3.672,14.942-6.142,22.2-.851,2.5-3.663,6.136-5.634,6.167C516.049,758.777,491.383,758.63,465.324,758.63ZM585.979,610.707c14.835,0,27.732.225,40.621-.048,22.109-.475,35.034-11.844,38.726-33.606,1.86-10.963-.43-16.532-11.429-19.041-11.377-2.6-23.342-2.834-35.083-3.535-5.408-.322-11.863-.879-16.036,1.652-3.156,1.912-3.43,8.56-5.03,13.085-.272.772-.906,1.43-1.119,2.209C593.256,583.77,589.923,596.133,585.979,610.707Z" transform="translate(190.664 0.008)" fill="#fff" fill-rule="evenodd"/>
      <path id="Path_13347" data-name="Path 13347" d="M642.161,592.551c10.425-29.576,30.261-47.394,59.116-56.907,29.841-9.839,60.2-9.042,90.427-5.644,15.388,1.73,32.23,5.767,40.771,21.166,4.152,7.49,7.609,17.666,6.066,25.59-4.88,25.053-12.165,49.642-18.717,74.359-5.063,19.1-10.905,38-15.4,57.231-1.6,6.858-.257,14.408-.257,23.293a38.95,38.95,0,0,1-6.856.9c-18.349.143-36.707-.219-55.041.3-7.417.208-10.39-1.76-8.786-9.374.47-2.242-.272-4.741-.539-8.163-9.7,5.175-18.405,9.777-27.075,14.457-20.888,11.27-43.7,12.283-66.084,9.093-15.619-2.222-32.655-13.281-32.245-37.651.445-26.538,8.466-49.186,29.908-65.659,13.6-10.45,29.986-14.512,46.525-17.558,21.383-3.935,42.853-7.4,64.213-11.459,8.214-1.565,14.323-6.533,17.78-14.385,3.1-7.045.424-13.284-6.8-15.838-18.937-6.69-31.928-2.8-44.4,12.665-1.987,2.464-5.747,4.871-8.736,4.933-20.007.417-40.025.212-60.041.13C645,594.027,644.023,593.3,642.161,592.551Zm106.13,52.308c-12.321,3.408-24.156,5.664-35.146,10.039a84.652,84.652,0,0,0-24.863,14.891c-8.079,7.23-4.444,19.024,5.67,22.876,12.71,4.838,34.489-1.8,43.313-14.235C744.272,668.556,750.441,657.928,748.291,644.859Z" transform="translate(285.692 26.12)" fill="#fff" fill-rule="evenodd"/>
      <path id="Path_13348" data-name="Path 13348" d="M743.5,752.5c6.648,0,13.02.26,19.363-.048,19.58-.951,26.253-8.585,27.879-26.821,1.029-11.534-.305-23.307-.892-34.957-.909-18.032-2.117-36.048-3.14-54.073-1.318-23.228-2.449-46.468-3.929-69.686-.6-9.335-1.873-18.631-2.906-27.936-.57-5.155,1.173-7.787,6.825-7.75,20.012.12,40.027.147,60.035-.127,6.284-.088,6.433,3.5,6.406,8.058q-.288,48.365-.4,96.729c-.01,4.2.427,8.4.657,12.6l2.15.352q10.337-19.018,20.666-38.04c13.042-24.141,26.151-48.251,39-72.5,2.811-5.3,6.531-7.292,12.468-7.188,16.115.284,32.238.017,48.358.068,7.55.023,9.194,3.193,5.37,9.736-26.243,44.885-52.328,89.868-78.726,134.666-19.6,33.254-39.557,66.295-59.408,99.4-14.447,24.087-36.724,34.974-63.869,36.355-14.952.762-29.993-.235-44.993-.407-4.968-.055-7.459-2.245-5.991-7.308C733.314,786.767,738.343,769.948,743.5,752.5Z" transform="translate(366.191 28.404)" fill="#fff" fill-rule="evenodd"/>
      <path id="Path_13349" data-name="Path 13349" d="M454.768,730.339c2.636-9.312,4.881-17.246,7.125-25.18l-1.44-1.138c-7.534,5.529-14.929,11.26-22.626,16.549C422,731.447,404.071,737.249,385.184,736.8c-35.99-.864-55.329-26.5-45.844-62.773,5.7-21.792,10.42-43.839,16.185-65.614,5.191-19.6,11.207-38.988,16.862-58.469.078-.264.242-.5.329-.766C378.793,531.2,378.793,531.2,397.7,531.2c13.339,0,26.678-.088,40.017-.017,9.39.052,11.512,3.623,8.8,12.6-5.073,16.76-9.677,33.664-14.483,50.508-4.424,15.513-9.432,30.889-13.042,46.586a65.483,65.483,0,0,0-1.049,24.675c.6,3.672,6.631,8.341,10.877,9.2,18.41,3.72,32.807-4.933,40.693-25.365,6.112-15.838,10.266-32.448,15.017-48.792q9.2-31.642,17.915-63.422c1.378-4.985,4.381-6.119,9.19-6.054,18.062.235,36.13.315,54.187-.033,6.916-.134,9.335,2.616,7.752,8.95-2.806,11.234-5.822,22.419-8.9,33.583-3.189,11.557-6.558,23.065-9.852,34.592-4.524,15.815-9.175,31.594-13.548,47.452-4.379,15.89-8.413,31.875-12.743,47.776-2.152,7.907-4.441,15.79-7.123,23.525-.522,1.5-3.145,3.216-4.816,3.233C496.623,730.421,476.653,730.339,454.768,730.339Z" transform="translate(104.878 28.389)" fill="#fff" fill-rule="evenodd"/>
      <path id="Path_13350" data-name="Path 13350" d="M908.806,796.688c5.208-22.671,11.626-42.584,14.367-65.152-20.2,18.529-39.263,36.01-60.282,55.289,2.5-13.619,3.934-25.016,6.758-36.062,5.323-20.814,11.25-41.483,17.353-62.086,1.989-6.711,3.989-12.912,6.229-19.568,1.518-4.513,3.271-9.489,4.484-14.128,4.909-18.794,10.033-37.531,15.034-56.305,5.829-21.879,11.571-43.787,17.471-65.651.859-3.183,2.442-6.167,3.605-9.277,1.253-3.35,2.4-6.738,3.758-10.556,9.824,17.743,17.428,38.27,30.176,55.721l3.2-.322c5.665-19.9,11.329-39.793,17.473-61.372,2.636,4.067,5.188,7.288,6.99,10.888q30.581,61.1,60.928,122.3c5.979,12.071,5.66,12.023-4.125,21.218-20.029,18.812-39.839,37.86-59.847,56.7C965.031,744.077,937.582,769.716,908.806,796.688Z" transform="translate(456.321 12.446)" fill="#fff" fill-rule="evenodd"/>
    </g>
  </g>
</svg>
