<svg xmlns="http://www.w3.org/2000/svg" xmlns:xlink="http://www.w3.org/1999/xlink" width="853" height="401" viewBox="0 0 853 401">
  <defs>
    <clipPath id="clip-path">
      <rect id="Rectangle_100" data-name="Rectangle 100" width="853" height="401" transform="translate(6499 5005)" fill="none"/>
    </clipPath>
  </defs>
  <g id="visa" transform="translate(-6499 -5005)" clip-path="url(#clip-path)">
    <g id="visa-2" data-name="visa" transform="translate(6314.986 4162.256)">
      <g id="Group_1142" data-name="Group 1142" transform="translate(198.014 908.744)">
        <path id="Path_13351" data-name="Path 13351" d="M556.176,1172.312H488.76l42.134-258.942h67.423ZM432.048,913.369l-64.271,178.1-7.605-38.352.007.014L337.494,936.684s-2.743-23.315-31.98-23.315H199.261l-1.247,4.384s32.492,6.76,70.519,29.6l58.57,224.967h70.242L504.6,913.369H432.048ZM962.31,1172.312h61.9L970.241,913.364H916.048c-25.025,0-31.121,19.3-31.121,19.3L784.382,1172.312h70.276l14.054-38.463h85.7Zm-74.186-91.6,35.422-96.9,19.928,96.9ZM789.651,975.64l9.621-55.606s-29.687-11.29-60.635-11.29c-33.455,0-112.9,14.622-112.9,85.723,0,66.9,93.245,67.728,93.245,102.866s-83.638,28.842-111.24,6.684l-10.022,58.141s30.1,14.622,76.095,14.622,115.41-23.821,115.41-88.653c0-67.326-94.083-73.595-94.083-102.866s65.662-25.521,94.513-9.621Z" transform="translate(-198.014 -908.744)" fill="#fff"/>
      </g>
      <path id="Path_13352" data-name="Path 13352" d="M360.179,1060.267,337.494,943.82s-2.743-23.315-31.98-23.315H199.261l-1.247,4.384s51.069,10.584,100.054,50.239C344.905,1013.031,360.179,1060.267,360.179,1060.267Z" transform="translate(0 -7.143)" fill="#9b9b9b" opacity="0.6"/>
    </g>
  </g>
</svg>
