<?xml version="1.0" encoding="utf-8"?>
<!-- Generator: Adobe Illustrator 16.0.0, SVG Export Plug-In . SVG Version: 6.00 Build 0)  -->
<!DOCTYPE svg PUBLIC "-//W3C//DTD SVG 1.1//EN" "http://www.w3.org/Graphics/SVG/1.1/DTD/svg11.dtd">
<svg version="1.1" id="Layer_1" xmlns="http://www.w3.org/2000/svg" xmlns:xlink="http://www.w3.org/1999/xlink" x="0px" y="0px"
	 width="2500px" height="2500px" viewBox="0 0 2500 2500" enable-background="new 0 0 2500 2500" xml:space="preserve">
<g>
	<path fill="#FFFFFF" d="M1110.105,1579.937h-171.68l107.298-659.414h171.697L1110.105,1579.937z M793.999,920.522l-163.672,453.55
		l-19.368-97.667l0.019,0.035L553.21,979.896c0,0-6.985-59.373-81.439-59.373H201.189l-3.175,11.165
		c0,0,82.744,17.216,179.582,75.371l149.154,572.896h178.877l273.139-659.432H793.999L793.999,920.522z M2144.347,1579.937h157.639
		l-137.442-659.432h-138.007c-63.729,0-79.251,49.143-79.251,49.143l-256.047,610.289h178.964l35.79-97.949h218.246
		L2144.347,1579.937z M1955.434,1346.679l90.205-246.769l50.748,246.769H1955.434z M1704.661,1079.097l24.5-141.605
		c0,0-75.601-28.751-154.411-28.751c-85.195,0-287.514,37.235-287.514,218.299c0,170.356,237.455,172.474,237.455,261.956
		c0,89.481-212.99,73.448-283.281,17.021l-25.523,148.061c0,0,76.658,37.236,193.781,37.236
		c117.157,0,293.899-60.661,293.899-225.761c0-171.45-239.589-187.414-239.589-261.956
		C1463.996,1029.037,1631.195,1038.615,1704.661,1079.097L1704.661,1079.097z"/>
</g>
<path opacity="0.6" fill="#9B9B9B" d="M610.978,1276.423L553.21,979.878c0,0-6.985-59.373-81.439-59.373H201.189l-3.175,11.165
	c0,0,130.052,26.953,254.794,127.936C572.083,1156.126,610.978,1276.423,610.978,1276.423z"/>
</svg>
