<svg xmlns="http://www.w3.org/2000/svg" width="154" height="154" viewBox="0 0 154 154">
  <g id="checkoutf" transform="translate(-160.403 -2179.403)">
    <circle id="Ellipse_29" data-name="Ellipse 29" cx="77" cy="77" r="77" transform="translate(160.403 2179.403)" fill="#0b1f50"/>
    <g id="Group_249" data-name="Group 249" transform="translate(205.374 2240.32)">
      <path id="Path_858" data-name="Path 858" d="M717.75,1202.7a17.788,17.788,0,0,1,1.047-2.842,6.563,6.563,0,0,1,5.952-3.5c4.231-.039,8.464-.032,12.7,0a7.038,7.038,0,0,1,6.958,6.808c.056,1.687.033,3.377.023,5.065-.005,1.01-.521,1.477-1.6,1.477H725.069c-1.856,0-3.712-.025-5.566.012a1.651,1.651,0,0,1-1.753-1.01Zm2.785,4.3h21.223c0-1.295.066-2.547-.014-3.791a4.344,4.344,0,0,0-4.441-4.167q-6.217-.015-12.434,0a4.152,4.152,0,0,0-4.292,3.513,31.009,31.009,0,0,0-.042,4.45Z" transform="translate(-717.75 -1177.683)" fill="#fff"/>
      <path id="Path_859" data-name="Path 859" d="M968.46,1208.775a1.671,1.671,0,0,1-1.752,1.01q-11.6-.028-23.2-.012c-1.293,0-1.724-.43-1.724-1.726,0-1.564-.028-3.128.021-4.69a7.064,7.064,0,0,1,7.15-6.938q6.129-.011,12.258,0a7.029,7.029,0,0,1,7.139,6.066,1.514,1.514,0,0,0,.109.283Zm-23.953-1.7H965.77c0-1.285.052-2.532-.012-3.772a4.445,4.445,0,0,0-4.663-4.216c-4.019.091-8.04.02-12.06.024a4.218,4.218,0,0,0-4.493,3.8,32.1,32.1,0,0,0-.034,4.163Z" transform="translate(-904.4 -1177.749)" fill="#fff"/>
      <path id="Path_860" data-name="Path 860" d="M749.828,1092.475a8,8,0,1,1,7.944,8.043A8,8,0,0,1,749.828,1092.475Zm13.317.021a5.33,5.33,0,1,0-5.294,5.362,5.33,5.33,0,0,0,5.294-5.362Z" transform="translate(-744.477 -1084.505)" fill="#fff"/>
      <path id="Path_861" data-name="Path 861" d="M989.709,1092.551a8,8,0,1,1-7.935-8.05,8,8,0,0,1,7.935,8.05Zm-2.658-.056a5.33,5.33,0,1,0-5.309,5.356,5.33,5.33,0,0,0,5.309-5.356Z" transform="translate(-931.004 -1084.503)" fill="#fff"/>
      <path id="Path_862" data-name="Path 862" d="M883.18,1138.8c.147-.266.26-.455.359-.651.793-1.581,1.578-3.167,2.379-4.74a1.338,1.338,0,1,1,2.391,1.166c-1.284,2.593-2.583,5.177-3.877,7.764a1.355,1.355,0,0,1-2.5,0c-1.293-2.587-2.592-5.172-3.877-7.764a1.338,1.338,0,1,1,2.389-1.166c.8,1.577,1.584,3.163,2.376,4.741C882.919,1138.339,883.032,1138.525,883.18,1138.8Z" transform="translate(-851.151 -1124.491)" fill="#fff"/>
    </g>
  </g>
</svg>
