<svg xmlns="http://www.w3.org/2000/svg" width="105" height="105" viewBox="0 0 105 105">
  <g id="easytowithdraw" transform="translate(-1393.5 -866.5)">
    <g id="Group_15" data-name="Group 15" transform="translate(1393.5 866.5)">
      <g id="address">
        <g id="Group_4" data-name="Group 4">
          <circle id="Ellipse_1" data-name="Ellipse 1" cx="52.5" cy="52.5" r="52.5" fill="#f3c500"/>
        </g>
      </g>
    </g>
    <g id="Group_14" data-name="Group 14" transform="translate(1423.26 896.257)">
      <path id="Path_28" data-name="Path 28" d="M1585.6,385.38a14.818,14.818,0,0,1,.738-2.291,6.874,6.874,0,0,1,6.127-3.978c.911-.049,1.828-.013,2.742-.013h28.442a7.018,7.018,0,0,1,6.859,4.807,7.751,7.751,0,0,1,.38,2.344c.04,3.347.02,6.694.016,10.041a1.776,1.776,0,1,1-3.536-.025q0-4.954,0-9.908a3.513,3.513,0,0,0-2.646-3.581,4.178,4.178,0,0,0-1.092-.129q-15.375-.01-30.742,0a3.554,3.554,0,0,0-3.742,3.757q-.006,9.333,0,18.667a3.563,3.563,0,0,0,3.776,3.767c2.728,0,5.455-.009,8.183.006a1.762,1.762,0,0,1,1.583,2.673,1.648,1.648,0,0,1-1.461.853c-3.007.008-6.018.07-9.022-.027a7.005,7.005,0,0,1-6.511-5.961,1.875,1.875,0,0,0-.088-.281Z" transform="translate(-1585.6 -379.086)" fill="#fff" stroke="#fff" stroke-width="1"/>
      <path id="Path_29" data-name="Path 29" d="M1726.56,606.661a6.657,6.657,0,0,1-3.937-2.344c-.55-.594-1.15-1.143-1.728-1.713-.357-.352-.719-.7-1.069-1.058a1.773,1.773,0,1,1,2.491-2.512c.878.852,1.741,1.72,2.611,2.581.1.1.21.2.392.367V586a1.8,1.8,0,0,1,1.1-1.847,1.756,1.756,0,0,1,2.433,1.475c.017.175.011.353.011.531v15.989c.172-.157.281-.248.375-.347.944-.933,1.875-1.88,2.833-2.8a1.762,1.762,0,0,1,3.02.818,1.594,1.594,0,0,1-.416,1.555c-1.373,1.378-2.754,2.751-4.166,4.089a5.388,5.388,0,0,1-2.711,1.2Z" transform="translate(-1704.439 -561.341)" fill="#fff" stroke="#fff" stroke-width="1"/>
      <path id="Path_30" data-name="Path 30" d="M1709.39,451.823c.2-3.776,1.742-6.772,5.183-8.592a8.42,8.42,0,0,1,9.537,1.345,9.9,9.9,0,0,1,1.667,12.521,1.781,1.781,0,0,1-3.328-.49,2.032,2.032,0,0,1,.366-1.464,6.162,6.162,0,0,0,.915-3.629,5.907,5.907,0,0,0-2.833-4.931,5.03,5.03,0,0,0-7.061,2.018,6.469,6.469,0,0,0-.078,6.463,2.263,2.263,0,0,1,.4,1.544,1.764,1.764,0,0,1-3.229.643,9.188,9.188,0,0,1-1.428-4C1709.446,452.784,1709.428,452.313,1709.39,451.823Z" transform="translate(-1695.7 -435.321)" fill="#fff" stroke="#fff" stroke-width="1"/>
      <path id="Path_31" data-name="Path 31" d="M1844.644,608.871c-1.489,0-2.978.011-4.467,0a1.753,1.753,0,0,1-1.747-1.463,1.728,1.728,0,0,1,1.031-1.9,2.661,2.661,0,0,1,.947-.159c2.7-.012,5.4,0,8.094-.009a3.5,3.5,0,0,0,3.556-2.618,5.522,5.522,0,0,0,.147-1,1.769,1.769,0,1,1,3.535.146,7.081,7.081,0,0,1-6.678,6.994c-1.472.057-2.949.009-4.422.009Z" transform="translate(-1810.436 -575.587)" fill="#fff" stroke="#fff" stroke-width="1"/>
      <path id="Path_32" data-name="Path 32" d="M1648.983,516.364a1.766,1.766,0,1,1,1.776-1.768,1.766,1.766,0,0,1-1.776,1.768Z" transform="translate(-1640.411 -498.032)" fill="#fff" stroke="#fff" stroke-width="1"/>
      <path id="Path_33" data-name="Path 33" d="M1903.411,516.365a1.766,1.766,0,1,1,1.752-1.792,1.766,1.766,0,0,1-1.752,1.792Z" transform="translate(-1866.673 -498.034)" fill="#fff" stroke="#fff" stroke-width="1"/>
    </g>
  </g>
</svg>
