<?xml version="1.0" encoding="utf-8"?>
<!-- Generator: Adobe Illustrator 16.0.0, SVG Export Plug-In . SVG Version: 6.00 Build 0)  -->
<!DOCTYPE svg PUBLIC "-//W3C//DTD SVG 1.1//EN" "http://www.w3.org/Graphics/SVG/1.1/DTD/svg11.dtd">
<svg version="1.1" id="Layer_1" xmlns="http://www.w3.org/2000/svg" xmlns:xlink="http://www.w3.org/1999/xlink" x="0px" y="0px"
	 width="1024px" height="1024px" viewBox="0 0 1024 1024" enable-background="new 0 0 1024 1024" xml:space="preserve">
<path fill-rule="evenodd" clip-rule="evenodd" fill="#F9F7F7" d="M583.986,294.497c7.834,0.969,15.669,1.938,23.717,2.934
	c0,20.171,0,39.861,0,60.461c-2.629,0.148-5.233,0.382-7.841,0.428c-11.735,0.208-23.506-0.145-35.197,0.664
	c-14.651,1.015-23.377,9.431-23.937,23.854c-0.706,18.179-0.17,36.407-0.17,55.355c20.242,0,40.354,0,61.459,0
	c-1.159,10.091-2.176,19.364-3.302,28.624c-1.386,11.398-3.067,22.765-4.199,34.188c-0.441,4.46-2.124,5.945-6.546,5.887
	c-15.475-0.204-30.953-0.079-47.479-0.079c0,57.499,0,114.568,0,171.638c-22.997,0-45.993,0-68.991,0c0-56.915,0-113.829,0-171.649
	c-18.719,0-36.83,0-55.203,0c0-23.067,0-45.228,0-68.176c18.313,0,36.411,0,55.368,0c0-15.682-0.683-30.632,0.194-45.489
	c0.862-14.613,1.521-29.63,5.422-43.589c8.648-30.939,30.746-47.944,61.985-53.604c1.933-0.35,3.817-0.958,5.725-1.445
	C557.989,294.497,570.988,294.497,583.986,294.497z"/>
</svg>
