<svg xmlns="http://www.w3.org/2000/svg" width="105" height="105" viewBox="0 0 105 105">
  <g id="full_protection" data-name="full protection" transform="translate(-1221.446 -866.446)">
    <g id="Group_11" data-name="Group 11" transform="translate(1221.446 866.446)">
      <g id="address" transform="translate(0 0)">
        <g id="Group_4" data-name="Group 4">
          <circle id="Ellipse_1" data-name="Ellipse 1" cx="52.5" cy="52.5" r="52.5" fill="#f3c500"/>
        </g>
      </g>
    </g>
    <g id="fullprotection" transform="translate(1255.656 899.037)">
      <path id="Path_25" data-name="Path 25" d="M1528.665,301.885h-1.012c-.584-.24-1.183-.447-1.748-.723a27.725,27.725,0,0,1-12.458-11.9,26.735,26.735,0,0,1-3.318-11.6c-.1-2.059-.069-4.125-.077-6.188a3.075,3.075,0,0,1,2.046-2.976,7.081,7.081,0,0,0,4.417-4.453,3.041,3.041,0,0,1,1.694-1.783c.232-.1.479-.176.719-.262h18.385a3.65,3.65,0,0,1,2.714,2.554,6.622,6.622,0,0,0,4.059,3.889,3.16,3.16,0,0,1,2.185,3.117q.005,2.141,0,4.282a25.821,25.821,0,0,1-.792,6.626C1543.03,291.668,1537.525,298.235,1528.665,301.885Zm-.487-37.548h-8.532a.887.887,0,0,0-1.021.7,9.252,9.252,0,0,1-5.554,5.584.878.878,0,0,0-.691.989c0,1.313.006,2.625,0,3.933a23.868,23.868,0,0,0,.424,4.956,25.565,25.565,0,0,0,14.778,18.874,1.289,1.289,0,0,0,1.183-.013,25.427,25.427,0,0,0,11.07-9.553,24.806,24.806,0,0,0,4.02-12.279c.1-1.942.059-3.892.076-5.839.006-.662-.14-.866-.758-1.105a9.2,9.2,0,0,1-5.473-5.51c-.231-.6-.427-.738-1.073-.738Z" transform="translate(-1510.05 -262)" fill="#fff" stroke="#fff" stroke-width="1"/>
      <path id="Path_26" data-name="Path 26" d="M1655.2,359.194c.288.049.546.075.794.139a2.712,2.712,0,0,1,2.084,2.6c.025,2.388.051,4.778-.01,7.164a5.154,5.154,0,0,1-5,4.9q-2.745.045-5.491,0a5.155,5.155,0,0,1-5-4.911c-.061-2.387-.038-4.777-.008-7.164a2.738,2.738,0,0,1,2.513-2.665c.114-.012.226-.033.366-.053,0-1.11-.007-2.2,0-3.288a4.876,4.876,0,1,1,9.751-.185c.02,1.012.005,2.025.007,3.035C1655.2,358.905,1655.2,359.046,1655.2,359.194Zm-4.88,2.372h-4.75c-.561,0-.685.13-.686.693,0,2.128-.007,4.257,0,6.385a2.878,2.878,0,0,0,3.035,3.021q2.355.006,4.712,0a2.893,2.893,0,0,0,3.117-3.1q.007-3.135,0-6.269c0-.615-.116-.733-.724-.738l-4.706.006Zm2.514-2.36a2.256,2.256,0,0,0,.026-.238c0-1.038.013-2.076,0-3.113a2.533,2.533,0,0,0-5-.543,5.537,5.537,0,0,0-.077,1.158c-.01.9,0,1.8,0,2.736Z" transform="translate(-1632.207 -344.082)" fill="#fff" stroke="#fff" stroke-width="1"/>
      <path id="Path_27" data-name="Path 27" d="M1727.469,524.407c0-.349-.01-.7,0-1.048a1.164,1.164,0,1,1,2.328-.025q.029,1.087,0,2.175a1.163,1.163,0,1,1-2.325-.014C1727.452,525.136,1727.469,524.772,1727.469,524.407Z" transform="translate(-1710.526 -501.879)" fill="#fff" stroke="#fff" stroke-width="1"/>
    </g>
  </g>
</svg>
