<?xml version="1.0" encoding="utf-8"?>
<!-- Generator: Adobe Illustrator 16.0.0, SVG Export Plug-In . SVG Version: 6.00 Build 0)  -->
<!DOCTYPE svg PUBLIC "-//W3C//DTD SVG 1.1//EN" "http://www.w3.org/Graphics/SVG/1.1/DTD/svg11.dtd">
<svg version="1.1" id="Layer_1" xmlns="http://www.w3.org/2000/svg" xmlns:xlink="http://www.w3.org/1999/xlink" x="0px" y="0px"
	 width="1024px" height="1024px" viewBox="0 0 1024 1024" enable-background="new 0 0 1024 1024" xml:space="preserve">
<path fill-rule="evenodd" clip-rule="evenodd" fill="#FFFFFF" d="M341.992,595.041c0-66.12,0-132.241,0-198.361
	c0.477-1.204,1.189-2.371,1.395-3.621c6.902-42.007,29.537-72.528,67.904-90.62c11.352-5.352,24.146-7.644,36.28-11.338
	c66.121,0,132.24,0,198.361,0c1.205,0.477,2.371,1.189,3.621,1.395c42.008,6.902,72.527,29.537,90.62,67.904
	c5.353,11.353,7.644,24.146,11.338,36.28c0,66.12,0,132.241,0,198.361c-0.477,1.204-1.188,2.371-1.395,3.621
	c-6.902,42.008-29.537,72.528-67.904,90.62c-11.352,5.352-24.146,7.644-36.28,11.338c-66.121,0-132.24,0-198.361,0
	c-1.205-0.477-2.371-1.188-3.621-1.395c-42.007-6.902-72.526-29.537-90.62-67.904C347.979,619.969,345.688,607.175,341.992,595.041z
	 M719.518,496.285c0-27.981,0.097-55.964-0.021-83.944c-0.215-51.13-37.831-89.039-88.774-89.204
	c-55.963-0.182-111.927-0.178-167.89,0c-50.965,0.161-88.675,38.044-88.812,89.154c-0.148,55.695-0.147,111.394-0.001,167.089
	c0.135,51.456,37.955,89.106,89.563,89.219c55.43,0.122,110.86,0.118,166.29,0.001c51.969-0.11,89.486-37.839,89.632-89.97
	C719.58,551.183,719.518,523.733,719.518,496.285z"/>
<path fill-rule="evenodd" clip-rule="evenodd" fill="#FFFFFF" d="M657.105,496.026c-0.094,60.694-49.829,110.281-110.52,110.188
	c-60.694-0.094-110.281-49.829-110.188-110.519c0.094-60.696,49.83-110.282,110.52-110.188
	C607.612,385.601,657.199,435.337,657.105,496.026z M546.557,417.501c-42.61,0.09-78.248,35.906-78.164,78.555
	c0.084,42.605,35.897,78.241,78.555,78.164c42.598-0.076,78.248-35.903,78.164-78.555
	C625.028,453.063,589.197,417.41,546.557,417.501z"/>
<path fill-rule="evenodd" clip-rule="evenodd" fill="#FFFFFF" d="M658.352,368.014c8.344-0.241,16.006,7.064,16.246,15.491
	c0.239,8.358-7.056,16.009-15.488,16.247c-8.354,0.234-16.007-7.061-16.247-15.49C642.623,375.914,649.923,368.257,658.352,368.014z
	"/>
</svg>
