<?xml version="1.0" encoding="utf-8"?>
<!-- Generator: Adobe Illustrator 16.0.0, SVG Export Plug-In . SVG Version: 6.00 Build 0)  -->
<!DOCTYPE svg PUBLIC "-//W3C//DTD SVG 1.1//EN" "http://www.w3.org/Graphics/SVG/1.1/DTD/svg11.dtd">
<svg version="1.1" id="Layer_1" xmlns="http://www.w3.org/2000/svg" xmlns:xlink="http://www.w3.org/1999/xlink" x="0px" y="0px"
	 width="1024px" height="1024px" viewBox="0 0 1024 1024" enable-background="new 0 0 1024 1024" xml:space="preserve">
<path fill-rule="evenodd" clip-rule="evenodd" fill="#FFFFFF" d="M470.102,565.739c-38.109-4.063-63.385-22.939-77.846-58.752
	c12.293,0,23.365,0,34.438,0c-39.027-14.632-60.793-41.231-63.729-83.123c11.853,3.208,23.092,6.252,34.328,9.295
	c0.393-0.709,0.784-1.417,1.176-2.126c-16.672-13.121-28.309-29.466-32.699-50.27c-4.391-20.81-1.589-40.578,9.402-60.194
	c45.575,53.062,102.314,82.682,172.326,87.331c-0.396-6.067-0.939-11.263-1.041-16.467c-0.682-35.015,18.468-66.111,51.137-79.63
	c32.48-13.441,62.665-7.56,89.179,15.494c3.772,3.279,7.08,4.265,11.451,2.634c12.923-4.827,25.838-9.678,38.739-14.56
	c1.882-0.712,3.677-1.654,6.72-3.04c-5.919,18.882-17.316,31.974-31.346,44.476c6.931-1.401,13.947-2.476,20.766-4.296
	c6.866-1.832,13.533-4.407,22.012-7.231c-9.491,14.402-19.751,26.009-32.162,35.433c-6.262,4.755-8.572,9.62-8.839,17.726
	c-2.885,87.817-39.516,157.692-114.056,205.282c-44.044,28.119-93.581,36.979-145.464,32.915
	c-34.518-2.702-66.733-12.942-96.834-29.95c-2.463-1.391-4.781-3.034-7.227-5.442C394.15,603.705,433.667,593.129,470.102,565.739z"
	/>
</svg>
