<svg xmlns="http://www.w3.org/2000/svg" width="154" height="154" viewBox="0 0 154 154">
  <g id="winbig2" transform="translate(-1497.602 -2178.602)">
    <circle id="Ellipse_30" data-name="Ellipse 30" cx="77" cy="77" r="77" transform="translate(1497.602 2178.602)" fill="#0b1f50"/>
    <g id="Group_251" data-name="Group 251" transform="translate(1544.057 2223.648)">
      <path id="Path_866" data-name="Path 866" d="M1074.788,874.5a1.84,1.84,0,0,0-.866,2.046c-1.669.24-2.125.537-2.1,1.339.021.784.461,1.058,1.895,1.252a14.137,14.137,0,0,0,.7,1.774c.1.186.506.278.776.286.8.026,1.083-.446,1.252-1.87a14.986,14.986,0,0,0,1.811-.746c.179-.1.253-.516.253-.785,0-.815-.494-1.1-2.1-1.218.055-.821.049-1.663-.878-2.077Z" transform="translate(-1063.267 -874.5)" fill="#fff"/>
      <path id="Path_867" data-name="Path 867" d="M848.707,1088.621l3.536,6.114c-.338.207-.663.413-.991.6-.913.53-1.835,1.045-2.744,1.582a1.252,1.252,0,1,0,1.252,2.149q2.346-1.339,4.677-2.7a1.259,1.259,0,0,0,.491-1.945q-2.271-3.959-4.56-7.909a1.292,1.292,0,0,0-2.023-.555c-.2.11-.395.221-.628.354l-3.559-3.567a15.993,15.993,0,0,0-11.4-4.884,11.566,11.566,0,0,0-7.692,2.692,1.727,1.727,0,0,1-.989.364c-2.238.032-4.479.1-6.713,0a4.709,4.709,0,0,0-4.661,6.5,2.024,2.024,0,0,1,.047.332c-.927-.265-1.809-.46-2.652-.768a11.725,11.725,0,0,1-4.3-2.878c-1.3-1.313-2.578-2.644-3.922-3.9a4.727,4.727,0,0,0-7.855,2.37,4.139,4.139,0,0,0,.864,3.978,62.506,62.506,0,0,0,8.142,7.827,18.82,18.82,0,0,0,11.289,3.6c4.393.017,8.786,0,13.179,0h.627a11.673,11.673,0,0,0,.547,1.319c1.446,2.535,2.91,5.06,4.372,7.587.6,1.031,1.157,1.173,2.2.575q2.26-1.3,4.516-2.61a1.246,1.246,0,1,0-1.156-2.194c-1.265.705-2.512,1.442-3.844,2.21l-3.549-6.133Zm-3.241-1.036c-.141.1-.237.167-.341.228q-6.479,3.743-12.964,7.474a1.714,1.714,0,0,1-.819.2c-5.7.011-11.4.035-17.093,0a16.538,16.538,0,0,1-11.648-4.653c-1.849-1.753-3.623-3.584-5.421-5.39a2.283,2.283,0,1,1,3.22-3.209q1.872,1.863,3.737,3.734a14.2,14.2,0,0,0,10.446,4.314q4.507-.007,9.012,0c.933,0,1.865.015,2.8-.005a1.236,1.236,0,0,0,1.252-1.59,1.286,1.286,0,0,0-1.4-.891h-9.012a2.194,2.194,0,1,1,.012-4.366c2.528,0,5.055-.008,7.583,0a1.862,1.862,0,0,0,1.4-.549,8.63,8.63,0,0,1,3.253-2,11.828,11.828,0,0,1,8.022.384c3.362,1.2,5.511,3.927,7.969,6.328Z" transform="translate(-793.862 -1044.142)" fill="#fff"/>
      <path id="Path_868" data-name="Path 868" d="M942.833,921.442c-.7,2.146-1.407,4.242-2.078,6.349a2.578,2.578,0,0,0,2.046,3.5,2.617,2.617,0,0,0,2.029-.586c1.637-1.2,3.285-2.382,4.909-3.6a.629.629,0,0,1,.909,0c1.607,1.205,3.235,2.379,4.862,3.559a2.55,2.55,0,0,0,3.217.161,2.583,2.583,0,0,0,.876-3.155c-.594-1.829-1.169-3.665-1.815-5.476a.9.9,0,0,1,.429-1.252c1.621-1.116,3.2-2.284,4.788-3.447a2.526,2.526,0,0,0,.93-3.228,2.563,2.563,0,0,0-2.563-1.51c-1.989.01-3.978-.015-5.966.015a.746.746,0,0,1-.873-.62q-.9-2.935-1.882-5.845a2.537,2.537,0,0,0-3.259-1.694,2.584,2.584,0,0,0-1.71,1.825c-.618,1.93-1.252,3.853-1.857,5.788a.639.639,0,0,1-.732.546c-2.092-.023-4.185-.046-6.276,0a2.539,2.539,0,0,0-2.283,3.772,3.863,3.863,0,0,0,1.066,1.1C939.314,918.921,941.052,920.157,942.833,921.442Zm14.511,7.456c-.34-.232-.516-.343-.677-.463q-2.737-1.994-5.473-3.99a1.351,1.351,0,0,0-2.009,0q-2.311,1.682-4.616,3.372c-.463.338-.931.67-1.553,1.116.118-.389.178-.6.246-.81l2.124-6.487a1.331,1.331,0,0,0-.613-1.858q-2.815-2.045-5.635-4.084c-.137-.1-.259-.221-.522-.442h7.621c.977,0,1.285-.231,1.585-1.154q1.055-3.246,2.1-6.494c.067-.206.147-.407.275-.741.113.323.178.495.235.67q1.053,3.246,2.1,6.493c.322.993.629,1.224,1.664,1.226q3.388.006,6.777,0c.211,0,.421.022.81.044-.336.25-.516.385-.692.516l-5.387,3.9c-.892.647-1.007,1.012-.663,2.067q1.026,3.125,2.054,6.249C957.174,928.253,957.23,928.488,957.345,928.9Z" transform="translate(-926.46 -899.512)" fill="#fff"/>
      <path id="Path_869" data-name="Path 869" d="M882.842,1006.161c.154,1.626.432,2.076,1.239,2.1.841.024,1.122-.4,1.358-2.087.916-.011,1.959.054,2.029-1.274.041-.78-.426-1.05-1.875-1.271a14.106,14.106,0,0,0-.72-1.768c-.1-.186-.509-.276-.779-.281-.8-.019-1.1.486-1.252,2.049-.918.074-2.109-.043-2.033,1.385C880.875,1006.264,881.93,1006.169,882.842,1006.161Z" transform="translate(-840.558 -980.508)" fill="#fff"/>
      <path id="Path_870" data-name="Path 870" d="M853.035,1210.446a1.2,1.2,0,0,0,1.209,1.229,1.238,1.238,0,0,0,1.257-1.2,1.27,1.27,0,0,0-1.252-1.275A1.232,1.232,0,0,0,853.035,1210.446Z" transform="translate(-803.984 -1153.704)" fill="#fff"/>
    </g>
  </g>
</svg>
