<?xml version="1.0" encoding="utf-8"?>
<!-- Generator: Adobe Illustrator 16.0.0, SVG Export Plug-In . SVG Version: 6.00 Build 0)  -->
<!DOCTYPE svg PUBLIC "-//W3C//DTD SVG 1.1//EN" "http://www.w3.org/Graphics/SVG/1.1/DTD/svg11.dtd">
<svg version="1.1" id="Layer_1" xmlns="http://www.w3.org/2000/svg" xmlns:xlink="http://www.w3.org/1999/xlink" x="0px" y="0px"
	 width="1024px" height="1024px" viewBox="0 0 1024 1024" enable-background="new 0 0 1024 1024" xml:space="preserve">
<path fill-rule="evenodd" clip-rule="evenodd" fill="#FCFCFC" d="M448.59,695.206c-59.226-3.278-135.891-6.468-212.372-12.143
	c-47.023-3.486-72.399-27.724-80.566-74.216c-11.57-65.864-12.229-132.439-8.313-199.001c1.638-27.831,4.456-55.731,9.045-83.213
	c6.681-40.014,31.297-66.195,71.272-69.598c67.539-5.747,135.396-9.792,203.154-10.386c76.691-0.674,153.429,3.007,230.13,5.373
	c15.442,0.476,30.956,2.739,46.177,5.575c39.271,7.313,62.407,33.096,68.952,80.414c12.59,91.031,12.289,182.247-1.907,273.124
	c-6.617,42.36-33.808,66.996-76.84,72.2c-15.404,1.862-30.835,4.068-46.312,4.695C589.397,690.522,527.762,692.456,448.59,695.206z
	 M402.022,564.97c56.088-32.347,110.104-63.496,165.696-95.557c-56.438-32.488-110.394-63.547-165.696-95.381
	C402.022,438.138,402.022,500.315,402.022,564.97z"/>
</svg>
