<svg xmlns="http://www.w3.org/2000/svg" xmlns:xlink="http://www.w3.org/1999/xlink" width="264" height="264" viewBox="0 0 264 264">
  <defs>
    <linearGradient id="linear-gradient" x1="0.5" x2="0.5" y2="1" gradientUnits="objectBoundingBox">
      <stop offset="0" stop-color="#2338b0"/>
      <stop offset="0.766" stop-color="#4726a6"/>
      <stop offset="1" stop-color="#4c24a5"/>
    </linearGradient>
  </defs>
  <g id="address" transform="translate(-1133 -472)">
    <g id="Group_4" data-name="Group 4" transform="translate(703.538 21.538)">
      <circle id="Ellipse_1" data-name="Ellipse 1" cx="132" cy="132" r="132" transform="translate(429.462 450.462)" fill="url(#linear-gradient)"/>
    </g>
    <g id="Group_6" data-name="Group 6" transform="translate(931 221)">
      <path id="Path_12" data-name="Path 12" d="M336.9,316c2.83.517,5.72.818,8.48,1.587,11.885,3.315,20.843,10.478,26.3,21.507,7.005,14.149,6.23,28.188-2.062,41.633-6.222,10.089-12.712,20.014-19.081,30.013-.254.4-.495.805-.88,1.435H351.2c6.917,0,13.835.02,20.752-.017a3.67,3.67,0,0,1,3.152,1.5q12.749,16.116,25.539,32.2c.321.4.6.842.9,1.264v3.414H267v-3.414q8.04-10.2,16.082-20.4c3.419-4.327,6.879-8.622,10.271-12.97a3.874,3.874,0,0,1,3.371-1.6c6.829.047,13.659.021,20.489.021h1.668c-.333-.548-.562-.942-.807-1.326-6.6-10.371-13.289-20.685-19.778-31.125a42.026,42.026,0,0,1,32.588-63.541,5.093,5.093,0,0,0,.757-.182ZM334.24,426.417c.257-.351.393-.517.508-.7,10.343-16.235,20.971-32.3,30.934-48.762,7.954-13.144,7.435-26.759-1.053-39.509-11.738-17.631-35.526-21.389-52.47-8.74a36.6,36.6,0,0,0-9.226,48.5c8.64,13.842,17.505,27.544,26.271,41.308C330.847,421.1,332.492,423.676,334.24,426.417Zm36.58,18.806c-2.97-3.738-5.78-7.3-8.645-10.826a1.828,1.828,0,0,0-1.274-.4q-26.664-.028-53.328.015a2.239,2.239,0,0,0-1.5.739c-1.583,1.869-3.083,3.81-4.606,5.731-1.211,1.526-2.414,3.058-3.737,4.736Zm-82.467-16.681c.224.108.3.173.368.174,4.9.008,9.8.029,14.7-.019a1.954,1.954,0,0,0,1.24-.734c1.563-1.886,3.071-3.818,4.593-5.737,1.21-1.525,2.413-3.055,3.783-4.791-5.344,0-10.4-.009-15.465.023a1.324,1.324,0,0,0-.821.532C293.965,421.469,291.194,424.966,288.353,428.541Zm91.976.186c-3.006-3.783-5.79-7.321-8.635-10.81a1.965,1.965,0,0,0-1.368-.467c-4.551-.034-9.1-.022-13.654-.016-.317,0-.635.062-1.109.111,2.918,3.668,5.714,7.2,8.535,10.7a1.282,1.282,0,0,0,.855.459C369.973,428.735,375,428.727,380.328,428.727ZM275.063,445.282c5.332,0,10.352.016,15.372-.033a1.83,1.83,0,0,0,1.106-.743c2.148-2.651,4.262-5.33,6.383-8,.61-.77,1.208-1.549,1.961-2.516-5.3,0-10.316-.008-15.336.02a1.281,1.281,0,0,0-.857.454C280.871,437.969,278.074,441.5,275.063,445.282Zm118.4,0c-3.01-3.788-5.818-7.35-8.679-10.87a1.821,1.821,0,0,0-1.266-.411c-3.763-.031-7.527-.018-11.291-.018h-3.619c3.038,3.822,5.881,7.411,8.756,10.975a1.326,1.326,0,0,0,.927.311C383.239,445.289,388.182,445.283,393.467,445.283Zm-82.578-16.63h18.468c-.211-.375-.341-.635-.5-.879q-3.026-4.757-6.059-9.508a2.313,2.313,0,0,0-3.525-.192c-1.92,2.383-3.817,4.786-5.719,7.183C312.7,426.339,311.85,427.429,310.888,428.654Zm28.228,0h18.553c-2.968-3.737-5.792-7.333-8.671-10.885-.611-.753-2.654-.442-3.193.4-1.159,1.8-2.3,3.61-3.452,5.415C341.306,425.222,340.258,426.863,339.116,428.654Z" fill="#fff"/>
      <path id="Path_13" data-name="Path 13" d="M449.282,428.562a26.273,26.273,0,1,1,26.279-26.195A26.328,26.328,0,0,1,449.282,428.562Zm21.024-26.281a21.018,21.018,0,1,0-21.071,21.026A21.091,21.091,0,0,0,470.306,402.281Z" transform="translate(-115.019 -44.245)" fill="#fff"/>
      <path id="Path_14" data-name="Path 14" d="M528.436,611.658a11.7,11.7,0,0,1-.685,1.551q-4.545,7.6-9.131,15.174a2.821,2.821,0,0,1-2.732,1.7,2.256,2.256,0,0,1-2.2-1.757,3.682,3.682,0,0,1,.306-2.349c3.1-5.28,6.272-10.515,9.457-15.743a2.558,2.558,0,0,1,3.12-1.307A2.748,2.748,0,0,1,528.436,611.658Z" transform="translate(-181.817 -215.845)" fill="#fff"/>
      <path id="Path_15" data-name="Path 15" d="M575.741,576.078a2.607,2.607,0,1,1-2.662,2.551A2.69,2.69,0,0,1,575.741,576.078Z" transform="translate(-225.649 -191.736)" fill="#fff"/>
    </g>
  </g>
</svg>
