<svg xmlns="http://www.w3.org/2000/svg" xmlns:xlink="http://www.w3.org/1999/xlink" width="264" height="264" viewBox="0 0 264 264">
  <defs>
    <linearGradient id="linear-gradient" x1="0.5" x2="0.5" y2="1" gradientUnits="objectBoundingBox">
      <stop offset="0" stop-color="#2338b0"/>
      <stop offset="0.766" stop-color="#4726a6"/>
      <stop offset="1" stop-color="#4c24a5"/>
    </linearGradient>
  </defs>
  <g id="call" transform="translate(-792 -472)">
    <g id="call-2" data-name="call" transform="translate(362.538 21.538)">
      <circle id="Ellipse_1" data-name="Ellipse 1" cx="132" cy="132" r="132" transform="translate(429.462 450.462)" fill="url(#linear-gradient)"/>
    </g>
    <g id="Group_5" data-name="Group 5" transform="translate(-549.637 20.463)">
      <path id="Path_9" data-name="Path 9" d="M1500.566,664.331c-2.312-.39-4.646-.685-6.933-1.187-8.688-1.91-16.642-5.662-24.351-9.964a129.9,129.9,0,0,1-32-25.1c-11.383-12.241-20.8-25.785-26.726-41.543a54.49,54.49,0,0,1-3.91-17.795c-.165-6.231,1.4-11.841,5.864-16.393,3.542-3.614,6.96-7.382,10.772-10.692,5.893-5.117,12.308-5.079,17.988.247,6.011,5.636,11.783,11.546,17.4,17.58a11.928,11.928,0,0,1,.06,16.24c-2.97,3.363-6.25,6.453-9.4,9.661-.274.279-.585.521-1.1.978a91.342,91.342,0,0,0,36.052,35.994c2.593-2.624,5.036-5.111,7.495-7.582,2-2.014,4.023-4.011,6.783-5.006,4.537-1.635,8.867-1.091,12.332,2.2q9.435,8.968,18.379,18.448a12.045,12.045,0,0,1,.327,16.084c-3.846,4.444-8.03,8.614-12.262,12.7a18.782,18.782,0,0,1-10.928,4.886,6.005,6.005,0,0,0-.867.244Zm1.873-7.612c4.732.02,8.306-1.372,11.225-4.422,2.836-2.963,5.733-5.866,8.6-8.8.365-.374.714-.767,1.041-1.175,2.02-2.518,2.043-5.054-.147-7.429-2.306-2.5-4.757-4.867-7.159-7.278-3.111-3.122-6.206-6.262-9.366-9.334-2.314-2.248-4.914-2.274-7.367-.194-.465.395-.9.831-1.328,1.263-3,2.989-5.973,6-8.992,8.967a5.731,5.731,0,0,1-7.18,1.19c-1.827-.924-3.661-1.849-5.418-2.9a93.94,93.94,0,0,1-20.971-17.412c-5.482-5.961-10.483-12.265-13.858-19.715-1.785-3.938-1.405-5.863,1.688-8.869,3.191-3.1,6.391-6.2,9.447-9.431,2.142-2.263,2.07-4.653.109-7.063a16.886,16.886,0,0,0-1.149-1.255q-7.395-7.417-14.8-14.824c-3.187-3.182-5.994-3.214-9.174-.078-3.045,3-6.146,5.958-9.036,9.105a16.968,16.968,0,0,0-3.326,5.08c-1.585,4.029-1.125,8.252-.281,12.383a75.052,75.052,0,0,0,6.574,18.137,123.851,123.851,0,0,0,19.246,27.921c13.464,14.983,29.429,26.376,48.388,33.4A44.075,44.075,0,0,0,1502.439,656.719Z" transform="translate(0 -13.778)" fill="#fff"/>
      <path id="Path_10" data-name="Path 10" d="M1669.061,576.691c-.032.03-.081.053-.094.09-.812,2.247-2.127,3.344-3.881,3.231-2.133-.137-3.389-1.36-3.864-3.911a64.562,64.562,0,0,0-39.282-48.154,128.332,128.332,0,0,0-13.135-3.855c-2.43-.665-3.812-2.455-3.344-4.638s2.464-3.271,4.955-2.815a71.275,71.275,0,0,1,29.029,12.229,72.463,72.463,0,0,1,29.35,46.17,7.8,7.8,0,0,0,.265.866Z" transform="translate(-128.421 0)" fill="#fff"/>
      <path id="Path_11" data-name="Path 11" d="M1606.522,584.784a68.991,68.991,0,0,1,6.9,1.821q24.02,8.874,29.281,33.99a3.807,3.807,0,0,1-7.375,1.886c-.931-2.942-1.5-6.043-2.768-8.825-5.27-11.537-14.226-18.575-26.668-21.141-2.142-.442-3.353-1.681-3.464-3.5a3.719,3.719,0,0,1,2.612-3.921C1605.4,584.972,1605.8,584.931,1606.522,584.784Z" transform="translate(-126.511 -44.101)" fill="#fff"/>
    </g>
  </g>
</svg>
