<svg xmlns="http://www.w3.org/2000/svg" xmlns:xlink="http://www.w3.org/1999/xlink" width="120" height="120" viewBox="0 0 120 120">
  <defs>
    <linearGradient id="linear-gradient" x1="0.5" x2="0.5" y2="1" gradientUnits="objectBoundingBox">
      <stop offset="0" stop-color="#2338b0"/>
      <stop offset="0.766" stop-color="#4726a6"/>
      <stop offset="1" stop-color="#4c24a5"/>
    </linearGradient>
  </defs>
  <g id="highspeed" transform="translate(-1056 -866)">
    <g id="highspeed-2" data-name="highspeed" transform="translate(173)">
      <g id="address" transform="translate(-250 394)">
        <g id="Group_4" data-name="Group 4" transform="translate(1133 472)">
          <circle id="Ellipse_1" data-name="Ellipse 1" cx="60" cy="60" r="60" fill="url(#linear-gradient)"/>
        </g>
      </g>
    </g>
    <g id="Group_10" data-name="Group 10" transform="translate(-439.405 250.139)">
      <path id="Path_22" data-name="Path 22" d="M1584.861,652.409c-.1.813-.187,1.628-.293,2.44a41.28,41.28,0,0,1-5.259,15.181,41.721,41.721,0,0,1-8.047,10.176,1.582,1.582,0,0,0-.531,1.205,28.768,28.768,0,0,1-7.375,18.032c-.307.348-.629.686-.96,1.01a1.186,1.186,0,0,1-1.315.348,1.213,1.213,0,0,1-.8-1.1c-.384-2.777-.788-5.551-1.187-8.326a1.169,1.169,0,0,0-.083-.2c-.37.327-.708.635-1.055.933a1.157,1.157,0,0,1-1.8-.046q-7.267-7.255-14.522-14.523a1.143,1.143,0,0,1-.029-1.756c.3-.348.609-.689.982-1.109-1.165-.17-2.232-.327-3.3-.48q-2.7-.385-5.409-.768a1.141,1.141,0,0,1-1.008-.771,1.156,1.156,0,0,1,.339-1.268,28.823,28.823,0,0,1,15.04-7.91,36.7,36.7,0,0,1,4.04-.466,1.8,1.8,0,0,0,1.281-.609,43.552,43.552,0,0,1,21.036-12.4,35.04,35.04,0,0,1,8.69-1.142,1.492,1.492,0,0,1,1.558.866ZM1557.2,689.733c.638-.584,1.3-1.207,1.98-1.812,3.443-3.066,6.961-6.051,10.322-9.2a40.159,40.159,0,0,0,12.965-25.559c.071-.648.071-1.3.113-2.126-1.985.262-3.88.391-5.722.778a40.086,40.086,0,0,0-20.767,11.3c-3,3.056-5.758,6.354-8.623,9.546-1.168,1.3-2.328,2.612-3.459,3.881Zm-20.647-18.3a1.63,1.63,0,0,0,.216.073c2.438.354,4.875.714,7.317,1.042a.841.841,0,0,0,.625-.259c1.953-2.161,3.887-4.339,5.824-6.513.091-.1.168-.217.305-.394A26.916,26.916,0,0,0,1536.552,671.438Zm31.729,11.5a1.511,1.511,0,0,0-.182.123c-2.24,2-4.486,3.988-6.706,6.006a1,1,0,0,0-.2.748c.1.958.26,1.91.4,2.863.214,1.473.43,2.947.65,4.456C1565,694.6,1568.361,686.689,1568.281,682.937Z" transform="translate(-1.532)" fill="#fff"/>
      <path id="Path_23" data-name="Path 23" d="M1529.261,723.326c-.843-.474-1.012-.853-.729-1.749a86.735,86.735,0,0,1,4.543-12.108,7.409,7.409,0,0,1,4.1-4.009,7.072,7.072,0,0,1,7.55,11.544,10.943,10.943,0,0,1-3.35,2.077,89.914,89.914,0,0,1-10.932,4.03c-.183.058-.357.142-.534.215Zm2.006-2.855c1.58-.551,3.051-.994,4.467-1.571,2.143-.872,4.292-1.752,6.358-2.788a4.478,4.478,0,0,0,2.24-4.912,4.782,4.782,0,0,0-3.917-3.831,4.6,4.6,0,0,0-4.874,2.36A66.192,66.192,0,0,0,1531.266,720.47Z" transform="translate(0 -19.53)" fill="#fff"/>
      <path id="Path_24" data-name="Path 24" d="M1591.19,669.894a5.723,5.723,0,1,1-5.758-5.7A5.75,5.75,0,0,1,1591.19,669.894Zm-5.748,3.443a3.421,3.421,0,1,0-3.4-3.419A3.4,3.4,0,0,0,1585.442,673.337Z" transform="translate(-17.853 -5.331)" fill="#fff"/>
    </g>
  </g>
</svg>
