<svg xmlns="http://www.w3.org/2000/svg" xmlns:xlink="http://www.w3.org/1999/xlink" width="264" height="264" viewBox="0 0 264 264">
  <defs>
    <linearGradient id="linear-gradient" x1="0.5" x2="0.5" y2="1" gradientUnits="objectBoundingBox">
      <stop offset="0" stop-color="#2338b0"/>
      <stop offset="0.766" stop-color="#4726a6"/>
      <stop offset="1" stop-color="#4c24a5"/>
    </linearGradient>
  </defs>
  <g id="mail" transform="translate(-429.462 -450.462)">
    <circle id="Ellipse_1" data-name="Ellipse 1" cx="132" cy="132" r="132" transform="translate(429.462 450.462)" fill="url(#linear-gradient)"/>
    <g id="Group_1" data-name="Group 1" transform="translate(472.462 508.462)">
      <path id="Path_1" data-name="Path 1" d="M448.5,513.409c1.028-1.9,2.606-2.531,4.762-2.493,6.186.109,12.375.032,18.563.042,2.569,0,4.178,1.317,4.235,3.413.059,2.165-1.6,3.589-4.233,3.593-6.188.01-12.377-.067-18.563.042-2.156.038-3.732-.6-4.764-2.493Z" transform="translate(-448.5 -437.983)" fill="#fff"/>
      <path id="Path_2" data-name="Path 2" d="M448.5,434.655a4.641,4.641,0,0,1,4.751-2.49c3.139.139,6.289.021,9.434.041,2.483.016,4.093,1.469,4.038,3.588-.054,2.058-1.615,3.4-4.038,3.415-3.145.02-6.3-.1-9.434.041a4.64,4.64,0,0,1-4.751-2.49Z" transform="translate(-448.5 -396.048)" fill="#fff"/>
      <path id="Path_3" data-name="Path 3" d="M580.49,367.873c-.049.862-.109,1.413-.109,1.964q-.007,29.274,0,58.548c0,5.035,2.337,8.539,6.545,9.773a11.081,11.081,0,0,0,3.072.4q29.281.034,58.562.014c.451,0,.9-.053,1.729-.1-.615-.654-1.015-1.1-1.436-1.525q-11.513-11.655-23.027-23.308a11.05,11.05,0,0,1-1.28-1.421,3.422,3.422,0,0,1,.446-4.47,3.459,3.459,0,0,1,4.313-.366,10.827,10.827,0,0,1,1.4,1.3q15.2,15.365,30.386,30.737c2.619,2.651,2.632,4.163.047,6.779q-26.767,27.086-53.537,54.167c-2.522,2.551-4.055,2.55-6.574,0q-40.86-41.335-81.716-82.674c-2.513-2.543-2.5-4.082.031-6.648q26.768-27.084,53.539-54.165c2.544-2.574,4.067-2.589,6.571-.057q14.827,14.994,29.645,30a9.146,9.146,0,0,1,1.349,1.586,3.439,3.439,0,0,1-4.933,4.581,12.234,12.234,0,0,1-1.395-1.308q-11.029-11.152-22.052-22.309C581.636,368.927,581.175,368.519,580.49,367.873Zm-50.55,50.1,70.794,71.623V445.585c-.755,0-1.378,0-2,0-3.408-.019-6.821.091-10.221-.086A15.362,15.362,0,0,1,574.026,433.1c-.748-4.143-.428-8.485-.577-12.738-.028-.792,0-1.586,0-2.4ZM573.338,367l-43.251,43.74h43.251Zm34.574,122.7,43.472-43.982H607.912Z" transform="translate(-485.204 -354.928)" fill="#fff"/>
      <path id="Path_4" data-name="Path 4" d="M497.157,600.238c7.938,0,15.876-.034,23.813.041a4.364,4.364,0,0,1,3,.967A5.15,5.15,0,0,1,525,604.672c-.107,1.425-1.335,2.258-2.779,2.522a7.8,7.8,0,0,1-1.4.055q-23.813,0-47.627,0c-.234,0-.467.005-.7,0a3.555,3.555,0,0,1-3.715-3.58,3.509,3.509,0,0,1,3.688-3.416c2.451-.046,4.9-.013,7.354-.014Z" transform="translate(-459.298 -485.537)" fill="#fff"/>
      <path id="Path_5" data-name="Path 5" d="M513.117,552.244c3.089,0,6.178-.018,9.267.006,2.436.019,3.922,1.369,3.922,3.5s-1.486,3.495-3.919,3.5q-9.354.032-18.708,0c-2.357-.008-3.97-1.467-3.973-3.5s1.617-3.481,3.97-3.5C506.823,552.226,509.97,552.244,513.117,552.244Z" transform="translate(-475.765 -459.985)" fill="#fff"/>
      <path id="Path_6" data-name="Path 6" d="M507.283,432.24c2.1,0,4.2-.031,6.294.009a3.466,3.466,0,0,1,3.729,3.525c-.017,2.042-1.5,3.45-3.787,3.467q-6.295.048-12.589,0c-2.316-.016-3.775-1.378-3.8-3.439-.03-2.14,1.449-3.525,3.862-3.558C503.086,432.216,505.185,432.239,507.283,432.24Z" transform="translate(-474.391 -396.086)" fill="#fff"/>
      <path id="Path_7" data-name="Path 7" d="M521.73,514.645a3.458,3.458,0,0,1-3.526,3.366,3.5,3.5,0,1,1,.089-7A3.458,3.458,0,0,1,521.73,514.645Z" transform="translate(-484.063 -438.036)" fill="#fff"/>
      <path id="Path_8" data-name="Path 8" d="M730.845,452.189a3.411,3.411,0,0,1-3.457-3.391,3.51,3.51,0,0,1,3.472-3.592,3.612,3.612,0,0,1,3.5,3.61A3.49,3.49,0,0,1,730.845,452.189Z" transform="translate(-598.285 -402.996)" fill="#fff"/>
    </g>
  </g>
</svg>
