<svg xmlns="http://www.w3.org/2000/svg" width="105" height="105" viewBox="0 0 105 105">
  <g id="easytojoincontest" transform="translate(-883.5 -866.5)">
    <g id="address" transform="translate(883 866)">
      <g id="Group_4" data-name="Group 4" transform="translate(0 0)">
        <circle id="Ellipse_1" data-name="Ellipse 1" cx="52.5" cy="52.5" r="52.5" transform="translate(0.5 0.5)" fill="#f3c500"/>
      </g>
    </g>
    <g id="Group_7" data-name="Group 7" transform="translate(915.53 889.739)">
      <path id="Path_16" data-name="Path 16" d="M1505.308,645.169a29.4,29.4,0,0,1-4.034-1.016,13.953,13.953,0,0,1-8.99-11.037,16.94,16.94,0,0,1-.219-2.813c-.031-2.225,0-4.452-.011-6.682a4.476,4.476,0,0,1,2.385-4.139q4.936-2.871,9.877-5.732a4.351,4.351,0,0,1,5.089.615c.118.112.239.219.458.419v-9.432a4.537,4.537,0,0,1,1.478-3.595,4.229,4.229,0,0,1,4.683-.819,4.326,4.326,0,0,1,2.747,3.956c.017.225.01.453.01.679V626.22c.343-.337.6-.584.855-.842a10.389,10.389,0,0,1,3.468-2.58,8.809,8.809,0,0,1,8.238.615,1.583,1.583,0,0,1,.367,2.479c-.135.157-.285.3-.432.448l-14.408,14.407a14.644,14.644,0,0,1-7.52,4.132c-.588.121-1.185.2-1.779.3Zm6.792-24.089c-1.307-1.6-2.5-3.059-3.692-4.52-1.055-1.3-1.947-1.475-3.392-.637-3.114,1.8-6.217,3.627-9.338,5.418a2.55,2.55,0,0,0-1.407,2.441c.029,2.225-.057,4.454.033,6.675a15.021,15.021,0,0,0,.57,3.948,12.147,12.147,0,0,0,20.249,4.9q7.02-6.984,14.018-13.989c.113-.113.215-.238.341-.381-.126-.063-.207-.111-.291-.147a6.653,6.653,0,0,0-7.308,1.488c-.931.909-1.846,1.838-2.76,2.761a1.034,1.034,0,0,1-1.376.2,2.422,2.422,0,0,1-1.208-2.374q.005-10.638,0-21.276c0-.264,0-.527-.023-.791a2.189,2.189,0,0,0-2.061-1.969,2.216,2.216,0,0,0-2.358,2.374q-.01,7.554,0,15.108Z" transform="translate(-1492.049 -587.251)" fill="#fff" stroke="#fff" stroke-width="1"/>
      <path id="Path_17" data-name="Path 17" d="M1613.79,532.886V524.05h2.164v8.836Z" transform="translate(-1592.606 -524.05)" fill="#fff" stroke="#fff" stroke-width="1"/>
      <path id="Path_18" data-name="Path 18" d="M1543.72,551.315l1.407-1.421,6.185,6.192-1.435,1.383Z" transform="translate(-1534.728 -545.398)" fill="#fff" stroke="#fff" stroke-width="1"/>
      <path id="Path_19" data-name="Path 19" d="M1517.77,622.194v-2.125h8.859v2.125Z" transform="translate(-1513.295 -603.36)" fill="#fff" stroke="#fff" stroke-width="1"/>
      <path id="Path_20" data-name="Path 20" d="M1680.243,620.1v2.135h-8.853V620.1Z" transform="translate(-1640.178 -603.388)" fill="#fff" stroke="#fff" stroke-width="1"/>
      <path id="Path_21" data-name="Path 21" d="M1653.781,557.567l-1.451-1.4,6.215-6.215,1.415,1.438Z" transform="translate(-1624.438 -545.443)" fill="#fff" stroke="#fff" stroke-width="1"/>
    </g>
  </g>
</svg>
