<svg xmlns="http://www.w3.org/2000/svg" width="105" height="105" viewBox="0 0 105 105">
  <g id="highspeed" transform="translate(-1055.535 -865.535)">
    <g id="highspeed-2" data-name="highspeed" transform="translate(1056 866)">
      <g id="address">
        <g id="Group_4" data-name="Group 4" transform="translate(0 0)">
          <circle id="Ellipse_1" data-name="Ellipse 1" cx="52.5" cy="52.5" r="52.5" transform="translate(-0.465 -0.465)" fill="#f3c500"/>
        </g>
      </g>
    </g>
    <g id="Group_10" data-name="Group 10" transform="translate(1084.747 894.735)">
      <path id="Path_22" data-name="Path 22" d="M1578.151,651.95c-.087.708-.163,1.418-.255,2.126a35.959,35.959,0,0,1-4.581,13.225,36.346,36.346,0,0,1-7.01,8.865,1.378,1.378,0,0,0-.462,1.05,25.061,25.061,0,0,1-6.425,15.708c-.267.3-.548.6-.836.88a1.033,1.033,0,0,1-1.145.3,1.057,1.057,0,0,1-.7-.958c-.334-2.419-.686-4.836-1.034-7.253a1.009,1.009,0,0,0-.072-.174c-.322.285-.617.553-.919.813a1.008,1.008,0,0,1-1.568-.04q-6.33-6.32-12.651-12.651a1,1,0,0,1-.025-1.53c.261-.3.531-.6.856-.966-1.015-.148-1.944-.285-2.875-.418q-2.352-.335-4.712-.669a.994.994,0,0,1-.878-.672,1.007,1.007,0,0,1,.3-1.1,25.11,25.11,0,0,1,13.1-6.891,31.991,31.991,0,0,1,3.519-.406,1.569,1.569,0,0,0,1.116-.531,37.941,37.941,0,0,1,18.325-10.8,30.521,30.521,0,0,1,7.57-.995,1.3,1.3,0,0,1,1.357.754Zm-24.1,32.514c.556-.509,1.132-1.051,1.725-1.578,3-2.671,6.064-5.271,8.992-8.014a34.983,34.983,0,0,0,11.294-22.265c.062-.564.062-1.132.1-1.852-1.729.228-3.38.341-4.985.678a34.92,34.92,0,0,0-18.091,9.844c-2.613,2.662-5.016,5.535-7.512,8.316-1.017,1.132-2.028,2.275-3.013,3.381Zm-17.986-15.942a1.421,1.421,0,0,0,.188.064c2.124.308,4.247.622,6.374.908a.733.733,0,0,0,.544-.226c1.7-1.883,3.386-3.78,5.073-5.674.079-.087.146-.189.266-.343a23.448,23.448,0,0,0-12.448,5.276Zm27.64,10.018a1.347,1.347,0,0,0-.158.107c-1.951,1.742-3.908,3.474-5.842,5.232a.871.871,0,0,0-.174.652c.087.835.227,1.664.349,2.494.186,1.283.375,2.567.566,3.882,2.4-2.2,5.328-9.094,5.258-12.363Z" transform="translate(-1530.306 -648.847)" fill="#fff" stroke="#fff" stroke-width="1"/>
      <path id="Path_23" data-name="Path 23" d="M1529.15,720.966c-.734-.413-.882-.743-.635-1.524a75.546,75.546,0,0,1,3.958-10.548,6.454,6.454,0,0,1,3.572-3.492,6.161,6.161,0,0,1,6.577,10.056,9.53,9.53,0,0,1-2.918,1.809,78.326,78.326,0,0,1-9.523,3.511c-.159.051-.311.124-.465.187Zm1.747-2.487c1.376-.48,2.658-.866,3.891-1.369,1.867-.76,3.739-1.526,5.539-2.429a3.9,3.9,0,0,0,1.951-4.279,4.166,4.166,0,0,0-3.412-3.337,4.007,4.007,0,0,0-4.246,2.056,57.652,57.652,0,0,0-3.72,9.357Z" transform="translate(-1528.404 -673.098)" fill="#fff" stroke="#fff" stroke-width="1"/>
      <path id="Path_24" data-name="Path 24" d="M1589.715,669.159a4.985,4.985,0,1,1-5.016-4.965A4.985,4.985,0,0,1,1589.715,669.159Zm-5.007,3a2.962,2.962,0,1,0-2.1-.874,2.98,2.98,0,0,0,2.1.874Z" transform="translate(-1550.573 -655.469)" fill="#fff" stroke="#fff" stroke-width="1"/>
    </g>
  </g>
</svg>
